solid OpenSCAD_Model
  facet normal -1 0 0
    outer loop
      vertex -8 9.9 2.32568
      vertex -8 12 0
      vertex -8 7 0.651368
    endloop
  endfacet
  facet normal -1 0 0
    outer loop
      vertex -8 7 7.34863
      vertex -8 0 8
      vertex -8 12 8
    endloop
  endfacet
  facet normal -1 0 0
    outer loop
      vertex -8 0 0
      vertex -8 0 8
      vertex -8 4.1 2.32568
    endloop
  endfacet
  facet normal -1 0 0
    outer loop
      vertex -8 0 0
      vertex -8 4.1 2.32568
      vertex -8 7 0.651368
    endloop
  endfacet
  facet normal -1 0 0
    outer loop
      vertex -8 0 0
      vertex -8 7 0.651368
      vertex -8 12 0
    endloop
  endfacet
  facet normal -1 0 0
    outer loop
      vertex -8 7 7.34863
      vertex -8 12 8
      vertex -8 9.9 5.67432
    endloop
  endfacet
  facet normal -1 0 0
    outer loop
      vertex -8 12 0
      vertex -8 9.9 2.32568
      vertex -8 12 8
    endloop
  endfacet
  facet normal -1 0 0
    outer loop
      vertex -8 9.9 2.32568
      vertex -8 9.9 5.67432
      vertex -8 12 8
    endloop
  endfacet
  facet normal -1 0 0
    outer loop
      vertex -8 4.1 5.67432
      vertex -8 0 8
      vertex -8 7 7.34863
    endloop
  endfacet
  facet normal -1 0 0
    outer loop
      vertex -8 4.1 2.32568
      vertex -8 0 8
      vertex -8 4.1 5.67432
    endloop
  endfacet
  facet normal -0.992709 -0.120536 0
    outer loop
      vertex -8 0 0
      vertex -7.76753 -1.91452 0
      vertex -8 0 8
    endloop
  endfacet
  facet normal -0.992709 -0.120536 0
    outer loop
      vertex -8 0 8
      vertex -7.76753 -1.91452 0
      vertex -7.76753 -1.91452 8
    endloop
  endfacet
  facet normal 0 0 -1
    outer loop
      vertex -8 0 0
      vertex -8 12 0
      vertex -7.76753 -1.91452 0
    endloop
  endfacet
  facet normal 0 0 -1
    outer loop
      vertex -7.76753 -1.91452 0
      vertex -8 12 0
      vertex -2.5 12 0
    endloop
  endfacet
  facet normal 0 0 -1
    outer loop
      vertex -2.99404 2.65249 0
      vertex -2.5 12 0
      vertex -2.5 2.9935 0
    endloop
  endfacet
  facet normal 0 0 -1
    outer loop
      vertex -7.76753 -1.91452 0
      vertex -2.5 12 0
      vertex -2.99404 2.65249 0
    endloop
  endfacet
  facet normal 0 0 -1
    outer loop
      vertex 2.5 12 0
      vertex 3.54182 1.85889 0
      vertex 2.5 3.03487 0
    endloop
  endfacet
  facet normal 0 0 -1
    outer loop
      vertex -7.76753 -1.91452 0
      vertex -3.88377 0.957263 0
      vertex -3.88377 -0.957263 0
    endloop
  endfacet
  facet normal 0 0 -1
    outer loop
      vertex -3.88377 -0.957263 0
      vertex -2.99404 -2.65249 0
      vertex -7.76753 -1.91452 0
    endloop
  endfacet
  facet normal 0 0 -1
    outer loop
      vertex -2.99404 -2.65249 0
      vertex -1.41842 -3.74006 0
      vertex -7.76753 -1.91452 0
    endloop
  endfacet
  facet normal 0 0 -1
    outer loop
      vertex 3.54182 1.85889 0
      vertex 2.5 12 0
      vertex 4 0 0
    endloop
  endfacet
  facet normal 0 0 -1
    outer loop
      vertex 4 0 0
      vertex 2.5 12 0
      vertex 8 12 0
    endloop
  endfacet
  facet normal 0 0 -1
    outer loop
      vertex 4 0 0
      vertex 8 12 0
      vertex 3.54182 -1.85889 0
    endloop
  endfacet
  facet normal 0 0 -1
    outer loop
      vertex 3.54182 -1.85889 0
      vertex 8 12 0
      vertex 8 0 0
    endloop
  endfacet
  facet normal 0 0 -1
    outer loop
      vertex 3.54182 -1.85889 0
      vertex 8 0 0
      vertex 2.27226 -3.29194 0
    endloop
  endfacet
  facet normal 0 0 -1
    outer loop
      vertex 2.27226 -3.29194 0
      vertex 8 0 0
      vertex 7.76753 -1.91452 0
    endloop
  endfacet
  facet normal 0 0 -1
    outer loop
      vertex 2.27226 -3.29194 0
      vertex 7.76753 -1.91452 0
      vertex 0.482147 -3.97083 0
    endloop
  endfacet
  facet normal 0 0 -1
    outer loop
      vertex 0.482147 -3.97083 0
      vertex 7.76753 -1.91452 0
      vertex 7.08365 -3.71778 0
    endloop
  endfacet
  facet normal 0 0 -1
    outer loop
      vertex 0.482147 -3.97083 0
      vertex 7.08365 -3.71778 0
      vertex 5.98809 -5.30498 0
    endloop
  endfacet
  facet normal 0 0 -1
    outer loop
      vertex 0.482147 -3.97083 0
      vertex 5.98809 -5.30498 0
      vertex -1.41842 -3.74006 0
    endloop
  endfacet
  facet normal 0 0 -1
    outer loop
      vertex -1.41842 -3.74006 0
      vertex 5.98809 -5.30498 0
      vertex 4.54452 -6.58387 0
    endloop
  endfacet
  facet normal 0 0 -1
    outer loop
      vertex -1.41842 -3.74006 0
      vertex 4.54452 -6.58387 0
      vertex -7.76753 -1.91452 0
    endloop
  endfacet
  facet normal 0 0 -1
    outer loop
      vertex -7.76753 -1.91452 0
      vertex 4.54452 -6.58387 0
      vertex 2.83684 -7.48013 0
    endloop
  endfacet
  facet normal 0 0 -1
    outer loop
      vertex -7.76753 -1.91452 0
      vertex 2.83684 -7.48013 0
      vertex 0.964293 -7.94167 0
    endloop
  endfacet
  facet normal 0 0 -1
    outer loop
      vertex -7.76753 -1.91452 0
      vertex 0.964293 -7.94167 0
      vertex -0.964293 -7.94167 0
    endloop
  endfacet
  facet normal 0 0 -1
    outer loop
      vertex -7.76753 -1.91452 0
      vertex -0.964293 -7.94167 0
      vertex -2.83684 -7.48013 0
    endloop
  endfacet
  facet normal 0 0 -1
    outer loop
      vertex -7.76753 -1.91452 0
      vertex -2.83684 -7.48013 0
      vertex -4.54452 -6.58387 0
    endloop
  endfacet
  facet normal 0 0 -1
    outer loop
      vertex -7.76753 -1.91452 0
      vertex -4.54452 -6.58387 0
      vertex -5.98809 -5.30498 0
    endloop
  endfacet
  facet normal 0 0 -1
    outer loop
      vertex -7.76753 -1.91452 0
      vertex -5.98809 -5.30498 0
      vertex -7.08365 -3.71778 0
    endloop
  endfacet
  facet normal 0 0 -1
    outer loop
      vertex -3.88377 0.957263 0
      vertex -7.76753 -1.91452 0
      vertex -2.99404 2.65249 0
    endloop
  endfacet
  facet normal 0 1 0
    outer loop
      vertex -8 12 0
      vertex -8 12 8
      vertex -2.5 12 0
    endloop
  endfacet
  facet normal 0 1 0
    outer loop
      vertex -2.5 12 0
      vertex -8 12 8
      vertex -2.5 12 8
    endloop
  endfacet
  facet normal 0 0 1
    outer loop
      vertex -8 12 8
      vertex -8 0 8
      vertex -7.76753 -1.91452 8
    endloop
  endfacet
  facet normal 0 0 1
    outer loop
      vertex -5.98809 -5.30498 8
      vertex -8 12 8
      vertex -7.08365 -3.71778 8
    endloop
  endfacet
  facet normal 0 0 1
    outer loop
      vertex -7.08365 -3.71778 8
      vertex -8 12 8
      vertex -7.76753 -1.91452 8
    endloop
  endfacet
  facet normal 0 0 1
    outer loop
      vertex -4.54452 -6.58387 8
      vertex -8 12 8
      vertex -5.98809 -5.30498 8
    endloop
  endfacet
  facet normal 0 0 1
    outer loop
      vertex -2.83684 -7.48013 8
      vertex -8 12 8
      vertex -4.54452 -6.58387 8
    endloop
  endfacet
  facet normal 0 0 1
    outer loop
      vertex -3.88377 -0.957263 8
      vertex -8 12 8
      vertex -2.83684 -7.48013 8
    endloop
  endfacet
  facet normal 0 0 1
    outer loop
      vertex -3.88377 -0.957263 8
      vertex -3.88377 0.957263 8
      vertex -8 12 8
    endloop
  endfacet
  facet normal 0 0 1
    outer loop
      vertex -1.41842 -3.74006 8
      vertex -2.99404 -2.65249 8
      vertex -0.964293 -7.94167 8
    endloop
  endfacet
  facet normal 0 0 1
    outer loop
      vertex 3.54182 -1.85889 8
      vertex 4.54452 -6.58387 8
      vertex 5.98809 -5.30498 8
    endloop
  endfacet
  facet normal 0 0 1
    outer loop
      vertex 4 0 8
      vertex 3.54182 -1.85889 8
      vertex 7.08365 -3.71778 8
    endloop
  endfacet
  facet normal 0 0 1
    outer loop
      vertex 3.54182 1.85889 8
      vertex 4 0 8
      vertex 7.76753 -1.91452 8
    endloop
  endfacet
  facet normal 0 0 1
    outer loop
      vertex 8 12 8
      vertex 2.5 12 8
      vertex 8 0 8
    endloop
  endfacet
  facet normal 0 0 1
    outer loop
      vertex 8 0 8
      vertex 2.5 3.03487 8
      vertex 7.76753 -1.91452 8
    endloop
  endfacet
  facet normal 0 0 1
    outer loop
      vertex 2.5 3.03487 8
      vertex 3.54182 1.85889 8
      vertex 7.76753 -1.91452 8
    endloop
  endfacet
  facet normal 0 0 1
    outer loop
      vertex 7.76753 -1.91452 8
      vertex 4 0 8
      vertex 7.08365 -3.71778 8
    endloop
  endfacet
  facet normal 0 0 1
    outer loop
      vertex 7.08365 -3.71778 8
      vertex 3.54182 -1.85889 8
      vertex 5.98809 -5.30498 8
    endloop
  endfacet
  facet normal 0 0 1
    outer loop
      vertex 4.54452 -6.58387 8
      vertex 2.27226 -3.29194 8
      vertex 2.83684 -7.48013 8
    endloop
  endfacet
  facet normal 0 0 1
    outer loop
      vertex -2.99404 2.65249 8
      vertex -2.5 2.9935 8
      vertex -8 12 8
    endloop
  endfacet
  facet normal 0 0 1
    outer loop
      vertex 2.83684 -7.48013 8
      vertex 0.482147 -3.97083 8
      vertex 0.964293 -7.94167 8
    endloop
  endfacet
  facet normal 0 0 1
    outer loop
      vertex 0.964293 -7.94167 8
      vertex -1.41842 -3.74006 8
      vertex -0.964293 -7.94167 8
    endloop
  endfacet
  facet normal 0 0 1
    outer loop
      vertex -0.964293 -7.94167 8
      vertex -2.99404 -2.65249 8
      vertex -2.83684 -7.48013 8
    endloop
  endfacet
  facet normal 0 0 1
    outer loop
      vertex -2.99404 -2.65249 8
      vertex -3.88377 -0.957263 8
      vertex -2.83684 -7.48013 8
    endloop
  endfacet
  facet normal 0 0 1
    outer loop
      vertex -3.88377 0.957263 8
      vertex -2.99404 2.65249 8
      vertex -8 12 8
    endloop
  endfacet
  facet normal 0 0 1
    outer loop
      vertex 0.482147 -3.97083 8
      vertex -1.41842 -3.74006 8
      vertex 0.964293 -7.94167 8
    endloop
  endfacet
  facet normal 0 0 1
    outer loop
      vertex 3.54182 -1.85889 8
      vertex 2.27226 -3.29194 8
      vertex 4.54452 -6.58387 8
    endloop
  endfacet
  facet normal 0 0 1
    outer loop
      vertex 2.5 12 8
      vertex 2.5 3.03487 8
      vertex 8 0 8
    endloop
  endfacet
  facet normal 0 0 1
    outer loop
      vertex 2.27226 -3.29194 8
      vertex 0.482147 -3.97083 8
      vertex 2.83684 -7.48013 8
    endloop
  endfacet
  facet normal 0 0 1
    outer loop
      vertex -2.5 2.9935 8
      vertex -2.5 12 8
      vertex -8 12 8
    endloop
  endfacet
  facet normal 1.92296e-16 0.5 -0.866025
    outer loop
      vertex -6.01 7 7.34863
      vertex -6.01 4.1 5.67432
      vertex -8 7 7.34863
    endloop
  endfacet
  facet normal 1.92296e-16 0.5 -0.866025
    outer loop
      vertex -8 7 7.34863
      vertex -6.01 4.1 5.67432
      vertex -8 4.1 5.67432
    endloop
  endfacet
  facet normal 0 1 0
    outer loop
      vertex -6.01 4.1 5.67432
      vertex -6.01 4.1 2.32568
      vertex -8 4.1 5.67432
    endloop
  endfacet
  facet normal 0 1 0
    outer loop
      vertex -8 4.1 5.67432
      vertex -6.01 4.1 2.32568
      vertex -8 4.1 2.32568
    endloop
  endfacet
  facet normal 1.92296e-16 -0.5 -0.866025
    outer loop
      vertex -6.01 9.9 5.67432
      vertex -6.01 7 7.34863
      vertex -8 9.9 5.67432
    endloop
  endfacet
  facet normal 1.92296e-16 -0.5 -0.866025
    outer loop
      vertex -8 9.9 5.67432
      vertex -6.01 7 7.34863
      vertex -8 7 7.34863
    endloop
  endfacet
  facet normal 0 -1 0
    outer loop
      vertex -6.01 9.9 2.32568
      vertex -6.01 9.9 5.67432
      vertex -8 9.9 5.67432
    endloop
  endfacet
  facet normal 0 -1 0
    outer loop
      vertex -8 9.9 2.32568
      vertex -6.01 9.9 2.32568
      vertex -8 9.9 5.67432
    endloop
  endfacet
  facet normal -1.92296e-16 -0.5 0.866025
    outer loop
      vertex -6.01 7 0.651368
      vertex -6.01 9.9 2.32568
      vertex -8 9.9 2.32568
    endloop
  endfacet
  facet normal -1.92296e-16 -0.5 0.866025
    outer loop
      vertex -8 7 0.651368
      vertex -6.01 7 0.651368
      vertex -8 9.9 2.32568
    endloop
  endfacet
  facet normal -1.92296e-16 0.5 0.866025
    outer loop
      vertex -6.01 4.1 2.32568
      vertex -6.01 7 0.651368
      vertex -8 7 0.651368
    endloop
  endfacet
  facet normal -1.92296e-16 0.5 0.866025
    outer loop
      vertex -8 4.1 2.32568
      vertex -6.01 4.1 2.32568
      vertex -8 7 0.651368
    endloop
  endfacet
  facet normal -0.935016 -0.354605 0
    outer loop
      vertex -7.76753 -1.91452 0
      vertex -7.08365 -3.71778 0
      vertex -7.76753 -1.91452 8
    endloop
  endfacet
  facet normal -0.935016 -0.354605 0
    outer loop
      vertex -7.76753 -1.91452 8
      vertex -7.08365 -3.71778 0
      vertex -7.08365 -3.71778 8
    endloop
  endfacet
  facet normal -0.822984 -0.568065 0
    outer loop
      vertex -7.08365 -3.71778 0
      vertex -5.98809 -5.30498 0
      vertex -7.08365 -3.71778 8
    endloop
  endfacet
  facet normal -0.822984 -0.568065 0
    outer loop
      vertex -7.08365 -3.71778 8
      vertex -5.98809 -5.30498 0
      vertex -5.98809 -5.30498 8
    endloop
  endfacet
  facet normal -0.663123 -0.748511 0
    outer loop
      vertex -5.98809 -5.30498 8
      vertex -5.98809 -5.30498 0
      vertex -4.54452 -6.58387 0
    endloop
  endfacet
  facet normal -0.663123 -0.748511 0
    outer loop
      vertex -4.54452 -6.58387 8
      vertex -5.98809 -5.30498 8
      vertex -4.54452 -6.58387 0
    endloop
  endfacet
  facet normal -0.464723 -0.885456 0
    outer loop
      vertex -4.54452 -6.58387 8
      vertex -4.54452 -6.58387 0
      vertex -2.83684 -7.48013 0
    endloop
  endfacet
  facet normal -0.464723 -0.885456 0
    outer loop
      vertex -2.83684 -7.48013 8
      vertex -4.54452 -6.58387 8
      vertex -2.83684 -7.48013 0
    endloop
  endfacet
  facet normal -0.239316 -0.970942 0
    outer loop
      vertex -2.83684 -7.48013 8
      vertex -2.83684 -7.48013 0
      vertex -0.964293 -7.94167 0
    endloop
  endfacet
  facet normal -0.239316 -0.970942 0
    outer loop
      vertex -0.964293 -7.94167 8
      vertex -2.83684 -7.48013 8
      vertex -0.964293 -7.94167 0
    endloop
  endfacet
  facet normal 0 -1 0
    outer loop
      vertex -0.964293 -7.94167 8
      vertex -0.964293 -7.94167 0
      vertex 0.964293 -7.94167 0
    endloop
  endfacet
  facet normal 0 -1 0
    outer loop
      vertex 0.964293 -7.94167 8
      vertex -0.964293 -7.94167 8
      vertex 0.964293 -7.94167 0
    endloop
  endfacet
  facet normal 0.239316 -0.970942 0
    outer loop
      vertex 0.964293 -7.94167 8
      vertex 0.964293 -7.94167 0
      vertex 2.83684 -7.48013 0
    endloop
  endfacet
  facet normal 0.239316 -0.970942 0
    outer loop
      vertex 2.83684 -7.48013 8
      vertex 0.964293 -7.94167 8
      vertex 2.83684 -7.48013 0
    endloop
  endfacet
  facet normal 0.464723 -0.885456 0
    outer loop
      vertex 2.83684 -7.48013 8
      vertex 2.83684 -7.48013 0
      vertex 4.54452 -6.58387 0
    endloop
  endfacet
  facet normal 0.464723 -0.885456 0
    outer loop
      vertex 4.54452 -6.58387 8
      vertex 2.83684 -7.48013 8
      vertex 4.54452 -6.58387 0
    endloop
  endfacet
  facet normal 0.663123 -0.748511 0
    outer loop
      vertex 4.54452 -6.58387 8
      vertex 4.54452 -6.58387 0
      vertex 5.98809 -5.30498 0
    endloop
  endfacet
  facet normal 0.663123 -0.748511 0
    outer loop
      vertex 5.98809 -5.30498 8
      vertex 4.54452 -6.58387 8
      vertex 5.98809 -5.30498 0
    endloop
  endfacet
  facet normal 0.822984 -0.568065 0
    outer loop
      vertex 5.98809 -5.30498 8
      vertex 5.98809 -5.30498 0
      vertex 7.08365 -3.71778 0
    endloop
  endfacet
  facet normal 0.822984 -0.568065 0
    outer loop
      vertex 7.08365 -3.71778 8
      vertex 5.98809 -5.30498 8
      vertex 7.08365 -3.71778 0
    endloop
  endfacet
  facet normal 0.935016 -0.354605 0
    outer loop
      vertex 7.08365 -3.71778 8
      vertex 7.08365 -3.71778 0
      vertex 7.76753 -1.91452 0
    endloop
  endfacet
  facet normal 0.935016 -0.354605 0
    outer loop
      vertex 7.76753 -1.91452 8
      vertex 7.08365 -3.71778 8
      vertex 7.76753 -1.91452 0
    endloop
  endfacet
  facet normal 0.992709 -0.120536 0
    outer loop
      vertex 7.76753 -1.91452 8
      vertex 7.76753 -1.91452 0
      vertex 8 0 0
    endloop
  endfacet
  facet normal 0.992709 -0.120536 0
    outer loop
      vertex 8 0 8
      vertex 7.76753 -1.91452 8
      vertex 8 0 0
    endloop
  endfacet
  facet normal 1 0 0
    outer loop
      vertex 8 7.31214 2.43074
      vertex 8 0 0
      vertex 8 12 0
    endloop
  endfacet
  facet normal 1 0 0
    outer loop
      vertex 8 0 8
      vertex 8 0 0
      vertex 8 5.43074 3.68786
    endloop
  endfacet
  facet normal 1 0 0
    outer loop
      vertex 8 7.61229 2.52179
      vertex 8 7.31214 2.43074
      vertex 8 12 0
    endloop
  endfacet
  facet normal 1 0 0
    outer loop
      vertex 8 0 8
      vertex 8 5.43074 3.68786
      vertex 8 5.4 4
    endloop
  endfacet
  facet normal 1 0 0
    outer loop
      vertex 8 6.38771 5.47821
      vertex 8 6.68785 5.56926
      vertex 8 12 8
    endloop
  endfacet
  facet normal 1 0 0
    outer loop
      vertex 8 0 8
      vertex 8 5.4 4
      vertex 8 5.43074 4.31215
    endloop
  endfacet
  facet normal 1 0 0
    outer loop
      vertex 8 5.66965 4.88891
      vertex 8 0 8
      vertex 8 5.52179 4.61229
    endloop
  endfacet
  facet normal 1 0 0
    outer loop
      vertex 8 5.86863 5.13137
      vertex 8 0 8
      vertex 8 5.66965 4.88891
    endloop
  endfacet
  facet normal 1 0 0
    outer loop
      vertex 8 6.11109 5.33035
      vertex 8 0 8
      vertex 8 5.86863 5.13137
    endloop
  endfacet
  facet normal 1 0 0
    outer loop
      vertex 8 6.38771 5.47821
      vertex 8 0 8
      vertex 8 6.11109 5.33035
    endloop
  endfacet
  facet normal 1 0 0
    outer loop
      vertex 8 6.68785 5.56926
      vertex 8 7 5.6
      vertex 8 12 8
    endloop
  endfacet
  facet normal 1 0 0
    outer loop
      vertex 8 12 8
      vertex 8 0 8
      vertex 8 6.38771 5.47821
    endloop
  endfacet
  facet normal 1 0 0
    outer loop
      vertex 8 7 5.6
      vertex 8 7.31214 5.56926
      vertex 8 12 8
    endloop
  endfacet
  facet normal 1 0 0
    outer loop
      vertex 8 7.31214 5.56926
      vertex 8 7.61229 5.47821
      vertex 8 12 8
    endloop
  endfacet
  facet normal 1 0 0
    outer loop
      vertex 8 8.33035 4.88891
      vertex 8 8.47821 4.61229
      vertex 8 12 0
    endloop
  endfacet
  facet normal 1 0 0
    outer loop
      vertex 8 8.56926 4.31215
      vertex 8 8.6 4
      vertex 8 12 0
    endloop
  endfacet
  facet normal 1 0 0
    outer loop
      vertex 8 12 8
      vertex 8 7.61229 5.47821
      vertex 8 7.88891 5.33035
    endloop
  endfacet
  facet normal 1 0 0
    outer loop
      vertex 8 8.47821 4.61229
      vertex 8 8.56926 4.31215
      vertex 8 12 0
    endloop
  endfacet
  facet normal 1 0 0
    outer loop
      vertex 8 12 8
      vertex 8 7.88891 5.33035
      vertex 8 8.13137 5.13137
    endloop
  endfacet
  facet normal 1 0 0
    outer loop
      vertex 8 12 8
      vertex 8 8.33035 4.88891
      vertex 8 12 0
    endloop
  endfacet
  facet normal 1 0 0
    outer loop
      vertex 8 12 8
      vertex 8 8.13137 5.13137
      vertex 8 8.33035 4.88891
    endloop
  endfacet
  facet normal 1 0 0
    outer loop
      vertex 8 8.6 4
      vertex 8 8.56926 3.68786
      vertex 8 12 0
    endloop
  endfacet
  facet normal 1 0 0
    outer loop
      vertex 8 8.56926 3.68786
      vertex 8 8.47821 3.38771
      vertex 8 12 0
    endloop
  endfacet
  facet normal 1 0 0
    outer loop
      vertex 8 8.47821 3.38771
      vertex 8 8.33035 3.11109
      vertex 8 12 0
    endloop
  endfacet
  facet normal 1 0 0
    outer loop
      vertex 8 8.33035 3.11109
      vertex 8 8.13137 2.86863
      vertex 8 12 0
    endloop
  endfacet
  facet normal 1 0 0
    outer loop
      vertex 8 7 2.4
      vertex 8 0 0
      vertex 8 7.31214 2.43074
    endloop
  endfacet
  facet normal 1 0 0
    outer loop
      vertex 8 6.68785 2.43074
      vertex 8 0 0
      vertex 8 7 2.4
    endloop
  endfacet
  facet normal 1 0 0
    outer loop
      vertex 8 6.38771 2.52179
      vertex 8 0 0
      vertex 8 6.68785 2.43074
    endloop
  endfacet
  facet normal 1 0 0
    outer loop
      vertex 8 6.11109 2.66965
      vertex 8 0 0
      vertex 8 6.38771 2.52179
    endloop
  endfacet
  facet normal 1 0 0
    outer loop
      vertex 8 5.86863 2.86863
      vertex 8 0 0
      vertex 8 6.11109 2.66965
    endloop
  endfacet
  facet normal 1 0 0
    outer loop
      vertex 8 5.66965 3.11109
      vertex 8 0 0
      vertex 8 5.86863 2.86863
    endloop
  endfacet
  facet normal 1 0 0
    outer loop
      vertex 8 5.52179 3.38771
      vertex 8 0 0
      vertex 8 5.66965 3.11109
    endloop
  endfacet
  facet normal 1 0 0
    outer loop
      vertex 8 5.43074 3.68786
      vertex 8 0 0
      vertex 8 5.52179 3.38771
    endloop
  endfacet
  facet normal 1 0 0
    outer loop
      vertex 8 7.88891 2.66965
      vertex 8 7.61229 2.52179
      vertex 8 12 0
    endloop
  endfacet
  facet normal 1 0 0
    outer loop
      vertex 8 5.43074 4.31215
      vertex 8 5.52179 4.61229
      vertex 8 0 8
    endloop
  endfacet
  facet normal 1 0 0
    outer loop
      vertex 8 8.13137 2.86863
      vertex 8 7.88891 2.66965
      vertex 8 12 0
    endloop
  endfacet
  facet normal 0 1 0
    outer loop
      vertex 2.5 12 0
      vertex 2.5 12 8
      vertex 8 12 0
    endloop
  endfacet
  facet normal 0 1 0
    outer loop
      vertex 8 12 0
      vertex 2.5 12 8
      vertex 8 12 8
    endloop
  endfacet
  facet normal -1 0 0
    outer loop
      vertex 2.5 6.38771 2.52179
      vertex 2.5 12 0
      vertex 2.5 3.03487 0
    endloop
  endfacet
  facet normal -1 0 0
    outer loop
      vertex 2.5 8.47821 3.38771
      vertex 2.5 12 0
      vertex 2.5 8.33035 3.11109
    endloop
  endfacet
  facet normal -1 0 0
    outer loop
      vertex 2.5 3.03487 8
      vertex 2.5 5.43074 3.68786
      vertex 2.5 3.03487 0
    endloop
  endfacet
  facet normal -1 0 0
    outer loop
      vertex 2.5 5.43074 3.68786
      vertex 2.5 5.52179 3.38771
      vertex 2.5 3.03487 0
    endloop
  endfacet
  facet normal -1 0 0
    outer loop
      vertex 2.5 7.61229 2.52179
      vertex 2.5 12 0
      vertex 2.5 7.31214 2.43074
    endloop
  endfacet
  facet normal -1 0 0
    outer loop
      vertex 2.5 5.52179 3.38771
      vertex 2.5 5.66965 3.11109
      vertex 2.5 3.03487 0
    endloop
  endfacet
  facet normal -1 0 0
    outer loop
      vertex 2.5 7.31214 2.43074
      vertex 2.5 12 0
      vertex 2.5 7 2.4
    endloop
  endfacet
  facet normal -1 0 0
    outer loop
      vertex 2.5 5.66965 3.11109
      vertex 2.5 5.86863 2.86863
      vertex 2.5 3.03487 0
    endloop
  endfacet
  facet normal -1 0 0
    outer loop
      vertex 2.5 7 2.4
      vertex 2.5 12 0
      vertex 2.5 6.68785 2.43074
    endloop
  endfacet
  facet normal -1 0 0
    outer loop
      vertex 2.5 5.86863 2.86863
      vertex 2.5 6.11109 2.66965
      vertex 2.5 3.03487 0
    endloop
  endfacet
  facet normal -1 0 0
    outer loop
      vertex 2.5 6.11109 2.66965
      vertex 2.5 6.38771 2.52179
      vertex 2.5 3.03487 0
    endloop
  endfacet
  facet normal -1 0 0
    outer loop
      vertex 2.5 7.88891 2.66965
      vertex 2.5 12 0
      vertex 2.5 7.61229 2.52179
    endloop
  endfacet
  facet normal -1 0 0
    outer loop
      vertex 2.5 8.13137 2.86863
      vertex 2.5 12 0
      vertex 2.5 7.88891 2.66965
    endloop
  endfacet
  facet normal -1 0 0
    outer loop
      vertex 2.5 8.33035 3.11109
      vertex 2.5 12 0
      vertex 2.5 8.13137 2.86863
    endloop
  endfacet
  facet normal -1 0 0
    outer loop
      vertex 2.5 12 8
      vertex 2.5 12 0
      vertex 2.5 8.47821 3.38771
    endloop
  endfacet
  facet normal -1 0 0
    outer loop
      vertex 2.5 12 8
      vertex 2.5 8.47821 3.38771
      vertex 2.5 8.56926 3.68786
    endloop
  endfacet
  facet normal -1 0 0
    outer loop
      vertex 2.5 12 8
      vertex 2.5 8.56926 3.68786
      vertex 2.5 8.6 4
    endloop
  endfacet
  facet normal -1 0 0
    outer loop
      vertex 2.5 12 8
      vertex 2.5 8.6 4
      vertex 2.5 8.56926 4.31215
    endloop
  endfacet
  facet normal -1 0 0
    outer loop
      vertex 2.5 12 8
      vertex 2.5 8.56926 4.31215
      vertex 2.5 8.47821 4.61229
    endloop
  endfacet
  facet normal -1 0 0
    outer loop
      vertex 2.5 12 8
      vertex 2.5 8.47821 4.61229
      vertex 2.5 8.33035 4.88891
    endloop
  endfacet
  facet normal -1 0 0
    outer loop
      vertex 2.5 12 8
      vertex 2.5 8.33035 4.88891
      vertex 2.5 8.13137 5.13137
    endloop
  endfacet
  facet normal -1 0 0
    outer loop
      vertex 2.5 12 8
      vertex 2.5 8.13137 5.13137
      vertex 2.5 7.88891 5.33035
    endloop
  endfacet
  facet normal -1 0 0
    outer loop
      vertex 2.5 12 8
      vertex 2.5 7.88891 5.33035
      vertex 2.5 3.03487 8
    endloop
  endfacet
  facet normal -1 0 0
    outer loop
      vertex 2.5 7.88891 5.33035
      vertex 2.5 7.61229 5.47821
      vertex 2.5 3.03487 8
    endloop
  endfacet
  facet normal -1 0 0
    outer loop
      vertex 2.5 7 5.6
      vertex 2.5 3.03487 8
      vertex 2.5 7.31214 5.56926
    endloop
  endfacet
  facet normal -1 0 0
    outer loop
      vertex 2.5 6.68785 5.56926
      vertex 2.5 3.03487 8
      vertex 2.5 7 5.6
    endloop
  endfacet
  facet normal -1 0 0
    outer loop
      vertex 2.5 6.38771 5.47821
      vertex 2.5 3.03487 8
      vertex 2.5 6.68785 5.56926
    endloop
  endfacet
  facet normal -1 0 0
    outer loop
      vertex 2.5 6.11109 5.33035
      vertex 2.5 3.03487 8
      vertex 2.5 6.38771 5.47821
    endloop
  endfacet
  facet normal -1 0 0
    outer loop
      vertex 2.5 7.31214 5.56926
      vertex 2.5 3.03487 8
      vertex 2.5 7.61229 5.47821
    endloop
  endfacet
  facet normal -1 0 0
    outer loop
      vertex 2.5 5.86863 5.13137
      vertex 2.5 3.03487 8
      vertex 2.5 6.11109 5.33035
    endloop
  endfacet
  facet normal -1 0 0
    outer loop
      vertex 2.5 5.66965 4.88891
      vertex 2.5 3.03487 8
      vertex 2.5 5.86863 5.13137
    endloop
  endfacet
  facet normal -1 0 0
    outer loop
      vertex 2.5 5.52179 4.61229
      vertex 2.5 3.03487 8
      vertex 2.5 5.66965 4.88891
    endloop
  endfacet
  facet normal -1 0 0
    outer loop
      vertex 2.5 3.03487 8
      vertex 2.5 5.52179 4.61229
      vertex 2.5 5.43074 4.31215
    endloop
  endfacet
  facet normal -1 0 0
    outer loop
      vertex 2.5 3.03487 8
      vertex 2.5 5.43074 4.31215
      vertex 2.5 5.4 4
    endloop
  endfacet
  facet normal -1 0 0
    outer loop
      vertex 2.5 3.03487 8
      vertex 2.5 5.4 4
      vertex 2.5 5.43074 3.68786
    endloop
  endfacet
  facet normal -1 0 0
    outer loop
      vertex 2.5 6.68785 2.43074
      vertex 2.5 12 0
      vertex 2.5 6.38771 2.52179
    endloop
  endfacet
  facet normal -0.748511 -0.663123 0
    outer loop
      vertex 3.54182 1.85889 8
      vertex 2.5 3.03487 8
      vertex 3.54182 1.85889 0
    endloop
  endfacet
  facet normal -0.748511 -0.663123 0
    outer loop
      vertex 3.54182 1.85889 0
      vertex 2.5 3.03487 8
      vertex 2.5 3.03487 0
    endloop
  endfacet
  facet normal -0.970942 -0.239316 0
    outer loop
      vertex 4 0 8
      vertex 3.54182 1.85889 8
      vertex 4 0 0
    endloop
  endfacet
  facet normal -0.970942 -0.239316 0
    outer loop
      vertex 4 0 0
      vertex 3.54182 1.85889 8
      vertex 3.54182 1.85889 0
    endloop
  endfacet
  facet normal -0.970942 0.239316 0
    outer loop
      vertex 4 0 8
      vertex 4 0 0
      vertex 3.54182 -1.85889 8
    endloop
  endfacet
  facet normal -0.970942 0.239316 0
    outer loop
      vertex 3.54182 -1.85889 8
      vertex 4 0 0
      vertex 3.54182 -1.85889 0
    endloop
  endfacet
  facet normal -0.748511 0.663123 0
    outer loop
      vertex 3.54182 -1.85889 8
      vertex 3.54182 -1.85889 0
      vertex 2.27226 -3.29194 8
    endloop
  endfacet
  facet normal -0.748511 0.663123 0
    outer loop
      vertex 2.27226 -3.29194 8
      vertex 3.54182 -1.85889 0
      vertex 2.27226 -3.29194 0
    endloop
  endfacet
  facet normal -0.354605 0.935016 0
    outer loop
      vertex 2.27226 -3.29194 8
      vertex 2.27226 -3.29194 0
      vertex 0.482147 -3.97083 8
    endloop
  endfacet
  facet normal -0.354605 0.935016 0
    outer loop
      vertex 0.482147 -3.97083 8
      vertex 2.27226 -3.29194 0
      vertex 0.482147 -3.97083 0
    endloop
  endfacet
  facet normal 0.120536 0.992709 0
    outer loop
      vertex 0.482147 -3.97083 8
      vertex 0.482147 -3.97083 0
      vertex -1.41842 -3.74006 8
    endloop
  endfacet
  facet normal 0.120536 0.992709 0
    outer loop
      vertex -1.41842 -3.74006 8
      vertex 0.482147 -3.97083 0
      vertex -1.41842 -3.74006 0
    endloop
  endfacet
  facet normal 0.568065 0.822984 0
    outer loop
      vertex -1.41842 -3.74006 8
      vertex -1.41842 -3.74006 0
      vertex -2.99404 -2.65249 8
    endloop
  endfacet
  facet normal 0.568065 0.822984 0
    outer loop
      vertex -2.99404 -2.65249 8
      vertex -1.41842 -3.74006 0
      vertex -2.99404 -2.65249 0
    endloop
  endfacet
  facet normal 0.885456 0.464723 0
    outer loop
      vertex -3.88377 -0.957263 8
      vertex -2.99404 -2.65249 8
      vertex -2.99404 -2.65249 0
    endloop
  endfacet
  facet normal 0.885456 0.464723 0
    outer loop
      vertex -3.88377 -0.957263 0
      vertex -3.88377 -0.957263 8
      vertex -2.99404 -2.65249 0
    endloop
  endfacet
  facet normal 1 0 0
    outer loop
      vertex -3.88377 0.957263 0
      vertex -3.88377 0.957263 8
      vertex -3.88377 -0.957263 8
    endloop
  endfacet
  facet normal 1 0 0
    outer loop
      vertex -3.88377 -0.957263 0
      vertex -3.88377 0.957263 0
      vertex -3.88377 -0.957263 8
    endloop
  endfacet
  facet normal 0.885456 -0.464723 0
    outer loop
      vertex -2.99404 2.65249 0
      vertex -2.99404 2.65249 8
      vertex -3.88377 0.957263 8
    endloop
  endfacet
  facet normal 0.885456 -0.464723 0
    outer loop
      vertex -3.88377 0.957263 0
      vertex -2.99404 2.65249 0
      vertex -3.88377 0.957263 8
    endloop
  endfacet
  facet normal 0.568065 -0.822984 0
    outer loop
      vertex -2.5 2.9935 0
      vertex -2.5 2.9935 8
      vertex -2.99404 2.65249 8
    endloop
  endfacet
  facet normal 0.568065 -0.822984 0
    outer loop
      vertex -2.99404 2.65249 0
      vertex -2.5 2.9935 0
      vertex -2.99404 2.65249 8
    endloop
  endfacet
  facet normal 1 0 0
    outer loop
      vertex -2.5 6.38771 5.47821
      vertex -2.5 12 8
      vertex -2.5 2.9935 8
    endloop
  endfacet
  facet normal 1 0 0
    outer loop
      vertex -2.5 6.38771 5.47821
      vertex -2.5 6.68785 5.56926
      vertex -2.5 12 8
    endloop
  endfacet
  facet normal 1 0 0
    outer loop
      vertex -2.5 2.9935 0
      vertex -2.5 5.4 4
      vertex -2.5 2.9935 8
    endloop
  endfacet
  facet normal 1 0 0
    outer loop
      vertex -2.5 5.4 4
      vertex -2.5 5.43074 4.31214
      vertex -2.5 2.9935 8
    endloop
  endfacet
  facet normal 1 0 0
    outer loop
      vertex -2.5 5.43074 4.31214
      vertex -2.5 5.52179 4.61229
      vertex -2.5 2.9935 8
    endloop
  endfacet
  facet normal 1 0 0
    outer loop
      vertex -2.5 7.88891 2.66965
      vertex -2.5 7.61229 2.52179
      vertex -2.5 12 0
    endloop
  endfacet
  facet normal 1 0 0
    outer loop
      vertex -2.5 5.52179 4.61229
      vertex -2.5 5.66965 4.88891
      vertex -2.5 2.9935 8
    endloop
  endfacet
  facet normal 1 0 0
    outer loop
      vertex -2.5 5.66965 4.88891
      vertex -2.5 5.86863 5.13137
      vertex -2.5 2.9935 8
    endloop
  endfacet
  facet normal 1 0 0
    outer loop
      vertex -2.5 6.11109 5.33035
      vertex -2.5 6.38771 5.47821
      vertex -2.5 2.9935 8
    endloop
  endfacet
  facet normal 1 0 0
    outer loop
      vertex -2.5 8.33035 4.88891
      vertex -2.5 8.47821 4.61229
      vertex -2.5 12 0
    endloop
  endfacet
  facet normal 1 0 0
    outer loop
      vertex -2.5 7 5.6
      vertex -2.5 12 8
      vertex -2.5 6.68785 5.56926
    endloop
  endfacet
  facet normal 1 0 0
    outer loop
      vertex -2.5 7.31214 5.56926
      vertex -2.5 12 8
      vertex -2.5 7 5.6
    endloop
  endfacet
  facet normal 1 0 0
    outer loop
      vertex -2.5 7.61229 5.47821
      vertex -2.5 12 8
      vertex -2.5 7.31214 5.56926
    endloop
  endfacet
  facet normal 1 0 0
    outer loop
      vertex -2.5 8.6 4
      vertex -2.5 8.56926 3.68785
      vertex -2.5 12 0
    endloop
  endfacet
  facet normal 1 0 0
    outer loop
      vertex -2.5 7.88891 5.33035
      vertex -2.5 12 8
      vertex -2.5 7.61229 5.47821
    endloop
  endfacet
  facet normal 1 0 0
    outer loop
      vertex -2.5 8.13137 5.13137
      vertex -2.5 12 8
      vertex -2.5 7.88891 5.33035
    endloop
  endfacet
  facet normal 1 0 0
    outer loop
      vertex -2.5 8.33035 4.88891
      vertex -2.5 12 8
      vertex -2.5 8.13137 5.13137
    endloop
  endfacet
  facet normal 1 0 0
    outer loop
      vertex -2.5 8.47821 4.61229
      vertex -2.5 8.56926 4.31214
      vertex -2.5 12 0
    endloop
  endfacet
  facet normal 1 0 0
    outer loop
      vertex -2.5 12 0
      vertex -2.5 12 8
      vertex -2.5 8.33035 4.88891
    endloop
  endfacet
  facet normal 1 0 0
    outer loop
      vertex -2.5 8.33035 3.11109
      vertex -2.5 8.13137 2.86863
      vertex -2.5 12 0
    endloop
  endfacet
  facet normal 1 0 0
    outer loop
      vertex -2.5 8.56926 3.68785
      vertex -2.5 8.47821 3.38771
      vertex -2.5 12 0
    endloop
  endfacet
  facet normal 1 0 0
    outer loop
      vertex -2.5 8.47821 3.38771
      vertex -2.5 8.33035 3.11109
      vertex -2.5 12 0
    endloop
  endfacet
  facet normal 1 0 0
    outer loop
      vertex -2.5 8.56926 4.31214
      vertex -2.5 8.6 4
      vertex -2.5 12 0
    endloop
  endfacet
  facet normal 1 0 0
    outer loop
      vertex -2.5 8.13137 2.86863
      vertex -2.5 7.88891 2.66965
      vertex -2.5 12 0
    endloop
  endfacet
  facet normal 1 0 0
    outer loop
      vertex -2.5 2.9935 0
      vertex -2.5 12 0
      vertex -2.5 7.61229 2.52179
    endloop
  endfacet
  facet normal 1 0 0
    outer loop
      vertex -2.5 2.9935 0
      vertex -2.5 7.61229 2.52179
      vertex -2.5 7.31214 2.43074
    endloop
  endfacet
  facet normal 1 0 0
    outer loop
      vertex -2.5 2.9935 0
      vertex -2.5 7.31214 2.43074
      vertex -2.5 7 2.4
    endloop
  endfacet
  facet normal 1 0 0
    outer loop
      vertex -2.5 2.9935 0
      vertex -2.5 7 2.4
      vertex -2.5 6.68785 2.43074
    endloop
  endfacet
  facet normal 1 0 0
    outer loop
      vertex -2.5 2.9935 0
      vertex -2.5 6.68785 2.43074
      vertex -2.5 6.38771 2.52179
    endloop
  endfacet
  facet normal 1 0 0
    outer loop
      vertex -2.5 2.9935 0
      vertex -2.5 6.38771 2.52179
      vertex -2.5 6.11109 2.66965
    endloop
  endfacet
  facet normal 1 0 0
    outer loop
      vertex -2.5 2.9935 0
      vertex -2.5 6.11109 2.66965
      vertex -2.5 5.86863 2.86863
    endloop
  endfacet
  facet normal 1 0 0
    outer loop
      vertex -2.5 2.9935 0
      vertex -2.5 5.86863 2.86863
      vertex -2.5 5.66965 3.11109
    endloop
  endfacet
  facet normal 1 0 0
    outer loop
      vertex -2.5 2.9935 0
      vertex -2.5 5.66965 3.11109
      vertex -2.5 5.52179 3.38771
    endloop
  endfacet
  facet normal 1 0 0
    outer loop
      vertex -2.5 2.9935 0
      vertex -2.5 5.43074 3.68785
      vertex -2.5 5.4 4
    endloop
  endfacet
  facet normal 1 0 0
    outer loop
      vertex -2.5 2.9935 0
      vertex -2.5 5.52179 3.38771
      vertex -2.5 5.43074 3.68785
    endloop
  endfacet
  facet normal 1 0 0
    outer loop
      vertex -2.5 5.86863 5.13137
      vertex -2.5 6.11109 5.33035
      vertex -2.5 2.9935 8
    endloop
  endfacet
  facet normal -1 0 -2.22045e-16
    outer loop
      vertex -6.01 9.9 2.32568
      vertex -6.01 7 0.651368
      vertex -6.01 9.9 5.67432
    endloop
  endfacet
  facet normal -1 0 -2.22045e-16
    outer loop
      vertex -6.01 5.66965 3.11109
      vertex -6.01 7 0.651368
      vertex -6.01 4.1 2.32568
    endloop
  endfacet
  facet normal -1 0 -2.22045e-16
    outer loop
      vertex -6.01 5.66965 4.88891
      vertex -6.01 4.1 2.32568
      vertex -6.01 4.1 5.67432
    endloop
  endfacet
  facet normal -1 0 -2.22045e-16
    outer loop
      vertex -6.01 9.9 5.67432
      vertex -6.01 4.1 5.67432
      vertex -6.01 7 7.34863
    endloop
  endfacet
  facet normal -1 0 -2.22045e-16
    outer loop
      vertex -6.01 5.66965 3.11109
      vertex -6.01 4.1 2.32568
      vertex -6.01 5.52179 3.38771
    endloop
  endfacet
  facet normal -1 0 -2.22045e-16
    outer loop
      vertex -6.01 7 5.6
      vertex -6.01 6.68785 5.56926
      vertex -6.01 4.1 5.67432
    endloop
  endfacet
  facet normal -1 0 -2.22045e-16
    outer loop
      vertex -6.01 5.43074 3.68785
      vertex -6.01 4.1 2.32568
      vertex -6.01 5.4 4
    endloop
  endfacet
  facet normal -1 0 -2.22045e-16
    outer loop
      vertex -6.01 6.68785 5.56926
      vertex -6.01 6.38771 5.47821
      vertex -6.01 4.1 5.67432
    endloop
  endfacet
  facet normal -1 0 -2.22045e-16
    outer loop
      vertex -6.01 5.4 4
      vertex -6.01 4.1 2.32568
      vertex -6.01 5.43074 4.31214
    endloop
  endfacet
  facet normal -1 0 -2.22045e-16
    outer loop
      vertex -6.01 6.38771 5.47821
      vertex -6.01 6.11109 5.33035
      vertex -6.01 4.1 5.67432
    endloop
  endfacet
  facet normal -1 0 -2.22045e-16
    outer loop
      vertex -6.01 6.11109 5.33035
      vertex -6.01 5.86863 5.13137
      vertex -6.01 4.1 5.67432
    endloop
  endfacet
  facet normal -1 0 -2.22045e-16
    outer loop
      vertex -6.01 5.52179 4.61229
      vertex -6.01 4.1 2.32568
      vertex -6.01 5.66965 4.88891
    endloop
  endfacet
  facet normal -1 0 -2.22045e-16
    outer loop
      vertex -6.01 5.86863 5.13137
      vertex -6.01 5.66965 4.88891
      vertex -6.01 4.1 5.67432
    endloop
  endfacet
  facet normal -1 0 -2.22045e-16
    outer loop
      vertex -6.01 5.52179 3.38771
      vertex -6.01 4.1 2.32568
      vertex -6.01 5.43074 3.68785
    endloop
  endfacet
  facet normal -1 0 -2.22045e-16
    outer loop
      vertex -6.01 5.86863 2.86863
      vertex -6.01 7 0.651368
      vertex -6.01 5.66965 3.11109
    endloop
  endfacet
  facet normal -1 0 -2.22045e-16
    outer loop
      vertex -6.01 8.56926 3.68785
      vertex -6.01 9.9 5.67432
      vertex -6.01 8.47821 3.38771
    endloop
  endfacet
  facet normal -1 0 -2.22045e-16
    outer loop
      vertex -6.01 6.11109 2.66965
      vertex -6.01 7 0.651368
      vertex -6.01 5.86863 2.86863
    endloop
  endfacet
  facet normal -1 0 -2.22045e-16
    outer loop
      vertex -6.01 6.38771 2.52179
      vertex -6.01 7 0.651368
      vertex -6.01 6.11109 2.66965
    endloop
  endfacet
  facet normal -1 0 -2.22045e-16
    outer loop
      vertex -6.01 6.68785 2.43074
      vertex -6.01 7 0.651368
      vertex -6.01 6.38771 2.52179
    endloop
  endfacet
  facet normal -1 0 -2.22045e-16
    outer loop
      vertex -6.01 7 2.4
      vertex -6.01 7 0.651368
      vertex -6.01 6.68785 2.43074
    endloop
  endfacet
  facet normal -1 0 -2.22045e-16
    outer loop
      vertex -6.01 7.31214 2.43074
      vertex -6.01 7 0.651368
      vertex -6.01 7 2.4
    endloop
  endfacet
  facet normal -1 0 -2.22045e-16
    outer loop
      vertex -6.01 7.61229 2.52179
      vertex -6.01 7 0.651368
      vertex -6.01 7.31214 2.43074
    endloop
  endfacet
  facet normal -1 0 -2.22045e-16
    outer loop
      vertex -6.01 7.88891 2.66965
      vertex -6.01 7 0.651368
      vertex -6.01 7.61229 2.52179
    endloop
  endfacet
  facet normal -1 0 -2.22045e-16
    outer loop
      vertex -6.01 8.13137 2.86863
      vertex -6.01 7 0.651368
      vertex -6.01 7.88891 2.66965
    endloop
  endfacet
  facet normal -1 0 -2.22045e-16
    outer loop
      vertex -6.01 8.33035 3.11109
      vertex -6.01 7 0.651368
      vertex -6.01 8.13137 2.86863
    endloop
  endfacet
  facet normal -1 0 -2.22045e-16
    outer loop
      vertex -6.01 9.9 5.67432
      vertex -6.01 7 0.651368
      vertex -6.01 8.33035 3.11109
    endloop
  endfacet
  facet normal -1 0 -2.22045e-16
    outer loop
      vertex -6.01 9.9 5.67432
      vertex -6.01 8.33035 3.11109
      vertex -6.01 8.47821 3.38771
    endloop
  endfacet
  facet normal -1 0 -2.22045e-16
    outer loop
      vertex -6.01 8.6 4
      vertex -6.01 9.9 5.67432
      vertex -6.01 8.56926 3.68785
    endloop
  endfacet
  facet normal -1 0 -2.22045e-16
    outer loop
      vertex -6.01 8.56926 4.31214
      vertex -6.01 9.9 5.67432
      vertex -6.01 8.6 4
    endloop
  endfacet
  facet normal -1 0 -2.22045e-16
    outer loop
      vertex -6.01 8.47821 4.61229
      vertex -6.01 9.9 5.67432
      vertex -6.01 8.56926 4.31214
    endloop
  endfacet
  facet normal -1 0 -2.22045e-16
    outer loop
      vertex -6.01 8.33035 4.88891
      vertex -6.01 9.9 5.67432
      vertex -6.01 8.47821 4.61229
    endloop
  endfacet
  facet normal -1 0 -2.22045e-16
    outer loop
      vertex -6.01 8.13137 5.13137
      vertex -6.01 9.9 5.67432
      vertex -6.01 8.33035 4.88891
    endloop
  endfacet
  facet normal -1 0 -2.22045e-16
    outer loop
      vertex -6.01 7 5.6
      vertex -6.01 9.9 5.67432
      vertex -6.01 7.31214 5.56926
    endloop
  endfacet
  facet normal -1 0 -2.22045e-16
    outer loop
      vertex -6.01 9.9 5.67432
      vertex -6.01 8.13137 5.13137
      vertex -6.01 7.88891 5.33035
    endloop
  endfacet
  facet normal -1 0 -2.22045e-16
    outer loop
      vertex -6.01 9.9 5.67432
      vertex -6.01 7.88891 5.33035
      vertex -6.01 7.61229 5.47821
    endloop
  endfacet
  facet normal -1 0 -2.22045e-16
    outer loop
      vertex -6.01 9.9 5.67432
      vertex -6.01 7.61229 5.47821
      vertex -6.01 7.31214 5.56926
    endloop
  endfacet
  facet normal -1 0 -2.22045e-16
    outer loop
      vertex -6.01 9.9 5.67432
      vertex -6.01 7 5.6
      vertex -6.01 4.1 5.67432
    endloop
  endfacet
  facet normal -1 0 -2.22045e-16
    outer loop
      vertex -6.01 5.43074 4.31214
      vertex -6.01 4.1 2.32568
      vertex -6.01 5.52179 4.61229
    endloop
  endfacet
  facet normal -2.17645e-17 0.995185 0.0980184
    outer loop
      vertex 8 5.43074 3.68786
      vertex 2.5 5.43074 3.68786
      vertex 8 5.4 4
    endloop
  endfacet
  facet normal -2.17645e-17 0.995185 0.0980184
    outer loop
      vertex 8 5.4 4
      vertex 2.5 5.43074 3.68786
      vertex 2.5 5.4 4
    endloop
  endfacet
  facet normal -6.44562e-17 0.95694 0.290285
    outer loop
      vertex 8 5.52179 3.38771
      vertex 2.5 5.52179 3.38771
      vertex 8 5.43074 3.68786
    endloop
  endfacet
  facet normal -6.44562e-17 0.95694 0.290285
    outer loop
      vertex 8 5.43074 3.68786
      vertex 2.5 5.52179 3.38771
      vertex 2.5 5.43074 3.68786
    endloop
  endfacet
  facet normal -1.04671e-16 0.881921 0.471397
    outer loop
      vertex 8 5.66965 3.11109
      vertex 2.5 5.66965 3.11109
      vertex 8 5.52179 3.38771
    endloop
  endfacet
  facet normal -1.04671e-16 0.881921 0.471397
    outer loop
      vertex 8 5.52179 3.38771
      vertex 2.5 5.66965 3.11109
      vertex 2.5 5.52179 3.38771
    endloop
  endfacet
  facet normal -1.40863e-16 0.773012 0.634391
    outer loop
      vertex 8 5.86863 2.86863
      vertex 2.5 5.86863 2.86863
      vertex 8 5.66965 3.11109
    endloop
  endfacet
  facet normal -1.40863e-16 0.773012 0.634391
    outer loop
      vertex 8 5.66965 3.11109
      vertex 2.5 5.86863 2.86863
      vertex 2.5 5.66965 3.11109
    endloop
  endfacet
  facet normal -1.71643e-16 0.634391 0.773012
    outer loop
      vertex 8 5.86863 2.86863
      vertex 8 6.11109 2.66965
      vertex 2.5 6.11109 2.66965
    endloop
  endfacet
  facet normal -1.71643e-16 0.634391 0.773012
    outer loop
      vertex 2.5 5.86863 2.86863
      vertex 8 5.86863 2.86863
      vertex 2.5 6.11109 2.66965
    endloop
  endfacet
  facet normal -1.95826e-16 0.471397 0.881921
    outer loop
      vertex 8 6.11109 2.66965
      vertex 8 6.38771 2.52179
      vertex 2.5 6.38771 2.52179
    endloop
  endfacet
  facet normal -1.95826e-16 0.471397 0.881921
    outer loop
      vertex 2.5 6.11109 2.66965
      vertex 8 6.11109 2.66965
      vertex 2.5 6.38771 2.52179
    endloop
  endfacet
  facet normal -2.12483e-16 0.290285 0.95694
    outer loop
      vertex 8 6.38771 2.52179
      vertex 8 6.68785 2.43074
      vertex 2.5 6.68785 2.43074
    endloop
  endfacet
  facet normal -2.12483e-16 0.290285 0.95694
    outer loop
      vertex 2.5 6.38771 2.52179
      vertex 8 6.38771 2.52179
      vertex 2.5 6.68785 2.43074
    endloop
  endfacet
  facet normal -2.20975e-16 0.0980184 0.995185
    outer loop
      vertex 8 6.68785 2.43074
      vertex 8 7 2.4
      vertex 2.5 7 2.4
    endloop
  endfacet
  facet normal -2.20975e-16 0.0980184 0.995185
    outer loop
      vertex 2.5 6.68785 2.43074
      vertex 8 6.68785 2.43074
      vertex 2.5 7 2.4
    endloop
  endfacet
  facet normal -2.20975e-16 -0.0980184 0.995185
    outer loop
      vertex 8 7 2.4
      vertex 8 7.31214 2.43074
      vertex 2.5 7.31214 2.43074
    endloop
  endfacet
  facet normal -2.20975e-16 -0.0980184 0.995185
    outer loop
      vertex 2.5 7 2.4
      vertex 8 7 2.4
      vertex 2.5 7.31214 2.43074
    endloop
  endfacet
  facet normal -2.12483e-16 -0.290285 0.95694
    outer loop
      vertex 8 7.31214 2.43074
      vertex 8 7.61229 2.52179
      vertex 2.5 7.61229 2.52179
    endloop
  endfacet
  facet normal -2.12483e-16 -0.290285 0.95694
    outer loop
      vertex 2.5 7.31214 2.43074
      vertex 8 7.31214 2.43074
      vertex 2.5 7.61229 2.52179
    endloop
  endfacet
  facet normal -1.95826e-16 -0.471397 0.881921
    outer loop
      vertex 8 7.61229 2.52179
      vertex 8 7.88891 2.66965
      vertex 2.5 7.88891 2.66965
    endloop
  endfacet
  facet normal -1.95826e-16 -0.471397 0.881921
    outer loop
      vertex 2.5 7.61229 2.52179
      vertex 8 7.61229 2.52179
      vertex 2.5 7.88891 2.66965
    endloop
  endfacet
  facet normal -1.71643e-16 -0.634391 0.773012
    outer loop
      vertex 8 7.88891 2.66965
      vertex 8 8.13137 2.86863
      vertex 2.5 8.13137 2.86863
    endloop
  endfacet
  facet normal -1.71643e-16 -0.634391 0.773012
    outer loop
      vertex 2.5 7.88891 2.66965
      vertex 8 7.88891 2.66965
      vertex 2.5 8.13137 2.86863
    endloop
  endfacet
  facet normal -1.40863e-16 -0.773012 0.634391
    outer loop
      vertex 8 8.13137 2.86863
      vertex 8 8.33035 3.11109
      vertex 2.5 8.33035 3.11109
    endloop
  endfacet
  facet normal -1.40863e-16 -0.773012 0.634391
    outer loop
      vertex 2.5 8.13137 2.86863
      vertex 8 8.13137 2.86863
      vertex 2.5 8.33035 3.11109
    endloop
  endfacet
  facet normal -1.04671e-16 -0.881921 0.471397
    outer loop
      vertex 8 8.33035 3.11109
      vertex 8 8.47821 3.38771
      vertex 2.5 8.47821 3.38771
    endloop
  endfacet
  facet normal -1.04671e-16 -0.881921 0.471397
    outer loop
      vertex 2.5 8.33035 3.11109
      vertex 8 8.33035 3.11109
      vertex 2.5 8.47821 3.38771
    endloop
  endfacet
  facet normal -6.44562e-17 -0.95694 0.290285
    outer loop
      vertex 8 8.47821 3.38771
      vertex 8 8.56926 3.68786
      vertex 2.5 8.56926 3.68786
    endloop
  endfacet
  facet normal -6.44562e-17 -0.95694 0.290285
    outer loop
      vertex 2.5 8.47821 3.38771
      vertex 8 8.47821 3.38771
      vertex 2.5 8.56926 3.68786
    endloop
  endfacet
  facet normal -2.17645e-17 -0.995185 0.0980184
    outer loop
      vertex 8 8.56926 3.68786
      vertex 8 8.6 4
      vertex 2.5 8.6 4
    endloop
  endfacet
  facet normal -2.17645e-17 -0.995185 0.0980184
    outer loop
      vertex 2.5 8.56926 3.68786
      vertex 8 8.56926 3.68786
      vertex 2.5 8.6 4
    endloop
  endfacet
  facet normal 2.17645e-17 -0.995185 -0.0980184
    outer loop
      vertex 2.5 8.6 4
      vertex 8 8.6 4
      vertex 8 8.56926 4.31215
    endloop
  endfacet
  facet normal 2.17645e-17 -0.995185 -0.0980184
    outer loop
      vertex 2.5 8.56926 4.31215
      vertex 2.5 8.6 4
      vertex 8 8.56926 4.31215
    endloop
  endfacet
  facet normal 6.44562e-17 -0.95694 -0.290285
    outer loop
      vertex 2.5 8.56926 4.31215
      vertex 8 8.56926 4.31215
      vertex 8 8.47821 4.61229
    endloop
  endfacet
  facet normal 6.44562e-17 -0.95694 -0.290285
    outer loop
      vertex 2.5 8.47821 4.61229
      vertex 2.5 8.56926 4.31215
      vertex 8 8.47821 4.61229
    endloop
  endfacet
  facet normal 1.04671e-16 -0.881921 -0.471397
    outer loop
      vertex 2.5 8.47821 4.61229
      vertex 8 8.47821 4.61229
      vertex 8 8.33035 4.88891
    endloop
  endfacet
  facet normal 1.04671e-16 -0.881921 -0.471397
    outer loop
      vertex 2.5 8.33035 4.88891
      vertex 2.5 8.47821 4.61229
      vertex 8 8.33035 4.88891
    endloop
  endfacet
  facet normal 1.40863e-16 -0.773012 -0.634391
    outer loop
      vertex 2.5 8.33035 4.88891
      vertex 8 8.33035 4.88891
      vertex 8 8.13137 5.13137
    endloop
  endfacet
  facet normal 1.40863e-16 -0.773012 -0.634391
    outer loop
      vertex 2.5 8.13137 5.13137
      vertex 2.5 8.33035 4.88891
      vertex 8 8.13137 5.13137
    endloop
  endfacet
  facet normal 1.71643e-16 -0.634391 -0.773012
    outer loop
      vertex 8 8.13137 5.13137
      vertex 8 7.88891 5.33035
      vertex 2.5 8.13137 5.13137
    endloop
  endfacet
  facet normal 1.71643e-16 -0.634391 -0.773012
    outer loop
      vertex 2.5 8.13137 5.13137
      vertex 8 7.88891 5.33035
      vertex 2.5 7.88891 5.33035
    endloop
  endfacet
  facet normal 1.95826e-16 -0.471397 -0.881921
    outer loop
      vertex 8 7.88891 5.33035
      vertex 8 7.61229 5.47821
      vertex 2.5 7.88891 5.33035
    endloop
  endfacet
  facet normal 1.95826e-16 -0.471397 -0.881921
    outer loop
      vertex 2.5 7.88891 5.33035
      vertex 8 7.61229 5.47821
      vertex 2.5 7.61229 5.47821
    endloop
  endfacet
  facet normal 2.12483e-16 -0.290285 -0.95694
    outer loop
      vertex 8 7.61229 5.47821
      vertex 8 7.31214 5.56926
      vertex 2.5 7.61229 5.47821
    endloop
  endfacet
  facet normal 2.12483e-16 -0.290285 -0.95694
    outer loop
      vertex 2.5 7.61229 5.47821
      vertex 8 7.31214 5.56926
      vertex 2.5 7.31214 5.56926
    endloop
  endfacet
  facet normal 2.20975e-16 -0.0980184 -0.995185
    outer loop
      vertex 8 7.31214 5.56926
      vertex 8 7 5.6
      vertex 2.5 7.31214 5.56926
    endloop
  endfacet
  facet normal 2.20975e-16 -0.0980184 -0.995185
    outer loop
      vertex 2.5 7.31214 5.56926
      vertex 8 7 5.6
      vertex 2.5 7 5.6
    endloop
  endfacet
  facet normal 2.20975e-16 0.0980184 -0.995185
    outer loop
      vertex 8 7 5.6
      vertex 8 6.68785 5.56926
      vertex 2.5 7 5.6
    endloop
  endfacet
  facet normal 2.20975e-16 0.0980184 -0.995185
    outer loop
      vertex 2.5 7 5.6
      vertex 8 6.68785 5.56926
      vertex 2.5 6.68785 5.56926
    endloop
  endfacet
  facet normal 2.12483e-16 0.290285 -0.95694
    outer loop
      vertex 8 6.68785 5.56926
      vertex 8 6.38771 5.47821
      vertex 2.5 6.68785 5.56926
    endloop
  endfacet
  facet normal 2.12483e-16 0.290285 -0.95694
    outer loop
      vertex 2.5 6.68785 5.56926
      vertex 8 6.38771 5.47821
      vertex 2.5 6.38771 5.47821
    endloop
  endfacet
  facet normal 1.95826e-16 0.471397 -0.881921
    outer loop
      vertex 8 6.38771 5.47821
      vertex 8 6.11109 5.33035
      vertex 2.5 6.38771 5.47821
    endloop
  endfacet
  facet normal 1.95826e-16 0.471397 -0.881921
    outer loop
      vertex 2.5 6.38771 5.47821
      vertex 8 6.11109 5.33035
      vertex 2.5 6.11109 5.33035
    endloop
  endfacet
  facet normal 1.71643e-16 0.634391 -0.773012
    outer loop
      vertex 8 6.11109 5.33035
      vertex 8 5.86863 5.13137
      vertex 2.5 6.11109 5.33035
    endloop
  endfacet
  facet normal 1.71643e-16 0.634391 -0.773012
    outer loop
      vertex 2.5 6.11109 5.33035
      vertex 8 5.86863 5.13137
      vertex 2.5 5.86863 5.13137
    endloop
  endfacet
  facet normal 1.40863e-16 0.773012 -0.634391
    outer loop
      vertex 8 5.86863 5.13137
      vertex 8 5.66965 4.88891
      vertex 2.5 5.86863 5.13137
    endloop
  endfacet
  facet normal 1.40863e-16 0.773012 -0.634391
    outer loop
      vertex 2.5 5.86863 5.13137
      vertex 8 5.66965 4.88891
      vertex 2.5 5.66965 4.88891
    endloop
  endfacet
  facet normal 1.04671e-16 0.881921 -0.471397
    outer loop
      vertex 8 5.66965 4.88891
      vertex 8 5.52179 4.61229
      vertex 2.5 5.66965 4.88891
    endloop
  endfacet
  facet normal 1.04671e-16 0.881921 -0.471397
    outer loop
      vertex 2.5 5.66965 4.88891
      vertex 8 5.52179 4.61229
      vertex 2.5 5.52179 4.61229
    endloop
  endfacet
  facet normal 6.44562e-17 0.95694 -0.290285
    outer loop
      vertex 8 5.52179 4.61229
      vertex 8 5.43074 4.31215
      vertex 2.5 5.52179 4.61229
    endloop
  endfacet
  facet normal 6.44562e-17 0.95694 -0.290285
    outer loop
      vertex 2.5 5.52179 4.61229
      vertex 8 5.43074 4.31215
      vertex 2.5 5.43074 4.31215
    endloop
  endfacet
  facet normal 2.17645e-17 0.995185 -0.0980184
    outer loop
      vertex 8 5.43074 4.31215
      vertex 8 5.4 4
      vertex 2.5 5.43074 4.31215
    endloop
  endfacet
  facet normal 2.17645e-17 0.995185 -0.0980184
    outer loop
      vertex 2.5 5.43074 4.31215
      vertex 8 5.4 4
      vertex 2.5 5.4 4
    endloop
  endfacet
  facet normal 2.17645e-17 0.995185 -0.0980184
    outer loop
      vertex -2.5 5.4 4
      vertex -6.01 5.4 4
      vertex -2.5 5.43074 4.31214
    endloop
  endfacet
  facet normal 2.17645e-17 0.995185 -0.0980184
    outer loop
      vertex -2.5 5.43074 4.31214
      vertex -6.01 5.4 4
      vertex -6.01 5.43074 4.31214
    endloop
  endfacet
  facet normal -2.17645e-17 0.995185 0.0980184
    outer loop
      vertex -2.5 5.43074 3.68785
      vertex -6.01 5.43074 3.68785
      vertex -2.5 5.4 4
    endloop
  endfacet
  facet normal -2.17645e-17 0.995185 0.0980184
    outer loop
      vertex -2.5 5.4 4
      vertex -6.01 5.43074 3.68785
      vertex -6.01 5.4 4
    endloop
  endfacet
  facet normal -6.44562e-17 0.95694 0.290285
    outer loop
      vertex -2.5 5.52179 3.38771
      vertex -6.01 5.52179 3.38771
      vertex -2.5 5.43074 3.68785
    endloop
  endfacet
  facet normal -6.44562e-17 0.95694 0.290285
    outer loop
      vertex -2.5 5.43074 3.68785
      vertex -6.01 5.52179 3.38771
      vertex -6.01 5.43074 3.68785
    endloop
  endfacet
  facet normal -1.04671e-16 0.881921 0.471397
    outer loop
      vertex -2.5 5.66965 3.11109
      vertex -6.01 5.66965 3.11109
      vertex -2.5 5.52179 3.38771
    endloop
  endfacet
  facet normal -1.04671e-16 0.881921 0.471397
    outer loop
      vertex -2.5 5.52179 3.38771
      vertex -6.01 5.66965 3.11109
      vertex -6.01 5.52179 3.38771
    endloop
  endfacet
  facet normal -1.40863e-16 0.773012 0.634391
    outer loop
      vertex -2.5 5.86863 2.86863
      vertex -6.01 5.86863 2.86863
      vertex -2.5 5.66965 3.11109
    endloop
  endfacet
  facet normal -1.40863e-16 0.773012 0.634391
    outer loop
      vertex -2.5 5.66965 3.11109
      vertex -6.01 5.86863 2.86863
      vertex -6.01 5.66965 3.11109
    endloop
  endfacet
  facet normal -1.71643e-16 0.634391 0.773012
    outer loop
      vertex -2.5 5.86863 2.86863
      vertex -2.5 6.11109 2.66965
      vertex -6.01 6.11109 2.66965
    endloop
  endfacet
  facet normal -1.71643e-16 0.634391 0.773012
    outer loop
      vertex -6.01 5.86863 2.86863
      vertex -2.5 5.86863 2.86863
      vertex -6.01 6.11109 2.66965
    endloop
  endfacet
  facet normal -1.95826e-16 0.471397 0.881921
    outer loop
      vertex -2.5 6.11109 2.66965
      vertex -2.5 6.38771 2.52179
      vertex -6.01 6.38771 2.52179
    endloop
  endfacet
  facet normal -1.95826e-16 0.471397 0.881921
    outer loop
      vertex -6.01 6.11109 2.66965
      vertex -2.5 6.11109 2.66965
      vertex -6.01 6.38771 2.52179
    endloop
  endfacet
  facet normal -2.12483e-16 0.290285 0.95694
    outer loop
      vertex -2.5 6.38771 2.52179
      vertex -2.5 6.68785 2.43074
      vertex -6.01 6.68785 2.43074
    endloop
  endfacet
  facet normal -2.12483e-16 0.290285 0.95694
    outer loop
      vertex -6.01 6.38771 2.52179
      vertex -2.5 6.38771 2.52179
      vertex -6.01 6.68785 2.43074
    endloop
  endfacet
  facet normal -2.20975e-16 0.0980184 0.995185
    outer loop
      vertex -2.5 6.68785 2.43074
      vertex -2.5 7 2.4
      vertex -6.01 7 2.4
    endloop
  endfacet
  facet normal -2.20975e-16 0.0980184 0.995185
    outer loop
      vertex -6.01 6.68785 2.43074
      vertex -2.5 6.68785 2.43074
      vertex -6.01 7 2.4
    endloop
  endfacet
  facet normal -2.20975e-16 -0.0980184 0.995185
    outer loop
      vertex -6.01 7 2.4
      vertex -2.5 7 2.4
      vertex -2.5 7.31214 2.43074
    endloop
  endfacet
  facet normal -2.20975e-16 -0.0980184 0.995185
    outer loop
      vertex -6.01 7.31214 2.43074
      vertex -6.01 7 2.4
      vertex -2.5 7.31214 2.43074
    endloop
  endfacet
  facet normal -2.12483e-16 -0.290285 0.95694
    outer loop
      vertex -6.01 7.31214 2.43074
      vertex -2.5 7.31214 2.43074
      vertex -2.5 7.61229 2.52179
    endloop
  endfacet
  facet normal -2.12483e-16 -0.290285 0.95694
    outer loop
      vertex -6.01 7.61229 2.52179
      vertex -6.01 7.31214 2.43074
      vertex -2.5 7.61229 2.52179
    endloop
  endfacet
  facet normal -1.95826e-16 -0.471397 0.881921
    outer loop
      vertex -6.01 7.61229 2.52179
      vertex -2.5 7.61229 2.52179
      vertex -2.5 7.88891 2.66965
    endloop
  endfacet
  facet normal -1.95826e-16 -0.471397 0.881921
    outer loop
      vertex -6.01 7.88891 2.66965
      vertex -6.01 7.61229 2.52179
      vertex -2.5 7.88891 2.66965
    endloop
  endfacet
  facet normal -1.71643e-16 -0.634391 0.773012
    outer loop
      vertex -6.01 7.88891 2.66965
      vertex -2.5 7.88891 2.66965
      vertex -2.5 8.13137 2.86863
    endloop
  endfacet
  facet normal -1.71643e-16 -0.634391 0.773012
    outer loop
      vertex -6.01 8.13137 2.86863
      vertex -6.01 7.88891 2.66965
      vertex -2.5 8.13137 2.86863
    endloop
  endfacet
  facet normal -1.40863e-16 -0.773012 0.634391
    outer loop
      vertex -6.01 8.13137 2.86863
      vertex -2.5 8.13137 2.86863
      vertex -2.5 8.33035 3.11109
    endloop
  endfacet
  facet normal -1.40863e-16 -0.773012 0.634391
    outer loop
      vertex -6.01 8.33035 3.11109
      vertex -6.01 8.13137 2.86863
      vertex -2.5 8.33035 3.11109
    endloop
  endfacet
  facet normal -1.04671e-16 -0.881921 0.471397
    outer loop
      vertex -6.01 8.33035 3.11109
      vertex -2.5 8.33035 3.11109
      vertex -2.5 8.47821 3.38771
    endloop
  endfacet
  facet normal -1.04671e-16 -0.881921 0.471397
    outer loop
      vertex -6.01 8.47821 3.38771
      vertex -6.01 8.33035 3.11109
      vertex -2.5 8.47821 3.38771
    endloop
  endfacet
  facet normal -6.44562e-17 -0.95694 0.290285
    outer loop
      vertex -6.01 8.47821 3.38771
      vertex -2.5 8.47821 3.38771
      vertex -2.5 8.56926 3.68785
    endloop
  endfacet
  facet normal -6.44562e-17 -0.95694 0.290285
    outer loop
      vertex -6.01 8.56926 3.68785
      vertex -6.01 8.47821 3.38771
      vertex -2.5 8.56926 3.68785
    endloop
  endfacet
  facet normal -2.17645e-17 -0.995185 0.0980184
    outer loop
      vertex -6.01 8.56926 3.68785
      vertex -2.5 8.56926 3.68785
      vertex -2.5 8.6 4
    endloop
  endfacet
  facet normal -2.17645e-17 -0.995185 0.0980184
    outer loop
      vertex -6.01 8.6 4
      vertex -6.01 8.56926 3.68785
      vertex -2.5 8.6 4
    endloop
  endfacet
  facet normal 2.17645e-17 -0.995185 -0.0980184
    outer loop
      vertex -6.01 8.6 4
      vertex -2.5 8.6 4
      vertex -2.5 8.56926 4.31214
    endloop
  endfacet
  facet normal 2.17645e-17 -0.995185 -0.0980184
    outer loop
      vertex -6.01 8.56926 4.31214
      vertex -6.01 8.6 4
      vertex -2.5 8.56926 4.31214
    endloop
  endfacet
  facet normal 6.44562e-17 -0.95694 -0.290285
    outer loop
      vertex -6.01 8.56926 4.31214
      vertex -2.5 8.56926 4.31214
      vertex -2.5 8.47821 4.61229
    endloop
  endfacet
  facet normal 6.44562e-17 -0.95694 -0.290285
    outer loop
      vertex -6.01 8.47821 4.61229
      vertex -6.01 8.56926 4.31214
      vertex -2.5 8.47821 4.61229
    endloop
  endfacet
  facet normal 1.04671e-16 -0.881921 -0.471397
    outer loop
      vertex -6.01 8.47821 4.61229
      vertex -2.5 8.47821 4.61229
      vertex -2.5 8.33035 4.88891
    endloop
  endfacet
  facet normal 1.04671e-16 -0.881921 -0.471397
    outer loop
      vertex -6.01 8.33035 4.88891
      vertex -6.01 8.47821 4.61229
      vertex -2.5 8.33035 4.88891
    endloop
  endfacet
  facet normal 1.40863e-16 -0.773012 -0.634391
    outer loop
      vertex -6.01 8.33035 4.88891
      vertex -2.5 8.33035 4.88891
      vertex -2.5 8.13137 5.13137
    endloop
  endfacet
  facet normal 1.40863e-16 -0.773012 -0.634391
    outer loop
      vertex -6.01 8.13137 5.13137
      vertex -6.01 8.33035 4.88891
      vertex -2.5 8.13137 5.13137
    endloop
  endfacet
  facet normal 1.71643e-16 -0.634391 -0.773012
    outer loop
      vertex -2.5 8.13137 5.13137
      vertex -2.5 7.88891 5.33035
      vertex -6.01 8.13137 5.13137
    endloop
  endfacet
  facet normal 1.71643e-16 -0.634391 -0.773012
    outer loop
      vertex -6.01 8.13137 5.13137
      vertex -2.5 7.88891 5.33035
      vertex -6.01 7.88891 5.33035
    endloop
  endfacet
  facet normal 1.95826e-16 -0.471397 -0.881921
    outer loop
      vertex -2.5 7.88891 5.33035
      vertex -2.5 7.61229 5.47821
      vertex -6.01 7.88891 5.33035
    endloop
  endfacet
  facet normal 1.95826e-16 -0.471397 -0.881921
    outer loop
      vertex -6.01 7.88891 5.33035
      vertex -2.5 7.61229 5.47821
      vertex -6.01 7.61229 5.47821
    endloop
  endfacet
  facet normal 2.12483e-16 -0.290285 -0.95694
    outer loop
      vertex -2.5 7.61229 5.47821
      vertex -2.5 7.31214 5.56926
      vertex -6.01 7.61229 5.47821
    endloop
  endfacet
  facet normal 2.12483e-16 -0.290285 -0.95694
    outer loop
      vertex -6.01 7.61229 5.47821
      vertex -2.5 7.31214 5.56926
      vertex -6.01 7.31214 5.56926
    endloop
  endfacet
  facet normal 2.20975e-16 -0.0980184 -0.995185
    outer loop
      vertex -2.5 7.31214 5.56926
      vertex -2.5 7 5.6
      vertex -6.01 7.31214 5.56926
    endloop
  endfacet
  facet normal 2.20975e-16 -0.0980184 -0.995185
    outer loop
      vertex -6.01 7.31214 5.56926
      vertex -2.5 7 5.6
      vertex -6.01 7 5.6
    endloop
  endfacet
  facet normal 2.20975e-16 0.0980184 -0.995185
    outer loop
      vertex -2.5 6.68785 5.56926
      vertex -6.01 6.68785 5.56926
      vertex -2.5 7 5.6
    endloop
  endfacet
  facet normal 2.20975e-16 0.0980184 -0.995185
    outer loop
      vertex -2.5 7 5.6
      vertex -6.01 6.68785 5.56926
      vertex -6.01 7 5.6
    endloop
  endfacet
  facet normal 2.12483e-16 0.290285 -0.95694
    outer loop
      vertex -2.5 6.38771 5.47821
      vertex -6.01 6.38771 5.47821
      vertex -2.5 6.68785 5.56926
    endloop
  endfacet
  facet normal 2.12483e-16 0.290285 -0.95694
    outer loop
      vertex -2.5 6.68785 5.56926
      vertex -6.01 6.38771 5.47821
      vertex -6.01 6.68785 5.56926
    endloop
  endfacet
  facet normal 1.95826e-16 0.471397 -0.881921
    outer loop
      vertex -2.5 6.11109 5.33035
      vertex -6.01 6.11109 5.33035
      vertex -2.5 6.38771 5.47821
    endloop
  endfacet
  facet normal 1.95826e-16 0.471397 -0.881921
    outer loop
      vertex -2.5 6.38771 5.47821
      vertex -6.01 6.11109 5.33035
      vertex -6.01 6.38771 5.47821
    endloop
  endfacet
  facet normal 1.71643e-16 0.634391 -0.773012
    outer loop
      vertex -2.5 5.86863 5.13137
      vertex -6.01 5.86863 5.13137
      vertex -2.5 6.11109 5.33035
    endloop
  endfacet
  facet normal 1.71643e-16 0.634391 -0.773012
    outer loop
      vertex -2.5 6.11109 5.33035
      vertex -6.01 5.86863 5.13137
      vertex -6.01 6.11109 5.33035
    endloop
  endfacet
  facet normal 1.40863e-16 0.773012 -0.634391
    outer loop
      vertex -2.5 5.66965 4.88891
      vertex -6.01 5.66965 4.88891
      vertex -2.5 5.86863 5.13137
    endloop
  endfacet
  facet normal 1.40863e-16 0.773012 -0.634391
    outer loop
      vertex -2.5 5.86863 5.13137
      vertex -6.01 5.66965 4.88891
      vertex -6.01 5.86863 5.13137
    endloop
  endfacet
  facet normal 1.04671e-16 0.881921 -0.471397
    outer loop
      vertex -2.5 5.52179 4.61229
      vertex -6.01 5.52179 4.61229
      vertex -2.5 5.66965 4.88891
    endloop
  endfacet
  facet normal 1.04671e-16 0.881921 -0.471397
    outer loop
      vertex -2.5 5.66965 4.88891
      vertex -6.01 5.52179 4.61229
      vertex -6.01 5.66965 4.88891
    endloop
  endfacet
  facet normal 6.44562e-17 0.95694 -0.290285
    outer loop
      vertex -2.5 5.43074 4.31214
      vertex -6.01 5.43074 4.31214
      vertex -2.5 5.52179 4.61229
    endloop
  endfacet
  facet normal 6.44562e-17 0.95694 -0.290285
    outer loop
      vertex -2.5 5.52179 4.61229
      vertex -6.01 5.43074 4.31214
      vertex -6.01 5.52179 4.61229
    endloop
  endfacet
endsolid OpenSCAD_Model
