solid OpenSCAD_Model
  facet normal 0.000000 0.000000 -1.000000
    outer loop
      vertex -14.000000 -2.700000 0.000000
      vertex -1.010106 -2.700000 0.000000
      vertex -14.000000 -6.000000 0.000000
    endloop
  endfacet
  facet normal 0.000000 0.000000 -1.000000
    outer loop
      vertex -14.000000 -6.000000 0.000000
      vertex -1.010106 -2.700000 0.000000
      vertex -0.896149 -2.758064 0.000000
    endloop
  endfacet
  facet normal 0.000000 0.000000 -1.000000
    outer loop
      vertex -14.000000 -6.000000 0.000000
      vertex -0.896149 -2.758064 0.000000
      vertex 0.000000 -2.900000 0.000000
    endloop
  endfacet
  facet normal -0.000000 0.000000 -1.000000
    outer loop
      vertex 0.000000 -2.900000 0.000000
      vertex 0.896149 -2.758064 0.000000
      vertex -14.000000 -6.000000 0.000000
    endloop
  endfacet
  facet normal 0.000000 0.000000 -1.000000
    outer loop
      vertex 0.627171 5.967131 0.000000
      vertex 0.896149 2.758064 0.000000
      vertex 0.000000 5.967131 0.000000
    endloop
  endfacet
  facet normal 0.000000 -0.000000 -1.000000
    outer loop
      vertex -0.896149 2.758064 0.000000
      vertex -14.000000 2.700000 0.000000
      vertex 0.000000 2.900000 0.000000
    endloop
  endfacet
  facet normal 0.000000 0.000000 -1.000000
    outer loop
      vertex 0.000000 2.900000 0.000000
      vertex -14.000000 2.700000 0.000000
      vertex -14.000000 10.000000 0.000000
    endloop
  endfacet
  facet normal -0.000000 -0.000000 -1.000000
    outer loop
      vertex 0.000000 2.900000 0.000000
      vertex -14.000000 10.000000 0.000000
      vertex 0.896149 2.758064 0.000000
    endloop
  endfacet
  facet normal 0.000000 0.000000 -1.000000
    outer loop
      vertex 0.000000 5.967131 0.000000
      vertex -14.000000 10.000000 0.000000
      vertex 0.000000 10.000000 0.000000
    endloop
  endfacet
  facet normal 0.000000 0.000000 -1.000000
    outer loop
      vertex 0.896149 2.758064 0.000000
      vertex -14.000000 10.000000 0.000000
      vertex 0.000000 5.967131 0.000000
    endloop
  endfacet
  facet normal 0.000000 0.000000 -1.000000
    outer loop
      vertex 1.854102 5.706339 0.000000
      vertex 2.346149 1.704577 0.000000
      vertex 1.704577 2.346149 0.000000
    endloop
  endfacet
  facet normal 0.000000 0.000000 -1.000000
    outer loop
      vertex 1.854102 5.706339 0.000000
      vertex 2.758064 0.896149 0.000000
      vertex 2.346149 1.704577 0.000000
    endloop
  endfacet
  facet normal -0.000000 -0.000000 -1.000000
    outer loop
      vertex 0.896149 2.758064 0.000000
      vertex 0.627171 5.967131 0.000000
      vertex 1.704577 2.346149 0.000000
    endloop
  endfacet
  facet normal 0.000000 0.000000 -1.000000
    outer loop
      vertex 0.000000 -6.000000 0.000000
      vertex -14.000000 -6.000000 0.000000
      vertex 0.000000 -5.967131 0.000000
    endloop
  endfacet
  facet normal 0.000000 -0.000000 -1.000000
    outer loop
      vertex 2.758064 0.896149 0.000000
      vertex 1.854102 5.706339 0.000000
      vertex 3.000000 5.196152 0.000000
    endloop
  endfacet
  facet normal -0.000000 0.000000 -1.000000
    outer loop
      vertex 2.758064 0.896149 0.000000
      vertex 3.000000 5.196152 0.000000
      vertex 2.900000 0.000000 0.000000
    endloop
  endfacet
  facet normal 0.000000 0.000000 -1.000000
    outer loop
      vertex 2.900000 0.000000 0.000000
      vertex 3.000000 5.196152 0.000000
      vertex 4.014784 4.458869 0.000000
    endloop
  endfacet
  facet normal -0.000000 0.000000 -1.000000
    outer loop
      vertex 2.900000 0.000000 0.000000
      vertex 4.014784 4.458869 0.000000
      vertex 2.758064 -0.896149 0.000000
    endloop
  endfacet
  facet normal 0.000000 0.000000 -1.000000
    outer loop
      vertex 2.758064 -0.896149 0.000000
      vertex 4.014784 4.458869 0.000000
      vertex 4.854102 3.526712 0.000000
    endloop
  endfacet
  facet normal 0.000000 0.000000 -1.000000
    outer loop
      vertex 2.758064 -0.896149 0.000000
      vertex 4.854102 3.526712 0.000000
      vertex 5.481273 2.440420 0.000000
    endloop
  endfacet
  facet normal -0.000000 0.000000 -1.000000
    outer loop
      vertex 2.758064 -0.896149 0.000000
      vertex 5.481273 2.440420 0.000000
      vertex 2.346149 -1.704577 0.000000
    endloop
  endfacet
  facet normal 0.000000 0.000000 -1.000000
    outer loop
      vertex 2.346149 -1.704577 0.000000
      vertex 5.481273 2.440420 0.000000
      vertex 5.868886 1.247470 0.000000
    endloop
  endfacet
  facet normal -0.000000 0.000000 -1.000000
    outer loop
      vertex 2.346149 -1.704577 0.000000
      vertex 5.868886 1.247470 0.000000
      vertex 1.704577 -2.346149 0.000000
    endloop
  endfacet
  facet normal 0.000000 0.000000 -1.000000
    outer loop
      vertex 1.704577 -2.346149 0.000000
      vertex 5.868886 1.247470 0.000000
      vertex 6.000000 0.000000 0.000000
    endloop
  endfacet
  facet normal 0.000000 0.000000 -1.000000
    outer loop
      vertex 1.704577 -2.346149 0.000000
      vertex 6.000000 0.000000 0.000000
      vertex 5.868886 -1.247470 0.000000
    endloop
  endfacet
  facet normal -0.000000 0.000000 -1.000000
    outer loop
      vertex 1.704577 -2.346149 0.000000
      vertex 5.868886 -1.247470 0.000000
      vertex 0.896149 -2.758064 0.000000
    endloop
  endfacet
  facet normal 0.000000 0.000000 -1.000000
    outer loop
      vertex 0.896149 -2.758064 0.000000
      vertex 5.868886 -1.247470 0.000000
      vertex 5.481273 -2.440420 0.000000
    endloop
  endfacet
  facet normal -0.000000 0.000000 -1.000000
    outer loop
      vertex 0.896149 -2.758064 0.000000
      vertex 5.481273 -2.440420 0.000000
      vertex -14.000000 -6.000000 0.000000
    endloop
  endfacet
  facet normal 0.000000 0.000000 -1.000000
    outer loop
      vertex -14.000000 -6.000000 0.000000
      vertex 5.481273 -2.440420 0.000000
      vertex 4.854102 -3.526712 0.000000
    endloop
  endfacet
  facet normal 0.000000 0.000000 -1.000000
    outer loop
      vertex -14.000000 -6.000000 0.000000
      vertex 4.854102 -3.526712 0.000000
      vertex 4.014784 -4.458869 0.000000
    endloop
  endfacet
  facet normal 0.000000 0.000000 -1.000000
    outer loop
      vertex -14.000000 -6.000000 0.000000
      vertex 4.014784 -4.458869 0.000000
      vertex 3.000000 -5.196152 0.000000
    endloop
  endfacet
  facet normal 0.000000 0.000000 -1.000000
    outer loop
      vertex -14.000000 -6.000000 0.000000
      vertex 3.000000 -5.196152 0.000000
      vertex 1.854102 -5.706339 0.000000
    endloop
  endfacet
  facet normal -0.000000 0.000000 -1.000000
    outer loop
      vertex 0.000000 -5.967131 0.000000
      vertex 1.854102 -5.706339 0.000000
      vertex 0.627171 -5.967131 0.000000
    endloop
  endfacet
  facet normal 0.000000 0.000000 -1.000000
    outer loop
      vertex -14.000000 -6.000000 0.000000
      vertex 1.854102 -5.706339 0.000000
      vertex 0.000000 -5.967131 0.000000
    endloop
  endfacet
  facet normal -0.000000 0.000000 -1.000000
    outer loop
      vertex -14.000000 2.700000 0.000000
      vertex -0.896149 2.758064 0.000000
      vertex -1.010106 2.700000 0.000000
    endloop
  endfacet
  facet normal 0.000000 0.000000 -1.000000
    outer loop
      vertex 1.854102 5.706339 0.000000
      vertex 1.704577 2.346149 0.000000
      vertex 0.627171 5.967131 0.000000
    endloop
  endfacet
  facet normal 0.994522 -0.104528 0.000000
    outer loop
      vertex 5.868886 -1.247470 0.000000
      vertex 6.000000 0.000000 0.000000
      vertex 6.000000 0.000000 12.000000
    endloop
  endfacet
  facet normal 0.994522 -0.104528 0.000000
    outer loop
      vertex 5.868886 -1.247470 12.000000
      vertex 5.868886 -1.247470 0.000000
      vertex 6.000000 0.000000 12.000000
    endloop
  endfacet
  facet normal 0.994522 0.104528 0.000000
    outer loop
      vertex 5.868886 1.247470 0.000000
      vertex 5.868886 1.247470 12.000000
      vertex 6.000000 0.000000 12.000000
    endloop
  endfacet
  facet normal 0.994522 0.104528 0.000000
    outer loop
      vertex 6.000000 0.000000 0.000000
      vertex 5.868886 1.247470 0.000000
      vertex 6.000000 0.000000 12.000000
    endloop
  endfacet
  facet normal -1.000000 0.000000 0.000000
    outer loop
      vertex -14.000000 -6.000000 12.000000
      vertex -14.000000 -2.700000 12.000000
      vertex -14.000000 -6.000000 0.000000
    endloop
  endfacet
  facet normal -1.000000 -0.000000 0.000000
    outer loop
      vertex -14.000000 -6.000000 0.000000
      vertex -14.000000 -2.700000 12.000000
      vertex -14.000000 -2.700000 0.000000
    endloop
  endfacet
  facet normal -0.000000 -1.000000 0.000000
    outer loop
      vertex -14.000000 -6.000000 0.000000
      vertex 0.000000 -6.000000 0.000000
      vertex 0.000000 -6.000000 12.000000
    endloop
  endfacet
  facet normal 0.000000 -1.000000 0.000000
    outer loop
      vertex -14.000000 -6.000000 12.000000
      vertex -14.000000 -6.000000 0.000000
      vertex 0.000000 -6.000000 12.000000
    endloop
  endfacet
  facet normal 1.000000 0.000000 0.000000
    outer loop
      vertex 0.000000 -6.000000 0.000000
      vertex 0.000000 -5.967131 0.000000
      vertex 0.000000 -5.967131 12.000000
    endloop
  endfacet
  facet normal 1.000000 0.000000 -0.000000
    outer loop
      vertex 0.000000 -6.000000 12.000000
      vertex 0.000000 -6.000000 0.000000
      vertex 0.000000 -5.967131 12.000000
    endloop
  endfacet
  facet normal -0.000000 -1.000000 0.000000
    outer loop
      vertex 0.000000 -5.967131 0.000000
      vertex 0.627171 -5.967131 0.000000
      vertex 0.627171 -5.967131 12.000000
    endloop
  endfacet
  facet normal 0.000000 -1.000000 0.000000
    outer loop
      vertex 0.000000 -5.967131 12.000000
      vertex 0.000000 -5.967131 0.000000
      vertex 0.627171 -5.967131 12.000000
    endloop
  endfacet
  facet normal 0.207912 -0.978148 0.000000
    outer loop
      vertex 0.627171 -5.967131 0.000000
      vertex 1.854102 -5.706339 0.000000
      vertex 1.854102 -5.706339 12.000000
    endloop
  endfacet
  facet normal 0.207912 -0.978148 0.000000
    outer loop
      vertex 0.627171 -5.967131 12.000000
      vertex 0.627171 -5.967131 0.000000
      vertex 1.854102 -5.706339 12.000000
    endloop
  endfacet
  facet normal 0.406737 -0.913545 0.000000
    outer loop
      vertex 1.854102 -5.706339 0.000000
      vertex 3.000000 -5.196152 0.000000
      vertex 3.000000 -5.196152 12.000000
    endloop
  endfacet
  facet normal 0.406737 -0.913545 0.000000
    outer loop
      vertex 1.854102 -5.706339 12.000000
      vertex 1.854102 -5.706339 0.000000
      vertex 3.000000 -5.196152 12.000000
    endloop
  endfacet
  facet normal 0.587785 -0.809017 0.000000
    outer loop
      vertex 3.000000 -5.196152 0.000000
      vertex 4.014784 -4.458869 0.000000
      vertex 4.014784 -4.458869 12.000000
    endloop
  endfacet
  facet normal 0.587785 -0.809017 0.000000
    outer loop
      vertex 3.000000 -5.196152 12.000000
      vertex 3.000000 -5.196152 0.000000
      vertex 4.014784 -4.458869 12.000000
    endloop
  endfacet
  facet normal 0.743145 -0.669131 0.000000
    outer loop
      vertex 4.014784 -4.458869 0.000000
      vertex 4.854102 -3.526712 0.000000
      vertex 4.854102 -3.526712 12.000000
    endloop
  endfacet
  facet normal 0.743145 -0.669131 0.000000
    outer loop
      vertex 4.014784 -4.458869 12.000000
      vertex 4.014784 -4.458869 0.000000
      vertex 4.854102 -3.526712 12.000000
    endloop
  endfacet
  facet normal 0.866025 -0.500000 0.000000
    outer loop
      vertex 4.854102 -3.526712 0.000000
      vertex 5.481273 -2.440420 0.000000
      vertex 5.481273 -2.440420 12.000000
    endloop
  endfacet
  facet normal 0.866025 -0.500000 0.000000
    outer loop
      vertex 4.854102 -3.526712 12.000000
      vertex 4.854102 -3.526712 0.000000
      vertex 5.481273 -2.440420 12.000000
    endloop
  endfacet
  facet normal 0.951057 -0.309017 0.000000
    outer loop
      vertex 5.481273 -2.440420 0.000000
      vertex 5.868886 -1.247470 0.000000
      vertex 5.868886 -1.247470 12.000000
    endloop
  endfacet
  facet normal 0.951057 -0.309017 0.000000
    outer loop
      vertex 5.481273 -2.440420 12.000000
      vertex 5.481273 -2.440420 0.000000
      vertex 5.868886 -1.247470 12.000000
    endloop
  endfacet
  facet normal 0.951057 0.309017 0.000000
    outer loop
      vertex 5.481273 2.440420 0.000000
      vertex 5.481273 2.440420 12.000000
      vertex 5.868886 1.247470 12.000000
    endloop
  endfacet
  facet normal 0.951057 0.309017 0.000000
    outer loop
      vertex 5.868886 1.247470 0.000000
      vertex 5.481273 2.440420 0.000000
      vertex 5.868886 1.247470 12.000000
    endloop
  endfacet
  facet normal 0.866025 0.500000 0.000000
    outer loop
      vertex 4.854102 3.526712 0.000000
      vertex 4.854102 3.526712 12.000000
      vertex 5.481273 2.440420 12.000000
    endloop
  endfacet
  facet normal 0.866025 0.500000 0.000000
    outer loop
      vertex 5.481273 2.440420 0.000000
      vertex 4.854102 3.526712 0.000000
      vertex 5.481273 2.440420 12.000000
    endloop
  endfacet
  facet normal 0.743145 0.669131 0.000000
    outer loop
      vertex 4.014784 4.458869 0.000000
      vertex 4.014784 4.458869 12.000000
      vertex 4.854102 3.526712 12.000000
    endloop
  endfacet
  facet normal 0.743145 0.669131 0.000000
    outer loop
      vertex 4.854102 3.526712 0.000000
      vertex 4.014784 4.458869 0.000000
      vertex 4.854102 3.526712 12.000000
    endloop
  endfacet
  facet normal 0.587785 0.809017 -0.000000
    outer loop
      vertex 3.000000 5.196152 12.000000
      vertex 4.014784 4.458869 12.000000
      vertex 3.000000 5.196152 0.000000
    endloop
  endfacet
  facet normal 0.587785 0.809017 0.000000
    outer loop
      vertex 3.000000 5.196152 0.000000
      vertex 4.014784 4.458869 12.000000
      vertex 4.014784 4.458869 0.000000
    endloop
  endfacet
  facet normal 0.406737 0.913545 -0.000000
    outer loop
      vertex 1.854102 5.706339 12.000000
      vertex 3.000000 5.196152 12.000000
      vertex 1.854102 5.706339 0.000000
    endloop
  endfacet
  facet normal 0.406737 0.913545 0.000000
    outer loop
      vertex 1.854102 5.706339 0.000000
      vertex 3.000000 5.196152 12.000000
      vertex 3.000000 5.196152 0.000000
    endloop
  endfacet
  facet normal 0.207912 0.978148 -0.000000
    outer loop
      vertex 0.627171 5.967131 12.000000
      vertex 1.854102 5.706339 12.000000
      vertex 0.627171 5.967131 0.000000
    endloop
  endfacet
  facet normal 0.207912 0.978148 0.000000
    outer loop
      vertex 0.627171 5.967131 0.000000
      vertex 1.854102 5.706339 12.000000
      vertex 1.854102 5.706339 0.000000
    endloop
  endfacet
  facet normal 0.000000 1.000000 -0.000000
    outer loop
      vertex 0.000000 5.967131 12.000000
      vertex 0.627171 5.967131 12.000000
      vertex 0.000000 5.967131 0.000000
    endloop
  endfacet
  facet normal 0.000000 1.000000 0.000000
    outer loop
      vertex 0.000000 5.967131 0.000000
      vertex 0.627171 5.967131 12.000000
      vertex 0.627171 5.967131 0.000000
    endloop
  endfacet
  facet normal 1.000000 0.000000 0.000000
    outer loop
      vertex 0.000000 8.000000 3.000000
      vertex 0.000000 10.000000 0.000000
      vertex 0.000000 10.000000 6.000000
    endloop
  endfacet
  facet normal 1.000000 0.000000 0.000000
    outer loop
      vertex 0.000000 8.000000 3.000000
      vertex 0.000000 6.000000 3.000000
      vertex 0.000000 5.967131 0.000000
    endloop
  endfacet
  facet normal 1.000000 0.000000 0.000000
    outer loop
      vertex 0.000000 5.967131 0.000000
      vertex 0.000000 10.000000 0.000000
      vertex 0.000000 8.000000 3.000000
    endloop
  endfacet
  facet normal 1.000000 0.000000 0.000000
    outer loop
      vertex 0.000000 6.000000 9.000000
      vertex 0.000000 5.967131 0.000000
      vertex 0.000000 6.000000 3.000000
    endloop
  endfacet
  facet normal 1.000000 0.000000 0.000000
    outer loop
      vertex 0.000000 6.000000 12.000000
      vertex 0.000000 5.967131 0.000000
      vertex 0.000000 6.000000 9.000000
    endloop
  endfacet
  facet normal 1.000000 0.000000 -0.000000
    outer loop
      vertex 0.000000 5.967131 12.000000
      vertex 0.000000 5.967131 0.000000
      vertex 0.000000 6.000000 12.000000
    endloop
  endfacet
  facet normal 1.000000 0.000000 -0.000000
    outer loop
      vertex 0.000000 8.000000 6.000000
      vertex 0.000000 8.000000 3.000000
      vertex 0.000000 10.000000 6.000000
    endloop
  endfacet
  facet normal 0.000000 1.000000 -0.000000
    outer loop
      vertex -14.000000 10.000000 6.000000
      vertex 0.000000 10.000000 6.000000
      vertex -14.000000 10.000000 0.000000
    endloop
  endfacet
  facet normal 0.000000 1.000000 0.000000
    outer loop
      vertex -14.000000 10.000000 0.000000
      vertex 0.000000 10.000000 6.000000
      vertex 0.000000 10.000000 0.000000
    endloop
  endfacet
  facet normal -1.000000 0.000000 0.000000
    outer loop
      vertex -14.000000 2.700000 12.000000
      vertex -14.000000 6.000000 12.000000
      vertex -14.000000 2.700000 0.000000
    endloop
  endfacet
  facet normal -1.000000 0.000000 0.000000
    outer loop
      vertex -14.000000 2.700000 0.000000
      vertex -14.000000 6.000000 12.000000
      vertex -14.000000 6.000000 9.000000
    endloop
  endfacet
  facet normal -1.000000 0.000000 0.000000
    outer loop
      vertex -14.000000 2.700000 0.000000
      vertex -14.000000 6.000000 9.000000
      vertex -14.000000 6.000000 3.000000
    endloop
  endfacet
  facet normal -1.000000 0.000000 0.000000
    outer loop
      vertex -14.000000 2.700000 0.000000
      vertex -14.000000 6.000000 3.000000
      vertex -14.000000 8.000000 3.000000
    endloop
  endfacet
  facet normal -1.000000 0.000000 -0.000000
    outer loop
      vertex -14.000000 8.000000 3.000000
      vertex -14.000000 8.000000 6.000000
      vertex -14.000000 10.000000 6.000000
    endloop
  endfacet
  facet normal -1.000000 -0.000000 0.000000
    outer loop
      vertex -14.000000 8.000000 3.000000
      vertex -14.000000 10.000000 6.000000
      vertex -14.000000 10.000000 0.000000
    endloop
  endfacet
  facet normal -1.000000 0.000000 0.000000
    outer loop
      vertex -14.000000 8.000000 3.000000
      vertex -14.000000 10.000000 0.000000
      vertex -14.000000 2.700000 0.000000
    endloop
  endfacet
  facet normal -0.000000 -1.000000 0.000000
    outer loop
      vertex -14.000000 2.700000 0.000000
      vertex -1.010106 2.700000 0.000000
      vertex -1.010106 2.700000 12.000000
    endloop
  endfacet
  facet normal 0.000000 -1.000000 0.000000
    outer loop
      vertex -14.000000 2.700000 12.000000
      vertex -14.000000 2.700000 0.000000
      vertex -1.010106 2.700000 12.000000
    endloop
  endfacet
  facet normal 0.453991 -0.891006 0.000000
    outer loop
      vertex -1.010106 2.700000 0.000000
      vertex -0.896149 2.758064 0.000000
      vertex -0.896149 2.758064 12.000000
    endloop
  endfacet
  facet normal 0.453991 -0.891006 0.000000
    outer loop
      vertex -1.010106 2.700000 12.000000
      vertex -1.010106 2.700000 0.000000
      vertex -0.896149 2.758064 12.000000
    endloop
  endfacet
  facet normal 0.156434 -0.987688 0.000000
    outer loop
      vertex -0.896149 2.758064 0.000000
      vertex 0.000000 2.900000 0.000000
      vertex 0.000000 2.900000 12.000000
    endloop
  endfacet
  facet normal 0.156434 -0.987688 0.000000
    outer loop
      vertex -0.896149 2.758064 12.000000
      vertex -0.896149 2.758064 0.000000
      vertex 0.000000 2.900000 12.000000
    endloop
  endfacet
  facet normal -0.156434 -0.987688 0.000000
    outer loop
      vertex 0.000000 2.900000 0.000000
      vertex 0.896149 2.758064 0.000000
      vertex 0.896149 2.758064 12.000000
    endloop
  endfacet
  facet normal -0.156434 -0.987688 0.000000
    outer loop
      vertex 0.000000 2.900000 12.000000
      vertex 0.000000 2.900000 0.000000
      vertex 0.896149 2.758064 12.000000
    endloop
  endfacet
  facet normal -0.453991 -0.891006 0.000000
    outer loop
      vertex 0.896149 2.758064 0.000000
      vertex 1.704577 2.346149 0.000000
      vertex 1.704577 2.346149 12.000000
    endloop
  endfacet
  facet normal -0.453991 -0.891006 0.000000
    outer loop
      vertex 0.896149 2.758064 12.000000
      vertex 0.896149 2.758064 0.000000
      vertex 1.704577 2.346149 12.000000
    endloop
  endfacet
  facet normal -0.707107 -0.707107 0.000000
    outer loop
      vertex 1.704577 2.346149 0.000000
      vertex 2.346149 1.704577 0.000000
      vertex 2.346149 1.704577 12.000000
    endloop
  endfacet
  facet normal -0.707107 -0.707107 0.000000
    outer loop
      vertex 1.704577 2.346149 12.000000
      vertex 1.704577 2.346149 0.000000
      vertex 2.346149 1.704577 12.000000
    endloop
  endfacet
  facet normal -0.891006 -0.453991 -0.000000
    outer loop
      vertex 2.758064 0.896149 0.000000
      vertex 2.758064 0.896149 12.000000
      vertex 2.346149 1.704577 0.000000
    endloop
  endfacet
  facet normal -0.891006 -0.453991 -0.000000
    outer loop
      vertex 2.346149 1.704577 0.000000
      vertex 2.758064 0.896149 12.000000
      vertex 2.346149 1.704577 12.000000
    endloop
  endfacet
  facet normal -0.987688 -0.156434 -0.000000
    outer loop
      vertex 2.900000 0.000000 0.000000
      vertex 2.900000 0.000000 12.000000
      vertex 2.758064 0.896149 0.000000
    endloop
  endfacet
  facet normal -0.987688 -0.156434 -0.000000
    outer loop
      vertex 2.758064 0.896149 0.000000
      vertex 2.900000 0.000000 12.000000
      vertex 2.758064 0.896149 12.000000
    endloop
  endfacet
  facet normal -0.987688 0.156434 0.000000
    outer loop
      vertex 2.758064 -0.896149 12.000000
      vertex 2.900000 0.000000 12.000000
      vertex 2.758064 -0.896149 0.000000
    endloop
  endfacet
  facet normal -0.987688 0.156434 0.000000
    outer loop
      vertex 2.758064 -0.896149 0.000000
      vertex 2.900000 0.000000 12.000000
      vertex 2.900000 0.000000 0.000000
    endloop
  endfacet
  facet normal -0.891006 0.453991 0.000000
    outer loop
      vertex 2.346149 -1.704577 12.000000
      vertex 2.758064 -0.896149 12.000000
      vertex 2.346149 -1.704577 0.000000
    endloop
  endfacet
  facet normal -0.891006 0.453991 0.000000
    outer loop
      vertex 2.346149 -1.704577 0.000000
      vertex 2.758064 -0.896149 12.000000
      vertex 2.758064 -0.896149 0.000000
    endloop
  endfacet
  facet normal -0.707107 0.707107 0.000000
    outer loop
      vertex 1.704577 -2.346149 12.000000
      vertex 2.346149 -1.704577 12.000000
      vertex 1.704577 -2.346149 0.000000
    endloop
  endfacet
  facet normal -0.707107 0.707107 0.000000
    outer loop
      vertex 1.704577 -2.346149 0.000000
      vertex 2.346149 -1.704577 12.000000
      vertex 2.346149 -1.704577 0.000000
    endloop
  endfacet
  facet normal -0.453991 0.891006 0.000000
    outer loop
      vertex 0.896149 -2.758064 12.000000
      vertex 1.704577 -2.346149 12.000000
      vertex 0.896149 -2.758064 0.000000
    endloop
  endfacet
  facet normal -0.453991 0.891006 0.000000
    outer loop
      vertex 0.896149 -2.758064 0.000000
      vertex 1.704577 -2.346149 12.000000
      vertex 1.704577 -2.346149 0.000000
    endloop
  endfacet
  facet normal -0.156434 0.987688 0.000000
    outer loop
      vertex 0.000000 -2.900000 12.000000
      vertex 0.896149 -2.758064 12.000000
      vertex 0.000000 -2.900000 0.000000
    endloop
  endfacet
  facet normal -0.156434 0.987688 0.000000
    outer loop
      vertex 0.000000 -2.900000 0.000000
      vertex 0.896149 -2.758064 12.000000
      vertex 0.896149 -2.758064 0.000000
    endloop
  endfacet
  facet normal 0.156434 0.987688 -0.000000
    outer loop
      vertex -0.896149 -2.758064 12.000000
      vertex 0.000000 -2.900000 12.000000
      vertex -0.896149 -2.758064 0.000000
    endloop
  endfacet
  facet normal 0.156434 0.987688 0.000000
    outer loop
      vertex -0.896149 -2.758064 0.000000
      vertex 0.000000 -2.900000 12.000000
      vertex 0.000000 -2.900000 0.000000
    endloop
  endfacet
  facet normal 0.453991 0.891006 -0.000000
    outer loop
      vertex -1.010106 -2.700000 12.000000
      vertex -0.896149 -2.758064 12.000000
      vertex -1.010106 -2.700000 0.000000
    endloop
  endfacet
  facet normal 0.453991 0.891006 0.000000
    outer loop
      vertex -1.010106 -2.700000 0.000000
      vertex -0.896149 -2.758064 12.000000
      vertex -0.896149 -2.758064 0.000000
    endloop
  endfacet
  facet normal 0.000000 1.000000 -0.000000
    outer loop
      vertex -14.000000 -2.700000 12.000000
      vertex -1.010106 -2.700000 12.000000
      vertex -14.000000 -2.700000 0.000000
    endloop
  endfacet
  facet normal 0.000000 1.000000 0.000000
    outer loop
      vertex -14.000000 -2.700000 0.000000
      vertex -1.010106 -2.700000 12.000000
      vertex -1.010106 -2.700000 0.000000
    endloop
  endfacet
  facet normal 0.000000 0.000000 1.000000
    outer loop
      vertex -14.000000 -6.000000 12.000000
      vertex 0.000000 -6.000000 12.000000
      vertex 0.000000 -5.967131 12.000000
    endloop
  endfacet
  facet normal 0.000000 0.000000 1.000000
    outer loop
      vertex 1.854102 -5.706339 12.000000
      vertex -14.000000 -6.000000 12.000000
      vertex 0.000000 -5.967131 12.000000
    endloop
  endfacet
  facet normal -0.000000 0.000000 1.000000
    outer loop
      vertex 0.627171 -5.967131 12.000000
      vertex 1.854102 -5.706339 12.000000
      vertex 0.000000 -5.967131 12.000000
    endloop
  endfacet
  facet normal -0.000000 0.000000 1.000000
    outer loop
      vertex 1.854102 -5.706339 12.000000
      vertex 3.000000 -5.196152 12.000000
      vertex -14.000000 -6.000000 12.000000
    endloop
  endfacet
  facet normal -0.000000 0.000000 1.000000
    outer loop
      vertex 3.000000 -5.196152 12.000000
      vertex 4.014784 -4.458869 12.000000
      vertex -14.000000 -6.000000 12.000000
    endloop
  endfacet
  facet normal -0.000000 0.000000 1.000000
    outer loop
      vertex 4.014784 -4.458869 12.000000
      vertex 4.854102 -3.526712 12.000000
      vertex -14.000000 -6.000000 12.000000
    endloop
  endfacet
  facet normal -0.000000 0.000000 1.000000
    outer loop
      vertex 4.854102 -3.526712 12.000000
      vertex 5.481273 -2.440420 12.000000
      vertex -14.000000 -6.000000 12.000000
    endloop
  endfacet
  facet normal 0.000000 0.000000 1.000000
    outer loop
      vertex -0.896149 2.758064 12.000000
      vertex 0.000000 2.900000 12.000000
      vertex 3.000000 5.196152 12.000000
    endloop
  endfacet
  facet normal 0.000000 -0.000000 1.000000
    outer loop
      vertex 2.346149 -1.704577 12.000000
      vertex 1.704577 -2.346149 12.000000
      vertex 5.868886 -1.247470 12.000000
    endloop
  endfacet
  facet normal 0.000000 0.000000 1.000000
    outer loop
      vertex 0.000000 6.000000 12.000000
      vertex -14.000000 6.000000 12.000000
      vertex -14.000000 2.700000 12.000000
    endloop
  endfacet
  facet normal -0.000000 0.000000 1.000000
    outer loop
      vertex 3.000000 5.196152 12.000000
      vertex 1.854102 5.706339 12.000000
      vertex -1.010106 2.700000 12.000000
    endloop
  endfacet
  facet normal 0.000000 0.000000 1.000000
    outer loop
      vertex 0.896149 2.758064 12.000000
      vertex 1.704577 2.346149 12.000000
      vertex 4.014784 4.458869 12.000000
    endloop
  endfacet
  facet normal 0.000000 0.000000 1.000000
    outer loop
      vertex 3.000000 5.196152 12.000000
      vertex -1.010106 2.700000 12.000000
      vertex -0.896149 2.758064 12.000000
    endloop
  endfacet
  facet normal -0.000000 0.000000 1.000000
    outer loop
      vertex 4.014784 4.458869 12.000000
      vertex 3.000000 5.196152 12.000000
      vertex 0.000000 2.900000 12.000000
    endloop
  endfacet
  facet normal 0.000000 0.000000 1.000000
    outer loop
      vertex 1.704577 2.346149 12.000000
      vertex 2.346149 1.704577 12.000000
      vertex 4.854102 3.526712 12.000000
    endloop
  endfacet
  facet normal 0.000000 0.000000 1.000000
    outer loop
      vertex 4.014784 4.458869 12.000000
      vertex 0.000000 2.900000 12.000000
      vertex 0.896149 2.758064 12.000000
    endloop
  endfacet
  facet normal 0.000000 0.000000 1.000000
    outer loop
      vertex 2.346149 1.704577 12.000000
      vertex 2.758064 0.896149 12.000000
      vertex 5.481273 2.440420 12.000000
    endloop
  endfacet
  facet normal -0.000000 0.000000 1.000000
    outer loop
      vertex 4.854102 3.526712 12.000000
      vertex 4.014784 4.458869 12.000000
      vertex 1.704577 2.346149 12.000000
    endloop
  endfacet
  facet normal 0.000000 0.000000 1.000000
    outer loop
      vertex 2.758064 0.896149 12.000000
      vertex 2.900000 0.000000 12.000000
      vertex 5.868886 1.247470 12.000000
    endloop
  endfacet
  facet normal -0.000000 0.000000 1.000000
    outer loop
      vertex 5.481273 2.440420 12.000000
      vertex 4.854102 3.526712 12.000000
      vertex 2.346149 1.704577 12.000000
    endloop
  endfacet
  facet normal 0.000000 -0.000000 1.000000
    outer loop
      vertex 2.758064 -0.896149 12.000000
      vertex 2.346149 -1.704577 12.000000
      vertex 6.000000 0.000000 12.000000
    endloop
  endfacet
  facet normal -0.000000 0.000000 1.000000
    outer loop
      vertex 5.868886 1.247470 12.000000
      vertex 5.481273 2.440420 12.000000
      vertex 2.758064 0.896149 12.000000
    endloop
  endfacet
  facet normal -0.000000 0.000000 1.000000
    outer loop
      vertex 6.000000 0.000000 12.000000
      vertex 5.868886 1.247470 12.000000
      vertex 2.900000 0.000000 12.000000
    endloop
  endfacet
  facet normal 0.000000 0.000000 1.000000
    outer loop
      vertex 6.000000 0.000000 12.000000
      vertex 2.900000 0.000000 12.000000
      vertex 2.758064 -0.896149 12.000000
    endloop
  endfacet
  facet normal -0.000000 0.000000 1.000000
    outer loop
      vertex 5.868886 -1.247470 12.000000
      vertex 6.000000 0.000000 12.000000
      vertex 2.346149 -1.704577 12.000000
    endloop
  endfacet
  facet normal 0.000000 0.000000 1.000000
    outer loop
      vertex 5.481273 -2.440420 12.000000
      vertex 5.868886 -1.247470 12.000000
      vertex 1.704577 -2.346149 12.000000
    endloop
  endfacet
  facet normal 0.000000 0.000000 1.000000
    outer loop
      vertex 5.481273 -2.440420 12.000000
      vertex 0.896149 -2.758064 12.000000
      vertex -14.000000 -6.000000 12.000000
    endloop
  endfacet
  facet normal -0.000000 0.000000 1.000000
    outer loop
      vertex 5.481273 -2.440420 12.000000
      vertex 1.704577 -2.346149 12.000000
      vertex 0.896149 -2.758064 12.000000
    endloop
  endfacet
  facet normal 0.000000 0.000000 1.000000
    outer loop
      vertex 0.896149 -2.758064 12.000000
      vertex 0.000000 -2.900000 12.000000
      vertex -14.000000 -6.000000 12.000000
    endloop
  endfacet
  facet normal -0.000000 0.000000 1.000000
    outer loop
      vertex 0.000000 -2.900000 12.000000
      vertex -0.896149 -2.758064 12.000000
      vertex -14.000000 -6.000000 12.000000
    endloop
  endfacet
  facet normal -0.000000 0.000000 1.000000
    outer loop
      vertex -0.896149 -2.758064 12.000000
      vertex -1.010106 -2.700000 12.000000
      vertex -14.000000 -6.000000 12.000000
    endloop
  endfacet
  facet normal 0.000000 0.000000 1.000000
    outer loop
      vertex -14.000000 2.700000 12.000000
      vertex 0.000000 5.967131 12.000000
      vertex 0.000000 6.000000 12.000000
    endloop
  endfacet
  facet normal 0.000000 0.000000 1.000000
    outer loop
      vertex -14.000000 2.700000 12.000000
      vertex 0.627171 5.967131 12.000000
      vertex 0.000000 5.967131 12.000000
    endloop
  endfacet
  facet normal 0.000000 0.000000 1.000000
    outer loop
      vertex -14.000000 2.700000 12.000000
      vertex 1.854102 5.706339 12.000000
      vertex 0.627171 5.967131 12.000000
    endloop
  endfacet
  facet normal 0.000000 0.000000 1.000000
    outer loop
      vertex -14.000000 2.700000 12.000000
      vertex -1.010106 2.700000 12.000000
      vertex 1.854102 5.706339 12.000000
    endloop
  endfacet
  facet normal 0.000000 0.000000 1.000000
    outer loop
      vertex -1.010106 -2.700000 12.000000
      vertex -14.000000 -2.700000 12.000000
      vertex -14.000000 -6.000000 12.000000
    endloop
  endfacet
  facet normal 0.000000 1.000000 -0.000000
    outer loop
      vertex -14.000000 6.000000 12.000000
      vertex 0.000000 6.000000 12.000000
      vertex -14.000000 6.000000 9.000000
    endloop
  endfacet
  facet normal 0.000000 1.000000 0.000000
    outer loop
      vertex -14.000000 6.000000 9.000000
      vertex 0.000000 6.000000 12.000000
      vertex 0.000000 6.000000 9.000000
    endloop
  endfacet
  facet normal 0.000000 1.000000 -0.000000
    outer loop
      vertex -14.000000 6.000000 9.000000
      vertex 0.000000 6.000000 9.000000
      vertex -14.000000 6.000000 3.000000
    endloop
  endfacet
  facet normal 0.000000 1.000000 0.000000
    outer loop
      vertex -14.000000 6.000000 3.000000
      vertex 0.000000 6.000000 9.000000
      vertex 0.000000 6.000000 3.000000
    endloop
  endfacet
  facet normal 0.000000 0.000000 1.000000
    outer loop
      vertex -14.000000 6.000000 3.000000
      vertex 0.000000 6.000000 3.000000
      vertex 0.000000 8.000000 3.000000
    endloop
  endfacet
  facet normal 0.000000 -0.000000 1.000000
    outer loop
      vertex -14.000000 8.000000 3.000000
      vertex -14.000000 6.000000 3.000000
      vertex 0.000000 8.000000 3.000000
    endloop
  endfacet
  facet normal -0.000000 -1.000000 0.000000
    outer loop
      vertex -14.000000 8.000000 3.000000
      vertex 0.000000 8.000000 3.000000
      vertex 0.000000 8.000000 6.000000
    endloop
  endfacet
  facet normal 0.000000 -1.000000 0.000000
    outer loop
      vertex -14.000000 8.000000 6.000000
      vertex -14.000000 8.000000 3.000000
      vertex 0.000000 8.000000 6.000000
    endloop
  endfacet
  facet normal 0.000000 0.000000 1.000000
    outer loop
      vertex -14.000000 8.000000 6.000000
      vertex 0.000000 8.000000 6.000000
      vertex 0.000000 10.000000 6.000000
    endloop
  endfacet
  facet normal 0.000000 -0.000000 1.000000
    outer loop
      vertex -14.000000 10.000000 6.000000
      vertex -14.000000 8.000000 6.000000
      vertex 0.000000 10.000000 6.000000
    endloop
  endfacet
endsolid OpenSCAD_Model
