solid OpenSCAD_Model
  facet normal -2.22045e-16 0 -1
    outer loop
      vertex -50.8008 18.1595 1.128e-14
      vertex -43.2008 24.3853 9.5925e-15
      vertex -50.564 15.9104 1.12275e-14
    endloop
  endfacet
  facet normal -2.22045e-16 0 -1
    outer loop
      vertex -50.564 15.9104 1.12275e-14
      vertex -43.2008 24.3853 9.5925e-15
      vertex -43.2008 18.1595 9.5925e-15
    endloop
  endfacet
  facet normal -2.22045e-16 0 -1
    outer loop
      vertex -50.564 15.9104 1.12275e-14
      vertex -43.2008 18.1595 9.5925e-15
      vertex -42.9572 16.9349 9.53842e-15
    endloop
  endfacet
  facet normal -2.22045e-16 0 -1
    outer loop
      vertex -42.9572 16.9349 9.53842e-15
      vertex -42.2635 15.8967 9.38439e-15
      vertex -50.564 15.9104 1.12275e-14
    endloop
  endfacet
  facet normal -2.22045e-16 0 -1
    outer loop
      vertex -42.2635 15.8967 9.38439e-15
      vertex -41.2254 15.2031 9.15387e-15
      vertex -50.564 15.9104 1.12275e-14
    endloop
  endfacet
  facet normal -2.22045e-16 0 -1
    outer loop
      vertex -41.2254 15.2031 9.15387e-15
      vertex -40.0008 14.9595 8.88196e-15
      vertex -50.564 15.9104 1.12275e-14
    endloop
  endfacet
  facet normal -2.22045e-16 0 -1
    outer loop
      vertex -40.0008 14.9595 8.88196e-15
      vertex -10.2 9.0384 2.26485e-15
      vertex -50.564 15.9104 1.12275e-14
    endloop
  endfacet
  facet normal -2.22045e-16 0 -1
    outer loop
      vertex -38.7762 15.2031 8.61005e-15
      vertex -10.2 9.0384 2.26485e-15
      vertex -40.0008 14.9595 8.88196e-15
    endloop
  endfacet
  facet normal -2.22045e-16 0 -1
    outer loop
      vertex -37.7381 15.8967 8.37953e-15
      vertex -10.2 9.0384 2.26485e-15
      vertex -38.7762 15.2031 8.61005e-15
    endloop
  endfacet
  facet normal -2.22045e-16 0 -1
    outer loop
      vertex -37.0444 16.9349 8.2255e-15
      vertex -10.2 9.0384 2.26485e-15
      vertex -37.7381 15.8967 8.37953e-15
    endloop
  endfacet
  facet normal -2.22045e-16 0 -1
    outer loop
      vertex -36.8008 18.1595 8.17142e-15
      vertex -36.8008 24.3853 8.17142e-15
      vertex -36.501 24.2218 8.10486e-15
    endloop
  endfacet
  facet normal -2.22045e-16 0 -1
    outer loop
      vertex -36.8008 18.1595 8.17142e-15
      vertex -36.501 24.2218 8.10486e-15
      vertex -10.2 9.0384 2.26485e-15
    endloop
  endfacet
  facet normal -2.22045e-16 0 -1
    outer loop
      vertex -36.8008 18.1595 8.17142e-15
      vertex -10.2 9.0384 2.26485e-15
      vertex -37.0444 16.9349 8.2255e-15
    endloop
  endfacet
  facet normal -2.22045e-16 0 -1
    outer loop
      vertex -27.9013 6.9845 6.19534e-15
      vertex -10.2 9.0384 2.26485e-15
      vertex -10.2 -0.8917 2.26485e-15
    endloop
  endfacet
  facet normal -2.22045e-16 0 -1
    outer loop
      vertex -27.6803 6.1595 6.14626e-15
      vertex -10.2 -0.8917 2.26485e-15
      vertex -9.95641 -2.1163 2.21077e-15
    endloop
  endfacet
  facet normal -2.22045e-16 0 -1
    outer loop
      vertex -27.9013 5.3345 6.19534e-15
      vertex -2.86938 -6.5431 6.37131e-16
      vertex -4.61728 -7.4737 1.02524e-15
    endloop
  endfacet
  facet normal -2.22045e-16 0 -1
    outer loop
      vertex -3.8 -0.8917 8.43769e-16
      vertex -3.8 5.3437 8.43769e-16
      vertex -3.50025 5.1706 7.77212e-16
    endloop
  endfacet
  facet normal -2.22045e-16 0 -1
    outer loop
      vertex -3.8 -0.8917 8.43769e-16
      vertex -3.50025 5.1706 7.77212e-16
      vertex -1.94258 3.948 4.31339e-16
    endloop
  endfacet
  facet normal -2.22045e-16 0 -1
    outer loop
      vertex -3.8 -0.8917 8.43769e-16
      vertex -1.94258 3.948 4.31339e-16
      vertex -4.04359 -2.1163 8.97856e-16
    endloop
  endfacet
  facet normal -2.22045e-16 0 -1
    outer loop
      vertex -4.04359 -2.1163 8.97856e-16
      vertex -1.94258 3.948 4.31339e-16
      vertex -0.789623 2.338 1.75332e-16
    endloop
  endfacet
  facet normal -2.22045e-16 0 -1
    outer loop
      vertex -4.04359 -2.1163 8.97856e-16
      vertex -0.789623 2.338 1.75332e-16
      vertex -4.73726 -3.1544 1.05188e-15
    endloop
  endfacet
  facet normal -2.22045e-16 0 -1
    outer loop
      vertex -4.73726 -3.1544 1.05188e-15
      vertex -0.789623 2.338 1.75332e-16
      vertex -0.133651 0.4697 2.96765e-17
    endloop
  endfacet
  facet normal -2.22045e-16 0 -1
    outer loop
      vertex -4.73726 -3.1544 1.05188e-15
      vertex -0.133651 0.4697 2.96765e-17
      vertex -0.027156 -1.5077 6.02984e-18
    endloop
  endfacet
  facet normal -2.22045e-16 0 -1
    outer loop
      vertex -4.73726 -3.1544 1.05188e-15
      vertex -0.027156 -1.5077 6.02984e-18
      vertex -5.77541 -3.8481 1.2824e-15
    endloop
  endfacet
  facet normal -2.22045e-16 0 -1
    outer loop
      vertex -5.77541 -3.8481 1.2824e-15
      vertex -0.027156 -1.5077 6.02984e-18
      vertex -0.478662 -3.4357 1.06284e-16
    endloop
  endfacet
  facet normal -2.22045e-16 0 -1
    outer loop
      vertex -5.77541 -3.8481 1.2824e-15
      vertex -0.478662 -3.4357 1.06284e-16
      vertex -7 -4.0917 1.55431e-15
    endloop
  endfacet
  facet normal -2.22045e-16 0 -1
    outer loop
      vertex -7 -4.0917 1.55431e-15
      vertex -0.478662 -3.4357 1.06284e-16
      vertex -1.45204 -5.1602 3.22417e-16
    endloop
  endfacet
  facet normal -2.22045e-16 0 -1
    outer loop
      vertex -7 -4.0917 1.55431e-15
      vertex -1.45204 -5.1602 3.22417e-16
      vertex -2.86938 -6.5431 6.37131e-16
    endloop
  endfacet
  facet normal -2.22045e-16 0 -1
    outer loop
      vertex -7 -4.0917 1.55431e-15
      vertex -2.86938 -6.5431 6.37131e-16
      vertex -8.22459 -3.8481 1.82622e-15
    endloop
  endfacet
  facet normal -2.22045e-16 0 -1
    outer loop
      vertex -27.6803 6.1595 6.14626e-15
      vertex -9.26274 -3.1544 2.05674e-15
      vertex -27.9013 5.3345 6.19534e-15
    endloop
  endfacet
  facet normal -2.22045e-16 0 -1
    outer loop
      vertex -27.9013 5.3345 6.19534e-15
      vertex -4.61728 -7.4737 1.02524e-15
      vertex -28.5053 4.7305 6.32945e-15
    endloop
  endfacet
  facet normal -2.22045e-16 0 -1
    outer loop
      vertex -30.1553 4.7305 6.69582e-15
      vertex -6.55586 -7.8776 1.45569e-15
      vertex -8.52998 -7.7224 1.89404e-15
    endloop
  endfacet
  facet normal -2.22045e-16 0 -1
    outer loop
      vertex -50.564 15.9104 1.12275e-14
      vertex -8.52998 -7.7224 1.89404e-15
      vertex -31.2974 -2.6229 6.94942e-15
    endloop
  endfacet
  facet normal -2.22045e-16 0 -1
    outer loop
      vertex -50.564 15.9104 1.12275e-14
      vertex -31.2974 -2.6229 6.94942e-15
      vertex -33.4543 -1.84 7.42835e-15
    endloop
  endfacet
  facet normal -2.22045e-16 0 -1
    outer loop
      vertex -50.564 15.9104 1.12275e-14
      vertex -33.4543 -1.84 7.42835e-15
      vertex -35.3432 -0.5372 7.84776e-15
    endloop
  endfacet
  facet normal -2.22045e-16 0 -1
    outer loop
      vertex -50.564 15.9104 1.12275e-14
      vertex -35.3432 -0.5372 7.84776e-15
      vertex -47.2162 10.1235 1.04841e-14
    endloop
  endfacet
  facet normal -2.22045e-16 0 -1
    outer loop
      vertex -50.564 15.9104 1.12275e-14
      vertex -47.2162 10.1235 1.04841e-14
      vertex -48.7315 11.8023 1.08206e-14
    endloop
  endfacet
  facet normal -2.22045e-16 0 -1
    outer loop
      vertex -50.564 15.9104 1.12275e-14
      vertex -48.7315 11.8023 1.08206e-14
      vertex -49.864 13.7599 1.1072e-14
    endloop
  endfacet
  facet normal -2.22045e-16 0 -1
    outer loop
      vertex -30.7592 5.3345 6.82992e-15
      vertex -50.564 15.9104 1.12275e-14
      vertex -30.9803 6.1595 6.87901e-15
    endloop
  endfacet
  facet normal -2.22045e-16 0 -1
    outer loop
      vertex -30.1553 4.7305 6.69582e-15
      vertex -50.564 15.9104 1.12275e-14
      vertex -30.7592 5.3345 6.82992e-15
    endloop
  endfacet
  facet normal -2.22045e-16 0 -1
    outer loop
      vertex -28.5053 4.7305 6.32945e-15
      vertex -4.61728 -7.4737 1.02524e-15
      vertex -6.55586 -7.8776 1.45569e-15
    endloop
  endfacet
  facet normal -2.22045e-16 0 -1
    outer loop
      vertex -50.564 15.9104 1.12275e-14
      vertex -30.1553 4.7305 6.69582e-15
      vertex -8.52998 -7.7224 1.89404e-15
    endloop
  endfacet
  facet normal -2.22045e-16 0 -1
    outer loop
      vertex -28.5053 4.7305 6.32945e-15
      vertex -6.55586 -7.8776 1.45569e-15
      vertex -29.3303 4.5095 6.51263e-15
    endloop
  endfacet
  facet normal -2.22045e-16 0 -1
    outer loop
      vertex -29.3303 4.5095 6.51263e-15
      vertex -6.55586 -7.8776 1.45569e-15
      vertex -30.1553 4.7305 6.69582e-15
    endloop
  endfacet
  facet normal -2.22045e-16 0 -1
    outer loop
      vertex -9.26274 -3.1544 2.05674e-15
      vertex -8.22459 -3.8481 1.82622e-15
      vertex -27.9013 5.3345 6.19534e-15
    endloop
  endfacet
  facet normal -2.22045e-16 0 -1
    outer loop
      vertex -27.9013 6.9845 6.19534e-15
      vertex -10.2 -0.8917 2.26485e-15
      vertex -27.6803 6.1595 6.14626e-15
    endloop
  endfacet
  facet normal -2.22045e-16 0 -1
    outer loop
      vertex -28.5053 7.5884 6.32945e-15
      vertex -10.2 9.0384 2.26485e-15
      vertex -27.9013 6.9845 6.19534e-15
    endloop
  endfacet
  facet normal -2.22045e-16 0 -1
    outer loop
      vertex -30.1553 7.5884 6.69582e-15
      vertex -50.564 15.9104 1.12275e-14
      vertex -29.3303 7.8095 6.51263e-15
    endloop
  endfacet
  facet normal -2.22045e-16 0 -1
    outer loop
      vertex -50.564 15.9104 1.12275e-14
      vertex -10.2 9.0384 2.26485e-15
      vertex -28.5053 7.5884 6.32945e-15
    endloop
  endfacet
  facet normal -2.22045e-16 0 -1
    outer loop
      vertex -50.564 15.9104 1.12275e-14
      vertex -28.5053 7.5884 6.32945e-15
      vertex -29.3303 7.8095 6.51263e-15
    endloop
  endfacet
  facet normal -2.22045e-16 0 -1
    outer loop
      vertex -30.7592 6.9845 6.82992e-15
      vertex -50.564 15.9104 1.12275e-14
      vertex -30.1553 7.5884 6.69582e-15
    endloop
  endfacet
  facet normal -2.22045e-16 0 -1
    outer loop
      vertex -30.9803 6.1595 6.87901e-15
      vertex -50.564 15.9104 1.12275e-14
      vertex -30.7592 6.9845 6.82992e-15
    endloop
  endfacet
  facet normal -2.22045e-16 0 -1
    outer loop
      vertex -27.9013 5.3345 6.19534e-15
      vertex -8.22459 -3.8481 1.82622e-15
      vertex -2.86938 -6.5431 6.37131e-16
    endloop
  endfacet
  facet normal -2.22045e-16 0 -1
    outer loop
      vertex -27.6803 6.1595 6.14626e-15
      vertex -9.95641 -2.1163 2.21077e-15
      vertex -9.26274 -3.1544 2.05674e-15
    endloop
  endfacet
  facet normal -0.633702 0.773578 1.4071e-16
    outer loop
      vertex -50.8008 18.1595 1.128e-14
      vertex -50.8008 18.1595 3.1
      vertex -43.2008 24.3853 9.5925e-15
    endloop
  endfacet
  facet normal -0.633702 0.773578 1.4071e-16
    outer loop
      vertex -43.2008 24.3853 9.5925e-15
      vertex -50.8008 18.1595 3.1
      vertex -43.2008 24.3853 3.1
    endloop
  endfacet
  facet normal -0.99836 -0.0572559 2.2168e-16
    outer loop
      vertex -50.8008 18.1595 3.1
      vertex -50.8008 18.1595 1.128e-14
      vertex -50.73 16.9248 4.1
    endloop
  endfacet
  facet normal -0.994401 -0.104693 -0.0143538
    outer loop
      vertex -50.73 16.9248 4.1
      vertex -50.8008 18.1595 1.128e-14
      vertex -50.564 15.9104 1.12275e-14
    endloop
  endfacet
  facet normal -0.986877 -0.161477 2.19131e-16
    outer loop
      vertex -50.564 15.9104 4.1
      vertex -50.73 16.9248 4.1
      vertex -50.564 15.9104 1.12275e-14
    endloop
  endfacet
  facet normal -0.950895 -0.309513 2.11141e-16
    outer loop
      vertex -50.564 15.9104 1.12275e-14
      vertex -49.864 13.7599 1.1072e-14
      vertex -50.564 15.9104 4.1
    endloop
  endfacet
  facet normal -0.950895 -0.309513 2.11141e-16
    outer loop
      vertex -50.564 15.9104 4.1
      vertex -49.864 13.7599 1.1072e-14
      vertex -49.864 13.7599 4.1
    endloop
  endfacet
  facet normal -0.865591 -0.500752 1.922e-16
    outer loop
      vertex -49.864 13.7599 1.1072e-14
      vertex -48.7315 11.8023 1.08206e-14
      vertex -49.864 13.7599 4.1
    endloop
  endfacet
  facet normal -0.865591 -0.500752 1.922e-16
    outer loop
      vertex -49.864 13.7599 4.1
      vertex -48.7315 11.8023 1.08206e-14
      vertex -48.7315 11.8023 4.1
    endloop
  endfacet
  facet normal -0.742326 -0.670039 1.64829e-16
    outer loop
      vertex -48.7315 11.8023 1.08206e-14
      vertex -47.2162 10.1235 1.04841e-14
      vertex -48.7315 11.8023 4.1
    endloop
  endfacet
  facet normal -0.742326 -0.670039 1.64829e-16
    outer loop
      vertex -48.7315 11.8023 4.1
      vertex -47.2162 10.1235 1.04841e-14
      vertex -47.2162 10.1235 4.1
    endloop
  endfacet
  facet normal -0.668112 -0.744061 1.48351e-16
    outer loop
      vertex -47.2162 10.1235 4.1
      vertex -47.2162 10.1235 1.04841e-14
      vertex -45.4304 8.52 3.6
    endloop
  endfacet
  facet normal -0.668082 -0.744088 -2.69125e-05
    outer loop
      vertex -45.4304 8.52 3.6
      vertex -47.2162 10.1235 1.04841e-14
      vertex -42.9071 6.2544 3.6
    endloop
  endfacet
  facet normal -0.668096 -0.744075 4.30074e-06
    outer loop
      vertex -42.9071 6.2544 3.6
      vertex -47.2162 10.1235 1.04841e-14
      vertex -35.3432 -0.5372 7.84776e-15
    endloop
  endfacet
  facet normal -0.668098 -0.744074 1.48347e-16
    outer loop
      vertex -42.9071 6.2544 7.6
      vertex -42.9071 6.2544 3.6
      vertex -35.3432 -0.5372 7.84776e-15
    endloop
  endfacet
  facet normal -0.668098 -0.744074 1.48347e-16
    outer loop
      vertex -35.3431 -0.5372 7.6
      vertex -42.9071 6.2544 7.6
      vertex -35.3432 -0.5372 7.84776e-15
    endloop
  endfacet
  facet normal -0.56778 -0.82318 1.26072e-16
    outer loop
      vertex -35.3431 -0.5372 7.6
      vertex -35.3432 -0.5372 7.84776e-15
      vertex -33.4543 -1.84 7.42835e-15
    endloop
  endfacet
  facet normal -0.56778 -0.82318 1.26072e-16
    outer loop
      vertex -33.4543 -1.84 7.6
      vertex -35.3431 -0.5372 7.6
      vertex -33.4543 -1.84 7.42835e-15
    endloop
  endfacet
  facet normal -0.341192 -0.939994 7.57599e-17
    outer loop
      vertex -33.4543 -1.84 7.6
      vertex -33.4543 -1.84 7.42835e-15
      vertex -31.2974 -2.6229 6.94942e-15
    endloop
  endfacet
  facet normal -0.341192 -0.939994 7.57599e-17
    outer loop
      vertex -31.2974 -2.6229 7.6
      vertex -33.4543 -1.84 7.6
      vertex -31.2974 -2.6229 6.94942e-15
    endloop
  endfacet
  facet normal -0.218567 -0.975822 4.85316e-17
    outer loop
      vertex -31.2974 -2.6229 7.6
      vertex -31.2974 -2.6229 6.94942e-15
      vertex -8.52998 -7.7224 1.89404e-15
    endloop
  endfacet
  facet normal -0.218567 -0.975822 4.85316e-17
    outer loop
      vertex -8.52998 -7.7224 7.6
      vertex -31.2974 -2.6229 7.6
      vertex -8.52998 -7.7224 1.89404e-15
    endloop
  endfacet
  facet normal -0.0783756 -0.996924 1.74029e-17
    outer loop
      vertex -8.52998 -7.7224 7.6
      vertex -8.52998 -7.7224 1.89404e-15
      vertex -6.55586 -7.8776 1.45569e-15
    endloop
  endfacet
  facet normal -0.0783756 -0.996924 1.74029e-17
    outer loop
      vertex -6.55586 -7.8776 7.6
      vertex -8.52998 -7.7224 7.6
      vertex -6.55586 -7.8776 1.45569e-15
    endloop
  endfacet
  facet normal 0.203969 -0.978977 -4.52902e-17
    outer loop
      vertex -6.55586 -7.8776 7.6
      vertex -6.55586 -7.8776 1.45569e-15
      vertex -4.61728 -7.4737 1.02524e-15
    endloop
  endfacet
  facet normal 0.203969 -0.978977 -4.52902e-17
    outer loop
      vertex -4.61728 -7.4737 7.6
      vertex -6.55586 -7.8776 7.6
      vertex -4.61728 -7.4737 1.02524e-15
    endloop
  endfacet
  facet normal 0.469954 -0.882691 -1.04351e-16
    outer loop
      vertex -4.61728 -7.4737 7.6
      vertex -4.61728 -7.4737 1.02524e-15
      vertex -2.86938 -6.5431 6.37131e-16
    endloop
  endfacet
  facet normal 0.469954 -0.882691 -1.04351e-16
    outer loop
      vertex -2.86938 -6.5431 7.6
      vertex -4.61728 -7.4737 7.6
      vertex -2.86938 -6.5431 6.37131e-16
    endloop
  endfacet
  facet normal 0.698355 -0.715751 -1.55066e-16
    outer loop
      vertex -2.86938 -6.5431 7.6
      vertex -2.86938 -6.5431 6.37131e-16
      vertex -1.45204 -5.1602 3.22417e-16
    endloop
  endfacet
  facet normal 0.698355 -0.715751 -1.55066e-16
    outer loop
      vertex -1.45204 -5.1602 7.6
      vertex -2.86938 -6.5431 7.6
      vertex -1.45204 -5.1602 3.22417e-16
    endloop
  endfacet
  facet normal 0.870853 -0.491543 -1.93368e-16
    outer loop
      vertex -1.45204 -5.1602 7.6
      vertex -1.45204 -5.1602 3.22417e-16
      vertex -0.478662 -3.4357 1.06284e-16
    endloop
  endfacet
  facet normal 0.870853 -0.491543 -1.93368e-16
    outer loop
      vertex -0.478662 -3.4357 7.6
      vertex -1.45204 -5.1602 7.6
      vertex -0.478662 -3.4357 1.06284e-16
    endloop
  endfacet
  facet normal 0.973658 -0.228015 -2.16195e-16
    outer loop
      vertex -0.478662 -3.4357 7.6
      vertex -0.478662 -3.4357 1.06284e-16
      vertex -0.027156 -1.5077 6.02984e-18
    endloop
  endfacet
  facet normal 0.973658 -0.228015 -2.16195e-16
    outer loop
      vertex -0.027156 -1.5077 7.6
      vertex -0.478662 -3.4357 7.6
      vertex -0.027156 -1.5077 6.02984e-18
    endloop
  endfacet
  facet normal 0.998553 0.0537781 -2.21723e-16
    outer loop
      vertex -0.027156 -1.5077 6.02984e-18
      vertex -0.133651 0.4697 2.96765e-17
      vertex -0.133651 0.4697 7.6
    endloop
  endfacet
  facet normal 0.998553 0.0537781 -2.21723e-16
    outer loop
      vertex -0.027156 -1.5077 7.6
      vertex -0.027156 -1.5077 6.02984e-18
      vertex -0.133651 0.4697 7.6
    endloop
  endfacet
  facet normal 0.943532 0.33128 -2.09506e-16
    outer loop
      vertex -0.133651 0.4697 2.96765e-17
      vertex -0.789623 2.338 1.75332e-16
      vertex -0.789623 2.338 7.6
    endloop
  endfacet
  facet normal 0.943532 0.33128 -2.09506e-16
    outer loop
      vertex -0.133651 0.4697 7.6
      vertex -0.133651 0.4697 2.96765e-17
      vertex -0.789623 2.338 7.6
    endloop
  endfacet
  facet normal 0.813027 0.582226 -1.80528e-16
    outer loop
      vertex -0.789623 2.338 1.75332e-16
      vertex -1.94258 3.948 4.31339e-16
      vertex -1.94258 3.948 7.6
    endloop
  endfacet
  facet normal 0.813027 0.582226 -1.80528e-16
    outer loop
      vertex -0.789623 2.338 7.6
      vertex -0.789623 2.338 1.75332e-16
      vertex -1.94258 3.948 7.6
    endloop
  endfacet
  facet normal 0.61742 0.786634 -1.37095e-16
    outer loop
      vertex -3.50025 5.1706 7.77212e-16
      vertex -3.50025 5.1706 7.6
      vertex -1.94258 3.948 4.31339e-16
    endloop
  endfacet
  facet normal 0.61742 0.786634 -1.37095e-16
    outer loop
      vertex -1.94258 3.948 4.31339e-16
      vertex -3.50025 5.1706 7.6
      vertex -1.94258 3.948 7.6
    endloop
  endfacet
  facet normal 0.500089 0.865974 -1.11042e-16
    outer loop
      vertex -3.8 5.3437 8.43769e-16
      vertex -3.8 5.3437 7.6
      vertex -3.50025 5.1706 7.77212e-16
    endloop
  endfacet
  facet normal 0.500089 0.865974 -1.11042e-16
    outer loop
      vertex -3.50025 5.1706 7.77212e-16
      vertex -3.8 5.3437 7.6
      vertex -3.50025 5.1706 7.6
    endloop
  endfacet
  facet normal -1 0 2.22045e-16
    outer loop
      vertex -3.8 -0.8917 8.43769e-16
      vertex -3.8 -0.8917 7.6
      vertex -3.8 5.3437 8.43769e-16
    endloop
  endfacet
  facet normal -1 0 2.22045e-16
    outer loop
      vertex -3.8 5.3437 8.43769e-16
      vertex -3.8 -0.8917 7.6
      vertex -3.8 5.3437 7.6
    endloop
  endfacet
  facet normal -0.980786 0.195089 2.17778e-16
    outer loop
      vertex -4.04359 -2.1163 8.97856e-16
      vertex -4.04359 -2.1163 7.6
      vertex -3.8 -0.8917 8.43769e-16
    endloop
  endfacet
  facet normal -0.980786 0.195089 2.17778e-16
    outer loop
      vertex -3.8 -0.8917 8.43769e-16
      vertex -4.04359 -2.1163 7.6
      vertex -3.8 -0.8917 7.6
    endloop
  endfacet
  facet normal -0.831456 0.55559 1.8462e-16
    outer loop
      vertex -4.73726 -3.1544 1.05188e-15
      vertex -4.73726 -3.1544 7.6
      vertex -4.04359 -2.1163 8.97856e-16
    endloop
  endfacet
  facet normal -0.831456 0.55559 1.8462e-16
    outer loop
      vertex -4.04359 -2.1163 8.97856e-16
      vertex -4.73726 -3.1544 7.6
      vertex -4.04359 -2.1163 7.6
    endloop
  endfacet
  facet normal -0.555585 0.83146 1.23365e-16
    outer loop
      vertex -5.77541 -3.8481 1.2824e-15
      vertex -5.77541 -3.8481 7.6
      vertex -4.73726 -3.1544 1.05188e-15
    endloop
  endfacet
  facet normal -0.555585 0.83146 1.23365e-16
    outer loop
      vertex -4.73726 -3.1544 1.05188e-15
      vertex -5.77541 -3.8481 7.6
      vertex -4.73726 -3.1544 7.6
    endloop
  endfacet
  facet normal -0.195101 0.980783 4.33212e-17
    outer loop
      vertex -7 -4.0917 1.55431e-15
      vertex -7 -4.0917 7.6
      vertex -5.77541 -3.8481 1.2824e-15
    endloop
  endfacet
  facet normal -0.195101 0.980783 4.33212e-17
    outer loop
      vertex -5.77541 -3.8481 1.2824e-15
      vertex -7 -4.0917 7.6
      vertex -5.77541 -3.8481 7.6
    endloop
  endfacet
  facet normal 0.195102 0.980783 -4.33213e-17
    outer loop
      vertex -8.22459 -3.8481 1.82622e-15
      vertex -8.22459 -3.8481 7.6
      vertex -7 -4.0917 1.55431e-15
    endloop
  endfacet
  facet normal 0.195102 0.980783 -4.33213e-17
    outer loop
      vertex -7 -4.0917 1.55431e-15
      vertex -8.22459 -3.8481 7.6
      vertex -7 -4.0917 7.6
    endloop
  endfacet
  facet normal 0.555585 0.83146 -1.23365e-16
    outer loop
      vertex -9.26274 -3.1544 2.05674e-15
      vertex -9.26274 -3.1544 7.6
      vertex -8.22459 -3.8481 1.82622e-15
    endloop
  endfacet
  facet normal 0.555585 0.83146 -1.23365e-16
    outer loop
      vertex -8.22459 -3.8481 1.82622e-15
      vertex -9.26274 -3.1544 7.6
      vertex -8.22459 -3.8481 7.6
    endloop
  endfacet
  facet normal 0.831456 0.555591 -1.8462e-16
    outer loop
      vertex -9.26274 -3.1544 2.05674e-15
      vertex -9.95641 -2.1163 2.21077e-15
      vertex -9.95641 -2.1163 7.6
    endloop
  endfacet
  facet normal 0.831456 0.555591 -1.8462e-16
    outer loop
      vertex -9.26274 -3.1544 7.6
      vertex -9.26274 -3.1544 2.05674e-15
      vertex -9.95641 -2.1163 7.6
    endloop
  endfacet
  facet normal 0.980786 0.195089 -2.17778e-16
    outer loop
      vertex -9.95641 -2.1163 2.21077e-15
      vertex -10.2 -0.8917 2.26485e-15
      vertex -10.2 -0.8917 7.6
    endloop
  endfacet
  facet normal 0.980786 0.195089 -2.17778e-16
    outer loop
      vertex -9.95641 -2.1163 7.6
      vertex -9.95641 -2.1163 2.21077e-15
      vertex -10.2 -0.8917 7.6
    endloop
  endfacet
  facet normal 1 0 -2.22045e-16
    outer loop
      vertex -10.2 -0.8917 7.6
      vertex -10.2 -0.8917 2.26485e-15
      vertex -10.2 9.0384 2.26485e-15
    endloop
  endfacet
  facet normal 1 0 -2.22045e-16
    outer loop
      vertex -10.2 9.0384 7.6
      vertex -10.2 -0.8917 7.6
      vertex -10.2 9.0384 2.26485e-15
    endloop
  endfacet
  facet normal 0.499964 0.866046 -1.11014e-16
    outer loop
      vertex -21.8303 15.7525 3.6
      vertex -21.8303 15.7525 7.6
      vertex -10.2 9.0384 2.26485e-15
    endloop
  endfacet
  facet normal 0.499964 0.866046 -1.11014e-16
    outer loop
      vertex -10.2 9.0384 2.26485e-15
      vertex -21.8303 15.7525 7.6
      vertex -10.2 9.0384 7.6
    endloop
  endfacet
  facet normal 0.499963 0.866047 -4.89002e-06
    outer loop
      vertex -10.2 9.0384 2.26485e-15
      vertex -36.501 24.2218 8.10486e-15
      vertex -21.8303 15.7525 3.6
    endloop
  endfacet
  facet normal 0.499962 0.866048 -1.11014e-16
    outer loop
      vertex -21.8303 15.7525 3.6
      vertex -36.501 24.2218 8.10486e-15
      vertex -36.501 24.2218 3.6
    endloop
  endfacet
  facet normal 0.478864 0.877889 -1.06329e-16
    outer loop
      vertex -36.8008 24.3853 8.17142e-15
      vertex -36.8008 24.3853 3.6
      vertex -36.501 24.2218 8.10486e-15
    endloop
  endfacet
  facet normal 0.478864 0.877889 -1.06329e-16
    outer loop
      vertex -36.501 24.2218 8.10486e-15
      vertex -36.8008 24.3853 3.6
      vertex -36.501 24.2218 3.6
    endloop
  endfacet
  facet normal -1 0 2.22045e-16
    outer loop
      vertex -36.8008 18.1595 8.17142e-15
      vertex -36.8008 18.1595 4.1
      vertex -36.8008 24.3853 8.17142e-15
    endloop
  endfacet
  facet normal -1 0 2.22045e-16
    outer loop
      vertex -36.8008 24.3853 8.17142e-15
      vertex -36.8008 18.1595 4.1
      vertex -36.8008 22.8765 4.1
    endloop
  endfacet
  facet normal -1 0 2.22045e-16
    outer loop
      vertex -36.8008 24.3853 8.17142e-15
      vertex -36.8008 22.8765 4.1
      vertex -36.8008 24.2726 3.6
    endloop
  endfacet
  facet normal -1 0 2.22045e-16
    outer loop
      vertex -36.8008 24.3853 8.17142e-15
      vertex -36.8008 24.2726 3.6
      vertex -36.8008 24.3853 3.6
    endloop
  endfacet
  facet normal -0.980785 0.195092 2.17778e-16
    outer loop
      vertex -37.0444 16.9349 8.2255e-15
      vertex -37.0444 16.9349 4.1
      vertex -36.8008 18.1595 8.17142e-15
    endloop
  endfacet
  facet normal -0.980785 0.195092 2.17778e-16
    outer loop
      vertex -36.8008 18.1595 8.17142e-15
      vertex -37.0444 16.9349 4.1
      vertex -36.8008 18.1595 4.1
    endloop
  endfacet
  facet normal -0.831478 0.555557 1.84625e-16
    outer loop
      vertex -37.7381 15.8967 8.37953e-15
      vertex -37.7381 15.8967 4.1
      vertex -37.0444 16.9349 8.2255e-15
    endloop
  endfacet
  facet normal -0.831478 0.555557 1.84625e-16
    outer loop
      vertex -37.0444 16.9349 8.2255e-15
      vertex -37.7381 15.8967 4.1
      vertex -37.0444 16.9349 4.1
    endloop
  endfacet
  facet normal -0.555532 0.831495 1.23353e-16
    outer loop
      vertex -38.7762 15.2031 8.61005e-15
      vertex -38.7762 15.2031 4.1
      vertex -37.7381 15.8967 8.37953e-15
    endloop
  endfacet
  facet normal -0.555532 0.831495 1.23353e-16
    outer loop
      vertex -37.7381 15.8967 8.37953e-15
      vertex -38.7762 15.2031 4.1
      vertex -37.7381 15.8967 4.1
    endloop
  endfacet
  facet normal -0.195101 0.980783 4.33211e-17
    outer loop
      vertex -40.0008 14.9595 8.88196e-15
      vertex -40.0008 14.9595 4.1
      vertex -38.7762 15.2031 8.61005e-15
    endloop
  endfacet
  facet normal -0.195101 0.980783 4.33211e-17
    outer loop
      vertex -38.7762 15.2031 8.61005e-15
      vertex -40.0008 14.9595 4.1
      vertex -38.7762 15.2031 4.1
    endloop
  endfacet
  facet normal 0.195103 0.980783 -4.33215e-17
    outer loop
      vertex -41.2254 15.2031 9.15387e-15
      vertex -41.2254 15.2031 4.1
      vertex -40.0008 14.9595 8.88196e-15
    endloop
  endfacet
  facet normal 0.195103 0.980783 -4.33215e-17
    outer loop
      vertex -40.0008 14.9595 8.88196e-15
      vertex -41.2254 15.2031 4.1
      vertex -40.0008 14.9595 4.1
    endloop
  endfacet
  facet normal 0.555528 0.831498 -1.23352e-16
    outer loop
      vertex -42.2635 15.8967 9.38439e-15
      vertex -42.2635 15.8967 4.1
      vertex -41.2254 15.2031 9.15387e-15
    endloop
  endfacet
  facet normal 0.555528 0.831498 -1.23352e-16
    outer loop
      vertex -41.2254 15.2031 9.15387e-15
      vertex -42.2635 15.8967 4.1
      vertex -41.2254 15.2031 4.1
    endloop
  endfacet
  facet normal 0.831482 0.555552 -1.84626e-16
    outer loop
      vertex -42.2635 15.8967 9.38439e-15
      vertex -42.9572 16.9349 9.53842e-15
      vertex -42.9572 16.9349 4.1
    endloop
  endfacet
  facet normal 0.831482 0.555552 -1.84626e-16
    outer loop
      vertex -42.2635 15.8967 4.1
      vertex -42.2635 15.8967 9.38439e-15
      vertex -42.9572 16.9349 4.1
    endloop
  endfacet
  facet normal 0.980787 0.195084 -2.17778e-16
    outer loop
      vertex -42.9572 16.9349 9.53842e-15
      vertex -43.2008 18.1595 9.5925e-15
      vertex -43.2008 18.1595 4.1
    endloop
  endfacet
  facet normal 0.980787 0.195084 -2.17778e-16
    outer loop
      vertex -42.9572 16.9349 4.1
      vertex -42.9572 16.9349 9.53842e-15
      vertex -43.2008 18.1595 4.1
    endloop
  endfacet
  facet normal 1 0 -2.22045e-16
    outer loop
      vertex -43.2008 18.1595 4.1
      vertex -43.2008 18.1595 9.5925e-15
      vertex -43.2008 24.3853 9.5925e-15
    endloop
  endfacet
  facet normal 1 0 -2.22045e-16
    outer loop
      vertex -43.2008 23.2702 3.96254
      vertex -43.2008 18.1595 4.1
      vertex -43.2008 24.3853 3.1
    endloop
  endfacet
  facet normal 1 0 -2.22045e-16
    outer loop
      vertex -43.2008 24.3853 3.1
      vertex -43.2008 18.1595 4.1
      vertex -43.2008 24.3853 9.5925e-15
    endloop
  endfacet
  facet normal 1 0 -2.22045e-16
    outer loop
      vertex -43.2008 22.8765 4.1
      vertex -43.2008 18.1595 4.1
      vertex -43.2008 23.2702 3.96254
    endloop
  endfacet
  facet normal 0.965925 0.258821 -2.14478e-16
    outer loop
      vertex -30.7592 5.3345 6.82992e-15
      vertex -30.9803 6.1595 6.87901e-15
      vertex -30.9803 6.1595 5.6
    endloop
  endfacet
  facet normal 0.965925 0.258821 -2.14478e-16
    outer loop
      vertex -30.7592 5.3345 5.6
      vertex -30.7592 5.3345 6.82992e-15
      vertex -30.9803 6.1595 5.6
    endloop
  endfacet
  facet normal 0.965925 -0.258821 -2.14478e-16
    outer loop
      vertex -30.9803 6.1595 5.6
      vertex -30.9803 6.1595 6.87901e-15
      vertex -30.7592 6.9845 6.82992e-15
    endloop
  endfacet
  facet normal 0.965925 -0.258821 -2.14478e-16
    outer loop
      vertex -30.7592 6.9845 5.6
      vertex -30.9803 6.1595 5.6
      vertex -30.7592 6.9845 6.82992e-15
    endloop
  endfacet
  facet normal 0.707078 -0.707136 -1.57003e-16
    outer loop
      vertex -30.7592 6.9845 5.6
      vertex -30.7592 6.9845 6.82992e-15
      vertex -30.1553 7.5884 6.69582e-15
    endloop
  endfacet
  facet normal 0.707078 -0.707136 -1.57003e-16
    outer loop
      vertex -30.1553 7.5884 5.6
      vertex -30.7592 6.9845 5.6
      vertex -30.1553 7.5884 6.69582e-15
    endloop
  endfacet
  facet normal 0.258865 -0.965914 -5.74795e-17
    outer loop
      vertex -30.1553 7.5884 5.6
      vertex -30.1553 7.5884 6.69582e-15
      vertex -29.3303 7.8095 6.51263e-15
    endloop
  endfacet
  facet normal 0.258865 -0.965914 -5.74795e-17
    outer loop
      vertex -29.3303 7.8095 5.6
      vertex -30.1553 7.5884 5.6
      vertex -29.3303 7.8095 6.51263e-15
    endloop
  endfacet
  facet normal -0.258865 -0.965914 5.74795e-17
    outer loop
      vertex -29.3303 7.8095 5.6
      vertex -29.3303 7.8095 6.51263e-15
      vertex -28.5053 7.5884 6.32945e-15
    endloop
  endfacet
  facet normal -0.258865 -0.965914 5.74795e-17
    outer loop
      vertex -28.5053 7.5884 5.6
      vertex -29.3303 7.8095 5.6
      vertex -28.5053 7.5884 6.32945e-15
    endloop
  endfacet
  facet normal -0.707083 -0.70713 1.57004e-16
    outer loop
      vertex -28.5053 7.5884 5.6
      vertex -28.5053 7.5884 6.32945e-15
      vertex -27.9013 6.9845 6.19534e-15
    endloop
  endfacet
  facet normal -0.707083 -0.70713 1.57004e-16
    outer loop
      vertex -27.9013 6.9845 5.6
      vertex -28.5053 7.5884 5.6
      vertex -27.9013 6.9845 6.19534e-15
    endloop
  endfacet
  facet normal -0.965925 -0.258821 2.14478e-16
    outer loop
      vertex -27.9013 6.9845 6.19534e-15
      vertex -27.6803 6.1595 6.14626e-15
      vertex -27.9013 6.9845 5.6
    endloop
  endfacet
  facet normal -0.965925 -0.258821 2.14478e-16
    outer loop
      vertex -27.9013 6.9845 5.6
      vertex -27.6803 6.1595 6.14626e-15
      vertex -27.6803 6.1595 5.6
    endloop
  endfacet
  facet normal -0.965925 0.258821 2.14478e-16
    outer loop
      vertex -27.9013 5.3345 6.19534e-15
      vertex -27.9013 5.3345 5.6
      vertex -27.6803 6.1595 6.14626e-15
    endloop
  endfacet
  facet normal -0.965925 0.258821 2.14478e-16
    outer loop
      vertex -27.6803 6.1595 6.14626e-15
      vertex -27.9013 5.3345 5.6
      vertex -27.6803 6.1595 5.6
    endloop
  endfacet
  facet normal -0.707142 0.707072 1.57017e-16
    outer loop
      vertex -28.5053 4.7305 6.32945e-15
      vertex -28.5053 4.7305 5.6
      vertex -27.9013 5.3345 6.19534e-15
    endloop
  endfacet
  facet normal -0.707142 0.707072 1.57017e-16
    outer loop
      vertex -27.9013 5.3345 6.19534e-15
      vertex -28.5053 4.7305 5.6
      vertex -27.9013 5.3345 5.6
    endloop
  endfacet
  facet normal -0.258756 0.965943 5.74553e-17
    outer loop
      vertex -29.3303 4.5095 6.51263e-15
      vertex -29.3303 4.5095 5.6
      vertex -28.5053 4.7305 6.32945e-15
    endloop
  endfacet
  facet normal -0.258756 0.965943 5.74553e-17
    outer loop
      vertex -28.5053 4.7305 6.32945e-15
      vertex -29.3303 4.5095 5.6
      vertex -28.5053 4.7305 5.6
    endloop
  endfacet
  facet normal 0.258756 0.965943 -5.74553e-17
    outer loop
      vertex -30.1553 4.7305 6.69582e-15
      vertex -30.1553 4.7305 5.6
      vertex -29.3303 4.5095 6.51263e-15
    endloop
  endfacet
  facet normal 0.258756 0.965943 -5.74553e-17
    outer loop
      vertex -29.3303 4.5095 6.51263e-15
      vertex -30.1553 4.7305 5.6
      vertex -29.3303 4.5095 5.6
    endloop
  endfacet
  facet normal 0.707136 0.707078 -1.57016e-16
    outer loop
      vertex -30.1553 4.7305 6.69582e-15
      vertex -30.7592 5.3345 6.82992e-15
      vertex -30.7592 5.3345 5.6
    endloop
  endfacet
  facet normal 0.707136 0.707078 -1.57016e-16
    outer loop
      vertex -30.1553 4.7305 5.6
      vertex -30.1553 4.7305 6.69582e-15
      vertex -30.7592 5.3345 5.6
    endloop
  endfacet
  facet normal -0.448096 0.547003 0.707105
    outer loop
      vertex -43.2008 24.3853 3.1
      vertex -50.8008 18.1595 3.1
      vertex -46.1202 21.3474 3.6
    endloop
  endfacet
  facet normal -0.448052 0.546983 0.707148
    outer loop
      vertex -43.2008 24.3853 3.1
      vertex -43.8417 22.7011 3.99666
      vertex -43.2008 23.2702 3.96254
    endloop
  endfacet
  facet normal -0.448074 0.546984 0.707134
    outer loop
      vertex -43.2008 24.3853 3.1
      vertex -44.3583 22.3285 3.95755
      vertex -43.8417 22.7011 3.99666
    endloop
  endfacet
  facet normal -0.448058 0.54698 0.707147
    outer loop
      vertex -43.2008 24.3853 3.1
      vertex -44.5353 22.2008 3.94414
      vertex -44.3583 22.3285 3.95755
    endloop
  endfacet
  facet normal -0.447976 0.546957 0.707217
    outer loop
      vertex -43.2008 24.3853 3.1
      vertex -44.8123 22.0275 3.90272
      vertex -44.5353 22.2008 3.94414
    endloop
  endfacet
  facet normal -0.448106 0.547005 0.707097
    outer loop
      vertex -43.2008 24.3853 3.1
      vertex -46.0882 21.3625 3.60859
      vertex -44.8123 22.0275 3.90272
    endloop
  endfacet
  facet normal -0.44747 0.546527 0.707869
    outer loop
      vertex -43.2008 24.3853 3.1
      vertex -46.1202 21.3474 3.6
      vertex -46.0882 21.3625 3.60859
    endloop
  endfacet
  facet normal -0.448094 0.546996 0.707112
    outer loop
      vertex -47.9008 19.8888 3.6
      vertex -50.8008 18.1595 3.1
      vertex -49.4895 18.1595 3.93098
    endloop
  endfacet
  facet normal -0.448099 0.546981 0.70712
    outer loop
      vertex -49.4895 18.1595 3.93098
      vertex -50.8008 18.1595 3.1
      vertex -50.2653 17.3054 4.1
    endloop
  endfacet
  facet normal -0.448055 0.547013 0.707124
    outer loop
      vertex -50.2653 17.3054 4.1
      vertex -50.8008 18.1595 3.1
      vertex -50.73 16.9248 4.1
    endloop
  endfacet
  facet normal -0.448099 0.547009 0.707098
    outer loop
      vertex -46.1202 21.3474 3.6
      vertex -50.8008 18.1595 3.1
      vertex -47.9008 19.8888 3.6
    endloop
  endfacet
  facet normal 2.22045e-16 0 1
    outer loop
      vertex -50.2653 17.3054 4.1
      vertex -50.73 16.9248 4.1
      vertex -50.564 15.9104 4.1
    endloop
  endfacet
  facet normal 2.22045e-16 0 1
    outer loop
      vertex -50.0273 15.8019 4.1
      vertex -50.2653 17.3054 4.1
      vertex -49.864 13.7599 4.1
    endloop
  endfacet
  facet normal 2.22045e-16 0 1
    outer loop
      vertex -49.864 13.7599 4.1
      vertex -50.2653 17.3054 4.1
      vertex -50.564 15.9104 4.1
    endloop
  endfacet
  facet normal 2.22045e-16 0 1
    outer loop
      vertex -49.2215 13.5694 4.1
      vertex -50.0273 15.8019 4.1
      vertex -48.7315 11.8023 4.1
    endloop
  endfacet
  facet normal 2.22045e-16 0 1
    outer loop
      vertex -47.2162 10.1235 4.1
      vertex -47.9261 11.5807 4.1
      vertex -48.7315 11.8023 4.1
    endloop
  endfacet
  facet normal 2.22045e-16 0 1
    outer loop
      vertex -47.9261 11.5807 4.1
      vertex -49.2215 13.5694 4.1
      vertex -48.7315 11.8023 4.1
    endloop
  endfacet
  facet normal 2.22045e-16 0 1
    outer loop
      vertex -48.7315 11.8023 4.1
      vertex -50.0273 15.8019 4.1
      vertex -49.864 13.7599 4.1
    endloop
  endfacet
  facet normal 2.22045e-16 0 1
    outer loop
      vertex -46.8822 10.4955 4.1
      vertex -47.9261 11.5807 4.1
      vertex -47.2162 10.1235 4.1
    endloop
  endfacet
  facet normal 0.151755 -0.136258 0.978981
    outer loop
      vertex -45.7451 10.5904 3.93694
      vertex -47.2162 10.1235 4.1
      vertex -45.4304 8.52 3.6
    endloop
  endfacet
  facet normal 0.15176 -0.136274 0.978978
    outer loop
      vertex -46.8822 10.4955 4.1
      vertex -47.2162 10.1235 4.1
      vertex -45.7451 10.5904 3.93694
    endloop
  endfacet
  facet normal 0.151753 -0.136258 0.978982
    outer loop
      vertex -45.2647 10.6305 3.86805
      vertex -45.4304 8.52 3.6
      vertex -43.7049 10.8639 3.65876
    endloop
  endfacet
  facet normal 0.151778 -0.136276 0.978975
    outer loop
      vertex -43.7049 10.8639 3.65876
      vertex -45.4304 8.52 3.6
      vertex -43.2435 10.9557 3.6
    endloop
  endfacet
  facet normal 2.22045e-16 0 1
    outer loop
      vertex -47.9008 19.8888 3.6
      vertex -47.9008 18.1595 3.6
      vertex -47.6911 16.3512 3.6
    endloop
  endfacet
  facet normal 2.22045e-16 0 1
    outer loop
      vertex -46.0794 13.1136 3.6
      vertex -47.9008 19.8888 3.6
      vertex -47.073 14.639 3.6
    endloop
  endfacet
  facet normal 2.22045e-16 0 1
    outer loop
      vertex -47.073 14.639 3.6
      vertex -47.9008 19.8888 3.6
      vertex -47.6911 16.3512 3.6
    endloop
  endfacet
  facet normal 2.22045e-16 0 1
    outer loop
      vertex -46.4752 15.7736 3.6
      vertex -47.9008 19.8888 3.6
      vertex -46.0794 13.1136 3.6
    endloop
  endfacet
  facet normal 2.22045e-16 0 1
    outer loop
      vertex -46.4752 15.7736 3.6
      vertex -46.882 17.6501 3.6
      vertex -47.9008 19.8888 3.6
    endloop
  endfacet
  facet normal 2.22045e-16 0 1
    outer loop
      vertex -45.567 14.0818 3.6
      vertex -46.4752 15.7736 3.6
      vertex -44.763 11.8562 3.6
    endloop
  endfacet
  facet normal 2.22045e-16 0 1
    outer loop
      vertex -42.9071 6.2544 3.6
      vertex -43.2435 10.9557 3.6
      vertex -45.4304 8.52 3.6
    endloop
  endfacet
  facet normal 2.22045e-16 0 1
    outer loop
      vertex -34.4781 0.5834 3.6
      vertex -43.2435 10.9557 3.6
      vertex -42.9071 6.2544 3.6
    endloop
  endfacet
  facet normal 2.22045e-16 0 1
    outer loop
      vertex -42.5613 11.7522 3.6
      vertex -44.2278 12.7059 3.6
      vertex -43.2435 10.9557 3.6
    endloop
  endfacet
  facet normal 2.22045e-16 0 1
    outer loop
      vertex -40.6965 11.2946 3.6
      vertex -42.5613 11.7522 3.6
      vertex -34.4781 0.5834 3.6
    endloop
  endfacet
  facet normal 2.22045e-16 0 1
    outer loop
      vertex -46.882 17.6501 3.6
      vertex -46.7559 19.5661 3.6
      vertex -47.9008 19.8888 3.6
    endloop
  endfacet
  facet normal 2.22045e-16 0 1
    outer loop
      vertex -33.3303 6.1595 3.6
      vertex -33.0602 7.6044 3.6
      vertex -38.7779 11.3687 3.6
    endloop
  endfacet
  facet normal 2.22045e-16 0 1
    outer loop
      vertex -38.7779 11.3687 3.6
      vertex -31.771 2.4985 3.6
      vertex -32.2863 3.4647 3.6
    endloop
  endfacet
  facet normal 2.22045e-16 0 1
    outer loop
      vertex -32.2863 8.8543 3.6
      vertex -35.3659 13.048 3.6
      vertex -36.9539 11.9686 3.6
    endloop
  endfacet
  facet normal 2.22045e-16 0 1
    outer loop
      vertex -31.1132 9.7401 3.6
      vertex -29.6994 10.1424 3.6
      vertex -35.3659 13.048 3.6
    endloop
  endfacet
  facet normal 2.22045e-16 0 1
    outer loop
      vertex -26.9198 2.9674 3.6
      vertex -28.2356 2.3122 3.6
      vertex -27.8247 2.0251 3.6
    endloop
  endfacet
  facet normal 2.22045e-16 0 1
    outer loop
      vertex -34.1368 14.5231 3.6
      vertex -28.2356 10.0068 3.6
      vertex -21.8303 7.5595 3.6
    endloop
  endfacet
  facet normal 2.22045e-16 0 1
    outer loop
      vertex -33.1008 18.1821 3.6
      vertex -33.3617 16.2798 3.6
      vertex -21.8303 15.7525 3.6
    endloop
  endfacet
  facet normal 2.22045e-16 0 1
    outer loop
      vertex -36.8008 24.3853 3.6
      vertex -36.8008 24.2726 3.6
      vertex -36.501 24.2218 3.6
    endloop
  endfacet
  facet normal 2.22045e-16 0 1
    outer loop
      vertex -36.501 24.2218 3.6
      vertex -35.3995 23.3013 3.6
      vertex -21.8303 15.7525 3.6
    endloop
  endfacet
  facet normal 2.22045e-16 0 1
    outer loop
      vertex -35.3995 23.3013 3.6
      vertex -34.1608 21.8343 3.6
      vertex -21.8303 15.7525 3.6
    endloop
  endfacet
  facet normal 2.22045e-16 0 1
    outer loop
      vertex -33.0602 7.6044 3.6
      vertex -32.2863 8.8543 3.6
      vertex -36.9539 11.9686 3.6
    endloop
  endfacet
  facet normal 2.22045e-16 0 1
    outer loop
      vertex -34.1608 21.8343 3.6
      vertex -33.3742 20.0827 3.6
      vertex -21.8303 15.7525 3.6
    endloop
  endfacet
  facet normal 2.22045e-16 0 1
    outer loop
      vertex -33.3742 20.0827 3.6
      vertex -33.1008 18.1821 3.6
      vertex -21.8303 15.7525 3.6
    endloop
  endfacet
  facet normal 2.22045e-16 0 1
    outer loop
      vertex -21.8303 15.7525 3.6
      vertex -33.3617 16.2798 3.6
      vertex -21.8303 7.5595 3.6
    endloop
  endfacet
  facet normal 2.22045e-16 0 1
    outer loop
      vertex -33.3617 16.2798 3.6
      vertex -34.1368 14.5231 3.6
      vertex -21.8303 7.5595 3.6
    endloop
  endfacet
  facet normal 2.22045e-16 0 1
    outer loop
      vertex -25.3984 6.8945 3.6
      vertex -25.3303 6.1595 3.6
      vertex -24.932 6.283 3.6
    endloop
  endfacet
  facet normal 2.22045e-16 0 1
    outer loop
      vertex -25.9294 4.0538 3.6
      vertex -26.9198 2.9674 3.6
      vertex -25.6908 3.6869 3.6
    endloop
  endfacet
  facet normal 2.22045e-16 0 1
    outer loop
      vertex -28.2356 2.3122 3.6
      vertex -29.6994 2.1766 3.6
      vertex -29.1683 1.7625 3.6
    endloop
  endfacet
  facet normal 2.22045e-16 0 1
    outer loop
      vertex -32.732 3.3688 3.6
      vertex -40.6965 11.2946 3.6
      vertex -34.4781 0.5834 3.6
    endloop
  endfacet
  facet normal 2.22045e-16 0 1
    outer loop
      vertex -34.4781 0.5834 3.6
      vertex -42.5613 11.7522 3.6
      vertex -43.2435 10.9557 3.6
    endloop
  endfacet
  facet normal 2.22045e-16 0 1
    outer loop
      vertex -43.2435 10.9557 3.6
      vertex -44.2278 12.7059 3.6
      vertex -44.763 11.8562 3.6
    endloop
  endfacet
  facet normal 2.22045e-16 0 1
    outer loop
      vertex -44.2278 12.7059 3.6
      vertex -45.567 14.0818 3.6
      vertex -44.763 11.8562 3.6
    endloop
  endfacet
  facet normal 2.22045e-16 0 1
    outer loop
      vertex -44.763 11.8562 3.6
      vertex -46.4752 15.7736 3.6
      vertex -46.0794 13.1136 3.6
    endloop
  endfacet
  facet normal 2.22045e-16 0 1
    outer loop
      vertex -46.7559 19.5661 3.6
      vertex -46.1202 21.3474 3.6
      vertex -47.9008 19.8888 3.6
    endloop
  endfacet
  facet normal 2.22045e-16 0 1
    outer loop
      vertex -29.6994 2.1766 3.6
      vertex -31.1132 2.5788 3.6
      vertex -29.1683 1.7625 3.6
    endloop
  endfacet
  facet normal 2.22045e-16 0 1
    outer loop
      vertex -26.9198 2.9674 3.6
      vertex -27.8247 2.0251 3.6
      vertex -26.6269 2.6879 3.6
    endloop
  endfacet
  facet normal 2.22045e-16 0 1
    outer loop
      vertex -32.2863 8.8543 3.6
      vertex -31.1132 9.7401 3.6
      vertex -35.3659 13.048 3.6
    endloop
  endfacet
  facet normal 2.22045e-16 0 1
    outer loop
      vertex -25.3984 5.4245 3.6
      vertex -25.9294 4.0538 3.6
      vertex -25.107 4.9252 3.6
    endloop
  endfacet
  facet normal 2.22045e-16 0 1
    outer loop
      vertex -25.9294 8.2652 3.6
      vertex -25.3984 6.8945 3.6
      vertex -25.159 7.5595 3.6
    endloop
  endfacet
  facet normal 2.22045e-16 0 1
    outer loop
      vertex -21.8303 7.5595 3.6
      vertex -28.2356 10.0068 3.6
      vertex -26.9198 9.3516 3.6
    endloop
  endfacet
  facet normal 2.22045e-16 0 1
    outer loop
      vertex -21.8303 7.5595 3.6
      vertex -25.9294 8.2652 3.6
      vertex -25.159 7.5595 3.6
    endloop
  endfacet
  facet normal 2.22045e-16 0 1
    outer loop
      vertex -25.159 7.5595 3.6
      vertex -25.3984 6.8945 3.6
      vertex -24.932 6.283 3.6
    endloop
  endfacet
  facet normal 2.22045e-16 0 1
    outer loop
      vertex -26.9198 9.3516 3.6
      vertex -25.9294 8.2652 3.6
      vertex -21.8303 7.5595 3.6
    endloop
  endfacet
  facet normal 2.22045e-16 0 1
    outer loop
      vertex -24.932 6.283 3.6
      vertex -25.3303 6.1595 3.6
      vertex -25.107 4.9252 3.6
    endloop
  endfacet
  facet normal 2.22045e-16 0 1
    outer loop
      vertex -25.3303 6.1595 3.6
      vertex -25.3984 5.4245 3.6
      vertex -25.107 4.9252 3.6
    endloop
  endfacet
  facet normal 2.22045e-16 0 1
    outer loop
      vertex -25.107 4.9252 3.6
      vertex -25.9294 4.0538 3.6
      vertex -25.6908 3.6869 3.6
    endloop
  endfacet
  facet normal 2.22045e-16 0 1
    outer loop
      vertex -25.6908 3.6869 3.6
      vertex -26.9198 2.9674 3.6
      vertex -26.6269 2.6879 3.6
    endloop
  endfacet
  facet normal 2.22045e-16 0 1
    outer loop
      vertex -38.7779 11.3687 3.6
      vertex -32.2863 3.4647 3.6
      vertex -33.0602 4.7145 3.6
    endloop
  endfacet
  facet normal 2.22045e-16 0 1
    outer loop
      vertex -27.8247 2.0251 3.6
      vertex -28.2356 2.3122 3.6
      vertex -29.1683 1.7625 3.6
    endloop
  endfacet
  facet normal 2.22045e-16 0 1
    outer loop
      vertex -31.1132 2.5788 3.6
      vertex -32.2863 3.4647 3.6
      vertex -30.5276 1.9255 3.6
    endloop
  endfacet
  facet normal 2.22045e-16 0 1
    outer loop
      vertex -29.1683 1.7625 3.6
      vertex -31.1132 2.5788 3.6
      vertex -30.5276 1.9255 3.6
    endloop
  endfacet
  facet normal 2.22045e-16 0 1
    outer loop
      vertex -30.5276 1.9255 3.6
      vertex -32.2863 3.4647 3.6
      vertex -31.771 2.4985 3.6
    endloop
  endfacet
  facet normal 2.22045e-16 0 1
    outer loop
      vertex -33.0602 4.7145 3.6
      vertex -33.3303 6.1595 3.6
      vertex -38.7779 11.3687 3.6
    endloop
  endfacet
  facet normal 2.22045e-16 0 1
    outer loop
      vertex -36.8008 24.2726 3.6
      vertex -35.3995 23.3013 3.6
      vertex -36.501 24.2218 3.6
    endloop
  endfacet
  facet normal 2.22045e-16 0 1
    outer loop
      vertex -34.1368 14.5231 3.6
      vertex -29.6994 10.1424 3.6
      vertex -28.2356 10.0068 3.6
    endloop
  endfacet
  facet normal 2.22045e-16 0 1
    outer loop
      vertex -34.1368 14.5231 3.6
      vertex -35.3659 13.048 3.6
      vertex -29.6994 10.1424 3.6
    endloop
  endfacet
  facet normal 2.22045e-16 0 1
    outer loop
      vertex -36.9539 11.9686 3.6
      vertex -38.7779 11.3687 3.6
      vertex -33.0602 7.6044 3.6
    endloop
  endfacet
  facet normal 2.22045e-16 0 1
    outer loop
      vertex -38.7779 11.3687 3.6
      vertex -32.732 3.3688 3.6
      vertex -31.771 2.4985 3.6
    endloop
  endfacet
  facet normal 2.22045e-16 0 1
    outer loop
      vertex -38.7779 11.3687 3.6
      vertex -40.6965 11.2946 3.6
      vertex -32.732 3.3688 3.6
    endloop
  endfacet
  facet normal 0.151756 -0.136258 0.978981
    outer loop
      vertex -45.2647 10.6305 3.86805
      vertex -45.7451 10.5904 3.93694
      vertex -45.4304 8.52 3.6
    endloop
  endfacet
  facet normal 0.558215 0.829697 -1.23949e-16
    outer loop
      vertex -42.9071 6.2544 3.6
      vertex -42.9071 6.2544 7.6
      vertex -34.4781 0.5834 3.6
    endloop
  endfacet
  facet normal 0.558215 0.829697 -1.23949e-16
    outer loop
      vertex -34.4781 0.5834 3.6
      vertex -42.9071 6.2544 7.6
      vertex -34.4781 0.5834 7.6
    endloop
  endfacet
  facet normal 0 0 1
    outer loop
      vertex -35.3431 -0.5372 7.6
      vertex -33.4543 -1.84 7.6
      vertex -31.2974 -2.6229 7.6
    endloop
  endfacet
  facet normal 0 0 1
    outer loop
      vertex -6.55586 -7.8776 7.6
      vertex -35.3431 -0.5372 7.6
      vertex -8.52998 -7.7224 7.6
    endloop
  endfacet
  facet normal 0 0 1
    outer loop
      vertex -8.52998 -7.7224 7.6
      vertex -35.3431 -0.5372 7.6
      vertex -31.2974 -2.6229 7.6
    endloop
  endfacet
  facet normal 0 0 1
    outer loop
      vertex -4.61728 -7.4737 7.6
      vertex -35.3431 -0.5372 7.6
      vertex -6.55586 -7.8776 7.6
    endloop
  endfacet
  facet normal 0 0 1
    outer loop
      vertex -2.86938 -6.5431 7.6
      vertex -35.3431 -0.5372 7.6
      vertex -4.61728 -7.4737 7.6
    endloop
  endfacet
  facet normal 0 0 1
    outer loop
      vertex -29.7162 -1.3306 7.6
      vertex -35.3431 -0.5372 7.6
      vertex -2.86938 -6.5431 7.6
    endloop
  endfacet
  facet normal 0 0 1
    outer loop
      vertex -3.8 -0.8917 7.6
      vertex -4.04359 -2.1163 7.6
      vertex -0.027156 -1.5077 7.6
    endloop
  endfacet
  facet normal 0 0 1
    outer loop
      vertex -4.04359 -2.1163 7.6
      vertex -4.73726 -3.1544 7.6
      vertex -0.478662 -3.4357 7.6
    endloop
  endfacet
  facet normal 0 0 1
    outer loop
      vertex -10.2 -0.8917 7.6
      vertex -22.9004 2.2986 7.6
      vertex -24.1652 0.7215 7.6
    endloop
  endfacet
  facet normal 0 0 1
    outer loop
      vertex -25.8053 -0.4605 7.6
      vertex -27.7016 -1.1615 7.6
      vertex -9.95641 -2.1163 7.6
    endloop
  endfacet
  facet normal 0 0 1
    outer loop
      vertex -0.133651 0.4697 7.6
      vertex -3.8 -0.8917 7.6
      vertex -0.027156 -1.5077 7.6
    endloop
  endfacet
  facet normal 0 0 1
    outer loop
      vertex -0.027156 -1.5077 7.6
      vertex -4.04359 -2.1163 7.6
      vertex -0.478662 -3.4357 7.6
    endloop
  endfacet
  facet normal 0 0 1
    outer loop
      vertex -33.5169 -0.0632 7.6
      vertex -34.4781 0.5834 7.6
      vertex -35.3431 -0.5372 7.6
    endloop
  endfacet
  facet normal 0 0 1
    outer loop
      vertex -0.478662 -3.4357 7.6
      vertex -4.73726 -3.1544 7.6
      vertex -1.45204 -5.1602 7.6
    endloop
  endfacet
  facet normal 0 0 1
    outer loop
      vertex -4.73726 -3.1544 7.6
      vertex -5.77541 -3.8481 7.6
      vertex -1.45204 -5.1602 7.6
    endloop
  endfacet
  facet normal 0 0 1
    outer loop
      vertex -5.77541 -3.8481 7.6
      vertex -7 -4.0917 7.6
      vertex -1.45204 -5.1602 7.6
    endloop
  endfacet
  facet normal 0 0 1
    outer loop
      vertex -31.7027 -0.9554 7.6
      vertex -33.3138 -0.1952 7.6
      vertex -35.3431 -0.5372 7.6
    endloop
  endfacet
  facet normal 0 0 1
    outer loop
      vertex -10.2 -0.8917 7.6
      vertex -24.1652 0.7215 7.6
      vertex -25.8053 -0.4605 7.6
    endloop
  endfacet
  facet normal 0 0 1
    outer loop
      vertex -25.8053 -0.4605 7.6
      vertex -9.95641 -2.1163 7.6
      vertex -10.2 -0.8917 7.6
    endloop
  endfacet
  facet normal 0 0 1
    outer loop
      vertex -21.8303 15.7525 7.6
      vertex -21.8303 6.1595 7.6
      vertex -10.2 9.0384 7.6
    endloop
  endfacet
  facet normal 0 0 1
    outer loop
      vertex -21.8303 6.1595 7.6
      vertex -22.1028 4.1563 7.6
      vertex -10.2 9.0384 7.6
    endloop
  endfacet
  facet normal 0 0 1
    outer loop
      vertex -29.7162 -1.3306 7.6
      vertex -31.7027 -0.9554 7.6
      vertex -35.3431 -0.5372 7.6
    endloop
  endfacet
  facet normal 0 0 1
    outer loop
      vertex -1.45204 -5.1602 7.6
      vertex -29.7162 -1.3306 7.6
      vertex -2.86938 -6.5431 7.6
    endloop
  endfacet
  facet normal 0 0 1
    outer loop
      vertex -9.26274 -3.1544 7.6
      vertex -9.95641 -2.1163 7.6
      vertex -27.7016 -1.1615 7.6
    endloop
  endfacet
  facet normal 0 0 1
    outer loop
      vertex -10.2 -0.8917 7.6
      vertex -22.1028 4.1563 7.6
      vertex -22.9004 2.2986 7.6
    endloop
  endfacet
  facet normal 0 0 1
    outer loop
      vertex -10.2 -0.8917 7.6
      vertex -10.2 9.0384 7.6
      vertex -22.1028 4.1563 7.6
    endloop
  endfacet
  facet normal 0 0 1
    outer loop
      vertex -42.9071 6.2544 7.6
      vertex -35.3431 -0.5372 7.6
      vertex -34.4781 0.5834 7.6
    endloop
  endfacet
  facet normal 0 0 1
    outer loop
      vertex -33.3138 -0.1952 7.6
      vertex -33.5169 -0.0632 7.6
      vertex -35.3431 -0.5372 7.6
    endloop
  endfacet
  facet normal 0 0 1
    outer loop
      vertex -27.7016 -1.1615 7.6
      vertex -29.7162 -1.3306 7.6
      vertex -1.45204 -5.1602 7.6
    endloop
  endfacet
  facet normal 0 0 1
    outer loop
      vertex -27.7016 -1.1615 7.6
      vertex -8.22459 -3.8481 7.6
      vertex -9.26274 -3.1544 7.6
    endloop
  endfacet
  facet normal 0 0 1
    outer loop
      vertex -27.7016 -1.1615 7.6
      vertex -7 -4.0917 7.6
      vertex -8.22459 -3.8481 7.6
    endloop
  endfacet
  facet normal 0 0 1
    outer loop
      vertex -27.7016 -1.1615 7.6
      vertex -1.45204 -5.1602 7.6
      vertex -7 -4.0917 7.6
    endloop
  endfacet
  facet normal 0 0 1
    outer loop
      vertex -3.8 5.3437 7.6
      vertex -1.94258 3.948 7.6
      vertex -3.50025 5.1706 7.6
    endloop
  endfacet
  facet normal 0 0 1
    outer loop
      vertex -3.8 5.3437 7.6
      vertex -0.789623 2.338 7.6
      vertex -1.94258 3.948 7.6
    endloop
  endfacet
  facet normal 0 0 1
    outer loop
      vertex -3.8 5.3437 7.6
      vertex -0.133651 0.4697 7.6
      vertex -0.789623 2.338 7.6
    endloop
  endfacet
  facet normal 0 0 1
    outer loop
      vertex -3.8 5.3437 7.6
      vertex -3.8 -0.8917 7.6
      vertex -0.133651 0.4697 7.6
    endloop
  endfacet
  facet normal -1 0 2.22045e-16
    outer loop
      vertex -21.8303 7.5595 3.6
      vertex -21.8303 6.1595 4.1
      vertex -21.8303 15.7525 3.6
    endloop
  endfacet
  facet normal -1 0 2.22045e-16
    outer loop
      vertex -21.8303 15.7525 3.6
      vertex -21.8303 6.1595 4.1
      vertex -21.8303 6.1595 7.6
    endloop
  endfacet
  facet normal -1 0 2.22045e-16
    outer loop
      vertex -21.8303 15.7525 3.6
      vertex -21.8303 6.1595 7.6
      vertex -21.8303 15.7525 7.6
    endloop
  endfacet
  facet normal 0.227579 0.328322 0.91674
    outer loop
      vertex -35.3995 23.3013 3.6
      vertex -36.8008 24.2726 3.6
      vertex -36.8008 22.8765 4.1
    endloop
  endfacet
  facet normal 0.237191 0.303709 0.922768
    outer loop
      vertex -35.3995 23.3013 3.6
      vertex -36.8008 22.8765 4.1
      vertex -36.1997 22.4071 4.1
    endloop
  endfacet
  facet normal 2.22045e-16 0 1
    outer loop
      vertex -45.5811 19.3215 4.1
      vertex -45.6852 17.7387 4.1
      vertex -45.3492 16.1886 4.1
    endloop
  endfacet
  facet normal 2.22045e-16 0 1
    outer loop
      vertex -43.4927 13.6543 4.1
      vertex -45.5811 19.3215 4.1
      vertex -44.599 14.791 4.1
    endloop
  endfacet
  facet normal 2.22045e-16 0 1
    outer loop
      vertex -44.599 14.791 4.1
      vertex -45.5811 19.3215 4.1
      vertex -45.3492 16.1886 4.1
    endloop
  endfacet
  facet normal 2.22045e-16 0 1
    outer loop
      vertex -42.116 12.8665 4.1
      vertex -45.5811 19.3215 4.1
      vertex -43.4927 13.6543 4.1
    endloop
  endfacet
  facet normal 2.22045e-16 0 1
    outer loop
      vertex -40.5755 12.4885 4.1
      vertex -45.5811 19.3215 4.1
      vertex -42.116 12.8665 4.1
    endloop
  endfacet
  facet normal 2.22045e-16 0 1
    outer loop
      vertex -42.2635 15.8967 4.1
      vertex -45.5811 19.3215 4.1
      vertex -40.5755 12.4885 4.1
    endloop
  endfacet
  facet normal 2.22045e-16 0 1
    outer loop
      vertex -42.2635 15.8967 4.1
      vertex -42.9572 16.9349 4.1
      vertex -45.5811 19.3215 4.1
    endloop
  endfacet
  facet normal 2.22045e-16 0 1
    outer loop
      vertex -41.2254 15.2031 4.1
      vertex -42.2635 15.8967 4.1
      vertex -38.9906 12.5497 4.1
    endloop
  endfacet
  facet normal 2.22045e-16 0 1
    outer loop
      vertex -38.7762 15.2031 4.1
      vertex -40.0008 14.9595 4.1
      vertex -37.4838 13.0453 4.1
    endloop
  endfacet
  facet normal 2.22045e-16 0 1
    outer loop
      vertex -37.0444 16.9349 4.1
      vertex -37.7381 15.8967 4.1
      vertex -35.1566 15.1555 4.1
    endloop
  endfacet
  facet normal 2.22045e-16 0 1
    outer loop
      vertex -36.8008 18.1595 4.1
      vertex -37.0444 16.9349 4.1
      vertex -34.5164 16.6067 4.1
    endloop
  endfacet
  facet normal 2.22045e-16 0 1
    outer loop
      vertex -37.7381 15.8967 4.1
      vertex -38.7762 15.2031 4.1
      vertex -36.172 13.9369 4.1
    endloop
  endfacet
  facet normal 2.22045e-16 0 1
    outer loop
      vertex -43.2008 18.1595 4.1
      vertex -43.2008 22.8765 4.1
      vertex -45.5811 19.3215 4.1
    endloop
  endfacet
  facet normal 2.22045e-16 0 1
    outer loop
      vertex -34.3008 18.1782 4.1
      vertex -36.8008 18.1595 4.1
      vertex -34.5164 16.6067 4.1
    endloop
  endfacet
  facet normal 2.22045e-16 0 1
    outer loop
      vertex -34.5164 16.6067 4.1
      vertex -37.0444 16.9349 4.1
      vertex -35.1566 15.1555 4.1
    endloop
  endfacet
  facet normal 2.22045e-16 0 1
    outer loop
      vertex -35.1566 15.1555 4.1
      vertex -37.7381 15.8967 4.1
      vertex -36.172 13.9369 4.1
    endloop
  endfacet
  facet normal 2.22045e-16 0 1
    outer loop
      vertex -36.172 13.9369 4.1
      vertex -38.7762 15.2031 4.1
      vertex -37.4838 13.0453 4.1
    endloop
  endfacet
  facet normal 2.22045e-16 0 1
    outer loop
      vertex -37.4838 13.0453 4.1
      vertex -40.0008 14.9595 4.1
      vertex -38.9906 12.5497 4.1
    endloop
  endfacet
  facet normal 2.22045e-16 0 1
    outer loop
      vertex -40.0008 14.9595 4.1
      vertex -41.2254 15.2031 4.1
      vertex -38.9906 12.5497 4.1
    endloop
  endfacet
  facet normal 2.22045e-16 0 1
    outer loop
      vertex -38.9906 12.5497 4.1
      vertex -42.2635 15.8967 4.1
      vertex -40.5755 12.4885 4.1
    endloop
  endfacet
  facet normal 2.22045e-16 0 1
    outer loop
      vertex -42.9572 16.9349 4.1
      vertex -43.2008 18.1595 4.1
      vertex -45.5811 19.3215 4.1
    endloop
  endfacet
  facet normal 2.22045e-16 0 1
    outer loop
      vertex -44.118 22.1014 4.1
      vertex -45.5811 19.3215 4.1
      vertex -43.2008 22.8765 4.1
    endloop
  endfacet
  facet normal 2.22045e-16 0 1
    outer loop
      vertex -45.0448 20.8142 4.1
      vertex -45.5811 19.3215 4.1
      vertex -44.118 22.1014 4.1
    endloop
  endfacet
  facet normal 2.22045e-16 0 1
    outer loop
      vertex -36.8008 22.8765 4.1
      vertex -35.1764 21.1952 4.1
      vertex -36.1997 22.4071 4.1
    endloop
  endfacet
  facet normal 2.22045e-16 0 1
    outer loop
      vertex -36.8008 22.8765 4.1
      vertex -34.5267 19.7482 4.1
      vertex -35.1764 21.1952 4.1
    endloop
  endfacet
  facet normal 2.22045e-16 0 1
    outer loop
      vertex -36.8008 22.8765 4.1
      vertex -34.3008 18.1782 4.1
      vertex -34.5267 19.7482 4.1
    endloop
  endfacet
  facet normal 2.22045e-16 0 1
    outer loop
      vertex -36.8008 22.8765 4.1
      vertex -36.8008 18.1595 4.1
      vertex -34.3008 18.1782 4.1
    endloop
  endfacet
  facet normal -0.268354 0.317552 0.909476
    outer loop
      vertex -43.2008 23.2702 3.96254
      vertex -44.118 22.1014 4.1
      vertex -43.2008 22.8765 4.1
    endloop
  endfacet
  facet normal -0.161665 0.23946 0.957352
    outer loop
      vertex -43.8417 22.7011 3.99666
      vertex -44.118 22.1014 4.1
      vertex -43.2008 23.2702 3.96254
    endloop
  endfacet
  facet normal 2.22045e-16 0 1
    outer loop
      vertex -31.7547 7.0987 5.6
      vertex -31.9303 6.1595 5.6
      vertex -31.7547 5.2202 5.6
    endloop
  endfacet
  facet normal 2.22045e-16 0 1
    outer loop
      vertex -30.4892 3.8321 5.6
      vertex -31.7547 7.0987 5.6
      vertex -31.2517 4.4079 5.6
    endloop
  endfacet
  facet normal 2.22045e-16 0 1
    outer loop
      vertex -31.2517 4.4079 5.6
      vertex -31.7547 7.0987 5.6
      vertex -31.7547 5.2202 5.6
    endloop
  endfacet
  facet normal 2.22045e-16 0 1
    outer loop
      vertex -30.7592 5.3345 5.6
      vertex -31.7547 7.0987 5.6
      vertex -30.4892 3.8321 5.6
    endloop
  endfacet
  facet normal 2.22045e-16 0 1
    outer loop
      vertex -27.9013 5.3345 5.6
      vertex -28.5053 4.7305 5.6
      vertex -27.1197 4.7908 5.6
    endloop
  endfacet
  facet normal 2.22045e-16 0 1
    outer loop
      vertex -30.7592 6.9845 5.6
      vertex -30.1553 7.5884 5.6
      vertex -31.7547 7.0987 5.6
    endloop
  endfacet
  facet normal 2.22045e-16 0 1
    outer loop
      vertex -29.3303 7.8095 5.6
      vertex -28.5053 7.5884 5.6
      vertex -27.7634 8.2343 5.6
    endloop
  endfacet
  facet normal 2.22045e-16 0 1
    outer loop
      vertex -27.9013 6.9845 5.6
      vertex -27.6803 6.1595 5.6
      vertex -26.7303 6.1595 5.6
    endloop
  endfacet
  facet normal 2.22045e-16 0 1
    outer loop
      vertex -28.5053 7.5884 5.6
      vertex -27.9013 6.9845 5.6
      vertex -27.1197 7.5282 5.6
    endloop
  endfacet
  facet normal 2.22045e-16 0 1
    outer loop
      vertex -29.5702 8.7484 5.6
      vertex -31.7547 7.0987 5.6
      vertex -28.6188 8.6602 5.6
    endloop
  endfacet
  facet normal 2.22045e-16 0 1
    outer loop
      vertex -30.4892 8.4869 5.6
      vertex -31.7547 7.0987 5.6
      vertex -29.5702 8.7484 5.6
    endloop
  endfacet
  facet normal 2.22045e-16 0 1
    outer loop
      vertex -31.2517 7.9111 5.6
      vertex -31.7547 7.0987 5.6
      vertex -30.4892 8.4869 5.6
    endloop
  endfacet
  facet normal 2.22045e-16 0 1
    outer loop
      vertex -29.5702 3.5706 5.6
      vertex -30.7592 5.3345 5.6
      vertex -30.4892 3.8321 5.6
    endloop
  endfacet
  facet normal 2.22045e-16 0 1
    outer loop
      vertex -27.6803 6.1595 5.6
      vertex -27.9013 5.3345 5.6
      vertex -26.7746 5.6817 5.6
    endloop
  endfacet
  facet normal 2.22045e-16 0 1
    outer loop
      vertex -28.6188 8.6602 5.6
      vertex -30.1553 7.5884 5.6
      vertex -27.7634 8.2343 5.6
    endloop
  endfacet
  facet normal 2.22045e-16 0 1
    outer loop
      vertex -28.6188 8.6602 5.6
      vertex -31.7547 7.0987 5.6
      vertex -30.1553 7.5884 5.6
    endloop
  endfacet
  facet normal 2.22045e-16 0 1
    outer loop
      vertex -30.1553 7.5884 5.6
      vertex -29.3303 7.8095 5.6
      vertex -27.7634 8.2343 5.6
    endloop
  endfacet
  facet normal 2.22045e-16 0 1
    outer loop
      vertex -27.7634 8.2343 5.6
      vertex -28.5053 7.5884 5.6
      vertex -27.1197 7.5282 5.6
    endloop
  endfacet
  facet normal 2.22045e-16 0 1
    outer loop
      vertex -27.9013 6.9845 5.6
      vertex -26.7303 6.1595 5.6
      vertex -26.7746 6.6372 5.6
    endloop
  endfacet
  facet normal 2.22045e-16 0 1
    outer loop
      vertex -27.1197 7.5282 5.6
      vertex -27.9013 6.9845 5.6
      vertex -26.7746 6.6372 5.6
    endloop
  endfacet
  facet normal 2.22045e-16 0 1
    outer loop
      vertex -26.7303 6.1595 5.6
      vertex -27.6803 6.1595 5.6
      vertex -26.7746 5.6817 5.6
    endloop
  endfacet
  facet normal 2.22045e-16 0 1
    outer loop
      vertex -26.7746 5.6817 5.6
      vertex -27.9013 5.3345 5.6
      vertex -27.1197 4.7908 5.6
    endloop
  endfacet
  facet normal 2.22045e-16 0 1
    outer loop
      vertex -27.1197 4.7908 5.6
      vertex -28.5053 4.7305 5.6
      vertex -27.7634 4.0846 5.6
    endloop
  endfacet
  facet normal 2.22045e-16 0 1
    outer loop
      vertex -27.7634 4.0846 5.6
      vertex -29.3303 4.5095 5.6
      vertex -28.6188 3.6588 5.6
    endloop
  endfacet
  facet normal 2.22045e-16 0 1
    outer loop
      vertex -28.6188 3.6588 5.6
      vertex -30.1553 4.7305 5.6
      vertex -29.5702 3.5706 5.6
    endloop
  endfacet
  facet normal 2.22045e-16 0 1
    outer loop
      vertex -30.7592 5.3345 5.6
      vertex -30.9803 6.1595 5.6
      vertex -31.7547 7.0987 5.6
    endloop
  endfacet
  facet normal 2.22045e-16 0 1
    outer loop
      vertex -30.1553 4.7305 5.6
      vertex -30.7592 5.3345 5.6
      vertex -29.5702 3.5706 5.6
    endloop
  endfacet
  facet normal 2.22045e-16 0 1
    outer loop
      vertex -29.3303 4.5095 5.6
      vertex -30.1553 4.7305 5.6
      vertex -28.6188 3.6588 5.6
    endloop
  endfacet
  facet normal 2.22045e-16 0 1
    outer loop
      vertex -28.5053 4.7305 5.6
      vertex -29.3303 4.5095 5.6
      vertex -27.7634 4.0846 5.6
    endloop
  endfacet
  facet normal 2.22045e-16 0 1
    outer loop
      vertex -30.9803 6.1595 5.6
      vertex -30.7592 6.9845 5.6
      vertex -31.7547 7.0987 5.6
    endloop
  endfacet
  facet normal -0.336018 0.187778 0.922947
    outer loop
      vertex -46.0882 21.3625 3.60859
      vertex -46.1202 21.3474 3.6
      vertex -45.0448 20.8142 4.1
    endloop
  endfacet
  facet normal -0.363945 0.130749 0.922198
    outer loop
      vertex -45.0448 20.8142 4.1
      vertex -46.1202 21.3474 3.6
      vertex -45.5811 19.3215 4.1
    endloop
  endfacet
  facet normal -0.365175 0.130317 0.921773
    outer loop
      vertex -46.1202 21.3474 3.6
      vertex -46.7559 19.5661 3.6
      vertex -45.5811 19.3215 4.1
    endloop
  endfacet
  facet normal -0.275058 0.284959 0.918227
    outer loop
      vertex -43.8417 22.7011 3.99666
      vertex -44.3583 22.3285 3.95755
      vertex -44.118 22.1014 4.1
    endloop
  endfacet
  facet normal -0.275055 0.284962 0.918227
    outer loop
      vertex -44.3583 22.3285 3.95755
      vertex -44.5353 22.2008 3.94414
      vertex -44.118 22.1014 4.1
    endloop
  endfacet
  facet normal -0.296719 0.213653 0.930758
    outer loop
      vertex -44.5353 22.2008 3.94414
      vertex -45.0448 20.8142 4.1
      vertex -44.118 22.1014 4.1
    endloop
  endfacet
  facet normal -0.268749 0.204553 0.941239
    outer loop
      vertex -44.8123 22.0275 3.90272
      vertex -45.0448 20.8142 4.1
      vertex -44.5353 22.2008 3.94414
    endloop
  endfacet
  facet normal -0.312276 0.210479 0.926381
    outer loop
      vertex -44.8123 22.0275 3.90272
      vertex -45.695 21.5483 3.71404
      vertex -45.0448 20.8142 4.1
    endloop
  endfacet
  facet normal -0.448188 0.54728 0.706832
    outer loop
      vertex -44.8123 22.0275 3.90272
      vertex -46.0882 21.3625 3.60859
      vertex -45.695 21.5483 3.71404
    endloop
  endfacet
  facet normal -0.336148 0.187532 0.92295
    outer loop
      vertex -45.695 21.5483 3.71404
      vertex -46.0882 21.3625 3.60859
      vertex -45.0448 20.8142 4.1
    endloop
  endfacet
  facet normal 0.203954 0 0.97898
    outer loop
      vertex -47.9008 19.8888 3.6
      vertex -49.4895 18.1595 3.93098
      vertex -47.9008 18.1595 3.6
    endloop
  endfacet
  facet normal 0.203897 0.0236484 0.978707
    outer loop
      vertex -47.9008 18.1595 3.6
      vertex -49.4895 18.1595 3.93098
      vertex -47.6911 16.3512 3.6
    endloop
  endfacet
  facet normal 0.203898 0.0236492 0.978706
    outer loop
      vertex -49.4895 18.1595 3.93098
      vertex -50.0273 15.8019 4.1
      vertex -47.6911 16.3512 3.6
    endloop
  endfacet
  facet normal 0.182338 0.0288623 0.982812
    outer loop
      vertex -49.4895 18.1595 3.93098
      vertex -50.2653 17.3054 4.1
      vertex -50.0273 15.8019 4.1
    endloop
  endfacet
  facet normal 0.193069 0.06969 0.978707
    outer loop
      vertex -47.073 14.639 3.6
      vertex -50.0273 15.8019 4.1
      vertex -49.2215 13.5694 4.1
    endloop
  endfacet
  facet normal 0.193071 0.0696961 0.978706
    outer loop
      vertex -47.6911 16.3512 3.6
      vertex -50.0273 15.8019 4.1
      vertex -47.073 14.639 3.6
    endloop
  endfacet
  facet normal 0.171993 0.112036 0.978706
    outer loop
      vertex -46.0794 13.1136 3.6
      vertex -49.2215 13.5694 4.1
      vertex -47.9261 11.5807 4.1
    endloop
  endfacet
  facet normal 0.171992 0.112028 0.978708
    outer loop
      vertex -47.073 14.639 3.6
      vertex -49.2215 13.5694 4.1
      vertex -46.0794 13.1136 3.6
    endloop
  endfacet
  facet normal 0.147367 0.141756 0.978871
    outer loop
      vertex -46.0794 13.1136 3.6
      vertex -47.9261 11.5807 4.1
      vertex -46.8822 10.4955 4.1
    endloop
  endfacet
  facet normal 0.128277 0.147948 0.980641
    outer loop
      vertex -46.0794 13.1136 3.6
      vertex -46.8822 10.4955 4.1
      vertex -45.7451 10.5904 3.93694
    endloop
  endfacet
  facet normal 0.14288 0.149579 0.978372
    outer loop
      vertex -44.763 11.8562 3.6
      vertex -46.0794 13.1136 3.6
      vertex -45.7451 10.5904 3.93694
    endloop
  endfacet
  facet normal 0.126795 0.162117 0.978591
    outer loop
      vertex -44.763 11.8562 3.6
      vertex -45.7451 10.5904 3.93694
      vertex -45.2647 10.6305 3.86805
    endloop
  endfacet
  facet normal 0.105871 0.170897 0.979584
    outer loop
      vertex -44.763 11.8562 3.6
      vertex -45.2647 10.6305 3.86805
      vertex -43.7049 10.8639 3.65876
    endloop
  endfacet
  facet normal 0.0937114 0.158131 0.982961
    outer loop
      vertex -43.2435 10.9557 3.6
      vertex -44.763 11.8562 3.6
      vertex -43.7049 10.8639 3.65876
    endloop
  endfacet
  facet normal -0.386989 0.0254619 0.921733
    outer loop
      vertex -45.5811 19.3215 4.1
      vertex -46.7559 19.5661 3.6
      vertex -45.6852 17.7387 4.1
    endloop
  endfacet
  facet normal -0.38699 0.0254613 0.921732
    outer loop
      vertex -46.7559 19.5661 3.6
      vertex -46.882 17.6501 3.6
      vertex -45.6852 17.7387 4.1
    endloop
  endfacet
  facet normal -0.379022 -0.0821666 0.921733
    outer loop
      vertex -45.6852 17.7387 4.1
      vertex -46.882 17.6501 3.6
      vertex -45.3492 16.1886 4.1
    endloop
  endfacet
  facet normal -0.379022 -0.0821668 0.921733
    outer loop
      vertex -45.3492 16.1886 4.1
      vertex -46.882 17.6501 3.6
      vertex -46.4752 15.7736 3.6
    endloop
  endfacet
  facet normal -0.341703 -0.183421 0.921735
    outer loop
      vertex -45.3492 16.1886 4.1
      vertex -46.4752 15.7736 3.6
      vertex -44.599 14.791 4.1
    endloop
  endfacet
  facet normal -0.341704 -0.183423 0.921734
    outer loop
      vertex -44.599 14.791 4.1
      vertex -46.4752 15.7736 3.6
      vertex -45.567 14.0818 3.6
    endloop
  endfacet
  facet normal -0.277923 -0.270485 0.921736
    outer loop
      vertex -44.599 14.791 4.1
      vertex -45.567 14.0818 3.6
      vertex -43.4927 13.6543 4.1
    endloop
  endfacet
  facet normal -0.277925 -0.270508 0.921728
    outer loop
      vertex -43.4927 13.6543 4.1
      vertex -45.567 14.0818 3.6
      vertex -44.2278 12.7059 3.6
    endloop
  endfacet
  facet normal -0.192631 -0.336622 0.921726
    outer loop
      vertex -43.4927 13.6543 4.1
      vertex -44.2278 12.7059 3.6
      vertex -42.116 12.8665 4.1
    endloop
  endfacet
  facet normal -0.192633 -0.336609 0.92173
    outer loop
      vertex -42.116 12.8665 4.1
      vertex -44.2278 12.7059 3.6
      vertex -42.5613 11.7522 3.6
    endloop
  endfacet
  facet normal -0.0924233 -0.376657 0.921731
    outer loop
      vertex -42.116 12.8665 4.1
      vertex -42.5613 11.7522 3.6
      vertex -40.5755 12.4885 4.1
    endloop
  endfacet
  facet normal -0.0924261 -0.37665 0.921733
    outer loop
      vertex -40.5755 12.4885 4.1
      vertex -42.5613 11.7522 3.6
      vertex -40.6965 11.2946 3.6
    endloop
  endfacet
  facet normal 0.0149637 -0.387535 0.921734
    outer loop
      vertex -40.5755 12.4885 4.1
      vertex -40.6965 11.2946 3.6
      vertex -38.9906 12.5497 4.1
    endloop
  endfacet
  facet normal 0.014967 -0.387538 0.921732
    outer loop
      vertex -38.9906 12.5497 4.1
      vertex -40.6965 11.2946 3.6
      vertex -38.7779 11.3687 3.6
    endloop
  endfacet
  facet normal 0.121177 -0.368411 0.921732
    outer loop
      vertex -37.4838 13.0453 4.1
      vertex -38.9906 12.5497 4.1
      vertex -38.7779 11.3687 3.6
    endloop
  endfacet
  facet normal 0.121168 -0.368405 0.921735
    outer loop
      vertex -37.4838 13.0453 4.1
      vertex -38.7779 11.3687 3.6
      vertex -36.9539 11.9686 3.6
    endloop
  endfacet
  facet normal 0.217999 -0.320751 0.921735
    outer loop
      vertex -36.172 13.9369 4.1
      vertex -37.4838 13.0453 4.1
      vertex -36.9539 11.9686 3.6
    endloop
  endfacet
  facet normal 0.218023 -0.320758 0.921727
    outer loop
      vertex -36.172 13.9369 4.1
      vertex -36.9539 11.9686 3.6
      vertex -35.3659 13.048 3.6
    endloop
  endfacet
  facet normal 0.297964 -0.248266 0.921727
    outer loop
      vertex -35.1566 15.1555 4.1
      vertex -36.172 13.9369 4.1
      vertex -35.3659 13.048 3.6
    endloop
  endfacet
  facet normal 0.297953 -0.248266 0.921731
    outer loop
      vertex -35.1566 15.1555 4.1
      vertex -35.3659 13.048 3.6
      vertex -34.1368 14.5231 3.6
    endloop
  endfacet
  facet normal 0.354831 -0.156544 0.921731
    outer loop
      vertex -34.5164 16.6067 4.1
      vertex -35.1566 15.1555 4.1
      vertex -34.1368 14.5231 3.6
    endloop
  endfacet
  facet normal 0.354828 -0.156545 0.921732
    outer loop
      vertex -33.3617 16.2798 3.6
      vertex -34.5164 16.6067 4.1
      vertex -34.1368 14.5231 3.6
    endloop
  endfacet
  facet normal 0.384229 -0.0526992 0.921732
    outer loop
      vertex -34.3008 18.1782 4.1
      vertex -34.5164 16.6067 4.1
      vertex -33.3617 16.2798 3.6
    endloop
  endfacet
  facet normal 0.384227 -0.0527007 0.921733
    outer loop
      vertex -33.1008 18.1821 3.6
      vertex -34.3008 18.1782 4.1
      vertex -33.3617 16.2798 3.6
    endloop
  endfacet
  facet normal 0.383876 0.0552194 0.921732
    outer loop
      vertex -33.1008 18.1821 3.6
      vertex -34.5267 19.7482 4.1
      vertex -34.3008 18.1782 4.1
    endloop
  endfacet
  facet normal 0.383877 0.0552204 0.921732
    outer loop
      vertex -33.3742 20.0827 3.6
      vertex -34.5267 19.7482 4.1
      vertex -33.1008 18.1821 3.6
    endloop
  endfacet
  facet normal 0.353794 0.158865 0.921733
    outer loop
      vertex -33.3742 20.0827 3.6
      vertex -35.1764 21.1952 4.1
      vertex -34.5267 19.7482 4.1
    endloop
  endfacet
  facet normal 0.353795 0.158866 0.921733
    outer loop
      vertex -34.1608 21.8343 3.6
      vertex -35.1764 21.1952 4.1
      vertex -33.3742 20.0827 3.6
    endloop
  endfacet
  facet normal 0.296317 0.25021 0.921733
    outer loop
      vertex -34.1608 21.8343 3.6
      vertex -36.1997 22.4071 4.1
      vertex -35.1764 21.1952 4.1
    endloop
  endfacet
  facet normal 0.296318 0.250216 0.921731
    outer loop
      vertex -35.3995 23.3013 3.6
      vertex -36.1997 22.4071 4.1
      vertex -34.1608 21.8343 3.6
    endloop
  endfacet
  facet normal 2.0911e-16 0.336315 0.94175
    outer loop
      vertex -21.8303 7.5595 3.6
      vertex -25.159 7.5595 3.6
      vertex -24.2223 6.8102 3.86759
    endloop
  endfacet
  facet normal -1.00717e-05 0.336336 0.941742
    outer loop
      vertex -21.8303 7.5595 3.6
      vertex -23.687 6.3068 4.04737
      vertex -21.8303 6.1595 4.1
    endloop
  endfacet
  facet normal -5.33933e-06 0.33633 0.941744
    outer loop
      vertex -21.8303 7.5595 3.6
      vertex -24.2223 6.8102 3.86759
      vertex -23.687 6.3068 4.04737
    endloop
  endfacet
  facet normal -0.315497 -0.0560875 0.947268
    outer loop
      vertex -24.2223 6.8102 3.86759
      vertex -25.159 7.5595 3.6
      vertex -24.932 6.283 3.6
    endloop
  endfacet
  facet normal -0.337679 -0.0230349 0.940979
    outer loop
      vertex -24.2223 6.8102 3.86759
      vertex -24.932 6.283 3.6
      vertex -23.687 6.3068 4.04737
    endloop
  endfacet
  facet normal -0.338575 0.0436223 0.939928
    outer loop
      vertex -24.932 6.283 3.6
      vertex -25.107 4.9252 3.6
      vertex -23.687 6.3068 4.04737
    endloop
  endfacet
  facet normal -0.337506 0.0423805 0.940369
    outer loop
      vertex -23.687 6.3068 4.04737
      vertex -25.107 4.9252 3.6
      vertex -23.7632 4.5324 4.1
    endloop
  endfacet
  facet normal -0.307535 0.144988 0.940426
    outer loop
      vertex -23.7632 4.5324 4.1
      vertex -25.107 4.9252 3.6
      vertex -24.5327 2.9001 4.1
    endloop
  endfacet
  facet normal -0.307537 0.144987 0.940425
    outer loop
      vertex -25.107 4.9252 3.6
      vertex -25.6908 3.6869 3.6
      vertex -24.5327 2.9001 4.1
    endloop
  endfacet
  facet normal -0.24808 0.232498 0.940426
    outer loop
      vertex -25.6908 3.6869 3.6
      vertex -25.7667 1.5834 4.1
      vertex -24.5327 2.9001 4.1
    endloop
  endfacet
  facet normal -0.248109 0.232497 0.940418
    outer loop
      vertex -25.6908 3.6869 3.6
      vertex -26.6269 2.6879 3.6
      vertex -25.7667 1.5834 4.1
    endloop
  endfacet
  facet normal -0.164637 0.297504 0.940418
    outer loop
      vertex -26.6269 2.6879 3.6
      vertex -27.3457 0.7096 4.1
      vertex -25.7667 1.5834 4.1
    endloop
  endfacet
  facet normal -0.164612 0.297496 0.940425
    outer loop
      vertex -26.6269 2.6879 3.6
      vertex -27.8247 2.0251 3.6
      vertex -27.3457 0.7096 4.1
    endloop
  endfacet
  facet normal -0.0652258 0.333688 0.940424
    outer loop
      vertex -27.8247 2.0251 3.6
      vertex -29.1168 0.3634 4.1
      vertex -27.3457 0.7096 4.1
    endloop
  endfacet
  facet normal -0.0652164 0.333681 0.940427
    outer loop
      vertex -27.8247 2.0251 3.6
      vertex -29.1683 1.7625 3.6
      vertex -29.1168 0.3634 4.1
    endloop
  endfacet
  facet normal 0.0405066 0.337574 0.940427
    outer loop
      vertex -29.1683 1.7625 3.6
      vertex -30.9086 0.5784 4.1
      vertex -29.1168 0.3634 4.1
    endloop
  endfacet
  facet normal 0.0404842 0.337603 0.940417
    outer loop
      vertex -30.5276 1.9255 3.6
      vertex -30.9086 0.5784 4.1
      vertex -29.1683 1.7625 3.6
    endloop
  endfacet
  facet normal 0.143361 0.308489 0.940363
    outer loop
      vertex -30.5276 1.9255 3.6
      vertex -32.4525 1.4563 4.04737
      vertex -30.9086 0.5784 4.1
    endloop
  endfacet
  facet normal 0.142881 0.310042 0.939925
    outer loop
      vertex -31.771 2.4985 3.6
      vertex -32.4525 1.4563 4.04737
      vertex -30.5276 1.9255 3.6
    endloop
  endfacet
  facet normal 0.198855 0.273892 0.940978
    outer loop
      vertex -31.771 2.4985 3.6
      vertex -32.5947 2.1772 3.86759
      vertex -32.4525 1.4563 4.04737
    endloop
  endfacet
  facet normal 0.21509 0.237514 0.947272
    outer loop
      vertex -31.771 2.4985 3.6
      vertex -32.732 3.3688 3.6
      vertex -32.5947 2.1772 3.86759
    endloop
  endfacet
  facet normal -0.284969 0.178633 0.941745
    outer loop
      vertex -32.732 3.3688 3.6
      vertex -34.4781 0.5834 3.6
      vertex -32.5947 2.1772 3.86759
    endloop
  endfacet
  facet normal -0.284982 0.17865 0.941737
    outer loop
      vertex -32.5947 2.1772 3.86759
      vertex -34.4781 0.5834 3.6
      vertex -32.4525 1.4563 4.04737
    endloop
  endfacet
  facet normal -0.284981 0.178647 0.941738
    outer loop
      vertex -32.4525 1.4563 4.04737
      vertex -34.4781 0.5834 3.6
      vertex -33.5169 -0.0632 4.01352
    endloop
  endfacet
  facet normal 0.55817 0.829727 -1.23939e-16
    outer loop
      vertex -34.4781 0.5834 3.6
      vertex -34.4781 0.5834 7.6
      vertex -33.5169 -0.0632 4.01352
    endloop
  endfacet
  facet normal 0.55817 0.829727 -1.23939e-16
    outer loop
      vertex -33.5169 -0.0632 4.01352
      vertex -34.4781 0.5834 7.6
      vertex -33.5169 -0.0632 7.6
    endloop
  endfacet
  facet normal -0.809792 -0.151378 0.566852
    outer loop
      vertex -31.7547 5.2202 5.6
      vertex -33.3303 6.1595 3.6
      vertex -33.0602 4.7145 3.6
    endloop
  endfacet
  facet normal -0.700412 -0.433716 0.566845
    outer loop
      vertex -31.7547 5.2202 5.6
      vertex -33.0602 4.7145 3.6
      vertex -31.2517 4.4079 5.6
    endloop
  endfacet
  facet normal -0.700421 -0.433686 0.566857
    outer loop
      vertex -31.2517 4.4079 5.6
      vertex -33.0602 4.7145 3.6
      vertex -32.2863 3.4647 3.6
    endloop
  endfacet
  facet normal -0.496448 -0.657428 0.566858
    outer loop
      vertex -31.2517 4.4079 5.6
      vertex -32.2863 3.4647 3.6
      vertex -30.4892 3.8321 5.6
    endloop
  endfacet
  facet normal -0.496466 -0.657404 0.56687
    outer loop
      vertex -30.4892 3.8321 5.6
      vertex -32.2863 3.4647 3.6
      vertex -31.1132 2.5788 3.6
    endloop
  endfacet
  facet normal -0.225458 -0.792352 0.566875
    outer loop
      vertex -30.4892 3.8321 5.6
      vertex -31.1132 2.5788 3.6
      vertex -29.5702 3.5706 5.6
    endloop
  endfacet
  facet normal -0.225406 -0.792384 0.566851
    outer loop
      vertex -29.5702 3.5706 5.6
      vertex -31.1132 2.5788 3.6
      vertex -29.6994 2.1766 3.6
    endloop
  endfacet
  facet normal 0.0760455 -0.820308 0.566843
    outer loop
      vertex -29.5702 3.5706 5.6
      vertex -29.6994 2.1766 3.6
      vertex -28.6188 3.6588 5.6
    endloop
  endfacet
  facet normal 0.0759925 -0.820299 0.566865
    outer loop
      vertex -28.6188 3.6588 5.6
      vertex -29.6994 2.1766 3.6
      vertex -28.2356 2.3122 3.6
    endloop
  endfacet
  facet normal 0.36713 -0.737476 0.566872
    outer loop
      vertex -27.7634 4.0846 5.6
      vertex -28.6188 3.6588 5.6
      vertex -28.2356 2.3122 3.6
    endloop
  endfacet
  facet normal 0.367196 -0.737464 0.566845
    outer loop
      vertex -27.7634 4.0846 5.6
      vertex -28.2356 2.3122 3.6
      vertex -26.9198 2.9674 3.6
    endloop
  endfacet
  facet normal 0.608847 -0.554972 0.566843
    outer loop
      vertex -27.1197 4.7908 5.6
      vertex -27.7634 4.0846 5.6
      vertex -26.9198 2.9674 3.6
    endloop
  endfacet
  facet normal 0.608821 -0.554988 0.566856
    outer loop
      vertex -25.9294 4.0538 3.6
      vertex -27.1197 4.7908 5.6
      vertex -26.9198 2.9674 3.6
    endloop
  endfacet
  facet normal 0.768176 -0.297622 0.566857
    outer loop
      vertex -26.7746 5.6817 5.6
      vertex -27.1197 4.7908 5.6
      vertex -25.9294 4.0538 3.6
    endloop
  endfacet
  facet normal 0.76819 -0.297603 0.566848
    outer loop
      vertex -25.3984 5.4245 3.6
      vertex -26.7746 5.6817 5.6
      vertex -25.9294 4.0538 3.6
    endloop
  endfacet
  facet normal 0.816884 -0.0756874 0.571815
    outer loop
      vertex -26.7303 6.1595 5.6
      vertex -26.7746 5.6817 5.6
      vertex -25.3984 5.4245 3.6
    endloop
  endfacet
  facet normal 0.816881 -0.0756977 0.571817
    outer loop
      vertex -25.3303 6.1595 3.6
      vertex -26.7303 6.1595 5.6
      vertex -25.3984 5.4245 3.6
    endloop
  endfacet
  facet normal 0.816881 0.075703 0.571817
    outer loop
      vertex -25.3303 6.1595 3.6
      vertex -26.7746 6.6372 5.6
      vertex -26.7303 6.1595 5.6
    endloop
  endfacet
  facet normal 0.816881 0.0756976 0.571818
    outer loop
      vertex -25.3984 6.8945 3.6
      vertex -26.7746 6.6372 5.6
      vertex -25.3303 6.1595 3.6
    endloop
  endfacet
  facet normal 0.768186 0.297592 0.566859
    outer loop
      vertex -25.3984 6.8945 3.6
      vertex -27.1197 7.5282 5.6
      vertex -26.7746 6.6372 5.6
    endloop
  endfacet
  facet normal 0.768185 0.297601 0.566855
    outer loop
      vertex -25.9294 8.2652 3.6
      vertex -27.1197 7.5282 5.6
      vertex -25.3984 6.8945 3.6
    endloop
  endfacet
  facet normal 0.608803 0.55501 0.566853
    outer loop
      vertex -25.9294 8.2652 3.6
      vertex -27.7634 8.2343 5.6
      vertex -27.1197 7.5282 5.6
    endloop
  endfacet
  facet normal 0.608816 0.554984 0.566865
    outer loop
      vertex -26.9198 9.3516 3.6
      vertex -27.7634 8.2343 5.6
      vertex -25.9294 8.2652 3.6
    endloop
  endfacet
  facet normal 0.367199 0.737442 0.566872
    outer loop
      vertex -26.9198 9.3516 3.6
      vertex -28.6188 8.6602 5.6
      vertex -27.7634 8.2343 5.6
    endloop
  endfacet
  facet normal 0.36719 0.737451 0.566866
    outer loop
      vertex -28.2356 10.0068 3.6
      vertex -28.6188 8.6602 5.6
      vertex -26.9198 9.3516 3.6
    endloop
  endfacet
  facet normal 0.0760438 0.820291 0.566869
    outer loop
      vertex -28.2356 10.0068 3.6
      vertex -29.5702 8.7484 5.6
      vertex -28.6188 8.6602 5.6
    endloop
  endfacet
  facet normal 0.0759936 0.82031 0.566848
    outer loop
      vertex -28.2356 10.0068 3.6
      vertex -29.6994 10.1424 3.6
      vertex -29.5702 8.7484 5.6
    endloop
  endfacet
  facet normal -0.225463 0.792371 0.566846
    outer loop
      vertex -29.6994 10.1424 3.6
      vertex -30.4892 8.4869 5.6
      vertex -29.5702 8.7484 5.6
    endloop
  endfacet
  facet normal -0.225458 0.792371 0.566847
    outer loop
      vertex -29.6994 10.1424 3.6
      vertex -31.1132 9.7401 3.6
      vertex -30.4892 8.4869 5.6
    endloop
  endfacet
  facet normal -0.496452 0.657432 0.56685
    outer loop
      vertex -31.1132 9.7401 3.6
      vertex -31.2517 7.9111 5.6
      vertex -30.4892 8.4869 5.6
    endloop
  endfacet
  facet normal -0.496436 0.657438 0.566857
    outer loop
      vertex -31.1132 9.7401 3.6
      vertex -32.2863 8.8543 3.6
      vertex -31.2517 7.9111 5.6
    endloop
  endfacet
  facet normal -0.70043 0.433673 0.566856
    outer loop
      vertex -31.2517 7.9111 5.6
      vertex -32.2863 8.8543 3.6
      vertex -31.7547 7.0987 5.6
    endloop
  endfacet
  facet normal -0.70044 0.433663 0.56685
    outer loop
      vertex -32.2863 8.8543 3.6
      vertex -33.0602 7.6044 3.6
      vertex -31.7547 7.0987 5.6
    endloop
  endfacet
  facet normal -0.809792 0.151379 0.566852
    outer loop
      vertex -31.7547 7.0987 5.6
      vertex -33.0602 7.6044 3.6
      vertex -31.9303 6.1595 5.6
    endloop
  endfacet
  facet normal -0.809788 0.151388 0.566856
    outer loop
      vertex -33.0602 7.6044 3.6
      vertex -33.3303 6.1595 3.6
      vertex -31.9303 6.1595 5.6
    endloop
  endfacet
  facet normal -0.809791 -0.151363 0.566858
    outer loop
      vertex -31.9303 6.1595 5.6
      vertex -33.3303 6.1595 3.6
      vertex -31.7547 5.2202 5.6
    endloop
  endfacet
  facet normal 0.544983 0.838447 -1.2101e-16
    outer loop
      vertex -33.5169 -0.0632 4.01352
      vertex -33.5169 -0.0632 7.6
      vertex -33.3138 -0.1952 4.1
    endloop
  endfacet
  facet normal 0.544983 0.838447 -1.2101e-16
    outer loop
      vertex -33.3138 -0.1952 4.1
      vertex -33.5169 -0.0632 7.6
      vertex -33.3138 -0.1952 7.6
    endloop
  endfacet
  facet normal 0.426734 0.904377 -9.47541e-17
    outer loop
      vertex -33.3138 -0.1952 4.1
      vertex -33.3138 -0.1952 7.6
      vertex -31.7027 -0.9554 4.1
    endloop
  endfacet
  facet normal 0.426734 0.904377 -9.47541e-17
    outer loop
      vertex -31.7027 -0.9554 4.1
      vertex -33.3138 -0.1952 7.6
      vertex -31.7027 -0.9554 7.6
    endloop
  endfacet
  facet normal 0.185589 0.982627 -4.1209e-17
    outer loop
      vertex -31.7027 -0.9554 4.1
      vertex -31.7027 -0.9554 7.6
      vertex -29.7162 -1.3306 4.1
    endloop
  endfacet
  facet normal 0.185589 0.982627 -4.1209e-17
    outer loop
      vertex -29.7162 -1.3306 4.1
      vertex -31.7027 -0.9554 7.6
      vertex -29.7162 -1.3306 7.6
    endloop
  endfacet
  facet normal -0.0836439 0.996496 1.85727e-17
    outer loop
      vertex -29.7162 -1.3306 4.1
      vertex -29.7162 -1.3306 7.6
      vertex -27.7016 -1.1615 4.1
    endloop
  endfacet
  facet normal -0.0836439 0.996496 1.85727e-17
    outer loop
      vertex -27.7016 -1.1615 4.1
      vertex -29.7162 -1.3306 7.6
      vertex -27.7016 -1.1615 7.6
    endloop
  endfacet
  facet normal -0.346744 0.93796 7.69926e-17
    outer loop
      vertex -27.7016 -1.1615 4.1
      vertex -27.7016 -1.1615 7.6
      vertex -25.8053 -0.4605 4.1
    endloop
  endfacet
  facet normal -0.346744 0.93796 7.69926e-17
    outer loop
      vertex -25.8053 -0.4605 4.1
      vertex -27.7016 -1.1615 7.6
      vertex -25.8053 -0.4605 7.6
    endloop
  endfacet
  facet normal -0.584667 0.811273 1.29822e-16
    outer loop
      vertex -25.8053 -0.4605 4.1
      vertex -25.8053 -0.4605 7.6
      vertex -24.1652 0.7215 4.1
    endloop
  endfacet
  facet normal -0.584667 0.811273 1.29822e-16
    outer loop
      vertex -24.1652 0.7215 4.1
      vertex -25.8053 -0.4605 7.6
      vertex -24.1652 0.7215 7.6
    endloop
  endfacet
  facet normal -0.780108 0.625645 1.73219e-16
    outer loop
      vertex -24.1652 0.7215 4.1
      vertex -24.1652 0.7215 7.6
      vertex -22.9004 2.2986 4.1
    endloop
  endfacet
  facet normal -0.780108 0.625645 1.73219e-16
    outer loop
      vertex -22.9004 2.2986 4.1
      vertex -24.1652 0.7215 7.6
      vertex -22.9004 2.2986 7.6
    endloop
  endfacet
  facet normal -0.918883 0.394531 2.04033e-16
    outer loop
      vertex -22.9004 2.2986 4.1
      vertex -22.9004 2.2986 7.6
      vertex -22.1028 4.1563 4.1
    endloop
  endfacet
  facet normal -0.918883 0.394531 2.04033e-16
    outer loop
      vertex -22.1028 4.1563 4.1
      vertex -22.9004 2.2986 7.6
      vertex -22.1028 4.1563 7.6
    endloop
  endfacet
  facet normal -0.990875 0.134781 2.20019e-16
    outer loop
      vertex -22.1028 4.1563 4.1
      vertex -22.1028 4.1563 7.6
      vertex -21.8303 6.1595 4.1
    endloop
  endfacet
  facet normal -0.990875 0.134781 2.20019e-16
    outer loop
      vertex -21.8303 6.1595 4.1
      vertex -22.1028 4.1563 7.6
      vertex -21.8303 6.1595 7.6
    endloop
  endfacet
  facet normal 2.22045e-16 0 1
    outer loop
      vertex -32.4109 1.2452 4.1
      vertex -33.3138 -0.1952 4.1
      vertex -31.7027 -0.9554 4.1
    endloop
  endfacet
  facet normal 2.22045e-16 0 1
    outer loop
      vertex -27.7016 -1.1615 4.1
      vertex -32.4109 1.2452 4.1
      vertex -29.7162 -1.3306 4.1
    endloop
  endfacet
  facet normal 2.22045e-16 0 1
    outer loop
      vertex -29.7162 -1.3306 4.1
      vertex -32.4109 1.2452 4.1
      vertex -31.7027 -0.9554 4.1
    endloop
  endfacet
  facet normal 2.22045e-16 0 1
    outer loop
      vertex -30.9086 0.5784 4.1
      vertex -32.4109 1.2452 4.1
      vertex -27.7016 -1.1615 4.1
    endloop
  endfacet
  facet normal 2.22045e-16 0 1
    outer loop
      vertex -27.3457 0.7096 4.1
      vertex -29.1168 0.3634 4.1
      vertex -25.8053 -0.4605 4.1
    endloop
  endfacet
  facet normal 2.22045e-16 0 1
    outer loop
      vertex -25.7667 1.5834 4.1
      vertex -27.3457 0.7096 4.1
      vertex -24.1652 0.7215 4.1
    endloop
  endfacet
  facet normal 2.22045e-16 0 1
    outer loop
      vertex -24.5327 2.9001 4.1
      vertex -25.7667 1.5834 4.1
      vertex -22.9004 2.2986 4.1
    endloop
  endfacet
  facet normal 2.22045e-16 0 1
    outer loop
      vertex -23.7632 4.5324 4.1
      vertex -24.5327 2.9001 4.1
      vertex -22.1028 4.1563 4.1
    endloop
  endfacet
  facet normal 2.22045e-16 0 1
    outer loop
      vertex -21.8303 6.1595 4.1
      vertex -23.7632 4.5324 4.1
      vertex -22.1028 4.1563 4.1
    endloop
  endfacet
  facet normal 2.22045e-16 0 1
    outer loop
      vertex -22.1028 4.1563 4.1
      vertex -24.5327 2.9001 4.1
      vertex -22.9004 2.2986 4.1
    endloop
  endfacet
  facet normal 2.22045e-16 0 1
    outer loop
      vertex -22.9004 2.2986 4.1
      vertex -25.7667 1.5834 4.1
      vertex -24.1652 0.7215 4.1
    endloop
  endfacet
  facet normal 2.22045e-16 0 1
    outer loop
      vertex -24.1652 0.7215 4.1
      vertex -27.3457 0.7096 4.1
      vertex -25.8053 -0.4605 4.1
    endloop
  endfacet
  facet normal 2.22045e-16 0 1
    outer loop
      vertex -25.8053 -0.4605 4.1
      vertex -29.1168 0.3634 4.1
      vertex -27.7016 -1.1615 4.1
    endloop
  endfacet
  facet normal 2.22045e-16 0 1
    outer loop
      vertex -29.1168 0.3634 4.1
      vertex -30.9086 0.5784 4.1
      vertex -27.7016 -1.1615 4.1
    endloop
  endfacet
  facet normal 2.22045e-16 0 1
    outer loop
      vertex -23.5303 6.1595 4.1
      vertex -23.7632 4.5324 4.1
      vertex -21.8303 6.1595 4.1
    endloop
  endfacet
  facet normal 2.091e-16 0.336449 0.941702
    outer loop
      vertex -21.8303 6.1595 4.1
      vertex -23.687 6.3068 4.04737
      vertex -23.5303 6.1595 4.1
    endloop
  endfacet
  facet normal -0.283594 0.0405914 0.958085
    outer loop
      vertex -23.687 6.3068 4.04737
      vertex -23.7632 4.5324 4.1
      vertex -23.5303 6.1595 4.1
    endloop
  endfacet
  facet normal 0.116187 0.261764 0.958113
    outer loop
      vertex -30.9086 0.5784 4.1
      vertex -32.4525 1.4563 4.04737
      vertex -32.4109 1.2452 4.1
    endloop
  endfacet
  facet normal -0.284923 0.178606 0.941764
    outer loop
      vertex -32.4525 1.4563 4.04737
      vertex -33.5169 -0.0632 4.01352
      vertex -32.4109 1.2452 4.1
    endloop
  endfacet
  facet normal -0.284928 0.17861 0.941761
    outer loop
      vertex -32.4109 1.2452 4.1
      vertex -33.5169 -0.0632 4.01352
      vertex -33.3138 -0.1952 4.1
    endloop
  endfacet
endsolid OpenSCAD_Model
