solid OpenSCAD_Model
  facet normal -0.998553 0.0537781 -2.21723e-16
    outer loop
      vertex 0.027156 -1.5077 7.6
      vertex 0.133651 0.4697 7.6
      vertex 0.027156 -1.5077 6.02984e-18
    endloop
  endfacet
  facet normal -0.998553 0.0537781 -2.21723e-16
    outer loop
      vertex 0.027156 -1.5077 6.02984e-18
      vertex 0.133651 0.4697 7.6
      vertex 0.133651 0.4697 2.96765e-17
    endloop
  endfacet
  facet normal 0 0 1
    outer loop
      vertex 0.478662 -3.4357 7.6
      vertex 1.45204 -5.1602 7.6
      vertex 2.86938 -6.5431 7.6
    endloop
  endfacet
  facet normal 0 0 1
    outer loop
      vertex 6.55586 -7.8776 7.6
      vertex 0.478662 -3.4357 7.6
      vertex 4.61728 -7.4737 7.6
    endloop
  endfacet
  facet normal 0 0 1
    outer loop
      vertex 4.61728 -7.4737 7.6
      vertex 0.478662 -3.4357 7.6
      vertex 2.86938 -6.5431 7.6
    endloop
  endfacet
  facet normal 0 0 1
    outer loop
      vertex 8.52998 -7.7224 7.6
      vertex 0.478662 -3.4357 7.6
      vertex 6.55586 -7.8776 7.6
    endloop
  endfacet
  facet normal 0 0 1
    outer loop
      vertex 7 -4.0917 7.6
      vertex 0.478662 -3.4357 7.6
      vertex 8.52998 -7.7224 7.6
    endloop
  endfacet
  facet normal 0 0 1
    outer loop
      vertex 9.26274 -3.1544 7.6
      vertex 8.22459 -3.8481 7.6
      vertex 31.2974 -2.6229 7.6
    endloop
  endfacet
  facet normal 0 0 1
    outer loop
      vertex 42.9071 6.2544 7.6
      vertex 34.4781 0.5834 7.6
      vertex 35.3432 -0.5372 7.6
    endloop
  endfacet
  facet normal 0 0 1
    outer loop
      vertex 34.4781 0.5834 7.6
      vertex 33.5169 -0.0632 7.6
      vertex 35.3432 -0.5372 7.6
    endloop
  endfacet
  facet normal 0 0 1
    outer loop
      vertex 33.5169 -0.0632 7.6
      vertex 33.3138 -0.1952 7.6
      vertex 35.3432 -0.5372 7.6
    endloop
  endfacet
  facet normal 0 0 1
    outer loop
      vertex 35.3432 -0.5372 7.6
      vertex 31.7027 -0.9554 7.6
      vertex 33.4543 -1.84 7.6
    endloop
  endfacet
  facet normal 0 0 1
    outer loop
      vertex 31.7027 -0.9554 7.6
      vertex 29.7162 -1.3306 7.6
      vertex 33.4543 -1.84 7.6
    endloop
  endfacet
  facet normal 0 0 1
    outer loop
      vertex 25.8053 -0.4605 7.6
      vertex 24.1652 0.7215 7.6
      vertex 9.95641 -2.1163 7.6
    endloop
  endfacet
  facet normal 0 0 1
    outer loop
      vertex 4.04359 -2.1163 7.6
      vertex 3.8 -0.8917 7.6
      vertex 0.478662 -3.4357 7.6
    endloop
  endfacet
  facet normal 0 0 1
    outer loop
      vertex 10.2 -0.8917 7.6
      vertex 24.1652 0.7215 7.6
      vertex 22.9004 2.2986 7.6
    endloop
  endfacet
  facet normal 0 0 1
    outer loop
      vertex 9.95641 -2.1163 7.6
      vertex 29.7162 -1.3306 7.6
      vertex 27.7016 -1.1615 7.6
    endloop
  endfacet
  facet normal 0 0 1
    outer loop
      vertex 22.1028 4.1563 7.6
      vertex 10.2 -0.8917 7.6
      vertex 22.9004 2.2986 7.6
    endloop
  endfacet
  facet normal 0 0 1
    outer loop
      vertex 3.8 -0.8917 7.6
      vertex 3.8 5.3437 7.6
      vertex 0.478662 -3.4357 7.6
    endloop
  endfacet
  facet normal 0 0 1
    outer loop
      vertex 33.4543 -1.84 7.6
      vertex 9.26274 -3.1544 7.6
      vertex 31.2974 -2.6229 7.6
    endloop
  endfacet
  facet normal 0 0 1
    outer loop
      vertex 31.2974 -2.6229 7.6
      vertex 8.22459 -3.8481 7.6
      vertex 8.52998 -7.7224 7.6
    endloop
  endfacet
  facet normal 0 0 1
    outer loop
      vertex 8.22459 -3.8481 7.6
      vertex 7 -4.0917 7.6
      vertex 8.52998 -7.7224 7.6
    endloop
  endfacet
  facet normal 0 0 1
    outer loop
      vertex 5.77541 -3.8481 7.6
      vertex 0.478662 -3.4357 7.6
      vertex 7 -4.0917 7.6
    endloop
  endfacet
  facet normal 0 0 1
    outer loop
      vertex 4.73726 -3.1544 7.6
      vertex 4.04359 -2.1163 7.6
      vertex 0.478662 -3.4357 7.6
    endloop
  endfacet
  facet normal 0 0 1
    outer loop
      vertex 5.77541 -3.8481 7.6
      vertex 4.73726 -3.1544 7.6
      vertex 0.478662 -3.4357 7.6
    endloop
  endfacet
  facet normal 0 0 1
    outer loop
      vertex 10.2 -0.8917 7.6
      vertex 9.95641 -2.1163 7.6
      vertex 24.1652 0.7215 7.6
    endloop
  endfacet
  facet normal 0 0 1
    outer loop
      vertex 9.95641 -2.1163 7.6
      vertex 27.7016 -1.1615 7.6
      vertex 25.8053 -0.4605 7.6
    endloop
  endfacet
  facet normal 0 0 1
    outer loop
      vertex 9.95641 -2.1163 7.6
      vertex 33.4543 -1.84 7.6
      vertex 29.7162 -1.3306 7.6
    endloop
  endfacet
  facet normal 0 0 1
    outer loop
      vertex 9.95641 -2.1163 7.6
      vertex 9.26274 -3.1544 7.6
      vertex 33.4543 -1.84 7.6
    endloop
  endfacet
  facet normal 0 0 1
    outer loop
      vertex 3.50025 5.1706 7.6
      vertex 0.478662 -3.4357 7.6
      vertex 3.8 5.3437 7.6
    endloop
  endfacet
  facet normal 0 0 1
    outer loop
      vertex 1.94258 3.948 7.6
      vertex 0.478662 -3.4357 7.6
      vertex 3.50025 5.1706 7.6
    endloop
  endfacet
  facet normal 0 0 1
    outer loop
      vertex 0.789623 2.338 7.6
      vertex 0.478662 -3.4357 7.6
      vertex 1.94258 3.948 7.6
    endloop
  endfacet
  facet normal 0 0 1
    outer loop
      vertex 0.133651 0.4697 7.6
      vertex 0.478662 -3.4357 7.6
      vertex 0.789623 2.338 7.6
    endloop
  endfacet
  facet normal 0 0 1
    outer loop
      vertex 0.027156 -1.5077 7.6
      vertex 0.478662 -3.4357 7.6
      vertex 0.133651 0.4697 7.6
    endloop
  endfacet
  facet normal 0 0 1
    outer loop
      vertex 33.3138 -0.1952 7.6
      vertex 31.7027 -0.9554 7.6
      vertex 35.3432 -0.5372 7.6
    endloop
  endfacet
  facet normal 0 0 1
    outer loop
      vertex 10.2 9.0384 7.6
      vertex 21.8303 6.1595 7.6
      vertex 21.8303 15.7525 7.6
    endloop
  endfacet
  facet normal 0 0 1
    outer loop
      vertex 10.2 9.0384 7.6
      vertex 22.1028 4.1563 7.6
      vertex 21.8303 6.1595 7.6
    endloop
  endfacet
  facet normal 0 0 1
    outer loop
      vertex 10.2 9.0384 7.6
      vertex 10.2 -0.8917 7.6
      vertex 22.1028 4.1563 7.6
    endloop
  endfacet
  facet normal -0.973658 -0.228015 -2.16195e-16
    outer loop
      vertex 0.027156 -1.5077 7.6
      vertex 0.027156 -1.5077 6.02984e-18
      vertex 0.478662 -3.4357 7.6
    endloop
  endfacet
  facet normal -0.973658 -0.228015 -2.16195e-16
    outer loop
      vertex 0.478662 -3.4357 7.6
      vertex 0.027156 -1.5077 6.02984e-18
      vertex 0.478662 -3.4357 1.06284e-16
    endloop
  endfacet
  facet normal 2.22045e-16 0 -1
    outer loop
      vertex 0.027156 -1.5077 6.02984e-18
      vertex 0.133651 0.4697 2.96765e-17
      vertex 0.478662 -3.4357 1.06284e-16
    endloop
  endfacet
  facet normal 2.22045e-16 0 -1
    outer loop
      vertex 0.478662 -3.4357 1.06284e-16
      vertex 0.133651 0.4697 2.96765e-17
      vertex 0.789623 2.338 1.75332e-16
    endloop
  endfacet
  facet normal 2.22045e-16 0 -1
    outer loop
      vertex 0.478662 -3.4357 1.06284e-16
      vertex 0.789623 2.338 1.75332e-16
      vertex 1.94258 3.948 4.31339e-16
    endloop
  endfacet
  facet normal 2.22045e-16 0 -1
    outer loop
      vertex 0.478662 -3.4357 1.06284e-16
      vertex 1.94258 3.948 4.31339e-16
      vertex 3.50025 5.1706 7.77212e-16
    endloop
  endfacet
  facet normal 2.22045e-16 0 -1
    outer loop
      vertex 0.478662 -3.4357 1.06284e-16
      vertex 3.50025 5.1706 7.77212e-16
      vertex 3.8 5.3437 8.43769e-16
    endloop
  endfacet
  facet normal 2.22045e-16 0 -1
    outer loop
      vertex 0.478662 -3.4357 1.06284e-16
      vertex 3.8 5.3437 8.43769e-16
      vertex 3.8 -0.8917 8.43769e-16
    endloop
  endfacet
  facet normal 2.22045e-16 0 -1
    outer loop
      vertex 0.478662 -3.4357 1.06284e-16
      vertex 3.8 -0.8917 8.43769e-16
      vertex 4.04359 -2.1163 8.97856e-16
    endloop
  endfacet
  facet normal 2.22045e-16 0 -1
    outer loop
      vertex 4.04359 -2.1163 8.97856e-16
      vertex 4.73726 -3.1544 1.05188e-15
      vertex 0.478662 -3.4357 1.06284e-16
    endloop
  endfacet
  facet normal 2.22045e-16 0 -1
    outer loop
      vertex 4.73726 -3.1544 1.05188e-15
      vertex 5.77541 -3.8481 1.2824e-15
      vertex 0.478662 -3.4357 1.06284e-16
    endloop
  endfacet
  facet normal 2.22045e-16 0 -1
    outer loop
      vertex 5.77541 -3.8481 1.2824e-15
      vertex 7 -4.0917 1.55431e-15
      vertex 0.478662 -3.4357 1.06284e-16
    endloop
  endfacet
  facet normal 2.22045e-16 0 -1
    outer loop
      vertex 9.95641 -2.1163 2.21077e-15
      vertex 36.501 24.2218 8.10486e-15
      vertex 9.26274 -3.1544 2.05674e-15
    endloop
  endfacet
  facet normal 2.22045e-16 0 -1
    outer loop
      vertex 10.2 -0.8917 2.26485e-15
      vertex 10.2 9.0384 2.26485e-15
      vertex 36.501 24.2218 8.10486e-15
    endloop
  endfacet
  facet normal 2.22045e-16 0 -1
    outer loop
      vertex 10.2 -0.8917 2.26485e-15
      vertex 36.501 24.2218 8.10486e-15
      vertex 9.95641 -2.1163 2.21077e-15
    endloop
  endfacet
  facet normal 2.22045e-16 0 -1
    outer loop
      vertex 9.26274 -3.1544 2.05674e-15
      vertex 36.501 24.2218 8.10486e-15
      vertex 36.8008 24.3853 8.17142e-15
    endloop
  endfacet
  facet normal 2.22045e-16 0 -1
    outer loop
      vertex 9.26274 -3.1544 2.05674e-15
      vertex 36.8008 24.3853 8.17142e-15
      vertex 36.8008 18.1595 8.17142e-15
    endloop
  endfacet
  facet normal 2.22045e-16 0 -1
    outer loop
      vertex 9.26274 -3.1544 2.05674e-15
      vertex 36.8008 18.1595 8.17142e-15
      vertex 37.0444 16.9349 8.2255e-15
    endloop
  endfacet
  facet normal 2.22045e-16 0 -1
    outer loop
      vertex 9.26274 -3.1544 2.05674e-15
      vertex 38.7762 15.2031 8.61005e-15
      vertex 8.22459 -3.8481 1.82622e-15
    endloop
  endfacet
  facet normal 2.22045e-16 0 -1
    outer loop
      vertex 37.0444 16.9349 8.2255e-15
      vertex 37.7381 15.8967 8.37953e-15
      vertex 9.26274 -3.1544 2.05674e-15
    endloop
  endfacet
  facet normal 2.22045e-16 0 -1
    outer loop
      vertex 37.7381 15.8967 8.37953e-15
      vertex 38.7762 15.2031 8.61005e-15
      vertex 9.26274 -3.1544 2.05674e-15
    endloop
  endfacet
  facet normal 2.22045e-16 0 -1
    outer loop
      vertex 38.7762 15.2031 8.61005e-15
      vertex 40.0008 14.9595 8.88196e-15
      vertex 8.22459 -3.8481 1.82622e-15
    endloop
  endfacet
  facet normal 2.22045e-16 0 -1
    outer loop
      vertex 40.0008 14.9595 8.88196e-15
      vertex 41.2254 15.2031 9.15387e-15
      vertex 8.22459 -3.8481 1.82622e-15
    endloop
  endfacet
  facet normal 2.22045e-16 0 -1
    outer loop
      vertex 30.1553 7.5884 6.69582e-15
      vertex 50.564 15.9104 1.12275e-14
      vertex 30.7592 6.9845 6.82992e-15
    endloop
  endfacet
  facet normal 2.22045e-16 0 -1
    outer loop
      vertex 42.2635 15.8967 9.38439e-15
      vertex 50.8008 18.1595 1.128e-14
      vertex 41.2254 15.2031 9.15387e-15
    endloop
  endfacet
  facet normal 2.22045e-16 0 -1
    outer loop
      vertex 42.9572 16.9349 9.53842e-15
      vertex 50.8008 18.1595 1.128e-14
      vertex 42.2635 15.8967 9.38439e-15
    endloop
  endfacet
  facet normal 2.22045e-16 0 -1
    outer loop
      vertex 43.2008 18.1595 9.5925e-15
      vertex 43.2008 24.3853 9.5925e-15
      vertex 50.8008 18.1595 1.128e-14
    endloop
  endfacet
  facet normal 2.22045e-16 0 -1
    outer loop
      vertex 43.2008 18.1595 9.5925e-15
      vertex 50.8008 18.1595 1.128e-14
      vertex 42.9572 16.9349 9.53842e-15
    endloop
  endfacet
  facet normal 2.22045e-16 0 -1
    outer loop
      vertex 30.9803 6.1595 6.87901e-15
      vertex 49.864 13.7599 1.1072e-14
      vertex 30.7592 5.3345 6.82992e-15
    endloop
  endfacet
  facet normal 2.22045e-16 0 -1
    outer loop
      vertex 8.22459 -3.8481 1.82622e-15
      vertex 48.7315 11.8023 1.08206e-14
      vertex 47.2162 10.1235 1.04841e-14
    endloop
  endfacet
  facet normal 2.22045e-16 0 -1
    outer loop
      vertex 8.22459 -3.8481 1.82622e-15
      vertex 47.2162 10.1235 1.04841e-14
      vertex 35.3432 -0.5372 7.84776e-15
    endloop
  endfacet
  facet normal 2.22045e-16 0 -1
    outer loop
      vertex 8.22459 -3.8481 1.82622e-15
      vertex 35.3432 -0.5372 7.84776e-15
      vertex 7 -4.0917 1.55431e-15
    endloop
  endfacet
  facet normal 2.22045e-16 0 -1
    outer loop
      vertex 7 -4.0917 1.55431e-15
      vertex 35.3432 -0.5372 7.84776e-15
      vertex 33.4543 -1.84 7.42835e-15
    endloop
  endfacet
  facet normal 2.22045e-16 0 -1
    outer loop
      vertex 7 -4.0917 1.55431e-15
      vertex 33.4543 -1.84 7.42835e-15
      vertex 31.2974 -2.6229 6.94942e-15
    endloop
  endfacet
  facet normal 2.22045e-16 0 -1
    outer loop
      vertex 7 -4.0917 1.55431e-15
      vertex 31.2974 -2.6229 6.94942e-15
      vertex 8.52998 -7.7224 1.89404e-15
    endloop
  endfacet
  facet normal 2.22045e-16 0 -1
    outer loop
      vertex 7 -4.0917 1.55431e-15
      vertex 8.52998 -7.7224 1.89404e-15
      vertex 0.478662 -3.4357 1.06284e-16
    endloop
  endfacet
  facet normal 2.22045e-16 0 -1
    outer loop
      vertex 0.478662 -3.4357 1.06284e-16
      vertex 8.52998 -7.7224 1.89404e-15
      vertex 6.55586 -7.8776 1.45569e-15
    endloop
  endfacet
  facet normal 2.22045e-16 0 -1
    outer loop
      vertex 0.478662 -3.4357 1.06284e-16
      vertex 6.55586 -7.8776 1.45569e-15
      vertex 4.61728 -7.4737 1.02524e-15
    endloop
  endfacet
  facet normal 2.22045e-16 0 -1
    outer loop
      vertex 0.478662 -3.4357 1.06284e-16
      vertex 4.61728 -7.4737 1.02524e-15
      vertex 2.86938 -6.5431 6.37131e-16
    endloop
  endfacet
  facet normal 2.22045e-16 0 -1
    outer loop
      vertex 0.478662 -3.4357 1.06284e-16
      vertex 2.86938 -6.5431 6.37131e-16
      vertex 1.45204 -5.1602 3.22417e-16
    endloop
  endfacet
  facet normal 2.22045e-16 0 -1
    outer loop
      vertex 28.5053 4.7305 6.32945e-15
      vertex 8.22459 -3.8481 1.82622e-15
      vertex 27.9013 5.3345 6.19534e-15
    endloop
  endfacet
  facet normal 2.22045e-16 0 -1
    outer loop
      vertex 8.22459 -3.8481 1.82622e-15
      vertex 27.6803 6.1595 6.14626e-15
      vertex 27.9013 5.3345 6.19534e-15
    endloop
  endfacet
  facet normal 2.22045e-16 0 -1
    outer loop
      vertex 30.7592 6.9845 6.82992e-15
      vertex 50.564 15.9104 1.12275e-14
      vertex 30.9803 6.1595 6.87901e-15
    endloop
  endfacet
  facet normal 2.22045e-16 0 -1
    outer loop
      vertex 30.9803 6.1595 6.87901e-15
      vertex 50.564 15.9104 1.12275e-14
      vertex 49.864 13.7599 1.1072e-14
    endloop
  endfacet
  facet normal 2.22045e-16 0 -1
    outer loop
      vertex 8.22459 -3.8481 1.82622e-15
      vertex 29.3303 4.5095 6.51263e-15
      vertex 30.1553 4.7305 6.69582e-15
    endloop
  endfacet
  facet normal 2.22045e-16 0 -1
    outer loop
      vertex 8.22459 -3.8481 1.82622e-15
      vertex 30.1553 4.7305 6.69582e-15
      vertex 48.7315 11.8023 1.08206e-14
    endloop
  endfacet
  facet normal 2.22045e-16 0 -1
    outer loop
      vertex 30.7592 5.3345 6.82992e-15
      vertex 48.7315 11.8023 1.08206e-14
      vertex 30.1553 4.7305 6.69582e-15
    endloop
  endfacet
  facet normal 2.22045e-16 0 -1
    outer loop
      vertex 30.7592 5.3345 6.82992e-15
      vertex 49.864 13.7599 1.1072e-14
      vertex 48.7315 11.8023 1.08206e-14
    endloop
  endfacet
  facet normal 2.22045e-16 0 -1
    outer loop
      vertex 29.3303 4.5095 6.51263e-15
      vertex 8.22459 -3.8481 1.82622e-15
      vertex 28.5053 4.7305 6.32945e-15
    endloop
  endfacet
  facet normal 2.22045e-16 0 -1
    outer loop
      vertex 30.1553 7.5884 6.69582e-15
      vertex 50.8008 18.1595 1.128e-14
      vertex 50.564 15.9104 1.12275e-14
    endloop
  endfacet
  facet normal 2.22045e-16 0 -1
    outer loop
      vertex 41.2254 15.2031 9.15387e-15
      vertex 50.8008 18.1595 1.128e-14
      vertex 30.1553 7.5884 6.69582e-15
    endloop
  endfacet
  facet normal 2.22045e-16 0 -1
    outer loop
      vertex 41.2254 15.2031 9.15387e-15
      vertex 30.1553 7.5884 6.69582e-15
      vertex 29.3303 7.8095 6.51263e-15
    endloop
  endfacet
  facet normal 2.22045e-16 0 -1
    outer loop
      vertex 41.2254 15.2031 9.15387e-15
      vertex 29.3303 7.8095 6.51263e-15
      vertex 28.5053 7.5884 6.32945e-15
    endloop
  endfacet
  facet normal 2.22045e-16 0 -1
    outer loop
      vertex 41.2254 15.2031 9.15387e-15
      vertex 28.5053 7.5884 6.32945e-15
      vertex 8.22459 -3.8481 1.82622e-15
    endloop
  endfacet
  facet normal 2.22045e-16 0 -1
    outer loop
      vertex 27.6803 6.1595 6.14626e-15
      vertex 8.22459 -3.8481 1.82622e-15
      vertex 27.9013 6.9845 6.19534e-15
    endloop
  endfacet
  facet normal 2.22045e-16 0 -1
    outer loop
      vertex 27.9013 6.9845 6.19534e-15
      vertex 8.22459 -3.8481 1.82622e-15
      vertex 28.5053 7.5884 6.32945e-15
    endloop
  endfacet
  facet normal -0.943532 0.33128 -2.09506e-16
    outer loop
      vertex 0.133651 0.4697 7.6
      vertex 0.789623 2.338 7.6
      vertex 0.133651 0.4697 2.96765e-17
    endloop
  endfacet
  facet normal -0.943532 0.33128 -2.09506e-16
    outer loop
      vertex 0.133651 0.4697 2.96765e-17
      vertex 0.789623 2.338 7.6
      vertex 0.789623 2.338 1.75332e-16
    endloop
  endfacet
  facet normal -0.870853 -0.491543 -1.93368e-16
    outer loop
      vertex 0.478662 -3.4357 7.6
      vertex 0.478662 -3.4357 1.06284e-16
      vertex 1.45204 -5.1602 7.6
    endloop
  endfacet
  facet normal -0.870853 -0.491543 -1.93368e-16
    outer loop
      vertex 1.45204 -5.1602 7.6
      vertex 0.478662 -3.4357 1.06284e-16
      vertex 1.45204 -5.1602 3.22417e-16
    endloop
  endfacet
  facet normal -0.813027 0.582226 -1.80528e-16
    outer loop
      vertex 0.789623 2.338 7.6
      vertex 1.94258 3.948 7.6
      vertex 0.789623 2.338 1.75332e-16
    endloop
  endfacet
  facet normal -0.813027 0.582226 -1.80528e-16
    outer loop
      vertex 0.789623 2.338 1.75332e-16
      vertex 1.94258 3.948 7.6
      vertex 1.94258 3.948 4.31339e-16
    endloop
  endfacet
  facet normal -0.61742 0.786634 -1.37095e-16
    outer loop
      vertex 1.94258 3.948 7.6
      vertex 3.50025 5.1706 7.6
      vertex 1.94258 3.948 4.31339e-16
    endloop
  endfacet
  facet normal -0.61742 0.786634 -1.37095e-16
    outer loop
      vertex 1.94258 3.948 4.31339e-16
      vertex 3.50025 5.1706 7.6
      vertex 3.50025 5.1706 7.77212e-16
    endloop
  endfacet
  facet normal -0.500089 0.865974 -1.11042e-16
    outer loop
      vertex 3.50025 5.1706 7.6
      vertex 3.8 5.3437 7.6
      vertex 3.50025 5.1706 7.77212e-16
    endloop
  endfacet
  facet normal -0.500089 0.865974 -1.11042e-16
    outer loop
      vertex 3.50025 5.1706 7.77212e-16
      vertex 3.8 5.3437 7.6
      vertex 3.8 5.3437 8.43769e-16
    endloop
  endfacet
  facet normal 1 0 2.22045e-16
    outer loop
      vertex 3.8 5.3437 7.6
      vertex 3.8 -0.8917 7.6
      vertex 3.8 -0.8917 8.43769e-16
    endloop
  endfacet
  facet normal 1 0 2.22045e-16
    outer loop
      vertex 3.8 5.3437 8.43769e-16
      vertex 3.8 5.3437 7.6
      vertex 3.8 -0.8917 8.43769e-16
    endloop
  endfacet
  facet normal 0.980786 0.195089 2.17778e-16
    outer loop
      vertex 3.8 -0.8917 8.43769e-16
      vertex 3.8 -0.8917 7.6
      vertex 4.04359 -2.1163 7.6
    endloop
  endfacet
  facet normal 0.980786 0.195089 2.17778e-16
    outer loop
      vertex 4.04359 -2.1163 8.97856e-16
      vertex 3.8 -0.8917 8.43769e-16
      vertex 4.04359 -2.1163 7.6
    endloop
  endfacet
  facet normal 0.831456 0.55559 1.8462e-16
    outer loop
      vertex 4.04359 -2.1163 8.97856e-16
      vertex 4.04359 -2.1163 7.6
      vertex 4.73726 -3.1544 7.6
    endloop
  endfacet
  facet normal 0.831456 0.55559 1.8462e-16
    outer loop
      vertex 4.73726 -3.1544 1.05188e-15
      vertex 4.04359 -2.1163 8.97856e-16
      vertex 4.73726 -3.1544 7.6
    endloop
  endfacet
  facet normal 0.555585 0.83146 1.23365e-16
    outer loop
      vertex 4.73726 -3.1544 7.6
      vertex 5.77541 -3.8481 7.6
      vertex 4.73726 -3.1544 1.05188e-15
    endloop
  endfacet
  facet normal 0.555585 0.83146 1.23365e-16
    outer loop
      vertex 4.73726 -3.1544 1.05188e-15
      vertex 5.77541 -3.8481 7.6
      vertex 5.77541 -3.8481 1.2824e-15
    endloop
  endfacet
  facet normal 0.195101 0.980783 4.33212e-17
    outer loop
      vertex 5.77541 -3.8481 7.6
      vertex 7 -4.0917 7.6
      vertex 5.77541 -3.8481 1.2824e-15
    endloop
  endfacet
  facet normal 0.195101 0.980783 4.33212e-17
    outer loop
      vertex 5.77541 -3.8481 1.2824e-15
      vertex 7 -4.0917 7.6
      vertex 7 -4.0917 1.55431e-15
    endloop
  endfacet
  facet normal -0.195102 0.980783 -4.33213e-17
    outer loop
      vertex 7 -4.0917 7.6
      vertex 8.22459 -3.8481 7.6
      vertex 7 -4.0917 1.55431e-15
    endloop
  endfacet
  facet normal -0.195102 0.980783 -4.33213e-17
    outer loop
      vertex 7 -4.0917 1.55431e-15
      vertex 8.22459 -3.8481 7.6
      vertex 8.22459 -3.8481 1.82622e-15
    endloop
  endfacet
  facet normal -0.555585 0.83146 -1.23365e-16
    outer loop
      vertex 8.22459 -3.8481 7.6
      vertex 9.26274 -3.1544 7.6
      vertex 8.22459 -3.8481 1.82622e-15
    endloop
  endfacet
  facet normal -0.555585 0.83146 -1.23365e-16
    outer loop
      vertex 8.22459 -3.8481 1.82622e-15
      vertex 9.26274 -3.1544 7.6
      vertex 9.26274 -3.1544 2.05674e-15
    endloop
  endfacet
  facet normal -0.831456 0.555591 -1.8462e-16
    outer loop
      vertex 9.26274 -3.1544 7.6
      vertex 9.95641 -2.1163 7.6
      vertex 9.26274 -3.1544 2.05674e-15
    endloop
  endfacet
  facet normal -0.831456 0.555591 -1.8462e-16
    outer loop
      vertex 9.26274 -3.1544 2.05674e-15
      vertex 9.95641 -2.1163 7.6
      vertex 9.95641 -2.1163 2.21077e-15
    endloop
  endfacet
  facet normal -0.980786 0.195089 -2.17778e-16
    outer loop
      vertex 9.95641 -2.1163 7.6
      vertex 10.2 -0.8917 7.6
      vertex 9.95641 -2.1163 2.21077e-15
    endloop
  endfacet
  facet normal -0.980786 0.195089 -2.17778e-16
    outer loop
      vertex 9.95641 -2.1163 2.21077e-15
      vertex 10.2 -0.8917 7.6
      vertex 10.2 -0.8917 2.26485e-15
    endloop
  endfacet
  facet normal -1 0 -2.22045e-16
    outer loop
      vertex 10.2 -0.8917 7.6
      vertex 10.2 9.0384 7.6
      vertex 10.2 -0.8917 2.26485e-15
    endloop
  endfacet
  facet normal -1 0 -2.22045e-16
    outer loop
      vertex 10.2 -0.8917 2.26485e-15
      vertex 10.2 9.0384 7.6
      vertex 10.2 9.0384 2.26485e-15
    endloop
  endfacet
  facet normal -0.499964 0.866046 -1.11014e-16
    outer loop
      vertex 10.2 9.0384 7.6
      vertex 21.8303 15.7525 7.6
      vertex 10.2 9.0384 2.26485e-15
    endloop
  endfacet
  facet normal -0.499964 0.866046 -1.11014e-16
    outer loop
      vertex 10.2 9.0384 2.26485e-15
      vertex 21.8303 15.7525 7.6
      vertex 21.8303 15.7525 3.6
    endloop
  endfacet
  facet normal 1 0 2.22045e-16
    outer loop
      vertex 21.8303 15.7525 7.6
      vertex 21.8303 6.1595 7.6
      vertex 21.8303 6.1595 4.1
    endloop
  endfacet
  facet normal 1 0 2.22045e-16
    outer loop
      vertex 21.8303 15.7525 3.6
      vertex 21.8303 15.7525 7.6
      vertex 21.8303 7.5595 3.6
    endloop
  endfacet
  facet normal 1 0 2.22045e-16
    outer loop
      vertex 21.8303 7.5595 3.6
      vertex 21.8303 15.7525 7.6
      vertex 21.8303 6.1595 4.1
    endloop
  endfacet
  facet normal 0.990875 0.134781 2.20019e-16
    outer loop
      vertex 21.8303 6.1595 4.1
      vertex 21.8303 6.1595 7.6
      vertex 22.1028 4.1563 7.6
    endloop
  endfacet
  facet normal 0.990875 0.134781 2.20019e-16
    outer loop
      vertex 22.1028 4.1563 4.1
      vertex 21.8303 6.1595 4.1
      vertex 22.1028 4.1563 7.6
    endloop
  endfacet
  facet normal 0.918883 0.394531 2.04033e-16
    outer loop
      vertex 22.1028 4.1563 4.1
      vertex 22.1028 4.1563 7.6
      vertex 22.9004 2.2986 7.6
    endloop
  endfacet
  facet normal 0.918883 0.394531 2.04033e-16
    outer loop
      vertex 22.9004 2.2986 4.1
      vertex 22.1028 4.1563 4.1
      vertex 22.9004 2.2986 7.6
    endloop
  endfacet
  facet normal 0.780108 0.625645 1.73219e-16
    outer loop
      vertex 22.9004 2.2986 4.1
      vertex 22.9004 2.2986 7.6
      vertex 24.1652 0.7215 7.6
    endloop
  endfacet
  facet normal 0.780108 0.625645 1.73219e-16
    outer loop
      vertex 24.1652 0.7215 4.1
      vertex 22.9004 2.2986 4.1
      vertex 24.1652 0.7215 7.6
    endloop
  endfacet
  facet normal 0.584667 0.811273 1.29822e-16
    outer loop
      vertex 24.1652 0.7215 7.6
      vertex 25.8053 -0.4605 7.6
      vertex 24.1652 0.7215 4.1
    endloop
  endfacet
  facet normal 0.584667 0.811273 1.29822e-16
    outer loop
      vertex 24.1652 0.7215 4.1
      vertex 25.8053 -0.4605 7.6
      vertex 25.8053 -0.4605 4.1
    endloop
  endfacet
  facet normal 0.346744 0.93796 7.69926e-17
    outer loop
      vertex 25.8053 -0.4605 7.6
      vertex 27.7016 -1.1615 7.6
      vertex 25.8053 -0.4605 4.1
    endloop
  endfacet
  facet normal 0.346744 0.93796 7.69926e-17
    outer loop
      vertex 25.8053 -0.4605 4.1
      vertex 27.7016 -1.1615 7.6
      vertex 27.7016 -1.1615 4.1
    endloop
  endfacet
  facet normal 0.0836439 0.996496 1.85727e-17
    outer loop
      vertex 27.7016 -1.1615 7.6
      vertex 29.7162 -1.3306 7.6
      vertex 27.7016 -1.1615 4.1
    endloop
  endfacet
  facet normal 0.0836439 0.996496 1.85727e-17
    outer loop
      vertex 27.7016 -1.1615 4.1
      vertex 29.7162 -1.3306 7.6
      vertex 29.7162 -1.3306 4.1
    endloop
  endfacet
  facet normal -0.185589 0.982627 -4.1209e-17
    outer loop
      vertex 29.7162 -1.3306 7.6
      vertex 31.7027 -0.9554 7.6
      vertex 29.7162 -1.3306 4.1
    endloop
  endfacet
  facet normal -0.185589 0.982627 -4.1209e-17
    outer loop
      vertex 29.7162 -1.3306 4.1
      vertex 31.7027 -0.9554 7.6
      vertex 31.7027 -0.9554 4.1
    endloop
  endfacet
  facet normal -0.426734 0.904377 -9.47541e-17
    outer loop
      vertex 31.7027 -0.9554 7.6
      vertex 33.3138 -0.1952 7.6
      vertex 31.7027 -0.9554 4.1
    endloop
  endfacet
  facet normal -0.426734 0.904377 -9.47541e-17
    outer loop
      vertex 31.7027 -0.9554 4.1
      vertex 33.3138 -0.1952 7.6
      vertex 33.3138 -0.1952 4.1
    endloop
  endfacet
  facet normal -0.544983 0.838447 -1.2101e-16
    outer loop
      vertex 33.3138 -0.1952 7.6
      vertex 33.5169 -0.0632 7.6
      vertex 33.3138 -0.1952 4.1
    endloop
  endfacet
  facet normal -0.544983 0.838447 -1.2101e-16
    outer loop
      vertex 33.3138 -0.1952 4.1
      vertex 33.5169 -0.0632 7.6
      vertex 33.5169 -0.0632 4.01352
    endloop
  endfacet
  facet normal -0.55817 0.829727 -1.23939e-16
    outer loop
      vertex 33.5169 -0.0632 7.6
      vertex 34.4781 0.5834 7.6
      vertex 33.5169 -0.0632 4.01352
    endloop
  endfacet
  facet normal -0.55817 0.829727 -1.23939e-16
    outer loop
      vertex 33.5169 -0.0632 4.01352
      vertex 34.4781 0.5834 7.6
      vertex 34.4781 0.5834 3.6
    endloop
  endfacet
  facet normal -0.558215 0.829697 -1.23949e-16
    outer loop
      vertex 34.4781 0.5834 7.6
      vertex 42.9071 6.2544 7.6
      vertex 34.4781 0.5834 3.6
    endloop
  endfacet
  facet normal -0.558215 0.829697 -1.23949e-16
    outer loop
      vertex 34.4781 0.5834 3.6
      vertex 42.9071 6.2544 7.6
      vertex 42.9071 6.2544 3.6
    endloop
  endfacet
  facet normal 0.668098 -0.744074 1.48347e-16
    outer loop
      vertex 42.9071 6.2544 7.6
      vertex 35.3432 -0.5372 7.6
      vertex 35.3432 -0.5372 7.84776e-15
    endloop
  endfacet
  facet normal 0.668098 -0.744074 1.48347e-16
    outer loop
      vertex 42.9071 6.2544 3.6
      vertex 42.9071 6.2544 7.6
      vertex 35.3432 -0.5372 7.84776e-15
    endloop
  endfacet
  facet normal 0.56778 -0.82318 1.26072e-16
    outer loop
      vertex 35.3432 -0.5372 7.6
      vertex 33.4543 -1.84 7.6
      vertex 33.4543 -1.84 7.42835e-15
    endloop
  endfacet
  facet normal 0.56778 -0.82318 1.26072e-16
    outer loop
      vertex 35.3432 -0.5372 7.84776e-15
      vertex 35.3432 -0.5372 7.6
      vertex 33.4543 -1.84 7.42835e-15
    endloop
  endfacet
  facet normal 0.341192 -0.939994 7.57599e-17
    outer loop
      vertex 33.4543 -1.84 7.6
      vertex 31.2974 -2.6229 7.6
      vertex 31.2974 -2.6229 6.94942e-15
    endloop
  endfacet
  facet normal 0.341192 -0.939994 7.57599e-17
    outer loop
      vertex 33.4543 -1.84 7.42835e-15
      vertex 33.4543 -1.84 7.6
      vertex 31.2974 -2.6229 6.94942e-15
    endloop
  endfacet
  facet normal 0.218567 -0.975822 4.85316e-17
    outer loop
      vertex 31.2974 -2.6229 7.6
      vertex 8.52998 -7.7224 7.6
      vertex 8.52998 -7.7224 1.89404e-15
    endloop
  endfacet
  facet normal 0.218567 -0.975822 4.85316e-17
    outer loop
      vertex 31.2974 -2.6229 6.94942e-15
      vertex 31.2974 -2.6229 7.6
      vertex 8.52998 -7.7224 1.89404e-15
    endloop
  endfacet
  facet normal 0.0783756 -0.996924 1.74029e-17
    outer loop
      vertex 8.52998 -7.7224 7.6
      vertex 6.55586 -7.8776 7.6
      vertex 6.55586 -7.8776 1.45569e-15
    endloop
  endfacet
  facet normal 0.0783756 -0.996924 1.74029e-17
    outer loop
      vertex 8.52998 -7.7224 1.89404e-15
      vertex 8.52998 -7.7224 7.6
      vertex 6.55586 -7.8776 1.45569e-15
    endloop
  endfacet
  facet normal -0.203969 -0.978977 -4.52902e-17
    outer loop
      vertex 6.55586 -7.8776 7.6
      vertex 4.61728 -7.4737 7.6
      vertex 4.61728 -7.4737 1.02524e-15
    endloop
  endfacet
  facet normal -0.203969 -0.978977 -4.52902e-17
    outer loop
      vertex 6.55586 -7.8776 1.45569e-15
      vertex 6.55586 -7.8776 7.6
      vertex 4.61728 -7.4737 1.02524e-15
    endloop
  endfacet
  facet normal -0.469954 -0.882691 -1.04351e-16
    outer loop
      vertex 4.61728 -7.4737 7.6
      vertex 2.86938 -6.5431 7.6
      vertex 2.86938 -6.5431 6.37131e-16
    endloop
  endfacet
  facet normal -0.469954 -0.882691 -1.04351e-16
    outer loop
      vertex 4.61728 -7.4737 1.02524e-15
      vertex 4.61728 -7.4737 7.6
      vertex 2.86938 -6.5431 6.37131e-16
    endloop
  endfacet
  facet normal -0.698355 -0.715751 -1.55066e-16
    outer loop
      vertex 2.86938 -6.5431 7.6
      vertex 1.45204 -5.1602 7.6
      vertex 1.45204 -5.1602 3.22417e-16
    endloop
  endfacet
  facet normal -0.698355 -0.715751 -1.55066e-16
    outer loop
      vertex 2.86938 -6.5431 6.37131e-16
      vertex 2.86938 -6.5431 7.6
      vertex 1.45204 -5.1602 3.22417e-16
    endloop
  endfacet
  facet normal 0.668082 -0.744088 5.90905e-05
    outer loop
      vertex 42.9071 6.2544 3.6
      vertex 35.3432 -0.5372 7.84776e-15
      vertex 45.4304 8.52 3.6
    endloop
  endfacet
  facet normal 0.668096 -0.744075 -1.39769e-05
    outer loop
      vertex 45.4304 8.52 3.6
      vertex 35.3432 -0.5372 7.84776e-15
      vertex 47.2162 10.1235 1.04841e-14
    endloop
  endfacet
  facet normal 0.668112 -0.744061 1.48351e-16
    outer loop
      vertex 47.2162 10.1235 4.1
      vertex 45.4304 8.52 3.6
      vertex 47.2162 10.1235 1.04841e-14
    endloop
  endfacet
  facet normal 0.742326 -0.670039 1.64829e-16
    outer loop
      vertex 48.7315 11.8023 4.1
      vertex 47.2162 10.1235 4.1
      vertex 47.2162 10.1235 1.04841e-14
    endloop
  endfacet
  facet normal 0.742326 -0.670039 1.64829e-16
    outer loop
      vertex 48.7315 11.8023 1.08206e-14
      vertex 48.7315 11.8023 4.1
      vertex 47.2162 10.1235 1.04841e-14
    endloop
  endfacet
  facet normal 0.865591 -0.500752 1.922e-16
    outer loop
      vertex 49.864 13.7599 4.1
      vertex 48.7315 11.8023 4.1
      vertex 48.7315 11.8023 1.08206e-14
    endloop
  endfacet
  facet normal 0.865591 -0.500752 1.922e-16
    outer loop
      vertex 49.864 13.7599 1.1072e-14
      vertex 49.864 13.7599 4.1
      vertex 48.7315 11.8023 1.08206e-14
    endloop
  endfacet
  facet normal 0.950895 -0.309513 2.11141e-16
    outer loop
      vertex 50.564 15.9104 4.1
      vertex 49.864 13.7599 4.1
      vertex 49.864 13.7599 1.1072e-14
    endloop
  endfacet
  facet normal 0.950895 -0.309513 2.11141e-16
    outer loop
      vertex 50.564 15.9104 1.12275e-14
      vertex 50.564 15.9104 4.1
      vertex 49.864 13.7599 1.1072e-14
    endloop
  endfacet
  facet normal 0.986877 -0.161477 2.19131e-16
    outer loop
      vertex 50.73 16.9248 4.1
      vertex 50.564 15.9104 4.1
      vertex 50.564 15.9104 1.12275e-14
    endloop
  endfacet
  facet normal 0.996955 -0.074862 -0.0218377
    outer loop
      vertex 50.73 16.9248 4.1
      vertex 50.564 15.9104 1.12275e-14
      vertex 50.8008 18.1595 3.1
    endloop
  endfacet
  facet normal 0.994503 -0.104703 2.20824e-16
    outer loop
      vertex 50.8008 18.1595 3.1
      vertex 50.564 15.9104 1.12275e-14
      vertex 50.8008 18.1595 1.128e-14
    endloop
  endfacet
  facet normal 0.633702 0.773578 1.4071e-16
    outer loop
      vertex 43.2008 24.3853 3.1
      vertex 50.8008 18.1595 3.1
      vertex 43.2008 24.3853 9.5925e-15
    endloop
  endfacet
  facet normal 0.633702 0.773578 1.4071e-16
    outer loop
      vertex 43.2008 24.3853 9.5925e-15
      vertex 50.8008 18.1595 3.1
      vertex 50.8008 18.1595 1.128e-14
    endloop
  endfacet
  facet normal -1 0 -2.22045e-16
    outer loop
      vertex 43.2008 18.1595 4.1
      vertex 43.2008 22.8765 4.1
      vertex 43.2008 18.1595 9.5925e-15
    endloop
  endfacet
  facet normal -1 0 -2.22045e-16
    outer loop
      vertex 43.2008 18.1595 9.5925e-15
      vertex 43.2008 22.8765 4.1
      vertex 43.2008 23.2702 3.96254
    endloop
  endfacet
  facet normal -1 0 -2.22045e-16
    outer loop
      vertex 43.2008 18.1595 9.5925e-15
      vertex 43.2008 23.2702 3.96254
      vertex 43.2008 24.3853 3.1
    endloop
  endfacet
  facet normal -1 0 -2.22045e-16
    outer loop
      vertex 43.2008 18.1595 9.5925e-15
      vertex 43.2008 24.3853 3.1
      vertex 43.2008 24.3853 9.5925e-15
    endloop
  endfacet
  facet normal -0.980787 0.195084 -2.17778e-16
    outer loop
      vertex 42.9572 16.9349 4.1
      vertex 43.2008 18.1595 4.1
      vertex 42.9572 16.9349 9.53842e-15
    endloop
  endfacet
  facet normal -0.980787 0.195084 -2.17778e-16
    outer loop
      vertex 42.9572 16.9349 9.53842e-15
      vertex 43.2008 18.1595 4.1
      vertex 43.2008 18.1595 9.5925e-15
    endloop
  endfacet
  facet normal -0.831482 0.555552 -1.84626e-16
    outer loop
      vertex 42.2635 15.8967 4.1
      vertex 42.9572 16.9349 4.1
      vertex 42.2635 15.8967 9.38439e-15
    endloop
  endfacet
  facet normal -0.831482 0.555552 -1.84626e-16
    outer loop
      vertex 42.2635 15.8967 9.38439e-15
      vertex 42.9572 16.9349 4.1
      vertex 42.9572 16.9349 9.53842e-15
    endloop
  endfacet
  facet normal -0.555528 0.831498 -1.23352e-16
    outer loop
      vertex 41.2254 15.2031 4.1
      vertex 42.2635 15.8967 4.1
      vertex 41.2254 15.2031 9.15387e-15
    endloop
  endfacet
  facet normal -0.555528 0.831498 -1.23352e-16
    outer loop
      vertex 41.2254 15.2031 9.15387e-15
      vertex 42.2635 15.8967 4.1
      vertex 42.2635 15.8967 9.38439e-15
    endloop
  endfacet
  facet normal -0.195103 0.980783 -4.33215e-17
    outer loop
      vertex 40.0008 14.9595 4.1
      vertex 41.2254 15.2031 4.1
      vertex 40.0008 14.9595 8.88196e-15
    endloop
  endfacet
  facet normal -0.195103 0.980783 -4.33215e-17
    outer loop
      vertex 40.0008 14.9595 8.88196e-15
      vertex 41.2254 15.2031 4.1
      vertex 41.2254 15.2031 9.15387e-15
    endloop
  endfacet
  facet normal 0.195101 0.980783 4.33211e-17
    outer loop
      vertex 38.7762 15.2031 4.1
      vertex 40.0008 14.9595 4.1
      vertex 38.7762 15.2031 8.61005e-15
    endloop
  endfacet
  facet normal 0.195101 0.980783 4.33211e-17
    outer loop
      vertex 38.7762 15.2031 8.61005e-15
      vertex 40.0008 14.9595 4.1
      vertex 40.0008 14.9595 8.88196e-15
    endloop
  endfacet
  facet normal 0.555532 0.831495 1.23353e-16
    outer loop
      vertex 37.7381 15.8967 4.1
      vertex 38.7762 15.2031 4.1
      vertex 37.7381 15.8967 8.37953e-15
    endloop
  endfacet
  facet normal 0.555532 0.831495 1.23353e-16
    outer loop
      vertex 37.7381 15.8967 8.37953e-15
      vertex 38.7762 15.2031 4.1
      vertex 38.7762 15.2031 8.61005e-15
    endloop
  endfacet
  facet normal 0.831478 0.555557 1.84625e-16
    outer loop
      vertex 37.0444 16.9349 8.2255e-15
      vertex 37.0444 16.9349 4.1
      vertex 37.7381 15.8967 4.1
    endloop
  endfacet
  facet normal 0.831478 0.555557 1.84625e-16
    outer loop
      vertex 37.7381 15.8967 8.37953e-15
      vertex 37.0444 16.9349 8.2255e-15
      vertex 37.7381 15.8967 4.1
    endloop
  endfacet
  facet normal 0.980785 0.195092 2.17778e-16
    outer loop
      vertex 36.8008 18.1595 8.17142e-15
      vertex 36.8008 18.1595 4.1
      vertex 37.0444 16.9349 4.1
    endloop
  endfacet
  facet normal 0.980785 0.195092 2.17778e-16
    outer loop
      vertex 37.0444 16.9349 8.2255e-15
      vertex 36.8008 18.1595 8.17142e-15
      vertex 37.0444 16.9349 4.1
    endloop
  endfacet
  facet normal 1 0 2.22045e-16
    outer loop
      vertex 36.8008 22.8765 4.1
      vertex 36.8008 18.1595 4.1
      vertex 36.8008 18.1595 8.17142e-15
    endloop
  endfacet
  facet normal 1 0 2.22045e-16
    outer loop
      vertex 36.8008 24.2726 3.6
      vertex 36.8008 22.8765 4.1
      vertex 36.8008 24.3853 8.17142e-15
    endloop
  endfacet
  facet normal 1 0 2.22045e-16
    outer loop
      vertex 36.8008 24.3853 8.17142e-15
      vertex 36.8008 22.8765 4.1
      vertex 36.8008 18.1595 8.17142e-15
    endloop
  endfacet
  facet normal 1 0 2.22045e-16
    outer loop
      vertex 36.8008 24.3853 3.6
      vertex 36.8008 24.2726 3.6
      vertex 36.8008 24.3853 8.17142e-15
    endloop
  endfacet
  facet normal -0.478864 0.877889 -1.06329e-16
    outer loop
      vertex 36.501 24.2218 3.6
      vertex 36.8008 24.3853 3.6
      vertex 36.501 24.2218 8.10486e-15
    endloop
  endfacet
  facet normal -0.478864 0.877889 -1.06329e-16
    outer loop
      vertex 36.501 24.2218 8.10486e-15
      vertex 36.8008 24.3853 3.6
      vertex 36.8008 24.3853 8.17142e-15
    endloop
  endfacet
  facet normal -0.499962 0.866048 -1.11014e-16
    outer loop
      vertex 36.501 24.2218 8.10486e-15
      vertex 21.8303 15.7525 3.6
      vertex 36.501 24.2218 3.6
    endloop
  endfacet
  facet normal -0.499963 0.866047 -4.89002e-06
    outer loop
      vertex 36.501 24.2218 8.10486e-15
      vertex 10.2 9.0384 2.26485e-15
      vertex 21.8303 15.7525 3.6
    endloop
  endfacet
  facet normal 0.965925 0.258821 2.14478e-16
    outer loop
      vertex 27.6803 6.1595 6.14626e-15
      vertex 27.6803 6.1595 5.6
      vertex 27.9013 5.3345 5.6
    endloop
  endfacet
  facet normal 0.965925 0.258821 2.14478e-16
    outer loop
      vertex 27.9013 5.3345 6.19534e-15
      vertex 27.6803 6.1595 6.14626e-15
      vertex 27.9013 5.3345 5.6
    endloop
  endfacet
  facet normal 0.965925 -0.258821 2.14478e-16
    outer loop
      vertex 27.9013 6.9845 5.6
      vertex 27.6803 6.1595 5.6
      vertex 27.6803 6.1595 6.14626e-15
    endloop
  endfacet
  facet normal 0.965925 -0.258821 2.14478e-16
    outer loop
      vertex 27.9013 6.9845 6.19534e-15
      vertex 27.9013 6.9845 5.6
      vertex 27.6803 6.1595 6.14626e-15
    endloop
  endfacet
  facet normal 0.707083 -0.70713 1.57004e-16
    outer loop
      vertex 28.5053 7.5884 5.6
      vertex 27.9013 6.9845 5.6
      vertex 27.9013 6.9845 6.19534e-15
    endloop
  endfacet
  facet normal 0.707083 -0.70713 1.57004e-16
    outer loop
      vertex 28.5053 7.5884 6.32945e-15
      vertex 28.5053 7.5884 5.6
      vertex 27.9013 6.9845 6.19534e-15
    endloop
  endfacet
  facet normal 0.258865 -0.965914 5.74795e-17
    outer loop
      vertex 29.3303 7.8095 5.6
      vertex 28.5053 7.5884 5.6
      vertex 28.5053 7.5884 6.32945e-15
    endloop
  endfacet
  facet normal 0.258865 -0.965914 5.74795e-17
    outer loop
      vertex 29.3303 7.8095 6.51263e-15
      vertex 29.3303 7.8095 5.6
      vertex 28.5053 7.5884 6.32945e-15
    endloop
  endfacet
  facet normal -0.258865 -0.965914 -5.74795e-17
    outer loop
      vertex 30.1553 7.5884 5.6
      vertex 29.3303 7.8095 5.6
      vertex 29.3303 7.8095 6.51263e-15
    endloop
  endfacet
  facet normal -0.258865 -0.965914 -5.74795e-17
    outer loop
      vertex 30.1553 7.5884 6.69582e-15
      vertex 30.1553 7.5884 5.6
      vertex 29.3303 7.8095 6.51263e-15
    endloop
  endfacet
  facet normal -0.707078 -0.707136 -1.57003e-16
    outer loop
      vertex 30.7592 6.9845 5.6
      vertex 30.1553 7.5884 5.6
      vertex 30.1553 7.5884 6.69582e-15
    endloop
  endfacet
  facet normal -0.707078 -0.707136 -1.57003e-16
    outer loop
      vertex 30.7592 6.9845 6.82992e-15
      vertex 30.7592 6.9845 5.6
      vertex 30.1553 7.5884 6.69582e-15
    endloop
  endfacet
  facet normal -0.965925 -0.258821 -2.14478e-16
    outer loop
      vertex 30.7592 6.9845 5.6
      vertex 30.7592 6.9845 6.82992e-15
      vertex 30.9803 6.1595 5.6
    endloop
  endfacet
  facet normal -0.965925 -0.258821 -2.14478e-16
    outer loop
      vertex 30.9803 6.1595 5.6
      vertex 30.7592 6.9845 6.82992e-15
      vertex 30.9803 6.1595 6.87901e-15
    endloop
  endfacet
  facet normal -0.965925 0.258821 -2.14478e-16
    outer loop
      vertex 30.7592 5.3345 5.6
      vertex 30.9803 6.1595 5.6
      vertex 30.7592 5.3345 6.82992e-15
    endloop
  endfacet
  facet normal -0.965925 0.258821 -2.14478e-16
    outer loop
      vertex 30.7592 5.3345 6.82992e-15
      vertex 30.9803 6.1595 5.6
      vertex 30.9803 6.1595 6.87901e-15
    endloop
  endfacet
  facet normal -0.707136 0.707078 -1.57016e-16
    outer loop
      vertex 30.1553 4.7305 5.6
      vertex 30.7592 5.3345 5.6
      vertex 30.1553 4.7305 6.69582e-15
    endloop
  endfacet
  facet normal -0.707136 0.707078 -1.57016e-16
    outer loop
      vertex 30.1553 4.7305 6.69582e-15
      vertex 30.7592 5.3345 5.6
      vertex 30.7592 5.3345 6.82992e-15
    endloop
  endfacet
  facet normal -0.258756 0.965943 -5.74553e-17
    outer loop
      vertex 29.3303 4.5095 5.6
      vertex 30.1553 4.7305 5.6
      vertex 29.3303 4.5095 6.51263e-15
    endloop
  endfacet
  facet normal -0.258756 0.965943 -5.74553e-17
    outer loop
      vertex 29.3303 4.5095 6.51263e-15
      vertex 30.1553 4.7305 5.6
      vertex 30.1553 4.7305 6.69582e-15
    endloop
  endfacet
  facet normal 0.258756 0.965943 5.74553e-17
    outer loop
      vertex 28.5053 4.7305 5.6
      vertex 29.3303 4.5095 5.6
      vertex 28.5053 4.7305 6.32945e-15
    endloop
  endfacet
  facet normal 0.258756 0.965943 5.74553e-17
    outer loop
      vertex 28.5053 4.7305 6.32945e-15
      vertex 29.3303 4.5095 5.6
      vertex 29.3303 4.5095 6.51263e-15
    endloop
  endfacet
  facet normal 0.707142 0.707072 1.57017e-16
    outer loop
      vertex 27.9013 5.3345 6.19534e-15
      vertex 27.9013 5.3345 5.6
      vertex 28.5053 4.7305 5.6
    endloop
  endfacet
  facet normal 0.707142 0.707072 1.57017e-16
    outer loop
      vertex 28.5053 4.7305 6.32945e-15
      vertex 27.9013 5.3345 6.19534e-15
      vertex 28.5053 4.7305 5.6
    endloop
  endfacet
  facet normal -2.22045e-16 0 1
    outer loop
      vertex 24.932 6.283 3.6
      vertex 25.107 4.9252 3.6
      vertex 25.159 7.5595 3.6
    endloop
  endfacet
  facet normal -2.22045e-16 0 1
    outer loop
      vertex 21.8303 15.7525 3.6
      vertex 21.8303 7.5595 3.6
      vertex 25.159 7.5595 3.6
    endloop
  endfacet
  facet normal -2.22045e-16 0 1
    outer loop
      vertex 30.4249 10.0068 3.6
      vertex 42.9071 6.2544 3.6
      vertex 21.8303 15.7525 3.6
    endloop
  endfacet
  facet normal -2.22045e-16 0 1
    outer loop
      vertex 26.3743 8.8543 3.6
      vertex 27.5473 9.7401 3.6
      vertex 21.8303 15.7525 3.6
    endloop
  endfacet
  facet normal -2.22045e-16 0 1
    outer loop
      vertex 28.9612 2.1766 3.6
      vertex 27.5473 2.5788 3.6
      vertex 27.8247 2.0251 3.6
    endloop
  endfacet
  facet normal -2.22045e-16 0 1
    outer loop
      vertex 30.4249 10.0068 3.6
      vertex 31.7408 9.3516 3.6
      vertex 42.9071 6.2544 3.6
    endloop
  endfacet
  facet normal -2.22045e-16 0 1
    outer loop
      vertex 34.4781 0.5834 3.6
      vertex 42.9071 6.2544 3.6
      vertex 32.732 3.3688 3.6
    endloop
  endfacet
  facet normal -2.22045e-16 0 1
    outer loop
      vertex 42.9071 6.2544 3.6
      vertex 45.4304 8.52 3.6
      vertex 21.8303 15.7525 3.6
    endloop
  endfacet
  facet normal -2.22045e-16 0 1
    outer loop
      vertex 33.3742 20.0827 3.6
      vertex 34.1608 21.8343 3.6
      vertex 21.8303 15.7525 3.6
    endloop
  endfacet
  facet normal -2.22045e-16 0 1
    outer loop
      vertex 33.1008 18.1821 3.6
      vertex 33.3742 20.0827 3.6
      vertex 21.8303 15.7525 3.6
    endloop
  endfacet
  facet normal -2.22045e-16 0 1
    outer loop
      vertex 25.6004 4.7145 3.6
      vertex 25.3303 6.1595 3.6
      vertex 25.6908 3.6869 3.6
    endloop
  endfacet
  facet normal -2.22045e-16 0 1
    outer loop
      vertex 47.9008 18.1595 3.6
      vertex 47.9008 19.8888 3.6
      vertex 46.7559 19.5661 3.6
    endloop
  endfacet
  facet normal -2.22045e-16 0 1
    outer loop
      vertex 47.6911 16.3512 3.6
      vertex 47.9008 18.1595 3.6
      vertex 46.882 17.6501 3.6
    endloop
  endfacet
  facet normal -2.22045e-16 0 1
    outer loop
      vertex 47.073 14.639 3.6
      vertex 47.6911 16.3512 3.6
      vertex 46.4752 15.7736 3.6
    endloop
  endfacet
  facet normal -2.22045e-16 0 1
    outer loop
      vertex 33.3618 16.2798 3.6
      vertex 33.1008 18.1821 3.6
      vertex 21.8303 15.7525 3.6
    endloop
  endfacet
  facet normal -2.22045e-16 0 1
    outer loop
      vertex 46.0794 13.1136 3.6
      vertex 47.073 14.639 3.6
      vertex 45.567 14.0818 3.6
    endloop
  endfacet
  facet normal -2.22045e-16 0 1
    outer loop
      vertex 44.763 11.8562 3.6
      vertex 46.0794 13.1136 3.6
      vertex 44.2278 12.7059 3.6
    endloop
  endfacet
  facet normal -2.22045e-16 0 1
    outer loop
      vertex 34.1368 14.5231 3.6
      vertex 33.3618 16.2798 3.6
      vertex 21.8303 15.7525 3.6
    endloop
  endfacet
  facet normal -2.22045e-16 0 1
    outer loop
      vertex 43.2435 10.9557 3.6
      vertex 44.763 11.8562 3.6
      vertex 42.5613 11.7522 3.6
    endloop
  endfacet
  facet normal -2.22045e-16 0 1
    outer loop
      vertex 45.4304 8.52 3.6
      vertex 43.2435 10.9557 3.6
      vertex 40.6965 11.2946 3.6
    endloop
  endfacet
  facet normal -2.22045e-16 0 1
    outer loop
      vertex 45.4304 8.52 3.6
      vertex 38.7779 11.3687 3.6
      vertex 21.8303 15.7525 3.6
    endloop
  endfacet
  facet normal -2.22045e-16 0 1
    outer loop
      vertex 45.4304 8.52 3.6
      vertex 40.6965 11.2946 3.6
      vertex 38.7779 11.3687 3.6
    endloop
  endfacet
  facet normal -2.22045e-16 0 1
    outer loop
      vertex 38.7779 11.3687 3.6
      vertex 36.9539 11.9686 3.6
      vertex 21.8303 15.7525 3.6
    endloop
  endfacet
  facet normal -2.22045e-16 0 1
    outer loop
      vertex 36.9539 11.9686 3.6
      vertex 35.3659 13.048 3.6
      vertex 21.8303 15.7525 3.6
    endloop
  endfacet
  facet normal -2.22045e-16 0 1
    outer loop
      vertex 35.3659 13.048 3.6
      vertex 34.1368 14.5231 3.6
      vertex 21.8303 15.7525 3.6
    endloop
  endfacet
  facet normal -2.22045e-16 0 1
    outer loop
      vertex 44.2278 12.7059 3.6
      vertex 42.5613 11.7522 3.6
      vertex 44.763 11.8562 3.6
    endloop
  endfacet
  facet normal -2.22045e-16 0 1
    outer loop
      vertex 42.5613 11.7522 3.6
      vertex 40.6965 11.2946 3.6
      vertex 43.2435 10.9557 3.6
    endloop
  endfacet
  facet normal -2.22045e-16 0 1
    outer loop
      vertex 46.4752 15.7736 3.6
      vertex 45.567 14.0818 3.6
      vertex 47.073 14.639 3.6
    endloop
  endfacet
  facet normal -2.22045e-16 0 1
    outer loop
      vertex 45.567 14.0818 3.6
      vertex 44.2278 12.7059 3.6
      vertex 46.0794 13.1136 3.6
    endloop
  endfacet
  facet normal -2.22045e-16 0 1
    outer loop
      vertex 46.7559 19.5661 3.6
      vertex 46.882 17.6501 3.6
      vertex 47.9008 18.1595 3.6
    endloop
  endfacet
  facet normal -2.22045e-16 0 1
    outer loop
      vertex 46.882 17.6501 3.6
      vertex 46.4752 15.7736 3.6
      vertex 47.6911 16.3512 3.6
    endloop
  endfacet
  facet normal -2.22045e-16 0 1
    outer loop
      vertex 34.1608 21.8343 3.6
      vertex 35.3995 23.3013 3.6
      vertex 21.8303 15.7525 3.6
    endloop
  endfacet
  facet normal -2.22045e-16 0 1
    outer loop
      vertex 35.3995 23.3013 3.6
      vertex 36.8008 24.2726 3.6
      vertex 21.8303 15.7525 3.6
    endloop
  endfacet
  facet normal -2.22045e-16 0 1
    outer loop
      vertex 36.8008 24.2726 3.6
      vertex 36.8008 24.3853 3.6
      vertex 21.8303 15.7525 3.6
    endloop
  endfacet
  facet normal -2.22045e-16 0 1
    outer loop
      vertex 36.8008 24.3853 3.6
      vertex 36.501 24.2218 3.6
      vertex 21.8303 15.7525 3.6
    endloop
  endfacet
  facet normal -2.22045e-16 0 1
    outer loop
      vertex 25.6908 3.6869 3.6
      vertex 26.6269 2.6879 3.6
      vertex 25.6004 4.7145 3.6
    endloop
  endfacet
  facet normal -2.22045e-16 0 1
    outer loop
      vertex 25.107 4.9252 3.6
      vertex 25.3303 6.1595 3.6
      vertex 25.159 7.5595 3.6
    endloop
  endfacet
  facet normal -2.22045e-16 0 1
    outer loop
      vertex 25.107 4.9252 3.6
      vertex 25.6908 3.6869 3.6
      vertex 25.3303 6.1595 3.6
    endloop
  endfacet
  facet normal -2.22045e-16 0 1
    outer loop
      vertex 27.5473 2.5788 3.6
      vertex 26.3743 3.4647 3.6
      vertex 26.6269 2.6879 3.6
    endloop
  endfacet
  facet normal -2.22045e-16 0 1
    outer loop
      vertex 27.5473 9.7401 3.6
      vertex 28.9612 10.1424 3.6
      vertex 21.8303 15.7525 3.6
    endloop
  endfacet
  facet normal -2.22045e-16 0 1
    outer loop
      vertex 28.9612 10.1424 3.6
      vertex 30.4249 10.0068 3.6
      vertex 21.8303 15.7525 3.6
    endloop
  endfacet
  facet normal -2.22045e-16 0 1
    outer loop
      vertex 31.7408 9.3516 3.6
      vertex 32.7312 8.2652 3.6
      vertex 42.9071 6.2544 3.6
    endloop
  endfacet
  facet normal -2.22045e-16 0 1
    outer loop
      vertex 33.2622 6.8945 3.6
      vertex 42.9071 6.2544 3.6
      vertex 32.7312 8.2652 3.6
    endloop
  endfacet
  facet normal -2.22045e-16 0 1
    outer loop
      vertex 32.7312 4.0538 3.6
      vertex 31.7408 2.9674 3.6
      vertex 32.732 3.3688 3.6
    endloop
  endfacet
  facet normal -2.22045e-16 0 1
    outer loop
      vertex 33.2622 5.4245 3.6
      vertex 42.9071 6.2544 3.6
      vertex 33.2622 6.8945 3.6
    endloop
  endfacet
  facet normal -2.22045e-16 0 1
    outer loop
      vertex 31.7408 2.9674 3.6
      vertex 30.4249 2.3122 3.6
      vertex 31.771 2.4985 3.6
    endloop
  endfacet
  facet normal -2.22045e-16 0 1
    outer loop
      vertex 32.732 3.3688 3.6
      vertex 42.9071 6.2544 3.6
      vertex 33.2622 5.4245 3.6
    endloop
  endfacet
  facet normal -2.22045e-16 0 1
    outer loop
      vertex 33.2622 5.4245 3.6
      vertex 32.7312 4.0538 3.6
      vertex 32.732 3.3688 3.6
    endloop
  endfacet
  facet normal -2.22045e-16 0 1
    outer loop
      vertex 31.771 2.4985 3.6
      vertex 32.732 3.3688 3.6
      vertex 31.7408 2.9674 3.6
    endloop
  endfacet
  facet normal -2.22045e-16 0 1
    outer loop
      vertex 28.9612 2.1766 3.6
      vertex 27.8247 2.0251 3.6
      vertex 29.1684 1.7625 3.6
    endloop
  endfacet
  facet normal -2.22045e-16 0 1
    outer loop
      vertex 30.5276 1.9255 3.6
      vertex 31.771 2.4985 3.6
      vertex 30.4249 2.3122 3.6
    endloop
  endfacet
  facet normal -2.22045e-16 0 1
    outer loop
      vertex 30.4249 2.3122 3.6
      vertex 28.9612 2.1766 3.6
      vertex 30.5276 1.9255 3.6
    endloop
  endfacet
  facet normal -2.22045e-16 0 1
    outer loop
      vertex 29.1684 1.7625 3.6
      vertex 30.5276 1.9255 3.6
      vertex 28.9612 2.1766 3.6
    endloop
  endfacet
  facet normal -2.22045e-16 0 1
    outer loop
      vertex 25.6004 7.6044 3.6
      vertex 26.3743 8.8543 3.6
      vertex 21.8303 15.7525 3.6
    endloop
  endfacet
  facet normal -2.22045e-16 0 1
    outer loop
      vertex 26.6269 2.6879 3.6
      vertex 27.8247 2.0251 3.6
      vertex 27.5473 2.5788 3.6
    endloop
  endfacet
  facet normal -2.22045e-16 0 1
    outer loop
      vertex 25.6004 4.7145 3.6
      vertex 26.6269 2.6879 3.6
      vertex 26.3743 3.4647 3.6
    endloop
  endfacet
  facet normal -2.22045e-16 0 1
    outer loop
      vertex 46.1202 21.3474 3.6
      vertex 46.7559 19.5661 3.6
      vertex 47.9008 19.8888 3.6
    endloop
  endfacet
  facet normal -2.22045e-16 0 1
    outer loop
      vertex 25.159 7.5595 3.6
      vertex 25.6004 7.6044 3.6
      vertex 21.8303 15.7525 3.6
    endloop
  endfacet
  facet normal -2.22045e-16 0 1
    outer loop
      vertex 25.3303 6.1595 3.6
      vertex 25.6004 7.6044 3.6
      vertex 25.159 7.5595 3.6
    endloop
  endfacet
  facet normal 9.36092e-06 0.336352 0.941736
    outer loop
      vertex 24.4073 6.9702 3.81045
      vertex 21.8303 7.5595 3.6
      vertex 23.6856 6.3031 4.04872
    endloop
  endfacet
  facet normal -1.63226e-05 0.336319 0.941748
    outer loop
      vertex 23.6856 6.3031 4.04872
      vertex 21.8303 7.5595 3.6
      vertex 23.5303 6.1595 4.1
    endloop
  endfacet
  facet normal -2.09109e-16 0.336336 0.941742
    outer loop
      vertex 21.8303 7.5595 3.6
      vertex 21.8303 6.1595 4.1
      vertex 23.5303 6.1595 4.1
    endloop
  endfacet
  facet normal -2.0911e-16 0.336316 0.941749
    outer loop
      vertex 25.159 7.5595 3.6
      vertex 21.8303 7.5595 3.6
      vertex 24.4073 6.9702 3.81045
    endloop
  endfacet
  facet normal -2.22045e-16 0 1
    outer loop
      vertex 23.5303 6.1595 4.1
      vertex 21.8303 6.1595 4.1
      vertex 22.1028 4.1563 4.1
    endloop
  endfacet
  facet normal -2.22045e-16 0 1
    outer loop
      vertex 24.1652 0.7215 4.1
      vertex 23.5303 6.1595 4.1
      vertex 22.9004 2.2986 4.1
    endloop
  endfacet
  facet normal -2.22045e-16 0 1
    outer loop
      vertex 22.9004 2.2986 4.1
      vertex 23.5303 6.1595 4.1
      vertex 22.1028 4.1563 4.1
    endloop
  endfacet
  facet normal -2.22045e-16 0 1
    outer loop
      vertex 23.7632 4.5324 4.1
      vertex 23.5303 6.1595 4.1
      vertex 24.1652 0.7215 4.1
    endloop
  endfacet
  facet normal -2.22045e-16 0 1
    outer loop
      vertex 25.7667 1.5834 4.1
      vertex 24.5327 2.9001 4.1
      vertex 25.8053 -0.4605 4.1
    endloop
  endfacet
  facet normal -2.22045e-16 0 1
    outer loop
      vertex 27.3457 0.7096 4.1
      vertex 25.7667 1.5834 4.1
      vertex 27.7016 -1.1615 4.1
    endloop
  endfacet
  facet normal -2.22045e-16 0 1
    outer loop
      vertex 29.1168 0.3634 4.1
      vertex 27.3457 0.7096 4.1
      vertex 29.7162 -1.3306 4.1
    endloop
  endfacet
  facet normal -2.22045e-16 0 1
    outer loop
      vertex 30.9086 0.5784 4.1
      vertex 29.1168 0.3634 4.1
      vertex 31.7027 -0.9554 4.1
    endloop
  endfacet
  facet normal -2.22045e-16 0 1
    outer loop
      vertex 33.3138 -0.1952 4.1
      vertex 30.9086 0.5784 4.1
      vertex 31.7027 -0.9554 4.1
    endloop
  endfacet
  facet normal -2.22045e-16 0 1
    outer loop
      vertex 31.7027 -0.9554 4.1
      vertex 29.1168 0.3634 4.1
      vertex 29.7162 -1.3306 4.1
    endloop
  endfacet
  facet normal -2.22045e-16 0 1
    outer loop
      vertex 29.7162 -1.3306 4.1
      vertex 27.3457 0.7096 4.1
      vertex 27.7016 -1.1615 4.1
    endloop
  endfacet
  facet normal -2.22045e-16 0 1
    outer loop
      vertex 27.7016 -1.1615 4.1
      vertex 25.7667 1.5834 4.1
      vertex 25.8053 -0.4605 4.1
    endloop
  endfacet
  facet normal -2.22045e-16 0 1
    outer loop
      vertex 25.8053 -0.4605 4.1
      vertex 24.5327 2.9001 4.1
      vertex 24.1652 0.7215 4.1
    endloop
  endfacet
  facet normal -2.22045e-16 0 1
    outer loop
      vertex 24.5327 2.9001 4.1
      vertex 23.7632 4.5324 4.1
      vertex 24.1652 0.7215 4.1
    endloop
  endfacet
  facet normal -2.22045e-16 0 1
    outer loop
      vertex 32.4109 1.2452 4.1
      vertex 30.9086 0.5784 4.1
      vertex 33.3138 -0.1952 4.1
    endloop
  endfacet
  facet normal 0.284939 0.178619 0.941756
    outer loop
      vertex 33.5169 -0.0632 4.01352
      vertex 32.45 1.4531 4.04872
      vertex 33.3138 -0.1952 4.1
    endloop
  endfacet
  facet normal 0.284957 0.178628 0.941749
    outer loop
      vertex 32.45 1.4531 4.04872
      vertex 32.4109 1.2452 4.1
      vertex 33.3138 -0.1952 4.1
    endloop
  endfacet
  facet normal 0.284978 0.178647 0.941739
    outer loop
      vertex 34.4781 0.5834 3.6
      vertex 32.45 1.4531 4.04872
      vertex 33.5169 -0.0632 4.01352
    endloop
  endfacet
  facet normal 0.284979 0.178649 0.941739
    outer loop
      vertex 32.632 2.4189 3.81045
      vertex 32.45 1.4531 4.04872
      vertex 34.4781 0.5834 3.6
    endloop
  endfacet
  facet normal 0.284956 0.178625 0.94175
    outer loop
      vertex 32.732 3.3688 3.6
      vertex 32.632 2.4189 3.81045
      vertex 34.4781 0.5834 3.6
    endloop
  endfacet
  facet normal -0.151757 -0.136257 0.978981
    outer loop
      vertex 44.8465 10.6823 3.81043
      vertex 43.2435 10.9557 3.6
      vertex 45.4304 8.52 3.6
    endloop
  endfacet
  facet normal -0.151758 -0.136257 0.978981
    outer loop
      vertex 45.7529 10.5937 3.93861
      vertex 44.8465 10.6823 3.81043
      vertex 45.4304 8.52 3.6
    endloop
  endfacet
  facet normal -0.151752 -0.136258 0.978982
    outer loop
      vertex 45.7529 10.5937 3.93861
      vertex 45.4304 8.52 3.6
      vertex 46.5644 10.5144 4.05337
    endloop
  endfacet
  facet normal -0.151775 -0.136245 0.97898
    outer loop
      vertex 46.5644 10.5144 4.05337
      vertex 45.4304 8.52 3.6
      vertex 46.8822 10.4955 4.1
    endloop
  endfacet
  facet normal -0.151749 -0.136264 0.978981
    outer loop
      vertex 46.8822 10.4955 4.1
      vertex 45.4304 8.52 3.6
      vertex 47.2162 10.1235 4.1
    endloop
  endfacet
  facet normal -2.22045e-16 0 1
    outer loop
      vertex 47.9261 11.5807 4.1
      vertex 46.8822 10.4955 4.1
      vertex 47.2162 10.1235 4.1
    endloop
  endfacet
  facet normal -2.22045e-16 0 1
    outer loop
      vertex 49.864 13.7599 4.1
      vertex 47.9261 11.5807 4.1
      vertex 48.7315 11.8023 4.1
    endloop
  endfacet
  facet normal -2.22045e-16 0 1
    outer loop
      vertex 48.7315 11.8023 4.1
      vertex 47.9261 11.5807 4.1
      vertex 47.2162 10.1235 4.1
    endloop
  endfacet
  facet normal -2.22045e-16 0 1
    outer loop
      vertex 50.0273 15.8019 4.1
      vertex 50.564 15.9104 4.1
      vertex 50.73 16.9248 4.1
    endloop
  endfacet
  facet normal -2.22045e-16 0 1
    outer loop
      vertex 50.2653 17.3054 4.1
      vertex 50.0273 15.8019 4.1
      vertex 50.73 16.9248 4.1
    endloop
  endfacet
  facet normal -2.22045e-16 0 1
    outer loop
      vertex 50.564 15.9104 4.1
      vertex 49.2215 13.5694 4.1
      vertex 49.864 13.7599 4.1
    endloop
  endfacet
  facet normal -2.22045e-16 0 1
    outer loop
      vertex 49.2215 13.5694 4.1
      vertex 47.9261 11.5807 4.1
      vertex 49.864 13.7599 4.1
    endloop
  endfacet
  facet normal -2.22045e-16 0 1
    outer loop
      vertex 50.0273 15.8019 4.1
      vertex 49.2215 13.5694 4.1
      vertex 50.564 15.9104 4.1
    endloop
  endfacet
  facet normal 0.448055 0.547013 0.707124
    outer loop
      vertex 50.8008 18.1595 3.1
      vertex 50.2653 17.3054 4.1
      vertex 50.73 16.9248 4.1
    endloop
  endfacet
  facet normal 0.4481 0.54698 0.70712
    outer loop
      vertex 50.8008 18.1595 3.1
      vertex 49.4895 18.1595 3.93098
      vertex 50.2653 17.3054 4.1
    endloop
  endfacet
  facet normal 0.448094 0.546997 0.707111
    outer loop
      vertex 50.8008 18.1595 3.1
      vertex 47.9008 19.8888 3.6
      vertex 49.4895 18.1595 3.93098
    endloop
  endfacet
  facet normal 0.448099 0.547009 0.707098
    outer loop
      vertex 50.8008 18.1595 3.1
      vertex 46.1202 21.3474 3.6
      vertex 47.9008 19.8888 3.6
    endloop
  endfacet
  facet normal 0.448096 0.547003 0.707105
    outer loop
      vertex 50.8008 18.1595 3.1
      vertex 43.2008 24.3853 3.1
      vertex 46.1202 21.3474 3.6
    endloop
  endfacet
  facet normal 0.448088 0.546986 0.707123
    outer loop
      vertex 46.0895 21.3624 3.60778
      vertex 43.2008 24.3853 3.1
      vertex 45.312 21.7443 3.80507
    endloop
  endfacet
  facet normal 0.448108 0.546996 0.707103
    outer loop
      vertex 45.312 21.7443 3.80507
      vertex 43.2008 24.3853 3.1
      vertex 44.561 22.1842 3.94074
    endloop
  endfacet
  facet normal 0.448228 0.547031 0.707
    outer loop
      vertex 44.561 22.1842 3.94074
      vertex 43.2008 24.3853 3.1
      vertex 44.3573 22.3279 3.95864
    endloop
  endfacet
  facet normal 0.448059 0.546993 0.707137
    outer loop
      vertex 44.3573 22.3279 3.95864
      vertex 43.2008 24.3853 3.1
      vertex 43.959 22.6089 3.99365
    endloop
  endfacet
  facet normal 0.44806 0.546993 0.707136
    outer loop
      vertex 43.959 22.6089 3.99365
      vertex 43.2008 24.3853 3.1
      vertex 43.3182 23.1571 3.97564
    endloop
  endfacet
  facet normal 0.447924 0.547024 0.707198
    outer loop
      vertex 43.2008 24.3853 3.1
      vertex 43.2008 23.2702 3.96254
      vertex 43.3182 23.1571 3.97564
    endloop
  endfacet
  facet normal 0.446661 0.545912 0.708854
    outer loop
      vertex 46.1202 21.3474 3.6
      vertex 43.2008 24.3853 3.1
      vertex 46.0895 21.3624 3.60778
    endloop
  endfacet
  facet normal 0.207523 0.322459 0.923555
    outer loop
      vertex 43.2008 23.2702 3.96254
      vertex 43.2008 22.8765 4.1
      vertex 43.3182 23.1571 3.97564
    endloop
  endfacet
  facet normal 0.238051 0.308526 0.920947
    outer loop
      vertex 43.3182 23.1571 3.97564
      vertex 43.2008 22.8765 4.1
      vertex 43.959 22.6089 3.99365
    endloop
  endfacet
  facet normal 0.225635 0.267 0.93691
    outer loop
      vertex 43.959 22.6089 3.99365
      vertex 43.2008 22.8765 4.1
      vertex 44.118 22.1014 4.1
    endloop
  endfacet
  facet normal -2.22045e-16 0 1
    outer loop
      vertex 34.5267 19.7482 4.1
      vertex 34.3008 18.1782 4.1
      vertex 34.5164 16.6067 4.1
    endloop
  endfacet
  facet normal -2.22045e-16 0 1
    outer loop
      vertex 36.172 13.9369 4.1
      vertex 34.5267 19.7482 4.1
      vertex 35.1566 15.1555 4.1
    endloop
  endfacet
  facet normal -2.22045e-16 0 1
    outer loop
      vertex 35.1566 15.1555 4.1
      vertex 34.5267 19.7482 4.1
      vertex 34.5164 16.6067 4.1
    endloop
  endfacet
  facet normal -2.22045e-16 0 1
    outer loop
      vertex 37.4838 13.0453 4.1
      vertex 34.5267 19.7482 4.1
      vertex 36.172 13.9369 4.1
    endloop
  endfacet
  facet normal -2.22045e-16 0 1
    outer loop
      vertex 38.9906 12.5497 4.1
      vertex 34.5267 19.7482 4.1
      vertex 37.4838 13.0453 4.1
    endloop
  endfacet
  facet normal -2.22045e-16 0 1
    outer loop
      vertex 40.5755 12.4885 4.1
      vertex 34.5267 19.7482 4.1
      vertex 38.9906 12.5497 4.1
    endloop
  endfacet
  facet normal -2.22045e-16 0 1
    outer loop
      vertex 37.7381 15.8967 4.1
      vertex 34.5267 19.7482 4.1
      vertex 40.5755 12.4885 4.1
    endloop
  endfacet
  facet normal -2.22045e-16 0 1
    outer loop
      vertex 37.0444 16.9349 4.1
      vertex 36.8008 18.1595 4.1
      vertex 34.5267 19.7482 4.1
    endloop
  endfacet
  facet normal -2.22045e-16 0 1
    outer loop
      vertex 42.9572 16.9349 4.1
      vertex 42.2635 15.8967 4.1
      vertex 44.599 14.791 4.1
    endloop
  endfacet
  facet normal -2.22045e-16 0 1
    outer loop
      vertex 43.2008 18.1595 4.1
      vertex 42.9572 16.9349 4.1
      vertex 45.3492 16.1886 4.1
    endloop
  endfacet
  facet normal -2.22045e-16 0 1
    outer loop
      vertex 41.2254 15.2031 4.1
      vertex 40.0008 14.9595 4.1
      vertex 43.4927 13.6543 4.1
    endloop
  endfacet
  facet normal -2.22045e-16 0 1
    outer loop
      vertex 45.6852 17.7387 4.1
      vertex 43.2008 18.1595 4.1
      vertex 45.3492 16.1886 4.1
    endloop
  endfacet
  facet normal -2.22045e-16 0 1
    outer loop
      vertex 45.3492 16.1886 4.1
      vertex 42.9572 16.9349 4.1
      vertex 44.599 14.791 4.1
    endloop
  endfacet
  facet normal -2.22045e-16 0 1
    outer loop
      vertex 44.599 14.791 4.1
      vertex 42.2635 15.8967 4.1
      vertex 43.4927 13.6543 4.1
    endloop
  endfacet
  facet normal -2.22045e-16 0 1
    outer loop
      vertex 42.2635 15.8967 4.1
      vertex 41.2254 15.2031 4.1
      vertex 43.4927 13.6543 4.1
    endloop
  endfacet
  facet normal -2.22045e-16 0 1
    outer loop
      vertex 43.4927 13.6543 4.1
      vertex 40.0008 14.9595 4.1
      vertex 42.116 12.8665 4.1
    endloop
  endfacet
  facet normal -2.22045e-16 0 1
    outer loop
      vertex 42.116 12.8665 4.1
      vertex 38.7762 15.2031 4.1
      vertex 40.5755 12.4885 4.1
    endloop
  endfacet
  facet normal -2.22045e-16 0 1
    outer loop
      vertex 38.7762 15.2031 4.1
      vertex 37.7381 15.8967 4.1
      vertex 40.5755 12.4885 4.1
    endloop
  endfacet
  facet normal -2.22045e-16 0 1
    outer loop
      vertex 37.0444 16.9349 4.1
      vertex 34.5267 19.7482 4.1
      vertex 37.7381 15.8967 4.1
    endloop
  endfacet
  facet normal -2.22045e-16 0 1
    outer loop
      vertex 40.0008 14.9595 4.1
      vertex 38.7762 15.2031 4.1
      vertex 42.116 12.8665 4.1
    endloop
  endfacet
  facet normal -2.22045e-16 0 1
    outer loop
      vertex 36.1998 22.4071 4.1
      vertex 34.5267 19.7482 4.1
      vertex 36.8008 22.8765 4.1
    endloop
  endfacet
  facet normal -2.22045e-16 0 1
    outer loop
      vertex 35.1764 21.1952 4.1
      vertex 34.5267 19.7482 4.1
      vertex 36.1998 22.4071 4.1
    endloop
  endfacet
  facet normal -2.22045e-16 0 1
    outer loop
      vertex 43.2008 22.8765 4.1
      vertex 45.0448 20.8142 4.1
      vertex 44.118 22.1014 4.1
    endloop
  endfacet
  facet normal -2.22045e-16 0 1
    outer loop
      vertex 43.2008 22.8765 4.1
      vertex 45.5811 19.3215 4.1
      vertex 45.0448 20.8142 4.1
    endloop
  endfacet
  facet normal -2.22045e-16 0 1
    outer loop
      vertex 43.2008 22.8765 4.1
      vertex 45.6852 17.7387 4.1
      vertex 45.5811 19.3215 4.1
    endloop
  endfacet
  facet normal -2.22045e-16 0 1
    outer loop
      vertex 43.2008 22.8765 4.1
      vertex 43.2008 18.1595 4.1
      vertex 45.6852 17.7387 4.1
    endloop
  endfacet
  facet normal -2.22045e-16 0 1
    outer loop
      vertex 36.8008 18.1595 4.1
      vertex 36.8008 22.8765 4.1
      vertex 34.5267 19.7482 4.1
    endloop
  endfacet
  facet normal -0.254642 0.326055 0.91041
    outer loop
      vertex 36.8008 24.2726 3.6
      vertex 36.1998 22.4071 4.1
      vertex 36.8008 22.8765 4.1
    endloop
  endfacet
  facet normal -0.22055 0.318182 0.922018
    outer loop
      vertex 36.8008 24.2726 3.6
      vertex 35.3995 23.3013 3.6
      vertex 36.1998 22.4071 4.1
    endloop
  endfacet
  facet normal -2.22045e-16 0 1
    outer loop
      vertex 26.9059 7.0987 5.6
      vertex 26.7303 6.1595 5.6
      vertex 26.9059 5.2202 5.6
    endloop
  endfacet
  facet normal -2.22045e-16 0 1
    outer loop
      vertex 28.1714 3.8321 5.6
      vertex 26.9059 7.0987 5.6
      vertex 27.4089 4.4079 5.6
    endloop
  endfacet
  facet normal -2.22045e-16 0 1
    outer loop
      vertex 27.4089 4.4079 5.6
      vertex 26.9059 7.0987 5.6
      vertex 26.9059 5.2202 5.6
    endloop
  endfacet
  facet normal -2.22045e-16 0 1
    outer loop
      vertex 27.9013 5.3345 5.6
      vertex 26.9059 7.0987 5.6
      vertex 28.1714 3.8321 5.6
    endloop
  endfacet
  facet normal -2.22045e-16 0 1
    outer loop
      vertex 29.3303 4.5095 5.6
      vertex 28.5053 4.7305 5.6
      vertex 30.0418 3.6588 5.6
    endloop
  endfacet
  facet normal -2.22045e-16 0 1
    outer loop
      vertex 27.9013 6.9845 5.6
      vertex 28.5053 7.5884 5.6
      vertex 26.9059 7.0987 5.6
    endloop
  endfacet
  facet normal -2.22045e-16 0 1
    outer loop
      vertex 29.3303 7.8095 5.6
      vertex 30.1553 7.5884 5.6
      vertex 30.8971 8.2343 5.6
    endloop
  endfacet
  facet normal -2.22045e-16 0 1
    outer loop
      vertex 30.1553 7.5884 5.6
      vertex 30.7592 6.9845 5.6
      vertex 31.5409 7.5282 5.6
    endloop
  endfacet
  facet normal -2.22045e-16 0 1
    outer loop
      vertex 29.0904 8.7484 5.6
      vertex 26.9059 7.0987 5.6
      vertex 30.0418 8.6602 5.6
    endloop
  endfacet
  facet normal -2.22045e-16 0 1
    outer loop
      vertex 28.1714 8.4869 5.6
      vertex 26.9059 7.0987 5.6
      vertex 29.0904 8.7484 5.6
    endloop
  endfacet
  facet normal -2.22045e-16 0 1
    outer loop
      vertex 27.4089 7.9111 5.6
      vertex 26.9059 7.0987 5.6
      vertex 28.1714 8.4869 5.6
    endloop
  endfacet
  facet normal -2.22045e-16 0 1
    outer loop
      vertex 29.0904 3.5706 5.6
      vertex 27.9013 5.3345 5.6
      vertex 28.1714 3.8321 5.6
    endloop
  endfacet
  facet normal -2.22045e-16 0 1
    outer loop
      vertex 30.7592 5.3345 5.6
      vertex 30.1553 4.7305 5.6
      vertex 31.5409 4.7908 5.6
    endloop
  endfacet
  facet normal -2.22045e-16 0 1
    outer loop
      vertex 30.0418 8.6602 5.6
      vertex 28.5053 7.5884 5.6
      vertex 30.8971 8.2343 5.6
    endloop
  endfacet
  facet normal -2.22045e-16 0 1
    outer loop
      vertex 30.0418 8.6602 5.6
      vertex 26.9059 7.0987 5.6
      vertex 28.5053 7.5884 5.6
    endloop
  endfacet
  facet normal -2.22045e-16 0 1
    outer loop
      vertex 28.5053 7.5884 5.6
      vertex 29.3303 7.8095 5.6
      vertex 30.8971 8.2343 5.6
    endloop
  endfacet
  facet normal -2.22045e-16 0 1
    outer loop
      vertex 30.8971 8.2343 5.6
      vertex 30.1553 7.5884 5.6
      vertex 31.5409 7.5282 5.6
    endloop
  endfacet
  facet normal -2.22045e-16 0 1
    outer loop
      vertex 30.7592 6.9845 5.6
      vertex 30.9803 6.1595 5.6
      vertex 31.886 6.6372 5.6
    endloop
  endfacet
  facet normal -2.22045e-16 0 1
    outer loop
      vertex 31.5409 7.5282 5.6
      vertex 30.7592 6.9845 5.6
      vertex 31.886 6.6372 5.6
    endloop
  endfacet
  facet normal -2.22045e-16 0 1
    outer loop
      vertex 31.886 6.6372 5.6
      vertex 30.9803 6.1595 5.6
      vertex 31.886 5.6817 5.6
    endloop
  endfacet
  facet normal -2.22045e-16 0 1
    outer loop
      vertex 31.886 5.6817 5.6
      vertex 30.7592 5.3345 5.6
      vertex 31.5409 4.7908 5.6
    endloop
  endfacet
  facet normal -2.22045e-16 0 1
    outer loop
      vertex 31.5409 4.7908 5.6
      vertex 30.1553 4.7305 5.6
      vertex 30.8971 4.0846 5.6
    endloop
  endfacet
  facet normal -2.22045e-16 0 1
    outer loop
      vertex 30.8971 4.0846 5.6
      vertex 29.3303 4.5095 5.6
      vertex 30.0418 3.6588 5.6
    endloop
  endfacet
  facet normal -2.22045e-16 0 1
    outer loop
      vertex 30.9803 6.1595 5.6
      vertex 30.7592 5.3345 5.6
      vertex 31.886 5.6817 5.6
    endloop
  endfacet
  facet normal -2.22045e-16 0 1
    outer loop
      vertex 30.0418 3.6588 5.6
      vertex 28.5053 4.7305 5.6
      vertex 29.0904 3.5706 5.6
    endloop
  endfacet
  facet normal -2.22045e-16 0 1
    outer loop
      vertex 27.9013 5.3345 5.6
      vertex 27.6803 6.1595 5.6
      vertex 26.9059 7.0987 5.6
    endloop
  endfacet
  facet normal -2.22045e-16 0 1
    outer loop
      vertex 28.5053 4.7305 5.6
      vertex 27.9013 5.3345 5.6
      vertex 29.0904 3.5706 5.6
    endloop
  endfacet
  facet normal -2.22045e-16 0 1
    outer loop
      vertex 30.1553 4.7305 5.6
      vertex 29.3303 4.5095 5.6
      vertex 30.8971 4.0846 5.6
    endloop
  endfacet
  facet normal -2.22045e-16 0 1
    outer loop
      vertex 27.6803 6.1595 5.6
      vertex 27.9013 6.9845 5.6
      vertex 26.9059 7.0987 5.6
    endloop
  endfacet
  facet normal -0.296315 0.250213 0.921733
    outer loop
      vertex 35.3995 23.3013 3.6
      vertex 34.1608 21.8343 3.6
      vertex 35.1764 21.1952 4.1
    endloop
  endfacet
  facet normal -0.29632 0.250213 0.921731
    outer loop
      vertex 35.3995 23.3013 3.6
      vertex 35.1764 21.1952 4.1
      vertex 36.1998 22.4071 4.1
    endloop
  endfacet
  facet normal -0.353794 0.158866 0.921733
    outer loop
      vertex 34.1608 21.8343 3.6
      vertex 33.3742 20.0827 3.6
      vertex 34.5267 19.7482 4.1
    endloop
  endfacet
  facet normal -0.353795 0.158865 0.921733
    outer loop
      vertex 35.1764 21.1952 4.1
      vertex 34.1608 21.8343 3.6
      vertex 34.5267 19.7482 4.1
    endloop
  endfacet
  facet normal -0.383876 0.0552202 0.921732
    outer loop
      vertex 33.3742 20.0827 3.6
      vertex 33.1008 18.1821 3.6
      vertex 34.3008 18.1782 4.1
    endloop
  endfacet
  facet normal -0.383877 0.0552196 0.921732
    outer loop
      vertex 34.5267 19.7482 4.1
      vertex 33.3742 20.0827 3.6
      vertex 34.3008 18.1782 4.1
    endloop
  endfacet
  facet normal -0.384229 -0.0527009 0.921733
    outer loop
      vertex 34.5164 16.6067 4.1
      vertex 33.1008 18.1821 3.6
      vertex 33.3618 16.2798 3.6
    endloop
  endfacet
  facet normal -0.384227 -0.0526989 0.921733
    outer loop
      vertex 34.3008 18.1782 4.1
      vertex 33.1008 18.1821 3.6
      vertex 34.5164 16.6067 4.1
    endloop
  endfacet
  facet normal -0.35483 -0.156546 0.921732
    outer loop
      vertex 35.1566 15.1555 4.1
      vertex 33.3618 16.2798 3.6
      vertex 34.1368 14.5231 3.6
    endloop
  endfacet
  facet normal -0.354829 -0.156543 0.921733
    outer loop
      vertex 34.5164 16.6067 4.1
      vertex 33.3618 16.2798 3.6
      vertex 35.1566 15.1555 4.1
    endloop
  endfacet
  facet normal -0.297959 -0.248271 0.921728
    outer loop
      vertex 36.172 13.9369 4.1
      vertex 34.1368 14.5231 3.6
      vertex 35.3659 13.048 3.6
    endloop
  endfacet
  facet normal -0.297957 -0.248261 0.921731
    outer loop
      vertex 35.1566 15.1555 4.1
      vertex 34.1368 14.5231 3.6
      vertex 36.172 13.9369 4.1
    endloop
  endfacet
  facet normal -0.218013 -0.320743 0.921734
    outer loop
      vertex 37.4838 13.0453 4.1
      vertex 35.3659 13.048 3.6
      vertex 36.9539 11.9686 3.6
    endloop
  endfacet
  facet normal -0.218011 -0.320769 0.921726
    outer loop
      vertex 36.172 13.9369 4.1
      vertex 35.3659 13.048 3.6
      vertex 37.4838 13.0453 4.1
    endloop
  endfacet
  facet normal -0.12117 -0.368413 0.921732
    outer loop
      vertex 38.9906 12.5497 4.1
      vertex 36.9539 11.9686 3.6
      vertex 38.7779 11.3687 3.6
    endloop
  endfacet
  facet normal -0.121174 -0.368402 0.921736
    outer loop
      vertex 37.4838 13.0453 4.1
      vertex 36.9539 11.9686 3.6
      vertex 38.9906 12.5497 4.1
    endloop
  endfacet
  facet normal -0.0149669 -0.387535 0.921734
    outer loop
      vertex 40.5755 12.4885 4.1
      vertex 38.7779 11.3687 3.6
      vertex 40.6965 11.2946 3.6
    endloop
  endfacet
  facet normal -0.0149638 -0.387539 0.921732
    outer loop
      vertex 38.9906 12.5497 4.1
      vertex 38.7779 11.3687 3.6
      vertex 40.5755 12.4885 4.1
    endloop
  endfacet
  facet normal 0.0924272 -0.376655 0.921731
    outer loop
      vertex 42.116 12.8665 4.1
      vertex 40.6965 11.2946 3.6
      vertex 42.5613 11.7522 3.6
    endloop
  endfacet
  facet normal 0.0924219 -0.376651 0.921733
    outer loop
      vertex 42.116 12.8665 4.1
      vertex 40.5755 12.4885 4.1
      vertex 40.6965 11.2946 3.6
    endloop
  endfacet
  facet normal 0.192637 -0.336617 0.921726
    outer loop
      vertex 43.4927 13.6543 4.1
      vertex 42.5613 11.7522 3.6
      vertex 44.2278 12.7059 3.6
    endloop
  endfacet
  facet normal 0.192625 -0.336613 0.921731
    outer loop
      vertex 43.4927 13.6543 4.1
      vertex 42.116 12.8665 4.1
      vertex 42.5613 11.7522 3.6
    endloop
  endfacet
  facet normal 0.277914 -0.270497 0.921735
    outer loop
      vertex 44.599 14.791 4.1
      vertex 44.2278 12.7059 3.6
      vertex 45.567 14.0818 3.6
    endloop
  endfacet
  facet normal 0.277937 -0.270499 0.921727
    outer loop
      vertex 44.599 14.791 4.1
      vertex 43.4927 13.6543 4.1
      vertex 44.2278 12.7059 3.6
    endloop
  endfacet
  facet normal 0.341703 -0.183422 0.921735
    outer loop
      vertex 46.4752 15.7736 3.6
      vertex 45.3492 16.1886 4.1
      vertex 45.567 14.0818 3.6
    endloop
  endfacet
  facet normal 0.341705 -0.183422 0.921734
    outer loop
      vertex 45.3492 16.1886 4.1
      vertex 44.599 14.791 4.1
      vertex 45.567 14.0818 3.6
    endloop
  endfacet
  facet normal 0.379022 -0.0821668 0.921733
    outer loop
      vertex 46.882 17.6501 3.6
      vertex 45.6852 17.7387 4.1
      vertex 46.4752 15.7736 3.6
    endloop
  endfacet
  facet normal 0.379022 -0.0821666 0.921733
    outer loop
      vertex 45.6852 17.7387 4.1
      vertex 45.3492 16.1886 4.1
      vertex 46.4752 15.7736 3.6
    endloop
  endfacet
  facet normal 0.386989 0.0254613 0.921733
    outer loop
      vertex 46.7559 19.5661 3.6
      vertex 45.5811 19.3215 4.1
      vertex 46.882 17.6501 3.6
    endloop
  endfacet
  facet normal 0.38699 0.0254619 0.921732
    outer loop
      vertex 46.882 17.6501 3.6
      vertex 45.5811 19.3215 4.1
      vertex 45.6852 17.7387 4.1
    endloop
  endfacet
  facet normal 0.365175 0.130317 0.921773
    outer loop
      vertex 46.1202 21.3474 3.6
      vertex 45.5811 19.3215 4.1
      vertex 46.7559 19.5661 3.6
    endloop
  endfacet
  facet normal 0.363945 0.130749 0.922198
    outer loop
      vertex 46.1202 21.3474 3.6
      vertex 45.0448 20.8142 4.1
      vertex 45.5811 19.3215 4.1
    endloop
  endfacet
  facet normal 0.330806 0.198043 0.922684
    outer loop
      vertex 46.0895 21.3624 3.60778
      vertex 45.0448 20.8142 4.1
      vertex 46.1202 21.3474 3.6
    endloop
  endfacet
  facet normal -0.203956 0 0.97898
    outer loop
      vertex 47.9008 19.8888 3.6
      vertex 47.9008 18.1595 3.6
      vertex 49.4895 18.1595 3.93098
    endloop
  endfacet
  facet normal -0.203899 0.0236486 0.978706
    outer loop
      vertex 47.9008 18.1595 3.6
      vertex 47.6911 16.3512 3.6
      vertex 49.4895 18.1595 3.93098
    endloop
  endfacet
  facet normal -0.201976 0.0319709 0.978868
    outer loop
      vertex 50.2653 17.3054 4.1
      vertex 47.6911 16.3512 3.6
      vertex 50.0273 15.8019 4.1
    endloop
  endfacet
  facet normal -0.193073 0.0696912 0.978706
    outer loop
      vertex 50.0273 15.8019 4.1
      vertex 47.6911 16.3512 3.6
      vertex 49.2215 13.5694 4.1
    endloop
  endfacet
  facet normal -0.193067 0.0696945 0.978707
    outer loop
      vertex 47.6911 16.3512 3.6
      vertex 47.073 14.639 3.6
      vertex 49.2215 13.5694 4.1
    endloop
  endfacet
  facet normal -0.196261 0.0157382 0.980425
    outer loop
      vertex 49.4895 18.1595 3.93098
      vertex 47.6911 16.3512 3.6
      vertex 50.2653 17.3054 4.1
    endloop
  endfacet
  facet normal -0.171989 0.112034 0.978707
    outer loop
      vertex 49.2215 13.5694 4.1
      vertex 47.073 14.639 3.6
      vertex 47.9261 11.5807 4.1
    endloop
  endfacet
  facet normal -0.171997 0.112031 0.978706
    outer loop
      vertex 47.073 14.639 3.6
      vertex 46.0794 13.1136 3.6
      vertex 47.9261 11.5807 4.1
    endloop
  endfacet
  facet normal -0.145904 0.143508 0.978835
    outer loop
      vertex 47.9261 11.5807 4.1
      vertex 46.0794 13.1136 3.6
      vertex 46.5644 10.5144 4.05337
    endloop
  endfacet
  facet normal -0.124289 0.147946 0.981155
    outer loop
      vertex 46.0794 13.1136 3.6
      vertex 45.7529 10.5937 3.93861
      vertex 46.5644 10.5144 4.05337
    endloop
  endfacet
  facet normal -0.143299 0.150018 0.978243
    outer loop
      vertex 46.0794 13.1136 3.6
      vertex 44.763 11.8562 3.6
      vertex 45.7529 10.5937 3.93861
    endloop
  endfacet
  facet normal -0.122065 0.166714 0.978421
    outer loop
      vertex 45.7529 10.5937 3.93861
      vertex 44.763 11.8562 3.6
      vertex 44.8465 10.6823 3.81043
    endloop
  endfacet
  facet normal -0.099959 0.168674 0.98059
    outer loop
      vertex 44.763 11.8562 3.6
      vertex 43.2435 10.9557 3.6
      vertex 44.8465 10.6823 3.81043
    endloop
  endfacet
  facet normal -0.210595 0.232549 0.949511
    outer loop
      vertex 32.732 3.3688 3.6
      vertex 31.771 2.4985 3.6
      vertex 32.632 2.4189 3.81045
    endloop
  endfacet
  facet normal -0.204898 0.270657 0.940618
    outer loop
      vertex 32.632 2.4189 3.81045
      vertex 31.771 2.4985 3.6
      vertex 32.45 1.4531 4.04872
    endloop
  endfacet
  facet normal -0.143069 0.310449 0.939762
    outer loop
      vertex 31.771 2.4985 3.6
      vertex 30.5276 1.9255 3.6
      vertex 32.45 1.4531 4.04872
    endloop
  endfacet
  facet normal -0.143712 0.308382 0.940344
    outer loop
      vertex 32.45 1.4531 4.04872
      vertex 30.5276 1.9255 3.6
      vertex 30.9086 0.5784 4.1
    endloop
  endfacet
  facet normal -0.0405093 0.337597 0.940419
    outer loop
      vertex 30.5276 1.9255 3.6
      vertex 29.1168 0.3634 4.1
      vertex 30.9086 0.5784 4.1
    endloop
  endfacet
  facet normal -0.0404807 0.337574 0.940428
    outer loop
      vertex 29.1684 1.7625 3.6
      vertex 29.1168 0.3634 4.1
      vertex 30.5276 1.9255 3.6
    endloop
  endfacet
  facet normal 0.0652245 0.333681 0.940427
    outer loop
      vertex 29.1684 1.7625 3.6
      vertex 27.3457 0.7096 4.1
      vertex 29.1168 0.3634 4.1
    endloop
  endfacet
  facet normal 0.0652182 0.333691 0.940424
    outer loop
      vertex 27.8247 2.0251 3.6
      vertex 27.3457 0.7096 4.1
      vertex 29.1684 1.7625 3.6
    endloop
  endfacet
  facet normal 0.164629 0.29749 0.940424
    outer loop
      vertex 27.8247 2.0251 3.6
      vertex 25.7667 1.5834 4.1
      vertex 27.3457 0.7096 4.1
    endloop
  endfacet
  facet normal 0.164622 0.297515 0.940417
    outer loop
      vertex 26.6269 2.6879 3.6
      vertex 25.7667 1.5834 4.1
      vertex 27.8247 2.0251 3.6
    endloop
  endfacet
  facet normal 0.248093 0.23251 0.94042
    outer loop
      vertex 26.6269 2.6879 3.6
      vertex 24.5327 2.9001 4.1
      vertex 25.7667 1.5834 4.1
    endloop
  endfacet
  facet normal 0.248092 0.232481 0.940427
    outer loop
      vertex 25.6908 3.6869 3.6
      vertex 24.5327 2.9001 4.1
      vertex 26.6269 2.6879 3.6
    endloop
  endfacet
  facet normal 0.307536 0.144988 0.940425
    outer loop
      vertex 25.6908 3.6869 3.6
      vertex 23.7632 4.5324 4.1
      vertex 24.5327 2.9001 4.1
    endloop
  endfacet
  facet normal 0.307535 0.144986 0.940426
    outer loop
      vertex 25.107 4.9252 3.6
      vertex 23.7632 4.5324 4.1
      vertex 25.6908 3.6869 3.6
    endloop
  endfacet
  facet normal 0.337604 0.0420224 0.94035
    outer loop
      vertex 25.107 4.9252 3.6
      vertex 23.6856 6.3031 4.04872
      vertex 23.7632 4.5324 4.1
    endloop
  endfacet
  facet normal 0.339026 0.0436803 0.939763
    outer loop
      vertex 24.932 6.283 3.6
      vertex 23.6856 6.3031 4.04872
      vertex 25.107 4.9252 3.6
    endloop
  endfacet
  facet normal 0.338148 -0.0298707 0.940619
    outer loop
      vertex 24.4073 6.9702 3.81045
      vertex 23.6856 6.3031 4.04872
      vertex 24.932 6.283 3.6
    endloop
  endfacet
  facet normal 0.308909 -0.0549164 0.949505
    outer loop
      vertex 25.159 7.5595 3.6
      vertex 24.4073 6.9702 3.81045
      vertex 24.932 6.283 3.6
    endloop
  endfacet
  facet normal -0.809792 -0.151372 0.566854
    outer loop
      vertex 26.9059 5.2202 5.6
      vertex 25.3303 6.1595 3.6
      vertex 25.6004 4.7145 3.6
    endloop
  endfacet
  facet normal -0.700411 -0.433715 0.566847
    outer loop
      vertex 26.9059 5.2202 5.6
      vertex 25.6004 4.7145 3.6
      vertex 27.4089 4.4079 5.6
    endloop
  endfacet
  facet normal -0.700418 -0.43369 0.566858
    outer loop
      vertex 27.4089 4.4079 5.6
      vertex 25.6004 4.7145 3.6
      vertex 26.3743 3.4647 3.6
    endloop
  endfacet
  facet normal -0.496452 -0.657424 0.566858
    outer loop
      vertex 27.4089 4.4079 5.6
      vertex 26.3743 3.4647 3.6
      vertex 28.1714 3.8321 5.6
    endloop
  endfacet
  facet normal -0.496467 -0.657405 0.566868
    outer loop
      vertex 28.1714 3.8321 5.6
      vertex 26.3743 3.4647 3.6
      vertex 27.5473 2.5788 3.6
    endloop
  endfacet
  facet normal -0.225456 -0.792353 0.566874
    outer loop
      vertex 28.1714 3.8321 5.6
      vertex 27.5473 2.5788 3.6
      vertex 29.0904 3.5706 5.6
    endloop
  endfacet
  facet normal -0.225406 -0.792384 0.566851
    outer loop
      vertex 29.0904 3.5706 5.6
      vertex 27.5473 2.5788 3.6
      vertex 28.9612 2.1766 3.6
    endloop
  endfacet
  facet normal 0.0760455 -0.820308 0.566843
    outer loop
      vertex 29.0904 3.5706 5.6
      vertex 28.9612 2.1766 3.6
      vertex 30.0418 3.6588 5.6
    endloop
  endfacet
  facet normal 0.0759925 -0.820299 0.566865
    outer loop
      vertex 30.0418 3.6588 5.6
      vertex 28.9612 2.1766 3.6
      vertex 30.4249 2.3122 3.6
    endloop
  endfacet
  facet normal 0.367134 -0.737475 0.566872
    outer loop
      vertex 30.8971 4.0846 5.6
      vertex 30.0418 3.6588 5.6
      vertex 30.4249 2.3122 3.6
    endloop
  endfacet
  facet normal 0.367196 -0.737463 0.566847
    outer loop
      vertex 30.8971 4.0846 5.6
      vertex 30.4249 2.3122 3.6
      vertex 31.7408 2.9674 3.6
    endloop
  endfacet
  facet normal 0.608842 -0.554975 0.566846
    outer loop
      vertex 31.5409 4.7908 5.6
      vertex 30.8971 4.0846 5.6
      vertex 31.7408 2.9674 3.6
    endloop
  endfacet
  facet normal 0.608824 -0.554986 0.566854
    outer loop
      vertex 32.7312 4.0538 3.6
      vertex 31.5409 4.7908 5.6
      vertex 31.7408 2.9674 3.6
    endloop
  endfacet
  facet normal 0.768177 -0.297622 0.566855
    outer loop
      vertex 31.886 5.6817 5.6
      vertex 31.5409 4.7908 5.6
      vertex 32.7312 4.0538 3.6
    endloop
  endfacet
  facet normal 0.768192 -0.297604 0.566845
    outer loop
      vertex 33.2622 5.4245 3.6
      vertex 31.886 5.6817 5.6
      vertex 32.7312 4.0538 3.6
    endloop
  endfacet
  facet normal 0.823821 0 0.56685
    outer loop
      vertex 31.886 6.6372 5.6
      vertex 31.886 5.6817 5.6
      vertex 33.2622 5.4245 3.6
    endloop
  endfacet
  facet normal 0.823821 0 0.56685
    outer loop
      vertex 33.2622 6.8945 3.6
      vertex 31.886 6.6372 5.6
      vertex 33.2622 5.4245 3.6
    endloop
  endfacet
  facet normal 0.768188 0.297593 0.566856
    outer loop
      vertex 33.2622 6.8945 3.6
      vertex 31.5409 7.5282 5.6
      vertex 31.886 6.6372 5.6
    endloop
  endfacet
  facet normal 0.768187 0.297602 0.566853
    outer loop
      vertex 32.7312 8.2652 3.6
      vertex 31.5409 7.5282 5.6
      vertex 33.2622 6.8945 3.6
    endloop
  endfacet
  facet normal 0.6088 0.555016 0.566851
    outer loop
      vertex 32.7312 8.2652 3.6
      vertex 30.8971 8.2343 5.6
      vertex 31.5409 7.5282 5.6
    endloop
  endfacet
  facet normal 0.608818 0.55498 0.566867
    outer loop
      vertex 31.7408 9.3516 3.6
      vertex 30.8971 8.2343 5.6
      vertex 32.7312 8.2652 3.6
    endloop
  endfacet
  facet normal 0.367202 0.73744 0.566873
    outer loop
      vertex 31.7408 9.3516 3.6
      vertex 30.0418 8.6602 5.6
      vertex 30.8971 8.2343 5.6
    endloop
  endfacet
  facet normal 0.36719 0.737451 0.566866
    outer loop
      vertex 30.4249 10.0068 3.6
      vertex 30.0418 8.6602 5.6
      vertex 31.7408 9.3516 3.6
    endloop
  endfacet
  facet normal 0.0760438 0.820291 0.566869
    outer loop
      vertex 30.4249 10.0068 3.6
      vertex 29.0904 8.7484 5.6
      vertex 30.0418 8.6602 5.6
    endloop
  endfacet
  facet normal 0.0759936 0.82031 0.566848
    outer loop
      vertex 30.4249 10.0068 3.6
      vertex 28.9612 10.1424 3.6
      vertex 29.0904 8.7484 5.6
    endloop
  endfacet
  facet normal -0.225461 0.792372 0.566846
    outer loop
      vertex 28.9612 10.1424 3.6
      vertex 28.1714 8.4869 5.6
      vertex 29.0904 8.7484 5.6
    endloop
  endfacet
  facet normal -0.225458 0.792372 0.566847
    outer loop
      vertex 28.9612 10.1424 3.6
      vertex 27.5473 9.7401 3.6
      vertex 28.1714 8.4869 5.6
    endloop
  endfacet
  facet normal -0.496457 0.65743 0.566848
    outer loop
      vertex 27.5473 9.7401 3.6
      vertex 27.4089 7.9111 5.6
      vertex 28.1714 8.4869 5.6
    endloop
  endfacet
  facet normal -0.496436 0.657438 0.566857
    outer loop
      vertex 27.5473 9.7401 3.6
      vertex 26.3743 8.8543 3.6
      vertex 27.4089 7.9111 5.6
    endloop
  endfacet
  facet normal -0.70043 0.433673 0.566856
    outer loop
      vertex 27.4089 7.9111 5.6
      vertex 26.3743 8.8543 3.6
      vertex 26.9059 7.0987 5.6
    endloop
  endfacet
  facet normal -0.700437 0.433667 0.566852
    outer loop
      vertex 26.3743 8.8543 3.6
      vertex 25.6004 7.6044 3.6
      vertex 26.9059 7.0987 5.6
    endloop
  endfacet
  facet normal -0.809788 0.151387 0.566855
    outer loop
      vertex 26.9059 7.0987 5.6
      vertex 25.6004 7.6044 3.6
      vertex 26.7303 6.1595 5.6
    endloop
  endfacet
  facet normal -0.80979 0.151382 0.566853
    outer loop
      vertex 25.6004 7.6044 3.6
      vertex 25.3303 6.1595 3.6
      vertex 26.7303 6.1595 5.6
    endloop
  endfacet
  facet normal -0.809792 -0.151372 0.566854
    outer loop
      vertex 26.7303 6.1595 5.6
      vertex 25.3303 6.1595 3.6
      vertex 26.9059 5.2202 5.6
    endloop
  endfacet
  facet normal 0.279693 0.0400329 0.959255
    outer loop
      vertex 23.6856 6.3031 4.04872
      vertex 23.5303 6.1595 4.1
      vertex 23.7632 4.5324 4.1
    endloop
  endfacet
  facet normal -0.114602 0.258192 0.959272
    outer loop
      vertex 32.45 1.4531 4.04872
      vertex 30.9086 0.5784 4.1
      vertex 32.4109 1.2452 4.1
    endloop
  endfacet
  facet normal -0.136307 0.131117 0.981951
    outer loop
      vertex 47.9261 11.5807 4.1
      vertex 46.5644 10.5144 4.05337
      vertex 46.8822 10.4955 4.1
    endloop
  endfacet
  facet normal 0.331115 0.197467 0.922697
    outer loop
      vertex 45.312 21.7443 3.80507
      vertex 45.0448 20.8142 4.1
      vertex 46.0895 21.3624 3.60778
    endloop
  endfacet
  facet normal 0.293486 0.211325 0.932313
    outer loop
      vertex 45.312 21.7443 3.80507
      vertex 44.118 22.1014 4.1
      vertex 45.0448 20.8142 4.1
    endloop
  endfacet
  facet normal 0.294441 0.215568 0.93104
    outer loop
      vertex 44.561 22.1842 3.94074
      vertex 44.118 22.1014 4.1
      vertex 45.312 21.7443 3.80507
    endloop
  endfacet
  facet normal 0.278123 0.279607 0.918949
    outer loop
      vertex 44.3573 22.3279 3.95864
      vertex 44.118 22.1014 4.1
      vertex 44.561 22.1842 3.94074
    endloop
  endfacet
  facet normal 0.278073 0.279659 0.918948
    outer loop
      vertex 44.3573 22.3279 3.95864
      vertex 43.959 22.6089 3.99365
      vertex 44.118 22.1014 4.1
    endloop
  endfacet
endsolid OpenSCAD_Model
