solid OpenSCAD_Model
  facet normal -0.000000 0.000000 -1.000000
    outer loop
      vertex -6.000000 0.000000 0.000000
      vertex -5.868886 1.247470 0.000000
      vertex -5.868886 -1.247470 0.000000
    endloop
  endfacet
  facet normal 0.000000 -0.000000 -1.000000
    outer loop
      vertex -5.868886 -1.247470 0.000000
      vertex -5.868886 1.247470 0.000000
      vertex -5.481273 2.440420 0.000000
    endloop
  endfacet
  facet normal 0.000000 0.000000 -1.000000
    outer loop
      vertex -5.868886 -1.247470 0.000000
      vertex -5.481273 2.440420 0.000000
      vertex -4.854102 3.526712 0.000000
    endloop
  endfacet
  facet normal 0.000000 0.000000 -1.000000
    outer loop
      vertex -5.868886 -1.247470 0.000000
      vertex -4.854102 3.526712 0.000000
      vertex -4.014784 4.458869 0.000000
    endloop
  endfacet
  facet normal 0.000000 0.000000 -1.000000
    outer loop
      vertex -5.868886 -1.247470 0.000000
      vertex -4.014784 4.458869 0.000000
      vertex -3.000000 5.196152 0.000000
    endloop
  endfacet
  facet normal 0.000000 0.000000 -1.000000
    outer loop
      vertex -5.868886 -1.247470 0.000000
      vertex -3.000000 5.196152 0.000000
      vertex -1.854102 5.706339 0.000000
    endloop
  endfacet
  facet normal 0.000000 0.000000 -1.000000
    outer loop
      vertex -5.868886 -1.247470 0.000000
      vertex -1.854102 5.706339 0.000000
      vertex -0.627171 5.967131 0.000000
    endloop
  endfacet
  facet normal 0.000000 0.000000 -1.000000
    outer loop
      vertex -5.868886 -1.247470 0.000000
      vertex -0.627171 5.967131 0.000000
      vertex 0.000000 5.967131 0.000000
    endloop
  endfacet
  facet normal 0.000000 -0.000000 -1.000000
    outer loop
      vertex 0.000000 5.967131 0.000000
      vertex 0.000000 6.000000 0.000000
      vertex 21.000000 6.000000 0.000000
    endloop
  endfacet
  facet normal -0.000000 0.000000 -1.000000
    outer loop
      vertex 0.000000 5.967131 0.000000
      vertex 21.000000 6.000000 0.000000
      vertex 1.010106 2.700000 0.000000
    endloop
  endfacet
  facet normal 0.000000 0.000000 -1.000000
    outer loop
      vertex 0.000000 5.967131 0.000000
      vertex 1.010106 2.700000 0.000000
      vertex 0.896149 2.758064 0.000000
    endloop
  endfacet
  facet normal 0.000000 0.000000 -1.000000
    outer loop
      vertex 0.000000 5.967131 0.000000
      vertex 0.896149 2.758064 0.000000
      vertex 0.000000 2.900000 0.000000
    endloop
  endfacet
  facet normal 0.000000 0.000000 -1.000000
    outer loop
      vertex 0.000000 5.967131 0.000000
      vertex 0.000000 2.900000 0.000000
      vertex -0.896149 2.758064 0.000000
    endloop
  endfacet
  facet normal 0.000000 0.000000 -1.000000
    outer loop
      vertex 0.000000 5.967131 0.000000
      vertex -0.896149 2.758064 0.000000
      vertex -1.704577 2.346149 0.000000
    endloop
  endfacet
  facet normal 0.000000 0.000000 -1.000000
    outer loop
      vertex 0.000000 5.967131 0.000000
      vertex -1.704577 2.346149 0.000000
      vertex -5.868886 -1.247470 0.000000
    endloop
  endfacet
  facet normal 0.000000 0.000000 -1.000000
    outer loop
      vertex -1.704577 2.346149 0.000000
      vertex -2.346149 1.704577 0.000000
      vertex -5.868886 -1.247470 0.000000
    endloop
  endfacet
  facet normal 0.000000 -0.000000 -1.000000
    outer loop
      vertex -2.900000 0.000000 0.000000
      vertex -5.868886 -1.247470 0.000000
      vertex -2.758064 0.896149 0.000000
    endloop
  endfacet
  facet normal 0.000000 -0.000000 -1.000000
    outer loop
      vertex -2.758064 0.896149 0.000000
      vertex -5.868886 -1.247470 0.000000
      vertex -2.346149 1.704577 0.000000
    endloop
  endfacet
  facet normal 0.000000 0.000000 -1.000000
    outer loop
      vertex -2.758064 -0.896149 0.000000
      vertex -5.868886 -1.247470 0.000000
      vertex -2.900000 0.000000 0.000000
    endloop
  endfacet
  facet normal 0.000000 0.000000 -1.000000
    outer loop
      vertex 21.000000 -2.700000 0.000000
      vertex 0.896149 -2.758064 0.000000
      vertex 1.010106 -2.700000 0.000000
    endloop
  endfacet
  facet normal -0.000000 0.000000 -1.000000
    outer loop
      vertex -5.868886 -1.247470 0.000000
      vertex -2.758064 -0.896149 0.000000
      vertex -2.346149 -1.704577 0.000000
    endloop
  endfacet
  facet normal 0.000000 0.000000 -1.000000
    outer loop
      vertex -2.346149 -1.704577 0.000000
      vertex -1.704577 -2.346149 0.000000
      vertex -5.868886 -1.247470 0.000000
    endloop
  endfacet
  facet normal 0.000000 0.000000 -1.000000
    outer loop
      vertex -1.704577 -2.346149 0.000000
      vertex -0.896149 -2.758064 0.000000
      vertex -5.868886 -1.247470 0.000000
    endloop
  endfacet
  facet normal -0.000000 -0.000000 -1.000000
    outer loop
      vertex -0.627171 -5.967131 0.000000
      vertex -0.896149 -2.758064 0.000000
      vertex 0.000000 -5.967131 0.000000
    endloop
  endfacet
  facet normal 0.000000 0.000000 -1.000000
    outer loop
      vertex -0.627171 -5.967131 0.000000
      vertex -5.868886 -1.247470 0.000000
      vertex -0.896149 -2.758064 0.000000
    endloop
  endfacet
  facet normal -0.000000 0.000000 -1.000000
    outer loop
      vertex 0.896149 -2.758064 0.000000
      vertex 21.000000 -2.700000 0.000000
      vertex 0.000000 -2.900000 0.000000
    endloop
  endfacet
  facet normal -0.000000 0.000000 -1.000000
    outer loop
      vertex 0.000000 -2.900000 0.000000
      vertex 21.000000 -2.700000 0.000000
      vertex 21.000000 -6.000000 0.000000
    endloop
  endfacet
  facet normal 0.000000 0.000000 -1.000000
    outer loop
      vertex 0.000000 -5.967131 0.000000
      vertex 21.000000 -6.000000 0.000000
      vertex 0.000000 -6.000000 0.000000
    endloop
  endfacet
  facet normal 0.000000 0.000000 -1.000000
    outer loop
      vertex 0.000000 -2.900000 0.000000
      vertex 21.000000 -6.000000 0.000000
      vertex 0.000000 -5.967131 0.000000
    endloop
  endfacet
  facet normal 0.000000 0.000000 -1.000000
    outer loop
      vertex 0.000000 -2.900000 0.000000
      vertex 0.000000 -5.967131 0.000000
      vertex -0.896149 -2.758064 0.000000
    endloop
  endfacet
  facet normal 0.000000 0.000000 -1.000000
    outer loop
      vertex -5.868886 -1.247470 0.000000
      vertex -0.627171 -5.967131 0.000000
      vertex -1.854102 -5.706339 0.000000
    endloop
  endfacet
  facet normal 0.000000 0.000000 -1.000000
    outer loop
      vertex -5.868886 -1.247470 0.000000
      vertex -1.854102 -5.706339 0.000000
      vertex -3.000000 -5.196152 0.000000
    endloop
  endfacet
  facet normal 0.000000 0.000000 -1.000000
    outer loop
      vertex -5.868886 -1.247470 0.000000
      vertex -3.000000 -5.196152 0.000000
      vertex -4.014784 -4.458869 0.000000
    endloop
  endfacet
  facet normal 0.000000 0.000000 -1.000000
    outer loop
      vertex -5.868886 -1.247470 0.000000
      vertex -4.014784 -4.458869 0.000000
      vertex -4.854102 -3.526712 0.000000
    endloop
  endfacet
  facet normal 0.000000 0.000000 -1.000000
    outer loop
      vertex -5.868886 -1.247470 0.000000
      vertex -4.854102 -3.526712 0.000000
      vertex -5.481273 -2.440420 0.000000
    endloop
  endfacet
  facet normal -0.000000 0.000000 -1.000000
    outer loop
      vertex 1.010106 2.700000 0.000000
      vertex 21.000000 6.000000 0.000000
      vertex 21.000000 2.700000 0.000000
    endloop
  endfacet
  facet normal -0.994522 0.104528 0.000000
    outer loop
      vertex -6.000000 0.000000 0.000000
      vertex -6.000000 0.000000 12.000000
      vertex -5.868886 1.247470 0.000000
    endloop
  endfacet
  facet normal -0.994522 0.104528 0.000000
    outer loop
      vertex -5.868886 1.247470 0.000000
      vertex -6.000000 0.000000 12.000000
      vertex -5.868886 1.247470 12.000000
    endloop
  endfacet
  facet normal -0.994522 -0.104528 -0.000000
    outer loop
      vertex -6.000000 0.000000 0.000000
      vertex -5.868886 -1.247470 0.000000
      vertex -6.000000 0.000000 12.000000
    endloop
  endfacet
  facet normal -0.994522 -0.104528 0.000000
    outer loop
      vertex -6.000000 0.000000 12.000000
      vertex -5.868886 -1.247470 0.000000
      vertex -5.868886 -1.247470 12.000000
    endloop
  endfacet
  facet normal -0.951057 -0.309017 -0.000000
    outer loop
      vertex -5.868886 -1.247470 0.000000
      vertex -5.481273 -2.440420 0.000000
      vertex -5.868886 -1.247470 12.000000
    endloop
  endfacet
  facet normal -0.951057 -0.309017 0.000000
    outer loop
      vertex -5.868886 -1.247470 12.000000
      vertex -5.481273 -2.440420 0.000000
      vertex -5.481273 -2.440420 12.000000
    endloop
  endfacet
  facet normal -0.866025 -0.500000 -0.000000
    outer loop
      vertex -5.481273 -2.440420 0.000000
      vertex -4.854102 -3.526712 0.000000
      vertex -5.481273 -2.440420 12.000000
    endloop
  endfacet
  facet normal -0.866025 -0.500000 0.000000
    outer loop
      vertex -5.481273 -2.440420 12.000000
      vertex -4.854102 -3.526712 0.000000
      vertex -4.854102 -3.526712 12.000000
    endloop
  endfacet
  facet normal -0.743145 -0.669131 -0.000000
    outer loop
      vertex -4.854102 -3.526712 0.000000
      vertex -4.014784 -4.458869 0.000000
      vertex -4.854102 -3.526712 12.000000
    endloop
  endfacet
  facet normal -0.743145 -0.669131 0.000000
    outer loop
      vertex -4.854102 -3.526712 12.000000
      vertex -4.014784 -4.458869 0.000000
      vertex -4.014784 -4.458869 12.000000
    endloop
  endfacet
  facet normal -0.587785 -0.809017 0.000000
    outer loop
      vertex -4.014784 -4.458869 12.000000
      vertex -4.014784 -4.458869 0.000000
      vertex -3.000000 -5.196152 0.000000
    endloop
  endfacet
  facet normal -0.587785 -0.809017 0.000000
    outer loop
      vertex -3.000000 -5.196152 12.000000
      vertex -4.014784 -4.458869 12.000000
      vertex -3.000000 -5.196152 0.000000
    endloop
  endfacet
  facet normal -0.406737 -0.913545 0.000000
    outer loop
      vertex -3.000000 -5.196152 12.000000
      vertex -3.000000 -5.196152 0.000000
      vertex -1.854102 -5.706339 0.000000
    endloop
  endfacet
  facet normal -0.406737 -0.913545 0.000000
    outer loop
      vertex -1.854102 -5.706339 12.000000
      vertex -3.000000 -5.196152 12.000000
      vertex -1.854102 -5.706339 0.000000
    endloop
  endfacet
  facet normal -0.207912 -0.978148 0.000000
    outer loop
      vertex -1.854102 -5.706339 12.000000
      vertex -1.854102 -5.706339 0.000000
      vertex -0.627171 -5.967131 0.000000
    endloop
  endfacet
  facet normal -0.207912 -0.978148 0.000000
    outer loop
      vertex -0.627171 -5.967131 12.000000
      vertex -1.854102 -5.706339 12.000000
      vertex -0.627171 -5.967131 0.000000
    endloop
  endfacet
  facet normal 0.000000 -1.000000 0.000000
    outer loop
      vertex -0.627171 -5.967131 12.000000
      vertex -0.627171 -5.967131 0.000000
      vertex 0.000000 -5.967131 0.000000
    endloop
  endfacet
  facet normal 0.000000 -1.000000 0.000000
    outer loop
      vertex 0.000000 -5.967131 12.000000
      vertex -0.627171 -5.967131 12.000000
      vertex 0.000000 -5.967131 0.000000
    endloop
  endfacet
  facet normal -1.000000 -0.000000 -0.000000
    outer loop
      vertex 0.000000 -6.000000 0.000000
      vertex 0.000000 -6.000000 12.000000
      vertex 0.000000 -5.967131 0.000000
    endloop
  endfacet
  facet normal -1.000000 0.000000 0.000000
    outer loop
      vertex 0.000000 -5.967131 0.000000
      vertex 0.000000 -6.000000 12.000000
      vertex 0.000000 -5.967131 12.000000
    endloop
  endfacet
  facet normal 0.000000 -1.000000 0.000000
    outer loop
      vertex 5.999235 -6.000000 4.624671
      vertex 0.000000 -6.000000 0.000000
      vertex 21.000000 -6.000000 0.000000
    endloop
  endfacet
  facet normal 0.000000 -1.000000 0.000000
    outer loop
      vertex 14.000765 -6.000000 4.624671
      vertex 0.000000 -6.000000 12.000000
      vertex 21.000000 -6.000000 0.000000
    endloop
  endfacet
  facet normal 0.000000 -1.000000 0.000000
    outer loop
      vertex 13.624671 -6.000000 5.000765
      vertex 13.383204 -6.000000 5.474671
      vertex 0.000000 -6.000000 12.000000
    endloop
  endfacet
  facet normal 0.000000 -1.000000 0.000000
    outer loop
      vertex 0.000000 -6.000000 12.000000
      vertex 0.000000 -6.000000 0.000000
      vertex 3.383204 -6.000000 5.474671
    endloop
  endfacet
  facet normal -0.000000 -1.000000 0.000000
    outer loop
      vertex 15.000000 -6.000000 7.700000
      vertex 15.525329 -6.000000 7.616796
      vertex 21.000000 -6.000000 12.000000
    endloop
  endfacet
  facet normal 0.000000 -1.000000 0.000000
    outer loop
      vertex 0.000000 -6.000000 12.000000
      vertex 3.383204 -6.000000 5.474671
      vertex 3.300000 -6.000000 6.000000
    endloop
  endfacet
  facet normal 0.000000 -1.000000 0.000000
    outer loop
      vertex 0.000000 -6.000000 12.000000
      vertex 3.300000 -6.000000 6.000000
      vertex 3.383204 -6.000000 6.525329
    endloop
  endfacet
  facet normal 0.000000 -1.000000 0.000000
    outer loop
      vertex 6.616796 -6.000000 5.474671
      vertex 6.375329 -6.000000 5.000765
      vertex 21.000000 -6.000000 0.000000
    endloop
  endfacet
  facet normal 0.000000 -1.000000 0.000000
    outer loop
      vertex 0.000000 -6.000000 12.000000
      vertex 3.383204 -6.000000 6.525329
      vertex 3.624671 -6.000000 6.999235
    endloop
  endfacet
  facet normal 0.000000 -1.000000 0.000000
    outer loop
      vertex 6.700000 -6.000000 6.000000
      vertex 6.616796 -6.000000 5.474671
      vertex 21.000000 -6.000000 0.000000
    endloop
  endfacet
  facet normal 0.000000 -1.000000 0.000000
    outer loop
      vertex 0.000000 -6.000000 12.000000
      vertex 3.624671 -6.000000 6.999235
      vertex 4.000765 -6.000000 7.375329
    endloop
  endfacet
  facet normal 0.000000 -1.000000 0.000000
    outer loop
      vertex 6.616796 -6.000000 6.525329
      vertex 6.700000 -6.000000 6.000000
      vertex 21.000000 -6.000000 0.000000
    endloop
  endfacet
  facet normal 0.000000 -1.000000 0.000000
    outer loop
      vertex 0.000000 -6.000000 12.000000
      vertex 4.000765 -6.000000 7.375329
      vertex 4.474671 -6.000000 7.616796
    endloop
  endfacet
  facet normal 0.000000 -1.000000 0.000000
    outer loop
      vertex 6.375329 -6.000000 6.999235
      vertex 6.616796 -6.000000 6.525329
      vertex 21.000000 -6.000000 0.000000
    endloop
  endfacet
  facet normal 0.000000 -1.000000 0.000000
    outer loop
      vertex 0.000000 -6.000000 12.000000
      vertex 4.474671 -6.000000 7.616796
      vertex 5.000000 -6.000000 7.700000
    endloop
  endfacet
  facet normal 0.000000 -1.000000 0.000000
    outer loop
      vertex 0.000000 -6.000000 12.000000
      vertex 5.525329 -6.000000 7.616796
      vertex 21.000000 -6.000000 0.000000
    endloop
  endfacet
  facet normal 0.000000 -1.000000 0.000000
    outer loop
      vertex 0.000000 -6.000000 12.000000
      vertex 5.000000 -6.000000 7.700000
      vertex 5.525329 -6.000000 7.616796
    endloop
  endfacet
  facet normal 0.000000 -1.000000 0.000000
    outer loop
      vertex 5.525329 -6.000000 7.616796
      vertex 5.999235 -6.000000 7.375329
      vertex 21.000000 -6.000000 0.000000
    endloop
  endfacet
  facet normal -0.000000 -1.000000 0.000000
    outer loop
      vertex 5.525329 -6.000000 4.383204
      vertex 0.000000 -6.000000 0.000000
      vertex 5.999235 -6.000000 4.624671
    endloop
  endfacet
  facet normal -0.000000 -1.000000 0.000000
    outer loop
      vertex 5.000000 -6.000000 4.300000
      vertex 0.000000 -6.000000 0.000000
      vertex 5.525329 -6.000000 4.383204
    endloop
  endfacet
  facet normal 0.000000 -1.000000 0.000000
    outer loop
      vertex 4.474671 -6.000000 4.383204
      vertex 0.000000 -6.000000 0.000000
      vertex 5.000000 -6.000000 4.300000
    endloop
  endfacet
  facet normal 0.000000 -1.000000 0.000000
    outer loop
      vertex 4.000765 -6.000000 4.624671
      vertex 0.000000 -6.000000 0.000000
      vertex 4.474671 -6.000000 4.383204
    endloop
  endfacet
  facet normal 0.000000 -1.000000 0.000000
    outer loop
      vertex 3.624671 -6.000000 5.000765
      vertex 0.000000 -6.000000 0.000000
      vertex 4.000765 -6.000000 4.624671
    endloop
  endfacet
  facet normal 0.000000 -1.000000 0.000000
    outer loop
      vertex 3.383204 -6.000000 5.474671
      vertex 0.000000 -6.000000 0.000000
      vertex 3.624671 -6.000000 5.000765
    endloop
  endfacet
  facet normal 0.000000 -1.000000 0.000000
    outer loop
      vertex 14.000765 -6.000000 4.624671
      vertex 13.624671 -6.000000 5.000765
      vertex 0.000000 -6.000000 12.000000
    endloop
  endfacet
  facet normal 0.000000 -1.000000 0.000000
    outer loop
      vertex 13.300000 -6.000000 6.000000
      vertex 0.000000 -6.000000 12.000000
      vertex 13.383204 -6.000000 5.474671
    endloop
  endfacet
  facet normal 0.000000 -1.000000 0.000000
    outer loop
      vertex 13.383204 -6.000000 6.525329
      vertex 0.000000 -6.000000 12.000000
      vertex 13.300000 -6.000000 6.000000
    endloop
  endfacet
  facet normal -0.000000 -1.000000 0.000000
    outer loop
      vertex 15.525329 -6.000000 7.616796
      vertex 15.999235 -6.000000 7.375329
      vertex 21.000000 -6.000000 12.000000
    endloop
  endfacet
  facet normal 0.000000 -1.000000 0.000000
    outer loop
      vertex 13.624671 -6.000000 6.999235
      vertex 0.000000 -6.000000 12.000000
      vertex 13.383204 -6.000000 6.525329
    endloop
  endfacet
  facet normal 0.000000 -1.000000 0.000000
    outer loop
      vertex 14.000765 -6.000000 7.375329
      vertex 0.000000 -6.000000 12.000000
      vertex 13.624671 -6.000000 6.999235
    endloop
  endfacet
  facet normal 0.000000 -1.000000 0.000000
    outer loop
      vertex 21.000000 -6.000000 12.000000
      vertex 0.000000 -6.000000 12.000000
      vertex 14.000765 -6.000000 7.375329
    endloop
  endfacet
  facet normal 0.000000 -1.000000 0.000000
    outer loop
      vertex 21.000000 -6.000000 12.000000
      vertex 14.000765 -6.000000 7.375329
      vertex 14.474671 -6.000000 7.616796
    endloop
  endfacet
  facet normal 0.000000 -1.000000 0.000000
    outer loop
      vertex 16.616796 -6.000000 6.525329
      vertex 16.700000 -6.000000 6.000000
      vertex 21.000000 -6.000000 0.000000
    endloop
  endfacet
  facet normal 0.000000 -1.000000 0.000000
    outer loop
      vertex 15.525329 -6.000000 4.383204
      vertex 15.000000 -6.000000 4.300000
      vertex 21.000000 -6.000000 0.000000
    endloop
  endfacet
  facet normal 0.000000 -1.000000 0.000000
    outer loop
      vertex 21.000000 -6.000000 12.000000
      vertex 16.375329 -6.000000 6.999235
      vertex 21.000000 -6.000000 0.000000
    endloop
  endfacet
  facet normal 0.000000 -1.000000 0.000000
    outer loop
      vertex 21.000000 -6.000000 12.000000
      vertex 15.999235 -6.000000 7.375329
      vertex 16.375329 -6.000000 6.999235
    endloop
  endfacet
  facet normal 0.000000 -1.000000 0.000000
    outer loop
      vertex 16.375329 -6.000000 6.999235
      vertex 16.616796 -6.000000 6.525329
      vertex 21.000000 -6.000000 0.000000
    endloop
  endfacet
  facet normal 0.000000 -1.000000 0.000000
    outer loop
      vertex 16.700000 -6.000000 6.000000
      vertex 16.616796 -6.000000 5.474671
      vertex 21.000000 -6.000000 0.000000
    endloop
  endfacet
  facet normal 0.000000 -1.000000 0.000000
    outer loop
      vertex 16.616796 -6.000000 5.474671
      vertex 16.375329 -6.000000 5.000765
      vertex 21.000000 -6.000000 0.000000
    endloop
  endfacet
  facet normal 0.000000 -1.000000 0.000000
    outer loop
      vertex 16.375329 -6.000000 5.000765
      vertex 15.999235 -6.000000 4.624671
      vertex 21.000000 -6.000000 0.000000
    endloop
  endfacet
  facet normal 0.000000 -1.000000 0.000000
    outer loop
      vertex 15.999235 -6.000000 4.624671
      vertex 15.525329 -6.000000 4.383204
      vertex 21.000000 -6.000000 0.000000
    endloop
  endfacet
  facet normal 0.000000 -1.000000 0.000000
    outer loop
      vertex 15.000000 -6.000000 4.300000
      vertex 14.474671 -6.000000 4.383204
      vertex 21.000000 -6.000000 0.000000
    endloop
  endfacet
  facet normal 0.000000 -1.000000 0.000000
    outer loop
      vertex 14.474671 -6.000000 4.383204
      vertex 14.000765 -6.000000 4.624671
      vertex 21.000000 -6.000000 0.000000
    endloop
  endfacet
  facet normal 0.000000 -1.000000 0.000000
    outer loop
      vertex 14.474671 -6.000000 7.616796
      vertex 15.000000 -6.000000 7.700000
      vertex 21.000000 -6.000000 12.000000
    endloop
  endfacet
  facet normal 0.000000 -1.000000 0.000000
    outer loop
      vertex 5.999235 -6.000000 7.375329
      vertex 6.375329 -6.000000 6.999235
      vertex 21.000000 -6.000000 0.000000
    endloop
  endfacet
  facet normal 0.000000 -1.000000 0.000000
    outer loop
      vertex 6.375329 -6.000000 5.000765
      vertex 5.999235 -6.000000 4.624671
      vertex 21.000000 -6.000000 0.000000
    endloop
  endfacet
  facet normal 1.000000 0.000000 -0.000000
    outer loop
      vertex 21.000000 -6.000000 12.000000
      vertex 21.000000 -6.000000 0.000000
      vertex 21.000000 -2.700000 0.000000
    endloop
  endfacet
  facet normal 1.000000 0.000000 0.000000
    outer loop
      vertex 21.000000 -2.700000 12.000000
      vertex 21.000000 -6.000000 12.000000
      vertex 21.000000 -2.700000 0.000000
    endloop
  endfacet
  facet normal -0.000000 1.000000 -0.000000
    outer loop
      vertex 14.000765 -2.700000 4.624671
      vertex 21.000000 -2.700000 0.000000
      vertex 1.010106 -2.700000 12.000000
    endloop
  endfacet
  facet normal 0.000000 1.000000 -0.000000
    outer loop
      vertex 4.474671 -2.700000 4.383204
      vertex 21.000000 -2.700000 0.000000
      vertex 1.010106 -2.700000 0.000000
    endloop
  endfacet
  facet normal 0.000000 1.000000 0.000000
    outer loop
      vertex 5.525329 -2.700000 7.616796
      vertex 1.010106 -2.700000 12.000000
      vertex 5.999235 -2.700000 7.375329
    endloop
  endfacet
  facet normal 0.000000 1.000000 -0.000000
    outer loop
      vertex 1.010106 -2.700000 12.000000
      vertex 3.383204 -2.700000 5.474671
      vertex 1.010106 -2.700000 0.000000
    endloop
  endfacet
  facet normal 0.000000 1.000000 -0.000000
    outer loop
      vertex 6.375329 -2.700000 5.000765
      vertex 21.000000 -2.700000 0.000000
      vertex 5.999235 -2.700000 4.624671
    endloop
  endfacet
  facet normal 0.000000 1.000000 -0.000000
    outer loop
      vertex 3.383204 -2.700000 5.474671
      vertex 3.624671 -2.700000 5.000765
      vertex 1.010106 -2.700000 0.000000
    endloop
  endfacet
  facet normal 0.000000 1.000000 -0.000000
    outer loop
      vertex 5.999235 -2.700000 4.624671
      vertex 21.000000 -2.700000 0.000000
      vertex 5.525329 -2.700000 4.383204
    endloop
  endfacet
  facet normal 0.000000 1.000000 -0.000000
    outer loop
      vertex 3.624671 -2.700000 5.000765
      vertex 4.000765 -2.700000 4.624671
      vertex 1.010106 -2.700000 0.000000
    endloop
  endfacet
  facet normal -0.000000 1.000000 -0.000000
    outer loop
      vertex 5.000000 -2.700000 4.300000
      vertex 21.000000 -2.700000 0.000000
      vertex 4.474671 -2.700000 4.383204
    endloop
  endfacet
  facet normal 0.000000 1.000000 -0.000000
    outer loop
      vertex 4.000765 -2.700000 4.624671
      vertex 4.474671 -2.700000 4.383204
      vertex 1.010106 -2.700000 0.000000
    endloop
  endfacet
  facet normal 0.000000 1.000000 -0.000000
    outer loop
      vertex 6.616796 -2.700000 5.474671
      vertex 21.000000 -2.700000 0.000000
      vertex 6.375329 -2.700000 5.000765
    endloop
  endfacet
  facet normal 0.000000 1.000000 -0.000000
    outer loop
      vertex 6.700000 -2.700000 6.000000
      vertex 21.000000 -2.700000 0.000000
      vertex 6.616796 -2.700000 5.474671
    endloop
  endfacet
  facet normal 0.000000 1.000000 0.000000
    outer loop
      vertex 6.616796 -2.700000 6.525329
      vertex 21.000000 -2.700000 0.000000
      vertex 6.700000 -2.700000 6.000000
    endloop
  endfacet
  facet normal 0.000000 1.000000 0.000000
    outer loop
      vertex 6.375329 -2.700000 6.999235
      vertex 21.000000 -2.700000 0.000000
      vertex 6.616796 -2.700000 6.525329
    endloop
  endfacet
  facet normal 0.000000 1.000000 0.000000
    outer loop
      vertex 5.999235 -2.700000 7.375329
      vertex 21.000000 -2.700000 0.000000
      vertex 6.375329 -2.700000 6.999235
    endloop
  endfacet
  facet normal 0.000000 1.000000 0.000000
    outer loop
      vertex 1.010106 -2.700000 12.000000
      vertex 21.000000 -2.700000 0.000000
      vertex 5.999235 -2.700000 7.375329
    endloop
  endfacet
  facet normal 0.000000 1.000000 0.000000
    outer loop
      vertex 5.000000 -2.700000 7.700000
      vertex 1.010106 -2.700000 12.000000
      vertex 5.525329 -2.700000 7.616796
    endloop
  endfacet
  facet normal 0.000000 1.000000 0.000000
    outer loop
      vertex 4.474671 -2.700000 7.616796
      vertex 1.010106 -2.700000 12.000000
      vertex 5.000000 -2.700000 7.700000
    endloop
  endfacet
  facet normal 0.000000 1.000000 0.000000
    outer loop
      vertex 4.000765 -2.700000 7.375329
      vertex 1.010106 -2.700000 12.000000
      vertex 4.474671 -2.700000 7.616796
    endloop
  endfacet
  facet normal -0.000000 1.000000 -0.000000
    outer loop
      vertex 15.000000 -2.700000 4.300000
      vertex 21.000000 -2.700000 0.000000
      vertex 14.474671 -2.700000 4.383204
    endloop
  endfacet
  facet normal 0.000000 1.000000 0.000000
    outer loop
      vertex 1.010106 -2.700000 12.000000
      vertex 4.000765 -2.700000 7.375329
      vertex 3.624671 -2.700000 6.999235
    endloop
  endfacet
  facet normal 0.000000 1.000000 0.000000
    outer loop
      vertex 1.010106 -2.700000 12.000000
      vertex 3.624671 -2.700000 6.999235
      vertex 3.383204 -2.700000 6.525329
    endloop
  endfacet
  facet normal 0.000000 1.000000 0.000000
    outer loop
      vertex 1.010106 -2.700000 12.000000
      vertex 3.383204 -2.700000 6.525329
      vertex 3.300000 -2.700000 6.000000
    endloop
  endfacet
  facet normal 0.000000 1.000000 0.000000
    outer loop
      vertex 1.010106 -2.700000 12.000000
      vertex 3.300000 -2.700000 6.000000
      vertex 3.383204 -2.700000 5.474671
    endloop
  endfacet
  facet normal 0.000000 1.000000 -0.000000
    outer loop
      vertex 16.700000 -2.700000 6.000000
      vertex 21.000000 -2.700000 12.000000
      vertex 16.616796 -2.700000 5.474671
    endloop
  endfacet
  facet normal -0.000000 1.000000 -0.000000
    outer loop
      vertex 13.300000 -2.700000 6.000000
      vertex 13.383204 -2.700000 5.474671
      vertex 1.010106 -2.700000 12.000000
    endloop
  endfacet
  facet normal 0.000000 1.000000 -0.000000
    outer loop
      vertex 15.525329 -2.700000 4.383204
      vertex 21.000000 -2.700000 0.000000
      vertex 15.000000 -2.700000 4.300000
    endloop
  endfacet
  facet normal -0.000000 1.000000 -0.000000
    outer loop
      vertex 13.383204 -2.700000 5.474671
      vertex 13.624671 -2.700000 5.000765
      vertex 1.010106 -2.700000 12.000000
    endloop
  endfacet
  facet normal -0.000000 1.000000 -0.000000
    outer loop
      vertex 14.474671 -2.700000 4.383204
      vertex 21.000000 -2.700000 0.000000
      vertex 14.000765 -2.700000 4.624671
    endloop
  endfacet
  facet normal -0.000000 1.000000 -0.000000
    outer loop
      vertex 13.624671 -2.700000 5.000765
      vertex 14.000765 -2.700000 4.624671
      vertex 1.010106 -2.700000 12.000000
    endloop
  endfacet
  facet normal 0.000000 1.000000 -0.000000
    outer loop
      vertex 15.999235 -2.700000 4.624671
      vertex 21.000000 -2.700000 0.000000
      vertex 15.525329 -2.700000 4.383204
    endloop
  endfacet
  facet normal 0.000000 1.000000 -0.000000
    outer loop
      vertex 16.375329 -2.700000 5.000765
      vertex 21.000000 -2.700000 0.000000
      vertex 15.999235 -2.700000 4.624671
    endloop
  endfacet
  facet normal 0.000000 1.000000 0.000000
    outer loop
      vertex 21.000000 -2.700000 12.000000
      vertex 21.000000 -2.700000 0.000000
      vertex 16.375329 -2.700000 5.000765
    endloop
  endfacet
  facet normal 0.000000 1.000000 0.000000
    outer loop
      vertex 21.000000 -2.700000 12.000000
      vertex 16.375329 -2.700000 5.000765
      vertex 16.616796 -2.700000 5.474671
    endloop
  endfacet
  facet normal 0.000000 1.000000 0.000000
    outer loop
      vertex 16.616796 -2.700000 6.525329
      vertex 21.000000 -2.700000 12.000000
      vertex 16.700000 -2.700000 6.000000
    endloop
  endfacet
  facet normal 0.000000 1.000000 0.000000
    outer loop
      vertex 15.525329 -2.700000 7.616796
      vertex 21.000000 -2.700000 12.000000
      vertex 15.999235 -2.700000 7.375329
    endloop
  endfacet
  facet normal 0.000000 1.000000 0.000000
    outer loop
      vertex 21.000000 -2.700000 12.000000
      vertex 16.616796 -2.700000 6.525329
      vertex 16.375329 -2.700000 6.999235
    endloop
  endfacet
  facet normal 0.000000 1.000000 0.000000
    outer loop
      vertex 21.000000 -2.700000 12.000000
      vertex 16.375329 -2.700000 6.999235
      vertex 15.999235 -2.700000 7.375329
    endloop
  endfacet
  facet normal 0.000000 1.000000 0.000000
    outer loop
      vertex 21.000000 -2.700000 12.000000
      vertex 15.525329 -2.700000 7.616796
      vertex 1.010106 -2.700000 12.000000
    endloop
  endfacet
  facet normal 0.000000 1.000000 0.000000
    outer loop
      vertex 15.525329 -2.700000 7.616796
      vertex 15.000000 -2.700000 7.700000
      vertex 1.010106 -2.700000 12.000000
    endloop
  endfacet
  facet normal -0.000000 1.000000 0.000000
    outer loop
      vertex 15.000000 -2.700000 7.700000
      vertex 14.474671 -2.700000 7.616796
      vertex 1.010106 -2.700000 12.000000
    endloop
  endfacet
  facet normal -0.000000 1.000000 0.000000
    outer loop
      vertex 14.474671 -2.700000 7.616796
      vertex 14.000765 -2.700000 7.375329
      vertex 1.010106 -2.700000 12.000000
    endloop
  endfacet
  facet normal -0.000000 1.000000 0.000000
    outer loop
      vertex 14.000765 -2.700000 7.375329
      vertex 13.624671 -2.700000 6.999235
      vertex 1.010106 -2.700000 12.000000
    endloop
  endfacet
  facet normal -0.000000 1.000000 0.000000
    outer loop
      vertex 13.624671 -2.700000 6.999235
      vertex 13.383204 -2.700000 6.525329
      vertex 1.010106 -2.700000 12.000000
    endloop
  endfacet
  facet normal -0.000000 1.000000 0.000000
    outer loop
      vertex 13.383204 -2.700000 6.525329
      vertex 13.300000 -2.700000 6.000000
      vertex 1.010106 -2.700000 12.000000
    endloop
  endfacet
  facet normal 0.000000 1.000000 -0.000000
    outer loop
      vertex 5.525329 -2.700000 4.383204
      vertex 21.000000 -2.700000 0.000000
      vertex 5.000000 -2.700000 4.300000
    endloop
  endfacet
  facet normal -0.453991 0.891006 0.000000
    outer loop
      vertex 1.010106 -2.700000 12.000000
      vertex 1.010106 -2.700000 0.000000
      vertex 0.896149 -2.758064 12.000000
    endloop
  endfacet
  facet normal -0.453991 0.891006 0.000000
    outer loop
      vertex 0.896149 -2.758064 12.000000
      vertex 1.010106 -2.700000 0.000000
      vertex 0.896149 -2.758064 0.000000
    endloop
  endfacet
  facet normal -0.156434 0.987688 0.000000
    outer loop
      vertex 0.896149 -2.758064 12.000000
      vertex 0.896149 -2.758064 0.000000
      vertex 0.000000 -2.900000 12.000000
    endloop
  endfacet
  facet normal -0.156434 0.987688 0.000000
    outer loop
      vertex 0.000000 -2.900000 12.000000
      vertex 0.896149 -2.758064 0.000000
      vertex 0.000000 -2.900000 0.000000
    endloop
  endfacet
  facet normal 0.156434 0.987688 -0.000000
    outer loop
      vertex 0.000000 -2.900000 12.000000
      vertex 0.000000 -2.900000 0.000000
      vertex -0.896149 -2.758064 12.000000
    endloop
  endfacet
  facet normal 0.156434 0.987688 -0.000000
    outer loop
      vertex -0.896149 -2.758064 12.000000
      vertex 0.000000 -2.900000 0.000000
      vertex -0.896149 -2.758064 0.000000
    endloop
  endfacet
  facet normal 0.453991 0.891006 -0.000000
    outer loop
      vertex -0.896149 -2.758064 12.000000
      vertex -0.896149 -2.758064 0.000000
      vertex -1.704577 -2.346149 12.000000
    endloop
  endfacet
  facet normal 0.453991 0.891006 -0.000000
    outer loop
      vertex -1.704577 -2.346149 12.000000
      vertex -0.896149 -2.758064 0.000000
      vertex -1.704577 -2.346149 0.000000
    endloop
  endfacet
  facet normal 0.707107 0.707107 -0.000000
    outer loop
      vertex -1.704577 -2.346149 12.000000
      vertex -1.704577 -2.346149 0.000000
      vertex -2.346149 -1.704577 12.000000
    endloop
  endfacet
  facet normal 0.707107 0.707107 -0.000000
    outer loop
      vertex -2.346149 -1.704577 12.000000
      vertex -1.704577 -2.346149 0.000000
      vertex -2.346149 -1.704577 0.000000
    endloop
  endfacet
  facet normal 0.891006 0.453991 0.000000
    outer loop
      vertex -2.758064 -0.896149 12.000000
      vertex -2.346149 -1.704577 12.000000
      vertex -2.346149 -1.704577 0.000000
    endloop
  endfacet
  facet normal 0.891006 0.453991 0.000000
    outer loop
      vertex -2.758064 -0.896149 0.000000
      vertex -2.758064 -0.896149 12.000000
      vertex -2.346149 -1.704577 0.000000
    endloop
  endfacet
  facet normal 0.987688 0.156434 0.000000
    outer loop
      vertex -2.900000 0.000000 12.000000
      vertex -2.758064 -0.896149 12.000000
      vertex -2.758064 -0.896149 0.000000
    endloop
  endfacet
  facet normal 0.987688 0.156434 0.000000
    outer loop
      vertex -2.900000 0.000000 0.000000
      vertex -2.900000 0.000000 12.000000
      vertex -2.758064 -0.896149 0.000000
    endloop
  endfacet
  facet normal 0.987688 -0.156434 0.000000
    outer loop
      vertex -2.758064 0.896149 0.000000
      vertex -2.758064 0.896149 12.000000
      vertex -2.900000 0.000000 12.000000
    endloop
  endfacet
  facet normal 0.987688 -0.156434 0.000000
    outer loop
      vertex -2.900000 0.000000 0.000000
      vertex -2.758064 0.896149 0.000000
      vertex -2.900000 0.000000 12.000000
    endloop
  endfacet
  facet normal 0.891006 -0.453991 0.000000
    outer loop
      vertex -2.346149 1.704577 0.000000
      vertex -2.346149 1.704577 12.000000
      vertex -2.758064 0.896149 12.000000
    endloop
  endfacet
  facet normal 0.891006 -0.453991 0.000000
    outer loop
      vertex -2.758064 0.896149 0.000000
      vertex -2.346149 1.704577 0.000000
      vertex -2.758064 0.896149 12.000000
    endloop
  endfacet
  facet normal 0.707107 -0.707107 0.000000
    outer loop
      vertex -1.704577 2.346149 0.000000
      vertex -1.704577 2.346149 12.000000
      vertex -2.346149 1.704577 12.000000
    endloop
  endfacet
  facet normal 0.707107 -0.707107 0.000000
    outer loop
      vertex -2.346149 1.704577 0.000000
      vertex -1.704577 2.346149 0.000000
      vertex -2.346149 1.704577 12.000000
    endloop
  endfacet
  facet normal 0.453991 -0.891006 0.000000
    outer loop
      vertex -0.896149 2.758064 0.000000
      vertex -0.896149 2.758064 12.000000
      vertex -1.704577 2.346149 12.000000
    endloop
  endfacet
  facet normal 0.453991 -0.891006 0.000000
    outer loop
      vertex -1.704577 2.346149 0.000000
      vertex -0.896149 2.758064 0.000000
      vertex -1.704577 2.346149 12.000000
    endloop
  endfacet
  facet normal 0.156434 -0.987688 0.000000
    outer loop
      vertex 0.000000 2.900000 0.000000
      vertex 0.000000 2.900000 12.000000
      vertex -0.896149 2.758064 12.000000
    endloop
  endfacet
  facet normal 0.156434 -0.987688 0.000000
    outer loop
      vertex -0.896149 2.758064 0.000000
      vertex 0.000000 2.900000 0.000000
      vertex -0.896149 2.758064 12.000000
    endloop
  endfacet
  facet normal -0.156434 -0.987688 -0.000000
    outer loop
      vertex 0.896149 2.758064 0.000000
      vertex 0.896149 2.758064 12.000000
      vertex 0.000000 2.900000 12.000000
    endloop
  endfacet
  facet normal -0.156434 -0.987688 -0.000000
    outer loop
      vertex 0.000000 2.900000 0.000000
      vertex 0.896149 2.758064 0.000000
      vertex 0.000000 2.900000 12.000000
    endloop
  endfacet
  facet normal -0.453991 -0.891006 -0.000000
    outer loop
      vertex 1.010106 2.700000 0.000000
      vertex 1.010106 2.700000 12.000000
      vertex 0.896149 2.758064 12.000000
    endloop
  endfacet
  facet normal -0.453991 -0.891006 -0.000000
    outer loop
      vertex 0.896149 2.758064 0.000000
      vertex 1.010106 2.700000 0.000000
      vertex 0.896149 2.758064 12.000000
    endloop
  endfacet
  facet normal 0.000000 -1.000000 -0.000000
    outer loop
      vertex 14.000765 2.700000 7.375329
      vertex 21.000000 2.700000 12.000000
      vertex 1.010106 2.700000 12.000000
    endloop
  endfacet
  facet normal -0.000000 -1.000000 -0.000000
    outer loop
      vertex 5.525329 2.700000 7.616796
      vertex 21.000000 2.700000 0.000000
      vertex 1.010106 2.700000 12.000000
    endloop
  endfacet
  facet normal 0.000000 -1.000000 -0.000000
    outer loop
      vertex 1.010106 2.700000 0.000000
      vertex 3.300000 2.700000 6.000000
      vertex 1.010106 2.700000 12.000000
    endloop
  endfacet
  facet normal 0.000000 -1.000000 -0.000000
    outer loop
      vertex 3.300000 2.700000 6.000000
      vertex 3.383204 2.700000 6.525329
      vertex 1.010106 2.700000 12.000000
    endloop
  endfacet
  facet normal 0.000000 -1.000000 -0.000000
    outer loop
      vertex 3.383204 2.700000 6.525329
      vertex 3.624671 2.700000 6.999235
      vertex 1.010106 2.700000 12.000000
    endloop
  endfacet
  facet normal 0.000000 -1.000000 -0.000000
    outer loop
      vertex 3.624671 2.700000 6.999235
      vertex 4.000765 2.700000 7.375329
      vertex 1.010106 2.700000 12.000000
    endloop
  endfacet
  facet normal 0.000000 -1.000000 -0.000000
    outer loop
      vertex 4.000765 2.700000 7.375329
      vertex 4.474671 2.700000 7.616796
      vertex 1.010106 2.700000 12.000000
    endloop
  endfacet
  facet normal 0.000000 -1.000000 -0.000000
    outer loop
      vertex 4.474671 2.700000 7.616796
      vertex 5.000000 2.700000 7.700000
      vertex 1.010106 2.700000 12.000000
    endloop
  endfacet
  facet normal -0.000000 -1.000000 -0.000000
    outer loop
      vertex 5.000000 2.700000 7.700000
      vertex 5.525329 2.700000 7.616796
      vertex 1.010106 2.700000 12.000000
    endloop
  endfacet
  facet normal -0.000000 -1.000000 -0.000000
    outer loop
      vertex 5.999235 2.700000 7.375329
      vertex 21.000000 2.700000 0.000000
      vertex 5.525329 2.700000 7.616796
    endloop
  endfacet
  facet normal 0.000000 -1.000000 0.000000
    outer loop
      vertex 6.375329 2.700000 6.999235
      vertex 6.616796 2.700000 6.525329
      vertex 21.000000 2.700000 0.000000
    endloop
  endfacet
  facet normal 0.000000 -1.000000 0.000000
    outer loop
      vertex 6.616796 2.700000 6.525329
      vertex 6.700000 2.700000 6.000000
      vertex 21.000000 2.700000 0.000000
    endloop
  endfacet
  facet normal 0.000000 -1.000000 0.000000
    outer loop
      vertex 6.700000 2.700000 6.000000
      vertex 6.616796 2.700000 5.474671
      vertex 21.000000 2.700000 0.000000
    endloop
  endfacet
  facet normal 0.000000 -1.000000 0.000000
    outer loop
      vertex 6.616796 2.700000 5.474671
      vertex 6.375329 2.700000 5.000765
      vertex 21.000000 2.700000 0.000000
    endloop
  endfacet
  facet normal 0.000000 -1.000000 0.000000
    outer loop
      vertex 6.375329 2.700000 5.000765
      vertex 5.999235 2.700000 4.624671
      vertex 21.000000 2.700000 0.000000
    endloop
  endfacet
  facet normal 0.000000 -1.000000 0.000000
    outer loop
      vertex 14.474671 2.700000 7.616796
      vertex 15.000000 2.700000 7.700000
      vertex 21.000000 2.700000 12.000000
    endloop
  endfacet
  facet normal -0.000000 -1.000000 0.000000
    outer loop
      vertex 1.010106 2.700000 0.000000
      vertex 21.000000 2.700000 0.000000
      vertex 5.999235 2.700000 4.624671
    endloop
  endfacet
  facet normal 0.000000 -1.000000 0.000000
    outer loop
      vertex 1.010106 2.700000 0.000000
      vertex 5.999235 2.700000 4.624671
      vertex 5.525329 2.700000 4.383204
    endloop
  endfacet
  facet normal 0.000000 -1.000000 0.000000
    outer loop
      vertex 1.010106 2.700000 0.000000
      vertex 5.525329 2.700000 4.383204
      vertex 5.000000 2.700000 4.300000
    endloop
  endfacet
  facet normal 0.000000 -1.000000 0.000000
    outer loop
      vertex 1.010106 2.700000 0.000000
      vertex 5.000000 2.700000 4.300000
      vertex 4.474671 2.700000 4.383204
    endloop
  endfacet
  facet normal 0.000000 -1.000000 0.000000
    outer loop
      vertex 1.010106 2.700000 0.000000
      vertex 4.474671 2.700000 4.383204
      vertex 4.000765 2.700000 4.624671
    endloop
  endfacet
  facet normal 0.000000 -1.000000 0.000000
    outer loop
      vertex 1.010106 2.700000 0.000000
      vertex 4.000765 2.700000 4.624671
      vertex 3.624671 2.700000 5.000765
    endloop
  endfacet
  facet normal 0.000000 -1.000000 0.000000
    outer loop
      vertex 1.010106 2.700000 0.000000
      vertex 3.383204 2.700000 5.474671
      vertex 3.300000 2.700000 6.000000
    endloop
  endfacet
  facet normal 0.000000 -1.000000 0.000000
    outer loop
      vertex 1.010106 2.700000 0.000000
      vertex 3.624671 2.700000 5.000765
      vertex 3.383204 2.700000 5.474671
    endloop
  endfacet
  facet normal 0.000000 -1.000000 0.000000
    outer loop
      vertex 13.383204 2.700000 5.474671
      vertex 13.300000 2.700000 6.000000
      vertex 1.010106 2.700000 12.000000
    endloop
  endfacet
  facet normal 0.000000 -1.000000 -0.000000
    outer loop
      vertex 13.300000 2.700000 6.000000
      vertex 13.383204 2.700000 6.525329
      vertex 1.010106 2.700000 12.000000
    endloop
  endfacet
  facet normal 0.000000 -1.000000 0.000000
    outer loop
      vertex 16.616796 2.700000 6.525329
      vertex 16.700000 2.700000 6.000000
      vertex 21.000000 2.700000 0.000000
    endloop
  endfacet
  facet normal 0.000000 -1.000000 -0.000000
    outer loop
      vertex 13.383204 2.700000 6.525329
      vertex 13.624671 2.700000 6.999235
      vertex 1.010106 2.700000 12.000000
    endloop
  endfacet
  facet normal 0.000000 -1.000000 -0.000000
    outer loop
      vertex 13.624671 2.700000 6.999235
      vertex 14.000765 2.700000 7.375329
      vertex 1.010106 2.700000 12.000000
    endloop
  endfacet
  facet normal 0.000000 -1.000000 -0.000000
    outer loop
      vertex 14.474671 2.700000 7.616796
      vertex 21.000000 2.700000 12.000000
      vertex 14.000765 2.700000 7.375329
    endloop
  endfacet
  facet normal 0.000000 -1.000000 -0.000000
    outer loop
      vertex 15.999235 2.700000 7.375329
      vertex 21.000000 2.700000 12.000000
      vertex 15.525329 2.700000 7.616796
    endloop
  endfacet
  facet normal 0.000000 -1.000000 -0.000000
    outer loop
      vertex 16.375329 2.700000 6.999235
      vertex 21.000000 2.700000 12.000000
      vertex 15.999235 2.700000 7.375329
    endloop
  endfacet
  facet normal 0.000000 -1.000000 0.000000
    outer loop
      vertex 21.000000 2.700000 0.000000
      vertex 21.000000 2.700000 12.000000
      vertex 16.375329 2.700000 6.999235
    endloop
  endfacet
  facet normal 0.000000 -1.000000 0.000000
    outer loop
      vertex 16.700000 2.700000 6.000000
      vertex 16.616796 2.700000 5.474671
      vertex 21.000000 2.700000 0.000000
    endloop
  endfacet
  facet normal 0.000000 -1.000000 0.000000
    outer loop
      vertex 21.000000 2.700000 0.000000
      vertex 16.375329 2.700000 6.999235
      vertex 16.616796 2.700000 6.525329
    endloop
  endfacet
  facet normal 0.000000 -1.000000 0.000000
    outer loop
      vertex 15.525329 2.700000 4.383204
      vertex 15.000000 2.700000 4.300000
      vertex 21.000000 2.700000 0.000000
    endloop
  endfacet
  facet normal 0.000000 -1.000000 0.000000
    outer loop
      vertex 21.000000 2.700000 0.000000
      vertex 16.616796 2.700000 5.474671
      vertex 16.375329 2.700000 5.000765
    endloop
  endfacet
  facet normal 0.000000 -1.000000 0.000000
    outer loop
      vertex 21.000000 2.700000 0.000000
      vertex 16.375329 2.700000 5.000765
      vertex 15.999235 2.700000 4.624671
    endloop
  endfacet
  facet normal 0.000000 -1.000000 0.000000
    outer loop
      vertex 14.000765 2.700000 4.624671
      vertex 13.624671 2.700000 5.000765
      vertex 1.010106 2.700000 12.000000
    endloop
  endfacet
  facet normal 0.000000 -1.000000 0.000000
    outer loop
      vertex 21.000000 2.700000 0.000000
      vertex 15.999235 2.700000 4.624671
      vertex 15.525329 2.700000 4.383204
    endloop
  endfacet
  facet normal 0.000000 -1.000000 0.000000
    outer loop
      vertex 13.624671 2.700000 5.000765
      vertex 13.383204 2.700000 5.474671
      vertex 1.010106 2.700000 12.000000
    endloop
  endfacet
  facet normal 0.000000 -1.000000 0.000000
    outer loop
      vertex 21.000000 2.700000 0.000000
      vertex 15.000000 2.700000 4.300000
      vertex 14.474671 2.700000 4.383204
    endloop
  endfacet
  facet normal 0.000000 -1.000000 0.000000
    outer loop
      vertex 21.000000 2.700000 0.000000
      vertex 14.000765 2.700000 4.624671
      vertex 1.010106 2.700000 12.000000
    endloop
  endfacet
  facet normal 0.000000 -1.000000 0.000000
    outer loop
      vertex 21.000000 2.700000 0.000000
      vertex 14.474671 2.700000 4.383204
      vertex 14.000765 2.700000 4.624671
    endloop
  endfacet
  facet normal 0.000000 -1.000000 0.000000
    outer loop
      vertex 5.999235 2.700000 7.375329
      vertex 6.375329 2.700000 6.999235
      vertex 21.000000 2.700000 0.000000
    endloop
  endfacet
  facet normal -0.000000 -1.000000 0.000000
    outer loop
      vertex 15.000000 2.700000 7.700000
      vertex 15.525329 2.700000 7.616796
      vertex 21.000000 2.700000 12.000000
    endloop
  endfacet
  facet normal 1.000000 0.000000 -0.000000
    outer loop
      vertex 21.000000 2.700000 12.000000
      vertex 21.000000 2.700000 0.000000
      vertex 21.000000 6.000000 0.000000
    endloop
  endfacet
  facet normal 1.000000 0.000000 0.000000
    outer loop
      vertex 21.000000 6.000000 12.000000
      vertex 21.000000 2.700000 12.000000
      vertex 21.000000 6.000000 0.000000
    endloop
  endfacet
  facet normal 0.000000 1.000000 0.000000
    outer loop
      vertex 5.999235 6.000000 7.375329
      vertex 0.000000 6.000000 12.000000
      vertex 21.000000 6.000000 0.000000
    endloop
  endfacet
  facet normal 0.000000 1.000000 0.000000
    outer loop
      vertex 15.000000 6.000000 7.700000
      vertex 0.000000 6.000000 12.000000
      vertex 21.000000 6.000000 12.000000
    endloop
  endfacet
  facet normal 0.000000 1.000000 0.000000
    outer loop
      vertex 0.000000 6.000000 0.000000
      vertex 0.000000 6.000000 12.000000
      vertex 3.300000 6.000000 6.000000
    endloop
  endfacet
  facet normal 0.000000 1.000000 0.000000
    outer loop
      vertex 0.000000 6.000000 0.000000
      vertex 3.300000 6.000000 6.000000
      vertex 3.383204 6.000000 5.474671
    endloop
  endfacet
  facet normal 0.000000 1.000000 0.000000
    outer loop
      vertex 0.000000 6.000000 0.000000
      vertex 3.383204 6.000000 5.474671
      vertex 3.624671 6.000000 5.000765
    endloop
  endfacet
  facet normal 0.000000 1.000000 0.000000
    outer loop
      vertex 0.000000 6.000000 0.000000
      vertex 3.624671 6.000000 5.000765
      vertex 4.000765 6.000000 4.624671
    endloop
  endfacet
  facet normal 0.000000 1.000000 0.000000
    outer loop
      vertex 0.000000 6.000000 0.000000
      vertex 4.000765 6.000000 4.624671
      vertex 4.474671 6.000000 4.383204
    endloop
  endfacet
  facet normal 0.000000 1.000000 0.000000
    outer loop
      vertex 0.000000 6.000000 0.000000
      vertex 4.474671 6.000000 4.383204
      vertex 21.000000 6.000000 0.000000
    endloop
  endfacet
  facet normal 0.000000 1.000000 0.000000
    outer loop
      vertex 4.474671 6.000000 4.383204
      vertex 5.000000 6.000000 4.300000
      vertex 21.000000 6.000000 0.000000
    endloop
  endfacet
  facet normal 0.000000 1.000000 -0.000000
    outer loop
      vertex 5.999235 6.000000 4.624671
      vertex 21.000000 6.000000 0.000000
      vertex 5.525329 6.000000 4.383204
    endloop
  endfacet
  facet normal 0.000000 1.000000 -0.000000
    outer loop
      vertex 6.375329 6.000000 5.000765
      vertex 21.000000 6.000000 0.000000
      vertex 5.999235 6.000000 4.624671
    endloop
  endfacet
  facet normal -0.000000 1.000000 -0.000000
    outer loop
      vertex 15.000000 6.000000 4.300000
      vertex 21.000000 6.000000 0.000000
      vertex 14.474671 6.000000 4.383204
    endloop
  endfacet
  facet normal 0.000000 1.000000 0.000000
    outer loop
      vertex 5.525329 6.000000 7.616796
      vertex 0.000000 6.000000 12.000000
      vertex 5.999235 6.000000 7.375329
    endloop
  endfacet
  facet normal 0.000000 1.000000 0.000000
    outer loop
      vertex 6.375329 6.000000 5.000765
      vertex 6.616796 6.000000 5.474671
      vertex 21.000000 6.000000 0.000000
    endloop
  endfacet
  facet normal 0.000000 1.000000 0.000000
    outer loop
      vertex 4.000765 6.000000 7.375329
      vertex 0.000000 6.000000 12.000000
      vertex 4.474671 6.000000 7.616796
    endloop
  endfacet
  facet normal 0.000000 1.000000 0.000000
    outer loop
      vertex 6.616796 6.000000 5.474671
      vertex 6.700000 6.000000 6.000000
      vertex 21.000000 6.000000 0.000000
    endloop
  endfacet
  facet normal 0.000000 1.000000 0.000000
    outer loop
      vertex 4.474671 6.000000 7.616796
      vertex 0.000000 6.000000 12.000000
      vertex 5.000000 6.000000 7.700000
    endloop
  endfacet
  facet normal 0.000000 1.000000 0.000000
    outer loop
      vertex 6.700000 6.000000 6.000000
      vertex 6.616796 6.000000 6.525329
      vertex 21.000000 6.000000 0.000000
    endloop
  endfacet
  facet normal 0.000000 1.000000 0.000000
    outer loop
      vertex 5.000000 6.000000 7.700000
      vertex 0.000000 6.000000 12.000000
      vertex 5.525329 6.000000 7.616796
    endloop
  endfacet
  facet normal 0.000000 1.000000 0.000000
    outer loop
      vertex 6.616796 6.000000 6.525329
      vertex 6.375329 6.000000 6.999235
      vertex 21.000000 6.000000 0.000000
    endloop
  endfacet
  facet normal 0.000000 1.000000 0.000000
    outer loop
      vertex 6.375329 6.000000 6.999235
      vertex 5.999235 6.000000 7.375329
      vertex 21.000000 6.000000 0.000000
    endloop
  endfacet
  facet normal 0.000000 1.000000 0.000000
    outer loop
      vertex 3.624671 6.000000 6.999235
      vertex 0.000000 6.000000 12.000000
      vertex 4.000765 6.000000 7.375329
    endloop
  endfacet
  facet normal 0.000000 1.000000 0.000000
    outer loop
      vertex 3.383204 6.000000 6.525329
      vertex 0.000000 6.000000 12.000000
      vertex 3.624671 6.000000 6.999235
    endloop
  endfacet
  facet normal 0.000000 1.000000 0.000000
    outer loop
      vertex 3.300000 6.000000 6.000000
      vertex 0.000000 6.000000 12.000000
      vertex 3.383204 6.000000 6.525329
    endloop
  endfacet
  facet normal 0.000000 1.000000 0.000000
    outer loop
      vertex 13.383204 6.000000 5.474671
      vertex 0.000000 6.000000 12.000000
      vertex 13.300000 6.000000 6.000000
    endloop
  endfacet
  facet normal 0.000000 1.000000 0.000000
    outer loop
      vertex 13.624671 6.000000 5.000765
      vertex 0.000000 6.000000 12.000000
      vertex 13.383204 6.000000 5.474671
    endloop
  endfacet
  facet normal 0.000000 1.000000 0.000000
    outer loop
      vertex 14.000765 6.000000 4.624671
      vertex 0.000000 6.000000 12.000000
      vertex 13.624671 6.000000 5.000765
    endloop
  endfacet
  facet normal 0.000000 1.000000 0.000000
    outer loop
      vertex 21.000000 6.000000 0.000000
      vertex 0.000000 6.000000 12.000000
      vertex 14.000765 6.000000 4.624671
    endloop
  endfacet
  facet normal 0.000000 1.000000 0.000000
    outer loop
      vertex 21.000000 6.000000 0.000000
      vertex 14.000765 6.000000 4.624671
      vertex 14.474671 6.000000 4.383204
    endloop
  endfacet
  facet normal 0.000000 1.000000 -0.000000
    outer loop
      vertex 15.525329 6.000000 4.383204
      vertex 21.000000 6.000000 0.000000
      vertex 15.000000 6.000000 4.300000
    endloop
  endfacet
  facet normal 0.000000 1.000000 -0.000000
    outer loop
      vertex 16.700000 6.000000 6.000000
      vertex 21.000000 6.000000 12.000000
      vertex 16.616796 6.000000 5.474671
    endloop
  endfacet
  facet normal 0.000000 1.000000 0.000000
    outer loop
      vertex 21.000000 6.000000 0.000000
      vertex 15.525329 6.000000 4.383204
      vertex 15.999235 6.000000 4.624671
    endloop
  endfacet
  facet normal 0.000000 1.000000 0.000000
    outer loop
      vertex 21.000000 6.000000 0.000000
      vertex 15.999235 6.000000 4.624671
      vertex 16.375329 6.000000 5.000765
    endloop
  endfacet
  facet normal 0.000000 1.000000 0.000000
    outer loop
      vertex 21.000000 6.000000 0.000000
      vertex 16.375329 6.000000 5.000765
      vertex 21.000000 6.000000 12.000000
    endloop
  endfacet
  facet normal 0.000000 1.000000 0.000000
    outer loop
      vertex 16.375329 6.000000 5.000765
      vertex 16.616796 6.000000 5.474671
      vertex 21.000000 6.000000 12.000000
    endloop
  endfacet
  facet normal 0.000000 1.000000 0.000000
    outer loop
      vertex 16.616796 6.000000 6.525329
      vertex 21.000000 6.000000 12.000000
      vertex 16.700000 6.000000 6.000000
    endloop
  endfacet
  facet normal 0.000000 1.000000 0.000000
    outer loop
      vertex 15.000000 6.000000 7.700000
      vertex 21.000000 6.000000 12.000000
      vertex 15.525329 6.000000 7.616796
    endloop
  endfacet
  facet normal 0.000000 1.000000 0.000000
    outer loop
      vertex 16.616796 6.000000 6.525329
      vertex 16.375329 6.000000 6.999235
      vertex 21.000000 6.000000 12.000000
    endloop
  endfacet
  facet normal 0.000000 1.000000 0.000000
    outer loop
      vertex 16.375329 6.000000 6.999235
      vertex 15.999235 6.000000 7.375329
      vertex 21.000000 6.000000 12.000000
    endloop
  endfacet
  facet normal 0.000000 1.000000 0.000000
    outer loop
      vertex 15.999235 6.000000 7.375329
      vertex 15.525329 6.000000 7.616796
      vertex 21.000000 6.000000 12.000000
    endloop
  endfacet
  facet normal 0.000000 1.000000 0.000000
    outer loop
      vertex 14.474671 6.000000 7.616796
      vertex 0.000000 6.000000 12.000000
      vertex 15.000000 6.000000 7.700000
    endloop
  endfacet
  facet normal 0.000000 1.000000 0.000000
    outer loop
      vertex 14.000765 6.000000 7.375329
      vertex 0.000000 6.000000 12.000000
      vertex 14.474671 6.000000 7.616796
    endloop
  endfacet
  facet normal 0.000000 1.000000 0.000000
    outer loop
      vertex 13.624671 6.000000 6.999235
      vertex 0.000000 6.000000 12.000000
      vertex 14.000765 6.000000 7.375329
    endloop
  endfacet
  facet normal 0.000000 1.000000 0.000000
    outer loop
      vertex 13.383204 6.000000 6.525329
      vertex 0.000000 6.000000 12.000000
      vertex 13.624671 6.000000 6.999235
    endloop
  endfacet
  facet normal 0.000000 1.000000 0.000000
    outer loop
      vertex 13.300000 6.000000 6.000000
      vertex 0.000000 6.000000 12.000000
      vertex 13.383204 6.000000 6.525329
    endloop
  endfacet
  facet normal 0.000000 1.000000 -0.000000
    outer loop
      vertex 5.525329 6.000000 4.383204
      vertex 21.000000 6.000000 0.000000
      vertex 5.000000 6.000000 4.300000
    endloop
  endfacet
  facet normal -1.000000 -0.000000 -0.000000
    outer loop
      vertex 0.000000 5.967131 0.000000
      vertex 0.000000 5.967131 12.000000
      vertex 0.000000 6.000000 0.000000
    endloop
  endfacet
  facet normal -1.000000 0.000000 0.000000
    outer loop
      vertex 0.000000 6.000000 0.000000
      vertex 0.000000 5.967131 12.000000
      vertex 0.000000 6.000000 12.000000
    endloop
  endfacet
  facet normal 0.000000 1.000000 0.000000
    outer loop
      vertex -0.627171 5.967131 0.000000
      vertex -0.627171 5.967131 12.000000
      vertex 0.000000 5.967131 0.000000
    endloop
  endfacet
  facet normal 0.000000 1.000000 0.000000
    outer loop
      vertex 0.000000 5.967131 0.000000
      vertex -0.627171 5.967131 12.000000
      vertex 0.000000 5.967131 12.000000
    endloop
  endfacet
  facet normal -0.207912 0.978148 0.000000
    outer loop
      vertex -1.854102 5.706339 0.000000
      vertex -1.854102 5.706339 12.000000
      vertex -0.627171 5.967131 0.000000
    endloop
  endfacet
  facet normal -0.207912 0.978148 0.000000
    outer loop
      vertex -0.627171 5.967131 0.000000
      vertex -1.854102 5.706339 12.000000
      vertex -0.627171 5.967131 12.000000
    endloop
  endfacet
  facet normal -0.406737 0.913545 0.000000
    outer loop
      vertex -3.000000 5.196152 0.000000
      vertex -3.000000 5.196152 12.000000
      vertex -1.854102 5.706339 0.000000
    endloop
  endfacet
  facet normal -0.406737 0.913545 0.000000
    outer loop
      vertex -1.854102 5.706339 0.000000
      vertex -3.000000 5.196152 12.000000
      vertex -1.854102 5.706339 12.000000
    endloop
  endfacet
  facet normal -0.587785 0.809017 0.000000
    outer loop
      vertex -4.014784 4.458869 0.000000
      vertex -4.014784 4.458869 12.000000
      vertex -3.000000 5.196152 0.000000
    endloop
  endfacet
  facet normal -0.587785 0.809017 0.000000
    outer loop
      vertex -3.000000 5.196152 0.000000
      vertex -4.014784 4.458869 12.000000
      vertex -3.000000 5.196152 12.000000
    endloop
  endfacet
  facet normal -0.743145 0.669131 0.000000
    outer loop
      vertex -4.854102 3.526712 0.000000
      vertex -4.854102 3.526712 12.000000
      vertex -4.014784 4.458869 0.000000
    endloop
  endfacet
  facet normal -0.743145 0.669131 0.000000
    outer loop
      vertex -4.014784 4.458869 0.000000
      vertex -4.854102 3.526712 12.000000
      vertex -4.014784 4.458869 12.000000
    endloop
  endfacet
  facet normal -0.866025 0.500000 0.000000
    outer loop
      vertex -5.481273 2.440420 0.000000
      vertex -5.481273 2.440420 12.000000
      vertex -4.854102 3.526712 0.000000
    endloop
  endfacet
  facet normal -0.866025 0.500000 0.000000
    outer loop
      vertex -4.854102 3.526712 0.000000
      vertex -5.481273 2.440420 12.000000
      vertex -4.854102 3.526712 12.000000
    endloop
  endfacet
  facet normal -0.951057 0.309017 0.000000
    outer loop
      vertex -5.868886 1.247470 0.000000
      vertex -5.868886 1.247470 12.000000
      vertex -5.481273 2.440420 0.000000
    endloop
  endfacet
  facet normal -0.951057 0.309017 0.000000
    outer loop
      vertex -5.481273 2.440420 0.000000
      vertex -5.868886 1.247470 12.000000
      vertex -5.481273 2.440420 12.000000
    endloop
  endfacet
  facet normal 0.000000 0.000000 1.000000
    outer loop
      vertex -5.868886 1.247470 12.000000
      vertex -6.000000 0.000000 12.000000
      vertex -5.868886 -1.247470 12.000000
    endloop
  endfacet
  facet normal 0.000000 0.000000 1.000000
    outer loop
      vertex -4.854102 -3.526712 12.000000
      vertex -5.868886 1.247470 12.000000
      vertex -5.481273 -2.440420 12.000000
    endloop
  endfacet
  facet normal 0.000000 0.000000 1.000000
    outer loop
      vertex -5.481273 -2.440420 12.000000
      vertex -5.868886 1.247470 12.000000
      vertex -5.868886 -1.247470 12.000000
    endloop
  endfacet
  facet normal 0.000000 0.000000 1.000000
    outer loop
      vertex -4.014784 -4.458869 12.000000
      vertex -5.868886 1.247470 12.000000
      vertex -4.854102 -3.526712 12.000000
    endloop
  endfacet
  facet normal 0.000000 0.000000 1.000000
    outer loop
      vertex -3.000000 -5.196152 12.000000
      vertex -5.868886 1.247470 12.000000
      vertex -4.014784 -4.458869 12.000000
    endloop
  endfacet
  facet normal 0.000000 0.000000 1.000000
    outer loop
      vertex -1.854102 -5.706339 12.000000
      vertex -5.868886 1.247470 12.000000
      vertex -3.000000 -5.196152 12.000000
    endloop
  endfacet
  facet normal 0.000000 0.000000 1.000000
    outer loop
      vertex -0.627171 -5.967131 12.000000
      vertex -5.868886 1.247470 12.000000
      vertex -1.854102 -5.706339 12.000000
    endloop
  endfacet
  facet normal -0.000000 0.000000 1.000000
    outer loop
      vertex 0.000000 -5.967131 12.000000
      vertex -5.868886 1.247470 12.000000
      vertex -0.627171 -5.967131 12.000000
    endloop
  endfacet
  facet normal -0.000000 -0.000000 1.000000
    outer loop
      vertex -1.704577 -2.346149 12.000000
      vertex -5.868886 1.247470 12.000000
      vertex 0.000000 -5.967131 12.000000
    endloop
  endfacet
  facet normal -0.000000 0.000000 1.000000
    outer loop
      vertex 21.000000 -6.000000 12.000000
      vertex 0.000000 -5.967131 12.000000
      vertex 0.000000 -6.000000 12.000000
    endloop
  endfacet
  facet normal 0.000000 0.000000 1.000000
    outer loop
      vertex -2.346149 -1.704577 12.000000
      vertex -2.758064 -0.896149 12.000000
      vertex -5.868886 1.247470 12.000000
    endloop
  endfacet
  facet normal 0.000000 0.000000 1.000000
    outer loop
      vertex 21.000000 -6.000000 12.000000
      vertex 1.010106 -2.700000 12.000000
      vertex 0.000000 -5.967131 12.000000
    endloop
  endfacet
  facet normal 0.000000 0.000000 1.000000
    outer loop
      vertex 1.010106 -2.700000 12.000000
      vertex 0.896149 -2.758064 12.000000
      vertex 0.000000 -5.967131 12.000000
    endloop
  endfacet
  facet normal 0.000000 0.000000 1.000000
    outer loop
      vertex -2.900000 0.000000 12.000000
      vertex -2.758064 0.896149 12.000000
      vertex -5.868886 1.247470 12.000000
    endloop
  endfacet
  facet normal 0.000000 0.000000 1.000000
    outer loop
      vertex 0.896149 -2.758064 12.000000
      vertex 0.000000 -2.900000 12.000000
      vertex 0.000000 -5.967131 12.000000
    endloop
  endfacet
  facet normal -0.000000 0.000000 1.000000
    outer loop
      vertex 0.000000 -2.900000 12.000000
      vertex -0.896149 -2.758064 12.000000
      vertex 0.000000 -5.967131 12.000000
    endloop
  endfacet
  facet normal -0.000000 -0.000000 1.000000
    outer loop
      vertex -0.896149 -2.758064 12.000000
      vertex -1.704577 -2.346149 12.000000
      vertex 0.000000 -5.967131 12.000000
    endloop
  endfacet
  facet normal -0.000000 -0.000000 1.000000
    outer loop
      vertex -2.346149 -1.704577 12.000000
      vertex -5.868886 1.247470 12.000000
      vertex -1.704577 -2.346149 12.000000
    endloop
  endfacet
  facet normal 0.000000 0.000000 1.000000
    outer loop
      vertex -2.758064 -0.896149 12.000000
      vertex -2.900000 0.000000 12.000000
      vertex -5.868886 1.247470 12.000000
    endloop
  endfacet
  facet normal 0.000000 0.000000 1.000000
    outer loop
      vertex 0.000000 5.967131 12.000000
      vertex -0.627171 5.967131 12.000000
      vertex -5.868886 1.247470 12.000000
    endloop
  endfacet
  facet normal 0.000000 0.000000 1.000000
    outer loop
      vertex -2.346149 1.704577 12.000000
      vertex -5.868886 1.247470 12.000000
      vertex -2.758064 0.896149 12.000000
    endloop
  endfacet
  facet normal 0.000000 0.000000 1.000000
    outer loop
      vertex -1.704577 2.346149 12.000000
      vertex -5.868886 1.247470 12.000000
      vertex -2.346149 1.704577 12.000000
    endloop
  endfacet
  facet normal 0.000000 0.000000 1.000000
    outer loop
      vertex -0.896149 2.758064 12.000000
      vertex -5.868886 1.247470 12.000000
      vertex -1.704577 2.346149 12.000000
    endloop
  endfacet
  facet normal 0.000000 0.000000 1.000000
    outer loop
      vertex 0.000000 5.967131 12.000000
      vertex -0.896149 2.758064 12.000000
      vertex 0.000000 2.900000 12.000000
    endloop
  endfacet
  facet normal 0.000000 0.000000 1.000000
    outer loop
      vertex 21.000000 2.700000 12.000000
      vertex 0.000000 2.900000 12.000000
      vertex 0.896149 2.758064 12.000000
    endloop
  endfacet
  facet normal 0.000000 0.000000 1.000000
    outer loop
      vertex 0.000000 5.967131 12.000000
      vertex -5.868886 1.247470 12.000000
      vertex -0.896149 2.758064 12.000000
    endloop
  endfacet
  facet normal 0.000000 0.000000 1.000000
    outer loop
      vertex 21.000000 6.000000 12.000000
      vertex 0.000000 2.900000 12.000000
      vertex 21.000000 2.700000 12.000000
    endloop
  endfacet
  facet normal 0.000000 -0.000000 1.000000
    outer loop
      vertex 0.000000 5.967131 12.000000
      vertex 0.000000 2.900000 12.000000
      vertex 21.000000 6.000000 12.000000
    endloop
  endfacet
  facet normal 0.000000 -0.000000 1.000000
    outer loop
      vertex 0.000000 6.000000 12.000000
      vertex 0.000000 5.967131 12.000000
      vertex 21.000000 6.000000 12.000000
    endloop
  endfacet
  facet normal 0.000000 -0.000000 1.000000
    outer loop
      vertex -1.854102 5.706339 12.000000
      vertex -5.868886 1.247470 12.000000
      vertex -0.627171 5.967131 12.000000
    endloop
  endfacet
  facet normal 0.000000 -0.000000 1.000000
    outer loop
      vertex -3.000000 5.196152 12.000000
      vertex -5.868886 1.247470 12.000000
      vertex -1.854102 5.706339 12.000000
    endloop
  endfacet
  facet normal 0.000000 -0.000000 1.000000
    outer loop
      vertex -4.014784 4.458869 12.000000
      vertex -5.868886 1.247470 12.000000
      vertex -3.000000 5.196152 12.000000
    endloop
  endfacet
  facet normal 0.000000 -0.000000 1.000000
    outer loop
      vertex -4.854102 3.526712 12.000000
      vertex -5.868886 1.247470 12.000000
      vertex -4.014784 4.458869 12.000000
    endloop
  endfacet
  facet normal 0.000000 -0.000000 1.000000
    outer loop
      vertex -5.481273 2.440420 12.000000
      vertex -5.868886 1.247470 12.000000
      vertex -4.854102 3.526712 12.000000
    endloop
  endfacet
  facet normal 0.000000 0.000000 1.000000
    outer loop
      vertex 1.010106 2.700000 12.000000
      vertex 21.000000 2.700000 12.000000
      vertex 0.896149 2.758064 12.000000
    endloop
  endfacet
  facet normal 0.000000 0.000000 1.000000
    outer loop
      vertex 21.000000 -2.700000 12.000000
      vertex 1.010106 -2.700000 12.000000
      vertex 21.000000 -6.000000 12.000000
    endloop
  endfacet
  facet normal 0.987688 0.000000 0.156435
    outer loop
      vertex 3.383204 -6.000000 5.474671
      vertex 3.383204 -2.700000 5.474671
      vertex 3.300000 -2.700000 6.000000
    endloop
  endfacet
  facet normal 0.987688 0.000000 0.156435
    outer loop
      vertex 3.300000 -6.000000 6.000000
      vertex 3.383204 -6.000000 5.474671
      vertex 3.300000 -2.700000 6.000000
    endloop
  endfacet
  facet normal 0.891007 0.000000 0.453990
    outer loop
      vertex 3.624671 -6.000000 5.000765
      vertex 3.624671 -2.700000 5.000765
      vertex 3.383204 -2.700000 5.474671
    endloop
  endfacet
  facet normal 0.891007 0.000000 0.453990
    outer loop
      vertex 3.383204 -6.000000 5.474671
      vertex 3.624671 -6.000000 5.000765
      vertex 3.383204 -2.700000 5.474671
    endloop
  endfacet
  facet normal 0.707107 0.000000 0.707107
    outer loop
      vertex 4.000765 -6.000000 4.624671
      vertex 4.000765 -2.700000 4.624671
      vertex 3.624671 -2.700000 5.000765
    endloop
  endfacet
  facet normal 0.707107 0.000000 0.707107
    outer loop
      vertex 3.624671 -6.000000 5.000765
      vertex 4.000765 -6.000000 4.624671
      vertex 3.624671 -2.700000 5.000765
    endloop
  endfacet
  facet normal 0.453990 0.000000 0.891007
    outer loop
      vertex 4.474671 -6.000000 4.383204
      vertex 4.474671 -2.700000 4.383204
      vertex 4.000765 -2.700000 4.624671
    endloop
  endfacet
  facet normal 0.453990 0.000000 0.891007
    outer loop
      vertex 4.000765 -6.000000 4.624671
      vertex 4.474671 -6.000000 4.383204
      vertex 4.000765 -2.700000 4.624671
    endloop
  endfacet
  facet normal 0.156435 0.000000 0.987688
    outer loop
      vertex 5.000000 -6.000000 4.300000
      vertex 5.000000 -2.700000 4.300000
      vertex 4.474671 -2.700000 4.383204
    endloop
  endfacet
  facet normal 0.156435 0.000000 0.987688
    outer loop
      vertex 4.474671 -6.000000 4.383204
      vertex 5.000000 -6.000000 4.300000
      vertex 4.474671 -2.700000 4.383204
    endloop
  endfacet
  facet normal -0.156435 0.000000 0.987688
    outer loop
      vertex 5.525329 -6.000000 4.383204
      vertex 5.525329 -2.700000 4.383204
      vertex 5.000000 -2.700000 4.300000
    endloop
  endfacet
  facet normal -0.156435 0.000000 0.987688
    outer loop
      vertex 5.000000 -6.000000 4.300000
      vertex 5.525329 -6.000000 4.383204
      vertex 5.000000 -2.700000 4.300000
    endloop
  endfacet
  facet normal -0.453990 0.000000 0.891007
    outer loop
      vertex 5.999235 -6.000000 4.624671
      vertex 5.999235 -2.700000 4.624671
      vertex 5.525329 -2.700000 4.383204
    endloop
  endfacet
  facet normal -0.453990 0.000000 0.891007
    outer loop
      vertex 5.525329 -6.000000 4.383204
      vertex 5.999235 -6.000000 4.624671
      vertex 5.525329 -2.700000 4.383204
    endloop
  endfacet
  facet normal -0.707107 0.000000 0.707107
    outer loop
      vertex 6.375329 -2.700000 5.000765
      vertex 5.999235 -2.700000 4.624671
      vertex 6.375329 -6.000000 5.000765
    endloop
  endfacet
  facet normal -0.707107 0.000000 0.707107
    outer loop
      vertex 6.375329 -6.000000 5.000765
      vertex 5.999235 -2.700000 4.624671
      vertex 5.999235 -6.000000 4.624671
    endloop
  endfacet
  facet normal -0.891007 0.000000 0.453990
    outer loop
      vertex 6.616796 -2.700000 5.474671
      vertex 6.375329 -2.700000 5.000765
      vertex 6.616796 -6.000000 5.474671
    endloop
  endfacet
  facet normal -0.891007 0.000000 0.453990
    outer loop
      vertex 6.616796 -6.000000 5.474671
      vertex 6.375329 -2.700000 5.000765
      vertex 6.375329 -6.000000 5.000765
    endloop
  endfacet
  facet normal -0.987688 0.000000 0.156435
    outer loop
      vertex 6.700000 -2.700000 6.000000
      vertex 6.616796 -2.700000 5.474671
      vertex 6.700000 -6.000000 6.000000
    endloop
  endfacet
  facet normal -0.987688 0.000000 0.156435
    outer loop
      vertex 6.700000 -6.000000 6.000000
      vertex 6.616796 -2.700000 5.474671
      vertex 6.616796 -6.000000 5.474671
    endloop
  endfacet
  facet normal -0.987688 0.000000 -0.156435
    outer loop
      vertex 6.700000 -2.700000 6.000000
      vertex 6.700000 -6.000000 6.000000
      vertex 6.616796 -2.700000 6.525329
    endloop
  endfacet
  facet normal -0.987688 -0.000000 -0.156435
    outer loop
      vertex 6.616796 -2.700000 6.525329
      vertex 6.700000 -6.000000 6.000000
      vertex 6.616796 -6.000000 6.525329
    endloop
  endfacet
  facet normal -0.891007 -0.000000 -0.453990
    outer loop
      vertex 6.616796 -2.700000 6.525329
      vertex 6.616796 -6.000000 6.525329
      vertex 6.375329 -2.700000 6.999235
    endloop
  endfacet
  facet normal -0.891007 0.000000 -0.453990
    outer loop
      vertex 6.375329 -2.700000 6.999235
      vertex 6.616796 -6.000000 6.525329
      vertex 6.375329 -6.000000 6.999235
    endloop
  endfacet
  facet normal -0.707107 0.000000 -0.707107
    outer loop
      vertex 6.375329 -2.700000 6.999235
      vertex 6.375329 -6.000000 6.999235
      vertex 5.999235 -2.700000 7.375329
    endloop
  endfacet
  facet normal -0.707107 0.000000 -0.707107
    outer loop
      vertex 5.999235 -2.700000 7.375329
      vertex 6.375329 -6.000000 6.999235
      vertex 5.999235 -6.000000 7.375329
    endloop
  endfacet
  facet normal -0.453990 0.000000 -0.891007
    outer loop
      vertex 5.999235 -2.700000 7.375329
      vertex 5.999235 -6.000000 7.375329
      vertex 5.525329 -2.700000 7.616796
    endloop
  endfacet
  facet normal -0.453990 0.000000 -0.891007
    outer loop
      vertex 5.525329 -2.700000 7.616796
      vertex 5.999235 -6.000000 7.375329
      vertex 5.525329 -6.000000 7.616796
    endloop
  endfacet
  facet normal -0.156435 0.000000 -0.987688
    outer loop
      vertex 5.525329 -2.700000 7.616796
      vertex 5.525329 -6.000000 7.616796
      vertex 5.000000 -2.700000 7.700000
    endloop
  endfacet
  facet normal -0.156435 -0.000000 -0.987688
    outer loop
      vertex 5.000000 -2.700000 7.700000
      vertex 5.525329 -6.000000 7.616796
      vertex 5.000000 -6.000000 7.700000
    endloop
  endfacet
  facet normal 0.156435 -0.000000 -0.987688
    outer loop
      vertex 5.000000 -2.700000 7.700000
      vertex 5.000000 -6.000000 7.700000
      vertex 4.474671 -2.700000 7.616796
    endloop
  endfacet
  facet normal 0.156435 0.000000 -0.987688
    outer loop
      vertex 4.474671 -2.700000 7.616796
      vertex 5.000000 -6.000000 7.700000
      vertex 4.474671 -6.000000 7.616796
    endloop
  endfacet
  facet normal 0.453990 0.000000 -0.891007
    outer loop
      vertex 4.474671 -2.700000 7.616796
      vertex 4.474671 -6.000000 7.616796
      vertex 4.000765 -2.700000 7.375329
    endloop
  endfacet
  facet normal 0.453990 0.000000 -0.891007
    outer loop
      vertex 4.000765 -2.700000 7.375329
      vertex 4.474671 -6.000000 7.616796
      vertex 4.000765 -6.000000 7.375329
    endloop
  endfacet
  facet normal 0.707107 0.000000 -0.707107
    outer loop
      vertex 3.624671 -2.700000 6.999235
      vertex 4.000765 -2.700000 7.375329
      vertex 4.000765 -6.000000 7.375329
    endloop
  endfacet
  facet normal 0.707107 0.000000 -0.707107
    outer loop
      vertex 3.624671 -6.000000 6.999235
      vertex 3.624671 -2.700000 6.999235
      vertex 4.000765 -6.000000 7.375329
    endloop
  endfacet
  facet normal 0.891007 0.000000 -0.453990
    outer loop
      vertex 3.383204 -2.700000 6.525329
      vertex 3.624671 -2.700000 6.999235
      vertex 3.624671 -6.000000 6.999235
    endloop
  endfacet
  facet normal 0.891007 -0.000000 -0.453990
    outer loop
      vertex 3.383204 -6.000000 6.525329
      vertex 3.383204 -2.700000 6.525329
      vertex 3.624671 -6.000000 6.999235
    endloop
  endfacet
  facet normal 0.987688 -0.000000 -0.156435
    outer loop
      vertex 3.300000 -2.700000 6.000000
      vertex 3.383204 -2.700000 6.525329
      vertex 3.383204 -6.000000 6.525329
    endloop
  endfacet
  facet normal 0.987688 0.000000 -0.156435
    outer loop
      vertex 3.300000 -6.000000 6.000000
      vertex 3.300000 -2.700000 6.000000
      vertex 3.383204 -6.000000 6.525329
    endloop
  endfacet
  facet normal 0.891007 0.000000 0.453990
    outer loop
      vertex 13.624671 -6.000000 5.000765
      vertex 13.624671 -2.700000 5.000765
      vertex 13.383204 -2.700000 5.474671
    endloop
  endfacet
  facet normal 0.891007 0.000000 0.453990
    outer loop
      vertex 13.383204 -6.000000 5.474671
      vertex 13.624671 -6.000000 5.000765
      vertex 13.383204 -2.700000 5.474671
    endloop
  endfacet
  facet normal 0.987688 0.000000 0.156435
    outer loop
      vertex 13.383204 -6.000000 5.474671
      vertex 13.383204 -2.700000 5.474671
      vertex 13.300000 -2.700000 6.000000
    endloop
  endfacet
  facet normal 0.987688 0.000000 0.156435
    outer loop
      vertex 13.300000 -6.000000 6.000000
      vertex 13.383204 -6.000000 5.474671
      vertex 13.300000 -2.700000 6.000000
    endloop
  endfacet
  facet normal 0.707107 0.000000 0.707107
    outer loop
      vertex 14.000765 -6.000000 4.624671
      vertex 14.000765 -2.700000 4.624671
      vertex 13.624671 -2.700000 5.000765
    endloop
  endfacet
  facet normal 0.707107 0.000000 0.707107
    outer loop
      vertex 13.624671 -6.000000 5.000765
      vertex 14.000765 -6.000000 4.624671
      vertex 13.624671 -2.700000 5.000765
    endloop
  endfacet
  facet normal 0.453990 0.000000 0.891007
    outer loop
      vertex 14.474671 -6.000000 4.383204
      vertex 14.474671 -2.700000 4.383204
      vertex 14.000765 -2.700000 4.624671
    endloop
  endfacet
  facet normal 0.453990 0.000000 0.891007
    outer loop
      vertex 14.000765 -6.000000 4.624671
      vertex 14.474671 -6.000000 4.383204
      vertex 14.000765 -2.700000 4.624671
    endloop
  endfacet
  facet normal 0.156435 0.000000 0.987688
    outer loop
      vertex 15.000000 -6.000000 4.300000
      vertex 15.000000 -2.700000 4.300000
      vertex 14.474671 -2.700000 4.383204
    endloop
  endfacet
  facet normal 0.156435 0.000000 0.987688
    outer loop
      vertex 14.474671 -6.000000 4.383204
      vertex 15.000000 -6.000000 4.300000
      vertex 14.474671 -2.700000 4.383204
    endloop
  endfacet
  facet normal -0.156435 0.000000 0.987688
    outer loop
      vertex 15.525329 -6.000000 4.383204
      vertex 15.525329 -2.700000 4.383204
      vertex 15.000000 -2.700000 4.300000
    endloop
  endfacet
  facet normal -0.156435 0.000000 0.987688
    outer loop
      vertex 15.000000 -6.000000 4.300000
      vertex 15.525329 -6.000000 4.383204
      vertex 15.000000 -2.700000 4.300000
    endloop
  endfacet
  facet normal -0.453990 0.000000 0.891007
    outer loop
      vertex 15.999235 -6.000000 4.624671
      vertex 15.999235 -2.700000 4.624671
      vertex 15.525329 -2.700000 4.383204
    endloop
  endfacet
  facet normal -0.453990 0.000000 0.891007
    outer loop
      vertex 15.525329 -6.000000 4.383204
      vertex 15.999235 -6.000000 4.624671
      vertex 15.525329 -2.700000 4.383204
    endloop
  endfacet
  facet normal -0.707107 0.000000 0.707107
    outer loop
      vertex 16.375329 -2.700000 5.000765
      vertex 15.999235 -2.700000 4.624671
      vertex 16.375329 -6.000000 5.000765
    endloop
  endfacet
  facet normal -0.707107 0.000000 0.707107
    outer loop
      vertex 16.375329 -6.000000 5.000765
      vertex 15.999235 -2.700000 4.624671
      vertex 15.999235 -6.000000 4.624671
    endloop
  endfacet
  facet normal -0.891007 0.000000 0.453990
    outer loop
      vertex 16.616796 -2.700000 5.474671
      vertex 16.375329 -2.700000 5.000765
      vertex 16.616796 -6.000000 5.474671
    endloop
  endfacet
  facet normal -0.891007 0.000000 0.453990
    outer loop
      vertex 16.616796 -6.000000 5.474671
      vertex 16.375329 -2.700000 5.000765
      vertex 16.375329 -6.000000 5.000765
    endloop
  endfacet
  facet normal -0.987688 0.000000 0.156435
    outer loop
      vertex 16.700000 -2.700000 6.000000
      vertex 16.616796 -2.700000 5.474671
      vertex 16.700000 -6.000000 6.000000
    endloop
  endfacet
  facet normal -0.987688 0.000000 0.156435
    outer loop
      vertex 16.700000 -6.000000 6.000000
      vertex 16.616796 -2.700000 5.474671
      vertex 16.616796 -6.000000 5.474671
    endloop
  endfacet
  facet normal -0.987688 0.000000 -0.156435
    outer loop
      vertex 16.700000 -2.700000 6.000000
      vertex 16.700000 -6.000000 6.000000
      vertex 16.616796 -2.700000 6.525329
    endloop
  endfacet
  facet normal -0.987688 -0.000000 -0.156435
    outer loop
      vertex 16.616796 -2.700000 6.525329
      vertex 16.700000 -6.000000 6.000000
      vertex 16.616796 -6.000000 6.525329
    endloop
  endfacet
  facet normal -0.891007 -0.000000 -0.453990
    outer loop
      vertex 16.616796 -2.700000 6.525329
      vertex 16.616796 -6.000000 6.525329
      vertex 16.375329 -2.700000 6.999235
    endloop
  endfacet
  facet normal -0.891007 0.000000 -0.453990
    outer loop
      vertex 16.375329 -2.700000 6.999235
      vertex 16.616796 -6.000000 6.525329
      vertex 16.375329 -6.000000 6.999235
    endloop
  endfacet
  facet normal -0.707107 0.000000 -0.707107
    outer loop
      vertex 16.375329 -2.700000 6.999235
      vertex 16.375329 -6.000000 6.999235
      vertex 15.999235 -2.700000 7.375329
    endloop
  endfacet
  facet normal -0.707107 0.000000 -0.707107
    outer loop
      vertex 15.999235 -2.700000 7.375329
      vertex 16.375329 -6.000000 6.999235
      vertex 15.999235 -6.000000 7.375329
    endloop
  endfacet
  facet normal -0.453990 0.000000 -0.891007
    outer loop
      vertex 15.999235 -2.700000 7.375329
      vertex 15.999235 -6.000000 7.375329
      vertex 15.525329 -2.700000 7.616796
    endloop
  endfacet
  facet normal -0.453990 0.000000 -0.891007
    outer loop
      vertex 15.525329 -2.700000 7.616796
      vertex 15.999235 -6.000000 7.375329
      vertex 15.525329 -6.000000 7.616796
    endloop
  endfacet
  facet normal -0.156435 0.000000 -0.987688
    outer loop
      vertex 15.525329 -2.700000 7.616796
      vertex 15.525329 -6.000000 7.616796
      vertex 15.000000 -2.700000 7.700000
    endloop
  endfacet
  facet normal -0.156435 -0.000000 -0.987688
    outer loop
      vertex 15.000000 -2.700000 7.700000
      vertex 15.525329 -6.000000 7.616796
      vertex 15.000000 -6.000000 7.700000
    endloop
  endfacet
  facet normal 0.156435 -0.000000 -0.987688
    outer loop
      vertex 15.000000 -2.700000 7.700000
      vertex 15.000000 -6.000000 7.700000
      vertex 14.474671 -2.700000 7.616796
    endloop
  endfacet
  facet normal 0.156435 0.000000 -0.987688
    outer loop
      vertex 14.474671 -2.700000 7.616796
      vertex 15.000000 -6.000000 7.700000
      vertex 14.474671 -6.000000 7.616796
    endloop
  endfacet
  facet normal 0.453990 0.000000 -0.891007
    outer loop
      vertex 14.474671 -2.700000 7.616796
      vertex 14.474671 -6.000000 7.616796
      vertex 14.000765 -2.700000 7.375329
    endloop
  endfacet
  facet normal 0.453990 0.000000 -0.891007
    outer loop
      vertex 14.000765 -2.700000 7.375329
      vertex 14.474671 -6.000000 7.616796
      vertex 14.000765 -6.000000 7.375329
    endloop
  endfacet
  facet normal 0.707107 0.000000 -0.707107
    outer loop
      vertex 13.624671 -2.700000 6.999235
      vertex 14.000765 -2.700000 7.375329
      vertex 14.000765 -6.000000 7.375329
    endloop
  endfacet
  facet normal 0.707107 0.000000 -0.707107
    outer loop
      vertex 13.624671 -6.000000 6.999235
      vertex 13.624671 -2.700000 6.999235
      vertex 14.000765 -6.000000 7.375329
    endloop
  endfacet
  facet normal 0.891007 0.000000 -0.453990
    outer loop
      vertex 13.383204 -2.700000 6.525329
      vertex 13.624671 -2.700000 6.999235
      vertex 13.624671 -6.000000 6.999235
    endloop
  endfacet
  facet normal 0.891007 -0.000000 -0.453990
    outer loop
      vertex 13.383204 -6.000000 6.525329
      vertex 13.383204 -2.700000 6.525329
      vertex 13.624671 -6.000000 6.999235
    endloop
  endfacet
  facet normal 0.987688 -0.000000 -0.156435
    outer loop
      vertex 13.300000 -2.700000 6.000000
      vertex 13.383204 -2.700000 6.525329
      vertex 13.383204 -6.000000 6.525329
    endloop
  endfacet
  facet normal 0.987688 0.000000 -0.156435
    outer loop
      vertex 13.300000 -6.000000 6.000000
      vertex 13.300000 -2.700000 6.000000
      vertex 13.383204 -6.000000 6.525329
    endloop
  endfacet
  facet normal 0.987688 0.000000 -0.156435
    outer loop
      vertex 3.300000 6.000000 6.000000
      vertex 3.383204 6.000000 6.525329
      vertex 3.383204 2.700000 6.525329
    endloop
  endfacet
  facet normal 0.987688 0.000000 -0.156435
    outer loop
      vertex 3.300000 2.700000 6.000000
      vertex 3.300000 6.000000 6.000000
      vertex 3.383204 2.700000 6.525329
    endloop
  endfacet
  facet normal 0.987688 0.000000 0.156435
    outer loop
      vertex 3.383204 2.700000 5.474671
      vertex 3.383204 6.000000 5.474671
      vertex 3.300000 6.000000 6.000000
    endloop
  endfacet
  facet normal 0.987688 0.000000 0.156435
    outer loop
      vertex 3.300000 2.700000 6.000000
      vertex 3.383204 2.700000 5.474671
      vertex 3.300000 6.000000 6.000000
    endloop
  endfacet
  facet normal 0.891007 0.000000 0.453990
    outer loop
      vertex 3.624671 2.700000 5.000765
      vertex 3.624671 6.000000 5.000765
      vertex 3.383204 6.000000 5.474671
    endloop
  endfacet
  facet normal 0.891007 0.000000 0.453990
    outer loop
      vertex 3.383204 2.700000 5.474671
      vertex 3.624671 2.700000 5.000765
      vertex 3.383204 6.000000 5.474671
    endloop
  endfacet
  facet normal 0.707107 0.000000 0.707107
    outer loop
      vertex 4.000765 2.700000 4.624671
      vertex 4.000765 6.000000 4.624671
      vertex 3.624671 6.000000 5.000765
    endloop
  endfacet
  facet normal 0.707107 0.000000 0.707107
    outer loop
      vertex 3.624671 2.700000 5.000765
      vertex 4.000765 2.700000 4.624671
      vertex 3.624671 6.000000 5.000765
    endloop
  endfacet
  facet normal 0.453990 0.000000 0.891007
    outer loop
      vertex 4.474671 2.700000 4.383204
      vertex 4.474671 6.000000 4.383204
      vertex 4.000765 6.000000 4.624671
    endloop
  endfacet
  facet normal 0.453990 0.000000 0.891007
    outer loop
      vertex 4.000765 2.700000 4.624671
      vertex 4.474671 2.700000 4.383204
      vertex 4.000765 6.000000 4.624671
    endloop
  endfacet
  facet normal 0.156435 0.000000 0.987688
    outer loop
      vertex 5.000000 2.700000 4.300000
      vertex 5.000000 6.000000 4.300000
      vertex 4.474671 6.000000 4.383204
    endloop
  endfacet
  facet normal 0.156435 0.000000 0.987688
    outer loop
      vertex 4.474671 2.700000 4.383204
      vertex 5.000000 2.700000 4.300000
      vertex 4.474671 6.000000 4.383204
    endloop
  endfacet
  facet normal -0.156435 0.000000 0.987688
    outer loop
      vertex 5.525329 2.700000 4.383204
      vertex 5.525329 6.000000 4.383204
      vertex 5.000000 6.000000 4.300000
    endloop
  endfacet
  facet normal -0.156435 0.000000 0.987688
    outer loop
      vertex 5.000000 2.700000 4.300000
      vertex 5.525329 2.700000 4.383204
      vertex 5.000000 6.000000 4.300000
    endloop
  endfacet
  facet normal -0.453990 0.000000 0.891007
    outer loop
      vertex 5.999235 2.700000 4.624671
      vertex 5.999235 6.000000 4.624671
      vertex 5.525329 6.000000 4.383204
    endloop
  endfacet
  facet normal -0.453990 0.000000 0.891007
    outer loop
      vertex 5.525329 2.700000 4.383204
      vertex 5.999235 2.700000 4.624671
      vertex 5.525329 6.000000 4.383204
    endloop
  endfacet
  facet normal -0.707107 0.000000 0.707107
    outer loop
      vertex 6.375329 6.000000 5.000765
      vertex 5.999235 6.000000 4.624671
      vertex 6.375329 2.700000 5.000765
    endloop
  endfacet
  facet normal -0.707107 0.000000 0.707107
    outer loop
      vertex 6.375329 2.700000 5.000765
      vertex 5.999235 6.000000 4.624671
      vertex 5.999235 2.700000 4.624671
    endloop
  endfacet
  facet normal -0.891007 0.000000 0.453990
    outer loop
      vertex 6.616796 6.000000 5.474671
      vertex 6.375329 6.000000 5.000765
      vertex 6.616796 2.700000 5.474671
    endloop
  endfacet
  facet normal -0.891007 0.000000 0.453990
    outer loop
      vertex 6.616796 2.700000 5.474671
      vertex 6.375329 6.000000 5.000765
      vertex 6.375329 2.700000 5.000765
    endloop
  endfacet
  facet normal -0.987688 0.000000 0.156435
    outer loop
      vertex 6.700000 6.000000 6.000000
      vertex 6.616796 6.000000 5.474671
      vertex 6.700000 2.700000 6.000000
    endloop
  endfacet
  facet normal -0.987688 0.000000 0.156435
    outer loop
      vertex 6.700000 2.700000 6.000000
      vertex 6.616796 6.000000 5.474671
      vertex 6.616796 2.700000 5.474671
    endloop
  endfacet
  facet normal -0.987688 0.000000 -0.156435
    outer loop
      vertex 6.700000 6.000000 6.000000
      vertex 6.700000 2.700000 6.000000
      vertex 6.616796 6.000000 6.525329
    endloop
  endfacet
  facet normal -0.987688 0.000000 -0.156435
    outer loop
      vertex 6.616796 6.000000 6.525329
      vertex 6.700000 2.700000 6.000000
      vertex 6.616796 2.700000 6.525329
    endloop
  endfacet
  facet normal -0.891007 0.000000 -0.453990
    outer loop
      vertex 6.616796 6.000000 6.525329
      vertex 6.616796 2.700000 6.525329
      vertex 6.375329 6.000000 6.999235
    endloop
  endfacet
  facet normal -0.891007 -0.000000 -0.453990
    outer loop
      vertex 6.375329 6.000000 6.999235
      vertex 6.616796 2.700000 6.525329
      vertex 6.375329 2.700000 6.999235
    endloop
  endfacet
  facet normal -0.707107 -0.000000 -0.707107
    outer loop
      vertex 6.375329 6.000000 6.999235
      vertex 6.375329 2.700000 6.999235
      vertex 5.999235 6.000000 7.375329
    endloop
  endfacet
  facet normal -0.707107 -0.000000 -0.707107
    outer loop
      vertex 5.999235 6.000000 7.375329
      vertex 6.375329 2.700000 6.999235
      vertex 5.999235 2.700000 7.375329
    endloop
  endfacet
  facet normal -0.453990 -0.000000 -0.891007
    outer loop
      vertex 5.999235 6.000000 7.375329
      vertex 5.999235 2.700000 7.375329
      vertex 5.525329 6.000000 7.616796
    endloop
  endfacet
  facet normal -0.453990 0.000000 -0.891007
    outer loop
      vertex 5.525329 6.000000 7.616796
      vertex 5.999235 2.700000 7.375329
      vertex 5.525329 2.700000 7.616796
    endloop
  endfacet
  facet normal -0.156435 0.000000 -0.987688
    outer loop
      vertex 5.525329 6.000000 7.616796
      vertex 5.525329 2.700000 7.616796
      vertex 5.000000 6.000000 7.700000
    endloop
  endfacet
  facet normal -0.156435 0.000000 -0.987688
    outer loop
      vertex 5.000000 6.000000 7.700000
      vertex 5.525329 2.700000 7.616796
      vertex 5.000000 2.700000 7.700000
    endloop
  endfacet
  facet normal 0.156435 0.000000 -0.987688
    outer loop
      vertex 5.000000 6.000000 7.700000
      vertex 5.000000 2.700000 7.700000
      vertex 4.474671 6.000000 7.616796
    endloop
  endfacet
  facet normal 0.156435 0.000000 -0.987688
    outer loop
      vertex 4.474671 6.000000 7.616796
      vertex 5.000000 2.700000 7.700000
      vertex 4.474671 2.700000 7.616796
    endloop
  endfacet
  facet normal 0.453990 0.000000 -0.891007
    outer loop
      vertex 4.474671 6.000000 7.616796
      vertex 4.474671 2.700000 7.616796
      vertex 4.000765 6.000000 7.375329
    endloop
  endfacet
  facet normal 0.453990 -0.000000 -0.891007
    outer loop
      vertex 4.000765 6.000000 7.375329
      vertex 4.474671 2.700000 7.616796
      vertex 4.000765 2.700000 7.375329
    endloop
  endfacet
  facet normal 0.707107 -0.000000 -0.707107
    outer loop
      vertex 3.624671 6.000000 6.999235
      vertex 4.000765 6.000000 7.375329
      vertex 4.000765 2.700000 7.375329
    endloop
  endfacet
  facet normal 0.707107 -0.000000 -0.707107
    outer loop
      vertex 3.624671 2.700000 6.999235
      vertex 3.624671 6.000000 6.999235
      vertex 4.000765 2.700000 7.375329
    endloop
  endfacet
  facet normal 0.891007 -0.000000 -0.453990
    outer loop
      vertex 3.383204 6.000000 6.525329
      vertex 3.624671 6.000000 6.999235
      vertex 3.624671 2.700000 6.999235
    endloop
  endfacet
  facet normal 0.891007 0.000000 -0.453990
    outer loop
      vertex 3.383204 2.700000 6.525329
      vertex 3.383204 6.000000 6.525329
      vertex 3.624671 2.700000 6.999235
    endloop
  endfacet
  facet normal 0.987688 0.000000 0.156435
    outer loop
      vertex 13.383204 2.700000 5.474671
      vertex 13.383204 6.000000 5.474671
      vertex 13.300000 6.000000 6.000000
    endloop
  endfacet
  facet normal 0.987688 0.000000 0.156435
    outer loop
      vertex 13.300000 2.700000 6.000000
      vertex 13.383204 2.700000 5.474671
      vertex 13.300000 6.000000 6.000000
    endloop
  endfacet
  facet normal 0.987688 0.000000 -0.156435
    outer loop
      vertex 13.300000 6.000000 6.000000
      vertex 13.383204 6.000000 6.525329
      vertex 13.383204 2.700000 6.525329
    endloop
  endfacet
  facet normal 0.987688 0.000000 -0.156435
    outer loop
      vertex 13.300000 2.700000 6.000000
      vertex 13.300000 6.000000 6.000000
      vertex 13.383204 2.700000 6.525329
    endloop
  endfacet
  facet normal 0.891007 0.000000 0.453990
    outer loop
      vertex 13.624671 2.700000 5.000765
      vertex 13.624671 6.000000 5.000765
      vertex 13.383204 6.000000 5.474671
    endloop
  endfacet
  facet normal 0.891007 0.000000 0.453990
    outer loop
      vertex 13.383204 2.700000 5.474671
      vertex 13.624671 2.700000 5.000765
      vertex 13.383204 6.000000 5.474671
    endloop
  endfacet
  facet normal 0.707107 0.000000 0.707107
    outer loop
      vertex 14.000765 2.700000 4.624671
      vertex 14.000765 6.000000 4.624671
      vertex 13.624671 6.000000 5.000765
    endloop
  endfacet
  facet normal 0.707107 0.000000 0.707107
    outer loop
      vertex 13.624671 2.700000 5.000765
      vertex 14.000765 2.700000 4.624671
      vertex 13.624671 6.000000 5.000765
    endloop
  endfacet
  facet normal 0.453990 0.000000 0.891007
    outer loop
      vertex 14.474671 2.700000 4.383204
      vertex 14.474671 6.000000 4.383204
      vertex 14.000765 6.000000 4.624671
    endloop
  endfacet
  facet normal 0.453990 0.000000 0.891007
    outer loop
      vertex 14.000765 2.700000 4.624671
      vertex 14.474671 2.700000 4.383204
      vertex 14.000765 6.000000 4.624671
    endloop
  endfacet
  facet normal 0.156435 0.000000 0.987688
    outer loop
      vertex 15.000000 2.700000 4.300000
      vertex 15.000000 6.000000 4.300000
      vertex 14.474671 6.000000 4.383204
    endloop
  endfacet
  facet normal 0.156435 0.000000 0.987688
    outer loop
      vertex 14.474671 2.700000 4.383204
      vertex 15.000000 2.700000 4.300000
      vertex 14.474671 6.000000 4.383204
    endloop
  endfacet
  facet normal -0.156435 0.000000 0.987688
    outer loop
      vertex 15.525329 2.700000 4.383204
      vertex 15.525329 6.000000 4.383204
      vertex 15.000000 6.000000 4.300000
    endloop
  endfacet
  facet normal -0.156435 0.000000 0.987688
    outer loop
      vertex 15.000000 2.700000 4.300000
      vertex 15.525329 2.700000 4.383204
      vertex 15.000000 6.000000 4.300000
    endloop
  endfacet
  facet normal -0.453990 0.000000 0.891007
    outer loop
      vertex 15.999235 2.700000 4.624671
      vertex 15.999235 6.000000 4.624671
      vertex 15.525329 6.000000 4.383204
    endloop
  endfacet
  facet normal -0.453990 0.000000 0.891007
    outer loop
      vertex 15.525329 2.700000 4.383204
      vertex 15.999235 2.700000 4.624671
      vertex 15.525329 6.000000 4.383204
    endloop
  endfacet
  facet normal -0.707107 0.000000 0.707107
    outer loop
      vertex 16.375329 6.000000 5.000765
      vertex 15.999235 6.000000 4.624671
      vertex 16.375329 2.700000 5.000765
    endloop
  endfacet
  facet normal -0.707107 0.000000 0.707107
    outer loop
      vertex 16.375329 2.700000 5.000765
      vertex 15.999235 6.000000 4.624671
      vertex 15.999235 2.700000 4.624671
    endloop
  endfacet
  facet normal -0.891007 0.000000 0.453990
    outer loop
      vertex 16.616796 6.000000 5.474671
      vertex 16.375329 6.000000 5.000765
      vertex 16.616796 2.700000 5.474671
    endloop
  endfacet
  facet normal -0.891007 0.000000 0.453990
    outer loop
      vertex 16.616796 2.700000 5.474671
      vertex 16.375329 6.000000 5.000765
      vertex 16.375329 2.700000 5.000765
    endloop
  endfacet
  facet normal -0.987688 0.000000 0.156435
    outer loop
      vertex 16.700000 6.000000 6.000000
      vertex 16.616796 6.000000 5.474671
      vertex 16.700000 2.700000 6.000000
    endloop
  endfacet
  facet normal -0.987688 0.000000 0.156435
    outer loop
      vertex 16.700000 2.700000 6.000000
      vertex 16.616796 6.000000 5.474671
      vertex 16.616796 2.700000 5.474671
    endloop
  endfacet
  facet normal -0.987688 0.000000 -0.156435
    outer loop
      vertex 16.700000 6.000000 6.000000
      vertex 16.700000 2.700000 6.000000
      vertex 16.616796 6.000000 6.525329
    endloop
  endfacet
  facet normal -0.987688 0.000000 -0.156435
    outer loop
      vertex 16.616796 6.000000 6.525329
      vertex 16.700000 2.700000 6.000000
      vertex 16.616796 2.700000 6.525329
    endloop
  endfacet
  facet normal -0.891007 0.000000 -0.453990
    outer loop
      vertex 16.616796 6.000000 6.525329
      vertex 16.616796 2.700000 6.525329
      vertex 16.375329 6.000000 6.999235
    endloop
  endfacet
  facet normal -0.891007 -0.000000 -0.453990
    outer loop
      vertex 16.375329 6.000000 6.999235
      vertex 16.616796 2.700000 6.525329
      vertex 16.375329 2.700000 6.999235
    endloop
  endfacet
  facet normal -0.707107 -0.000000 -0.707107
    outer loop
      vertex 16.375329 6.000000 6.999235
      vertex 16.375329 2.700000 6.999235
      vertex 15.999235 6.000000 7.375329
    endloop
  endfacet
  facet normal -0.707107 -0.000000 -0.707107
    outer loop
      vertex 15.999235 6.000000 7.375329
      vertex 16.375329 2.700000 6.999235
      vertex 15.999235 2.700000 7.375329
    endloop
  endfacet
  facet normal -0.453990 -0.000000 -0.891007
    outer loop
      vertex 15.999235 6.000000 7.375329
      vertex 15.999235 2.700000 7.375329
      vertex 15.525329 6.000000 7.616796
    endloop
  endfacet
  facet normal -0.453990 0.000000 -0.891007
    outer loop
      vertex 15.525329 6.000000 7.616796
      vertex 15.999235 2.700000 7.375329
      vertex 15.525329 2.700000 7.616796
    endloop
  endfacet
  facet normal -0.156435 0.000000 -0.987688
    outer loop
      vertex 15.525329 6.000000 7.616796
      vertex 15.525329 2.700000 7.616796
      vertex 15.000000 6.000000 7.700000
    endloop
  endfacet
  facet normal -0.156435 0.000000 -0.987688
    outer loop
      vertex 15.000000 6.000000 7.700000
      vertex 15.525329 2.700000 7.616796
      vertex 15.000000 2.700000 7.700000
    endloop
  endfacet
  facet normal 0.156435 0.000000 -0.987688
    outer loop
      vertex 15.000000 6.000000 7.700000
      vertex 15.000000 2.700000 7.700000
      vertex 14.474671 6.000000 7.616796
    endloop
  endfacet
  facet normal 0.156435 0.000000 -0.987688
    outer loop
      vertex 14.474671 6.000000 7.616796
      vertex 15.000000 2.700000 7.700000
      vertex 14.474671 2.700000 7.616796
    endloop
  endfacet
  facet normal 0.453990 0.000000 -0.891007
    outer loop
      vertex 14.474671 6.000000 7.616796
      vertex 14.474671 2.700000 7.616796
      vertex 14.000765 6.000000 7.375329
    endloop
  endfacet
  facet normal 0.453990 -0.000000 -0.891007
    outer loop
      vertex 14.000765 6.000000 7.375329
      vertex 14.474671 2.700000 7.616796
      vertex 14.000765 2.700000 7.375329
    endloop
  endfacet
  facet normal 0.707107 -0.000000 -0.707107
    outer loop
      vertex 13.624671 6.000000 6.999235
      vertex 14.000765 6.000000 7.375329
      vertex 14.000765 2.700000 7.375329
    endloop
  endfacet
  facet normal 0.707107 -0.000000 -0.707107
    outer loop
      vertex 13.624671 2.700000 6.999235
      vertex 13.624671 6.000000 6.999235
      vertex 14.000765 2.700000 7.375329
    endloop
  endfacet
  facet normal 0.891007 -0.000000 -0.453990
    outer loop
      vertex 13.383204 6.000000 6.525329
      vertex 13.624671 6.000000 6.999235
      vertex 13.624671 2.700000 6.999235
    endloop
  endfacet
  facet normal 0.891007 0.000000 -0.453990
    outer loop
      vertex 13.383204 2.700000 6.525329
      vertex 13.383204 6.000000 6.525329
      vertex 13.624671 2.700000 6.999235
    endloop
  endfacet
endsolid OpenSCAD_Model
